<?xml version="1.0" standalone="no"?>
<!DOCTYPE svg PUBLIC "-//W3C//DTD SVG 1.1//EN" "http://www.w3.org/Graphics/SVG/1.1/DTD/svg11.dtd" >
<svg xmlns="http://www.w3.org/2000/svg">
<metadata></metadata>
<defs>
<font id="brezel_groteskitalic" horiz-adv-x="1400" >
<font-face units-per-em="2048" ascent="1536" descent="-512" />
<missing-glyph horiz-adv-x="512" />
<glyph unicode="&#xfb01;" horiz-adv-x="1032" d="M61 850l25 174h133q31 251 157.5 381.5t315.5 130.5q146 0 233 -60.5t87 -158.5q0 -57 -13 -96l-6 -13h-164q7 24 7 52q0 98 -140 98q-118 0 -186.5 -76t-93.5 -258h577l-143 -1024h-201l119 850h-375l-119 -850h-196l119 850h-136z" />
<glyph unicode="&#xfb02;" horiz-adv-x="1083" d="M61 852l25 172h133q13 116 45.5 206t75 147t97.5 93.5t110 51t115 14.5q55 -3 104 -15.5t70 -29.5l20 -16l6 41h201l-213 -1516h-201l178 1280q-60 78 -155 78q-59 0 -104 -24t-69.5 -53t-43 -81.5t-24 -79.5t-12.5 -77q-1 -4 -1 -6.5t-1 -6t-1 -6.5h221l-25 -172h-219 l-119 -852h-196l119 852h-136z" />
<glyph horiz-adv-x="0" />
<glyph horiz-adv-x="682" />
<glyph unicode=" "  horiz-adv-x="512" />
<glyph unicode="&#x09;" horiz-adv-x="512" />
<glyph unicode="&#xa0;" horiz-adv-x="512" />
<glyph unicode="!" horiz-adv-x="530" d="M61 131q0 54 41.5 94.5t94.5 40.5q57 0 101 -37.5t44 -93.5v-8q0 -63 -42.5 -102t-102.5 -39q-59 0 -97.5 44t-38.5 101zM127 387l145 1047h197l-145 -1047h-197z" />
<glyph unicode="&#x22;" horiz-adv-x="432" d="M102 1010v424h103v-424h-103zM330 1010v424h102v-424h-102z" />
<glyph unicode="#" horiz-adv-x="1249" d="M20 489v103h273l102 287h-237v102h272l162 453h110l-161 -453h340l161 453h111l-162 -453h238v-102h-273l-100 -287h238v-103h-275l-172 -489h-110l172 489h-340l-172 -489h-111l172 489h-238zM406 592h337l103 287h-340z" />
<glyph unicode="$" horiz-adv-x="1112" d="M51 254q0 94 39 156h193q-21 -46 -21 -115q0 -113 187 -125l63 465q-61 24 -101.5 43t-88 50.5t-75 65.5t-46.5 84t-19 111q0 187 121 302.5t318 121.5l18 121h106l-18 -125q143 -18 223 -87t80 -165l-29 -133h-192q16 43 16 88q0 89 -125 107l-57 -410q63 -27 105 -48.5 t88.5 -55.5t74 -70t46 -87.5t18.5 -113.5q0 -187 -114.5 -315t-334.5 -137l-20 -158h-107l23 160q-169 12 -270 83t-101 187zM397 1020q0 -58 35 -96t111 -72l51 369q-197 -18 -197 -201zM553 172q106 13 159.5 75.5t53.5 153.5q0 114 -154 191z" />
<glyph unicode="%" horiz-adv-x="1402" d="M51 870q0 76 23 207q59 336 295 336q110 0 170.5 -70.5t60.5 -199.5q0 -123 -15.5 -219t-51 -174t-99 -122t-153.5 -48q-125 0 -177.5 74.5t-52.5 215.5zM190 864q0 -63 23 -102t74 -39q46 0 80.5 38t53 101t27.5 131t9 140q0 70 -22.5 102.5t-72.5 32.5 q-75 0 -123.5 -106.5t-48.5 -297.5zM381 -23l557 1469l86 -35l-555 -1464zM803 268q0 83 22 209q59 336 295 336q110 0 171 -70.5t61 -199.5q0 -108 -12.5 -179t-41.5 -167q-34 -107 -94 -160t-172 -60q-124 0 -176.5 75.5t-52.5 215.5zM944 270q0 -76 20 -111.5t72 -35.5 q42 0 72.5 26.5t49 78t28.5 103.5t18 124q4 58 4 77q0 70 -22 103t-72 33q-76 0 -123 -111t-47 -287z" />
<glyph unicode="&#x26;" horiz-adv-x="1173" d="M20 313q0 123 71.5 238t195.5 190q-90 140 -90 297q0 160 106 267.5t283 107.5q139 0 236.5 -74t97.5 -194q0 -251 -355 -436q132 -216 199 -289q60 127 72 266h200q-38 -261 -131 -414q44 -41 79.5 -56t96.5 -15l-28 -201h-17q-21 0 -39.5 1.5t-37 6.5t-31 8t-30 12.5 t-25 13t-25.5 17t-22.5 17t-25.5 20t-24 19.5q-83 -77 -151 -106t-185 -29q-196 0 -308 94t-112 239zM231 344q0 -78 52.5 -125t152.5 -47q115 0 197 70q-114 111 -252 342q-150 -94 -150 -240zM406 1047q0 -105 67 -193q134 77 189 132.5t55 121.5q0 53 -36 84t-97 31 q-80 0 -129 -50.5t-49 -125.5z" />
<glyph unicode="'" horiz-adv-x="225" d="M123 1102v332h102v-332h-102z" />
<glyph unicode="(" horiz-adv-x="485" d="M41 334q0 136 25.5 279t63.5 259t86 223.5t90 179t79 118.5l39 55h102l-43 -57q-46 -69 -97.5 -170.5t-109.5 -243.5t-95.5 -313.5t-37.5 -329.5q0 -181 34 -369t71 -274l35 -80h-103l-2 4q-91 193 -123 475q-14 119 -14 244z" />
<glyph unicode=")" horiz-adv-x="526" d="M-41 -389l41 57q47 63 102.5 172.5t111 251t92 312t36.5 321.5q-1 183 -34.5 371t-69.5 272l-35 80h102l2 -4q91 -193 123 -475q14 -119 14 -244q0 -137 -26 -280.5t-63.5 -256.5t-87 -222.5t-89 -178.5t-76.5 -123l-41 -53h-102z" />
<glyph unicode="*" horiz-adv-x="622" d="M102 1067l164 94q-4 0 -8 4l-156 90l50 84l157 -92l4 -4v191h99v-181q0 -8 -2 -10l163 96l50 -84l-156 -90q-4 -4 -10 -4q1 -1 10 -4l156 -90l-50 -84l-163 94q2 0 2 -8v-180h-99v186l-161 -92z" />
<glyph unicode="+" horiz-adv-x="937" d="M41 612v103h377v379h102v-379h377v-103h-377v-374h-102v374h-377z" />
<glyph unicode="," horiz-adv-x="425" d="M-41 -295l176 508h127l-176 -508h-127z" />
<glyph unicode="-" horiz-adv-x="768" d="M61 518l25 184h600l-24 -184h-601z" />
<glyph unicode="." horiz-adv-x="481" d="M41 127q0 56 42 96.5t97 40.5q56 0 96.5 -41t40.5 -96t-40.5 -97t-96.5 -42q-60 0 -98 41q-41 38 -41 98z" />
<glyph unicode="/" horiz-adv-x="673" d="M0 0l543 1434h110l-542 -1434h-111z" />
<glyph unicode="0" horiz-adv-x="1067" d="M63 434q0 46 7 121q10 99 21 175.5t32 170t47.5 162.5t68.5 138t95 113t127 71.5t164 27.5q389 0 389 -508q0 -148 -35 -350q-52 -293 -173.5 -434t-340.5 -141q-201 0 -301.5 116t-100.5 338zM274 453q0 -140 48 -209.5t149 -69.5q121 0 194 101t109 311q35 205 35 350 q0 272 -191 283q-50 0 -93 -21.5t-74 -55.5t-57 -86.5t-42.5 -104.5t-30.5 -120.5t-22 -122.5t-16 -122q-9 -74 -9 -133z" />
<glyph unicode="1" horiz-adv-x="892" d="M-10 0l26 190h293l117 834h-301l25 170q169 0 251.5 43t118.5 156h178l-170 -1203h293l-26 -190h-805z" />
<glyph unicode="2" horiz-adv-x="976" d="M0 0l27 203l391 362q6 7 33 30t45 40l75 72l62 65q98 106 98 252q0 86 -52.5 140.5t-127.5 54.5q-94 0 -139 -45t-45 -123l4 -37h-185q-14 38 -14 80q0 138 105.5 228.5t273.5 90.5q166 0 280.5 -112t114.5 -277q0 -79 -19 -146t-63.5 -133.5t-98 -123.5t-140.5 -138 l-318 -293h537l-27 -190h-817z" />
<glyph unicode="3" horiz-adv-x="940" d="M10 262q0 66 25 129l8 19h199q-21 -46 -21 -109q0 -61 47.5 -94t132.5 -33q98 0 162 78t64 225q0 201 -174 201l-107 -23l-106 179l378 368h-432l29 191h705l-29 -191l-377 -362q42 0 83.5 -9t86 -33t78 -61t55 -99.5t21.5 -141.5q0 -249 -118.5 -382.5t-336.5 -133.5 q-97 0 -181 33t-138 98.5t-54 150.5z" />
<glyph unicode="4" horiz-adv-x="983" d="M0 338l27 190l587 865h291l-123 -865h140l-27 -190h-139l-47 -338h-193l47 338h-563zM246 528h344l92 652h-4z" />
<glyph unicode="5" horiz-adv-x="966" d="M10 262q0 69 27 131l10 17h195q-25 -45 -25 -107t49 -95.5t135 -33.5q121 0 192 84.5t71 247.5q0 104 -52 158.5t-145 54.5q-82 0 -150 -35l-22 -12l-150 170l144 551h637l-29 -191h-453l-86 -330q61 37 150 37q158 0 262 -101t104 -280q0 -250 -133.5 -399t-345.5 -149 q-168 0 -276.5 76t-108.5 206z" />
<glyph unicode="6" horiz-adv-x="1015" d="M61 428q0 288 71 511t205 348.5t310 125.5q140 0 229 -75.5t89 -180.5q0 -55 -27 -117l-8 -16h-182q20 44 20 92q0 50 -36.5 78.5t-104.5 28.5q-231 0 -301 -420l24 24q22 22 83.5 45t127.5 23q159 0 252.5 -109t93.5 -276q0 -233 -127 -381.5t-331 -148.5q-95 1 -170 37 t-122 98t-71.5 141.5t-24.5 171.5zM268 406q0 -100 49 -166t142 -66q72 0 128 47t83.5 117.5t27.5 148.5q0 104 -40 166t-121 62q-129 0 -199 -89t-70 -220z" />
<glyph unicode="7" horiz-adv-x="894" d="M92 1188l29 205h835l-28 -195q-145 -157 -235.5 -278t-159 -261.5t-107.5 -292.5t-68 -366h-241q51 354 178.5 627.5t388.5 560.5h-592z" />
<glyph unicode="8" horiz-adv-x="1013" d="M20 324q0 172 90.5 288t223.5 160q-84 46 -126 104.5t-42 151.5q0 165 111.5 275t312.5 110q164 0 268.5 -91.5t104.5 -219.5q0 -259 -256 -348q204 -101 204 -310q0 -220 -130 -342t-345 -122q-182 0 -299 90.5t-117 253.5zM238 360q0 -90 53.5 -138t146.5 -48 q117 0 190.5 68t73.5 194q0 92 -51 147.5t-145 69.5q-128 -17 -198 -93.5t-70 -199.5zM369 1032q0 -138 163 -178q222 50 222 225q0 65 -48.5 105.5t-121.5 40.5q-90 0 -152.5 -53.5t-62.5 -139.5z" />
<glyph unicode="9" horiz-adv-x="991" d="M61 229q0 63 21 123l8 15h191q-19 -55 -19 -99q0 -96 139 -96q126 0 197 96.5t107 327.5l-9 -10q-9 -10 -31 -26t-52 -31t-78 -26t-103 -11q-165 0 -252.5 97.5t-87.5 270.5q0 159 52 282.5t159.5 197t257.5 73.5q183 0 281 -117t98 -338q0 -236 -30.5 -414t-94.5 -306 t-168.5 -193t-247.5 -65q-159 0 -248.5 71t-89.5 178zM297 893q0 -217 172 -217q142 0 209 89.5t67 240.5q0 96 -47 154.5t-135 58.5q-135 0 -200.5 -86.5t-65.5 -239.5z" />
<glyph unicode=":" horiz-adv-x="466" d="M20 137q0 60 44.5 104t105.5 44q60 0 103.5 -44t43.5 -104q0 -61 -43.5 -105t-103.5 -44q-64 0 -107 43t-43 106zM109 889q0 60 44 103.5t105 43.5q60 0 104 -43.5t44 -103.5q0 -61 -44 -105.5t-104 -44.5q-63 0 -106 43t-43 107z" />
<glyph unicode=";" horiz-adv-x="475" d="M-20 -295l176 508h127l-177 -508h-126zM117 889q0 60 44 103.5t105 43.5q60 0 104 -43.5t44 -103.5q0 -61 -44 -105.5t-104 -44.5q-63 0 -106 43t-43 107z" />
<glyph unicode="&#x3c;" horiz-adv-x="1026" d="M143 590v123l734 358v-131l-598 -289l604 -293v-131z" />
<glyph unicode="=" horiz-adv-x="1163" d="M164 487v103h835v-103h-835zM164 752v102h835v-102h-835z" />
<glyph unicode="&#x3e;" horiz-adv-x="1026" d="M143 227v131l605 293l-598 289v131l733 -358v-123z" />
<glyph unicode="?" horiz-adv-x="915" d="M82 1071q0 165 118.5 274t299.5 109q186 0 290.5 -92t104.5 -256q-10 -125 -56 -199.5t-180 -189.5l-69 -60q-66 -56 -87.5 -104t-39.5 -164h-193q21 147 49.5 213.5t110.5 145.5l68 65q196 175 196 279q0 79 -53 125.5t-141 46.5q-101 0 -162.5 -55t-61.5 -160l5 -58 h-187q-12 24 -12 80zM201 131q0 54 41 94.5t94 40.5q56 0 100.5 -37t44.5 -92v-10q0 -63 -42.5 -102t-102.5 -39q-59 0 -97 44t-38 101z" />
<glyph unicode="@" horiz-adv-x="1581" d="M41 645q0 153 59 292.5t159 240t239 160t293 59.5q156 0 294 -53.5t238 -147t158.5 -226t58.5 -284.5q0 -87 -14.5 -158.5t-38 -120t-56.5 -85t-66.5 -56.5t-72.5 -32.5t-69 -16.5t-62 -4q-119 0 -162 100l-4 13q-4 -5 -11 -14t-33 -31.5t-57 -40t-83 -31.5t-111 -14 q-156 0 -244.5 110.5t-88.5 292.5q0 106 36 201t94 159.5t131 102t146 37.5t131 -21.5t74 -44.5l16 -22l6 59h162l-57 -551q-4 -29 -4 -74q0 -55 16.5 -77.5t55.5 -22.5q30 0 57 4.5t65 25t65 55t46.5 101t19.5 156.5q0 267 -177.5 437.5t-458.5 170.5q-181 0 -327.5 -86.5 t-228 -235t-81.5 -327.5q0 -176 84.5 -325t231 -235.5t321.5 -86.5q225 0 370 86l47 -90q-168 -98 -417 -98q-154 0 -293 58.5t-239 158.5t-159 239t-59 293zM539 610q0 -262 182 -262q93 0 154 56t69 135l21 204q0 4 1 13.5t1 13.5q0 77 -44 126.5t-135 49.5 q-110 0 -179.5 -100.5t-69.5 -235.5z" />
<glyph unicode="A" horiz-adv-x="1306" d="M-61 0l712 1434h242l311 -1434h-235l-68 350h-553l-166 -350h-243zM436 539h428l-123 641z" />
<glyph unicode="B" horiz-adv-x="1198" d="M41 0l201 1434h454q215 0 328 -89t113 -235q0 -128 -64.5 -221t-165.5 -137q81 -30 130.5 -107t49.5 -180q0 -465 -546 -465h-500zM287 190h264q154 0 229.5 70.5t75.5 196.5q0 86 -59 137t-181 51h-266zM377 834h250q276 0 276 241q0 81 -52 124.5t-144 43.5h-273z" />
<glyph unicode="C" horiz-adv-x="1249" d="M61 551q0 133 32 263t96.5 245t153 203.5t210.5 140t260 51.5q180 0 293 -91t113 -224q0 -71 -25 -148l-8 -20h-201q14 43 14 110q0 87 -50 127.5t-158 40.5q-139 0 -255 -90t-182.5 -246t-66.5 -344q0 -183 86.5 -281t240.5 -98q145 0 218 63t73 181l-6 62h203 q14 -35 14 -97q0 -83 -32 -157.5t-91.5 -133.5t-154.5 -93.5t-213 -34.5q-268 0 -416 150.5t-148 420.5z" />
<glyph unicode="D" horiz-adv-x="1292" d="M41 0l201 1434h442q251 0 404 -165t153 -454q0 -135 -26.5 -255t-82.5 -223t-137.5 -177.5t-198 -117t-257.5 -42.5h-498zM287 197h223q103 0 190 33t158.5 102.5t112.5 191.5t41 287q0 426 -344 426h-234z" />
<glyph unicode="E" horiz-adv-x="1060" d="M41 0l201 1434h819l-27 -197h-600l-57 -410h559l-29 -196h-559l-61 -434h600l-27 -197h-819z" />
<glyph unicode="F" horiz-adv-x="1019" d="M41 0l201 1434h819l-27 -197h-600l-61 -430h538l-26 -197h-539l-86 -610h-219z" />
<glyph unicode="G" horiz-adv-x="1286" d="M61 555q0 132 29 259.5t90.5 243.5t149 204t214 140t275.5 52q180 0 298 -94t118 -223q0 -69 -25 -146l-8 -20h-201q15 47 15 100q0 85 -57 131.5t-162 46.5q-143 0 -258.5 -91t-179.5 -247.5t-64 -347.5q0 -189 84 -285t242 -96q160 0 248.5 103.5t115.5 275.5h-342 l27 193h530l-106 -754h-176l20 139q-129 -159 -336 -159q-252 0 -396.5 153t-144.5 422z" />
<glyph unicode="H" horiz-adv-x="1320" d="M41 0l201 1434h227l-84 -611h584l84 611h227l-201 -1434h-227l88 621h-584l-88 -621h-227z" />
<glyph unicode="I" horiz-adv-x="555" d="M61 0l201 1434h232l-201 -1434h-232z" />
<glyph unicode="J" horiz-adv-x="870" d="M-41 211q0 88 41 162h197q-29 -69 -29 -113q0 -42 32.5 -67t94.5 -25q80 0 121.5 63.5t64.5 221.5l137 981h222l-138 -988q-17 -120 -45.5 -204t-76 -144.5t-118.5 -89t-169 -28.5q-162 0 -248 68.5t-86 162.5z" />
<glyph unicode="K" horiz-adv-x="1206" d="M41 0l201 1434h219l-84 -596l584 596h286l-688 -684l528 -750h-294l-443 641l-90 -641h-219z" />
<glyph unicode="L" horiz-adv-x="933" d="M41 0l201 1434h229l-172 -1229h573l-28 -205h-803z" />
<glyph unicode="M" horiz-adv-x="1703" d="M41 0l201 1434h356l188 -1153l527 1153h350l-201 -1434h-227l137 981l41 236l-557 -1207h-203l-223 1207q-9 -124 -24 -236l-138 -981h-227z" />
<glyph unicode="N" horiz-adv-x="1343" d="M41 0l201 1434h268l426 -1088l151 1088h216l-201 -1434h-258l-434 1108l-156 -1108h-213z" />
<glyph unicode="O" d="M61 571q0 129 26 252.5t84 238.5t141 201.5t206 138.5t270 52q111 0 203.5 -37.5t155.5 -100t107 -146.5t64.5 -175.5t20.5 -187.5q0 -125 -25.5 -242t-82 -224t-138 -187t-203 -127t-267.5 -47q-176 0 -305 78t-193 210.5t-64 302.5zM291 582q0 -86 19 -156t58.5 -125.5 t106 -86t156.5 -30.5q93 0 169 27.5t127 76t88 108.5t57 132.5t29 140t9 138.5q0 70 -10 131.5t-34 119.5t-60.5 99.5t-94.5 66.5t-131 25q-87 0 -161 -30.5t-126 -83t-92 -119t-63.5 -142.5t-35 -149t-11.5 -143z" />
<glyph unicode="P" horiz-adv-x="1130" d="M41 0l201 1434h454q199 0 316.5 -107t117.5 -262q0 -93 -29.5 -175.5t-87.5 -148.5t-154 -104.5t-218 -38.5h-297l-84 -598h-219zM371 788h260q128 0 198 69t70 194q0 92 -59.5 142t-165.5 50h-240z" />
<glyph unicode="Q" d="M61 571q0 129 26 252.5t84 238.5t141 201.5t206 138.5t270 52q111 0 203.5 -37.5t155.5 -100t107 -146.5t64.5 -175.5t20.5 -187.5q0 -196 -61.5 -365t-177.5 -280l90 -105l-154 -131l-102 119q-145 -65 -311 -65q-176 0 -305 78t-193 210.5t-64 302.5zM291 582 q0 -86 19 -156t58.5 -125.5t106 -86t156.5 -30.5q89 0 162 25l-109 129l154 131l125 -145q147 170 147 483q0 70 -10 131.5t-34 119.5t-60.5 99.5t-94.5 66.5t-131 25q-87 0 -161 -30.5t-126 -83t-92 -119t-63.5 -142.5t-35 -149t-11.5 -143z" />
<glyph unicode="R" horiz-adv-x="1161" d="M41 0l201 1434h454q199 0 316.5 -103t117.5 -256q0 -142 -98 -266t-246 -162l209 -647h-245l-193 618h-211l-86 -618h-219zM375 809h248q130 0 204 64.5t74 185.5q0 184 -227 184h-240z" />
<glyph unicode="S" horiz-adv-x="1093" d="M10 305q0 108 43 172h215q-26 -48 -26 -129q0 -79 66 -123.5t188 -44.5q123 0 197.5 67t74.5 163q0 57 -34.5 98.5t-89.5 67.5t-121 49.5t-132.5 52.5t-121.5 68t-89.5 105.5t-34.5 154.5q0 196 136.5 322t351.5 126q189 0 304.5 -86t115.5 -223q0 -45 -10 -87.5 t-23 -62.5l-10 -20h-211q28 48 28 123q0 78 -53.5 121t-140.5 43q-116 0 -187 -61.5t-71 -160.5q0 -41 21.5 -73t57.5 -54.5t82.5 -42.5t98 -39t103 -41t98 -53.5t82.5 -70.5t57.5 -97t21.5 -129q0 -76 -19 -143.5t-60.5 -125.5t-102 -100.5t-147.5 -66.5t-193 -24 q-202 0 -333.5 90.5t-131.5 234.5z" />
<glyph unicode="T" horiz-adv-x="1036" d="M61 1233l27 201h1010l-27 -201h-371l-174 -1233h-219l174 1233h-420z" />
<glyph unicode="U" horiz-adv-x="1282" d="M72 401q0 58 8 107l129 926h229l-131 -936q-6 -38 -6 -72q0 -115 71.5 -177.5t184.5 -62.5q131 0 223.5 78.5t114.5 233.5l131 936h225l-129 -926q-74 -528 -565 -528q-245 0 -365 110t-120 311z" />
<glyph unicode="V" horiz-adv-x="1218" d="M92 1434h244l196 -1145l517 1145h251l-682 -1434h-245z" />
<glyph unicode="W" horiz-adv-x="1783" d="M82 1434h244l120 -1100q3 -15 3 -37q0 12 14 37l401 1100h234l94 -1100q2 -10 2 -37q0 12 14 37l428 1100h250l-602 -1434h-248l-104 1024v25l-12 -25l-385 -1024h-252z" />
<glyph unicode="X" horiz-adv-x="1187" d="M-102 0l563 737l-334 697h252l227 -510l371 510h272l-528 -697l356 -737h-266l-256 553l-403 -553h-254z" />
<glyph unicode="Y" horiz-adv-x="1042" d="M51 1434h246l225 -637l402 637h262l-576 -854l-82 -580h-221l82 580z" />
<glyph unicode="Z" horiz-adv-x="1062" d="M-51 0l26 190l834 1043h-659l26 201h928l-27 -191l-839 -1042h696l-29 -201h-956z" />
<glyph unicode="[" horiz-adv-x="559" d="M20 -410l261 1858h278l-12 -92h-176l-236 -1675h176l-12 -91h-279z" />
<glyph unicode="\" horiz-adv-x="673" d="M20 1434h111l543 -1434h-111z" />
<glyph unicode="]" horiz-adv-x="559" d="M-41 -410l12 91h176l236 1675h-176l12 92h279l-260 -1858h-279z" />
<glyph unicode="^" horiz-adv-x="983" d="M20 649l431 785h81l431 -785h-117l-354 664l-355 -664h-117z" />
<glyph unicode="_" horiz-adv-x="1150" d="M61 -23h1029v-108h-1029v108z" />
<glyph unicode="`" horiz-adv-x="577" d="M51 1434h295l180 -269h-186z" />
<glyph unicode="a" horiz-adv-x="1058" d="M41 422q0 164 61 305t176.5 229t260.5 88q87 0 154.5 -29.5t101.5 -74.5h4l14 84h205l-146 -1024h-202l14 98h-6q-100 -118 -260 -118q-77 0 -144 27.5t-119.5 80t-83 139t-30.5 195.5zM252 438q0 -274 203 -274q60 0 110 21.5t83 58.5t57 81t36.5 94t18.5 92t6 81 q0 118 -53 193t-160 75q-98 0 -167.5 -60t-101.5 -153.5t-32 -208.5z" />
<glyph unicode="b" horiz-adv-x="1075" d="M41 0l213 1516h205l-84 -590q32 46 108 82t164 36q171 0 274 -125t103 -317q0 -172 -55.5 -311.5t-167.5 -225t-264 -85.5q-97 0 -174.5 40.5t-104.5 92.5h-4l-16 -113h-197zM299 432q0 -118 53 -193t160 -75q96 0 165.5 60t102.5 154t33 208q0 274 -203 274 q-60 0 -110 -21.5t-83 -58.5t-57 -81t-36.5 -94t-18.5 -92t-6 -81z" />
<glyph unicode="c" horiz-adv-x="942" d="M41 391q0 123 34 238t97.5 208.5t167 150t231.5 56.5q145 0 242.5 -68t97.5 -179q0 -68 -26 -133l-11 -21h-182q17 56 17 98q0 60 -43 89.5t-109 29.5q-55 0 -101 -20t-78.5 -55t-57 -78t-38.5 -93t-21 -96.5t-7 -91.5q0 -258 215 -258q199 0 199 174l-4 49h180 q8 -24 8 -72q0 -169 -100.5 -254t-282.5 -85q-206 0 -317 109.5t-111 301.5z" />
<glyph unicode="d" horiz-adv-x="1062" d="M31 403q0 118 33 231t94 205t157 148.5t211 56.5q78 0 158.5 -34t112.5 -88l84 594h202l-213 -1516h-200l18 111h-6q-91 -131 -262 -131q-183 0 -286 115t-103 308zM242 430q0 -116 54 -191t155 -75q62 0 111.5 19t81.5 52.5t54.5 73.5t34 87.5t16.5 88t5 82.5 q0 131 -51.5 212t-155.5 81q-65 0 -117 -24t-83.5 -64.5t-53.5 -86t-32.5 -97.5t-14.5 -89t-4 -69z" />
<glyph unicode="e" horiz-adv-x="960" d="M41 401q0 98 19 189.5t60.5 174.5t101 144.5t146.5 98t191 36.5q166 0 263.5 -84.5t97.5 -224.5q0 -150 -110 -228.5t-298 -78.5q-130 0 -264 35q-2 -18 -2 -55q0 -120 50.5 -181t170.5 -61q97 0 147 40q48 38 48 89v6l-3 29h177q6 -21 6 -49q0 -126 -101.5 -213.5 t-273.5 -87.5q-200 0 -313 114t-113 307zM279 625q132 -27 227 -27h6q213 0 213 127q0 139 -180 139q-102 0 -173.5 -67t-92.5 -172z" />
<glyph unicode="f" horiz-adv-x="657" d="M61 850l25 174h135l21 141q52 371 338 371q103 0 172 -50.5t69 -135.5q0 -62 -22 -97l-8 -14h-158q18 24 18 55q0 66 -78 66q-55 0 -86 -42.5t-43 -129.5l-24 -164h225l-24 -174h-224l-118 -850h-201l119 850h-136z" />
<glyph unicode="g" horiz-adv-x="1071" d="M41 408q0 125 32.5 238t94 202.5t158.5 142.5t217 53q87 0 150 -32t91 -82h7l14 94h225l-131 -897q-44 -301 -157.5 -429t-323.5 -128q-172 0 -267.5 63.5t-95.5 178.5l23 114h182q-10 -23 -10 -69q0 -50 41 -80.5t123 -30.5q247 0 274 320l2 24h-8q-94 -110 -246 -110 q-186 0 -290.5 116.5t-104.5 311.5zM252 434q0 -118 56.5 -194t158.5 -76q60 0 111 29t84.5 73.5t57 99.5t34 106.5t10.5 94.5q0 131 -51.5 212t-155.5 81q-78 0 -136.5 -36t-89.5 -85.5t-50 -114t-24 -108.5t-5 -82z" />
<glyph unicode="h" horiz-adv-x="1046" d="M41 0l213 1516h205l-84 -596q35 48 106 86t146 38q164 0 250 -88t86 -245q0 -37 -7 -95l-86 -616h-202l82 586q6 47 6 84q0 190 -164 190q-101 0 -174.5 -70t-91.5 -200l-82 -590h-203z" />
<glyph unicode="i" horiz-adv-x="475" d="M41 0l143 1024h215l-143 -1024h-215zM172 1303q0 63 45 107t107 44t106.5 -45t44.5 -106q0 -62 -44 -107t-107 -45q-66 0 -109 43t-43 109z" />
<glyph unicode="j" horiz-adv-x="460" d="M-348 -242q0 67 20 103l6 12h168q-8 -21 -8 -59q0 -64 76 -64q62 0 89.5 50t47.5 198l144 1026h204l-137 -985q-28 -187 -69.5 -287t-106.5 -141t-174 -41q-119 0 -189.5 49.5t-70.5 138.5zM178 1303q0 63 45 107t107 44t106.5 -45t44.5 -106q0 -62 -44 -107t-107 -45 q-66 0 -109 43t-43 109z" />
<glyph unicode="k" horiz-adv-x="929" d="M41 0l213 1516h205l-121 -854l393 362h281l-514 -461l372 -563h-241l-320 469l-65 -469h-203z" />
<glyph unicode="l" horiz-adv-x="473" d="M41 0l213 1516h219l-213 -1516h-219z" />
<glyph unicode="m" horiz-adv-x="1572" d="M41 0l143 1024h203l-14 -109h4q94 129 246 129q81 0 148 -37t99 -102q121 139 287 139q160 0 247 -86t87 -251q0 -57 -8 -109l-84 -598h-201l80 571q8 74 8 99q0 94 -38 137t-115 43q-191 0 -232 -279l-80 -571h-200l79 571q9 83 9 99q0 180 -152 180q-193 0 -233 -279 l-80 -571h-203z" />
<glyph unicode="n" horiz-adv-x="1040" d="M41 0l143 1024h195l-14 -109h4q99 129 258 129q153 0 242 -91.5t89 -254.5q0 -32 -8 -102l-84 -596h-204l79 571q7 54 7 82q0 199 -173 199q-210 0 -251 -281l-80 -571h-203z" />
<glyph unicode="o" horiz-adv-x="1030" d="M41 397q0 99 20.5 192t63.5 176t104 145t148.5 98t191.5 36q126 0 220 -62t142 -166.5t48 -235.5q0 -126 -32.5 -234t-95.5 -190t-163 -129t-227 -47q-203 0 -311.5 115t-108.5 302zM254 422q0 -117 52 -187.5t159 -70.5q67 0 120.5 23.5t87.5 62t56.5 91.5t31.5 109 t9 117q0 126 -50.5 209.5t-156.5 83.5q-67 0 -121.5 -30.5t-88.5 -78t-57 -107.5t-32.5 -115.5t-9.5 -106.5z" />
<glyph unicode="p" horiz-adv-x="1069" d="M-20 -410l200 1434h195l-15 -109h7q108 129 266 129q176 0 280.5 -126t104.5 -320q0 -126 -33 -237.5t-93.5 -196.5t-154 -134.5t-207.5 -49.5q-96 0 -169 28t-105 74h-4l-70 -492h-202zM293 432q0 -118 53 -193t160 -75q96 0 165.5 60t102.5 154t33 208q0 274 -203 274 q-60 0 -110 -21.5t-83 -58.5t-57 -81t-36.5 -94t-18.5 -92t-6 -81z" />
<glyph unicode="q" horiz-adv-x="1067" d="M41 408q0 125 32.5 238t94 202.5t158.5 142.5t217 53q86 0 158.5 -38t103.5 -91h6l16 109h199l-201 -1434h-204l69 500h-6q-94 -110 -248 -110q-186 0 -290.5 116.5t-104.5 311.5zM252 434q0 -118 56.5 -194t158.5 -76q60 0 111 29t84.5 73.5t57 99.5t34 106.5t10.5 94.5 q0 131 -51.5 212t-155.5 81q-78 0 -136.5 -36t-89.5 -85.5t-50 -114t-24 -108.5t-5 -82z" />
<glyph unicode="r" horiz-adv-x="829" d="M20 0l144 1024h188l-14 -106h4q23 27 33 38t35 32.5t47 30.5t58.5 17t80.5 8q96 0 164.5 -60.5t68.5 -152.5q0 -66 -26 -147l-8 -20h-181q17 46 17 92q0 94 -94 94q-82 0 -151.5 -85.5t-92.5 -252.5l-72 -512h-201z" />
<glyph unicode="s" horiz-adv-x="911" d="M20 221q0 65 25 123l10 16h189q-19 -36 -19 -81q0 -119 197 -119q192 0 192 131q0 45 -27.5 77.5t-72 51t-98.5 33.5t-107.5 33t-98 42t-72 67.5t-27.5 102.5q0 155 104.5 250.5t276.5 95.5q146 0 252 -62.5t106 -166.5q0 -57 -27 -119l-8 -18h-176q12 30 12 78 q0 54 -44.5 86t-114.5 32q-88 0 -137.5 -36.5t-49.5 -102.5q0 -31 21.5 -54.5t57.5 -37.5t81.5 -29.5t92.5 -29.5t92.5 -39t81.5 -56t57.5 -82.5t21.5 -117.5q0 -145 -104 -228.5t-299 -83.5q-172 0 -280 67.5t-108 176.5z" />
<glyph unicode="t" horiz-adv-x="737" d="M51 850l25 174h153l39 266h197l-39 -266h281l-25 -174h-281l-82 -596q0 -43 23.5 -66.5t58.5 -23.5q46 0 73 24q24 22 24 59v9l-2 27h166q6 -27 6 -60q0 -112 -74.5 -177.5t-202.5 -65.5q-122 0 -195 60.5t-73 182.5q0 37 6 78l76 549h-154z" />
<glyph unicode="u" horiz-adv-x="1017" d="M53 303q0 43 6 92l88 629h201l-84 -604q-6 -30 -6 -58q0 -110 45.5 -150t136.5 -40q213 0 256 301l78 551h203l-143 -1024h-191l14 102h-4q-23 -27 -38.5 -42t-47.5 -37t-77.5 -32.5t-104.5 -10.5q-156 0 -244 84t-88 239z" />
<glyph unicode="v" horiz-adv-x="915" d="M51 1024h217l103 -752q6 -52 6 -75q2 10 14 36.5t17 38.5l309 752h229l-463 -1024h-256z" />
<glyph unicode="w" horiz-adv-x="1505" d="M72 1024h217l82 -807q-1 2 20 55l303 752h211l94 -752q5 -50 5 -51l2 4q0 1 7.5 17t12.5 30l285 752h235l-436 -1024h-244l-100 745l-307 -745h-238z" />
<glyph unicode="x" horiz-adv-x="972" d="M-61 0l413 524l-262 500h221l160 -338l254 338h248l-402 -500l267 -524h-226l-159 367l-263 -367h-251z" />
<glyph unicode="y" horiz-adv-x="933" d="M-61 -334l24 172q27 -18 76 -18q79 0 124.5 41.5t102.5 152.5l21 41l-221 969h221l129 -692q2 -10 2 -25q0 2 10 25l322 692h225l-486 -981q-102 -205 -205.5 -302t-230.5 -97z" />
<glyph unicode="z" horiz-adv-x="901" d="M-20 0l24 172l592 674h-471l25 178h710l-24 -172l-594 -674h514l-25 -178h-751z" />
<glyph unicode="{" horiz-adv-x="792" d="M41 535l12 96q83 6 191 69q58 33 80.5 65.5t29.5 100.5l33 234q26 179 103 266.5t233 87.5q49 0 111 -12l-15 -105q-56 15 -98 15q-191 0 -225 -254l-31 -228q-18 -125 -71 -188t-189 -109q98 -39 137 -104.5t39 -157.5q0 -32 -8 -98l-33 -227q-6 -41 -6 -72 q0 -182 160 -182q47 0 102 14l-16 -104q-73 -13 -117 -13q-117 0 -177.5 71.5t-60.5 197.5q0 40 6 86l33 233q6 49 6 90q0 52 -17.5 93t-42.5 64.5t-58.5 40t-59.5 22.5t-51 8z" />
<glyph unicode="|" horiz-adv-x="389" d="M143 -332v1766h103v-1766h-103z" />
<glyph unicode="}" horiz-adv-x="833" d="M-41 -358l16 104q49 -14 99 -14q186 0 223 254l33 227q7 54 15.5 96t28 94.5t45.5 88t70 64t101 36.5q-174 40 -174 215q0 28 6 63l31 228q4 27 4 73q0 181 -156 181q-47 0 -102 -15l14 105q67 12 115 12q118 0 178.5 -71t60.5 -197q0 -40 -6 -86l-33 -234q-6 -40 -6 -65 q0 -47 44 -87t95 -60t91 -23l-13 -96q-80 -6 -190 -70q-84 -51 -111 -248l-32 -233q-26 -179 -102.5 -267t-231.5 -88q-43 0 -113 13z" />
<glyph unicode="~" horiz-adv-x="1013" d="M102 584q0 87 59 141.5t152 54.5q65 0 115 -25.5t113 -76.5q101 -82 168 -82q100 0 100 104l-12 64h100q14 -32 14 -78q0 -87 -59 -142t-152 -55q-64 0 -112.5 24.5t-110.5 74.5q-112 86 -172 86q-100 0 -100 -105l12 -63h-100q-15 34 -15 78z" />
<glyph unicode="&#xa1;" horiz-adv-x="550" d="M51 -412l146 1047h196l-145 -1047h-197zM178 887q0 58 37.5 103.5t93.5 45.5h8q63 0 102.5 -42.5t39.5 -106.5q0 -56 -46 -93.5t-104 -37.5q-54 0 -92.5 38.5t-38.5 92.5z" />
<glyph unicode="&#xa2;" horiz-adv-x="1024" d="M82 391q0 165 56.5 307t167 236t255.5 108l27 185h102l-26 -187q127 -11 207.5 -76.5t80.5 -166.5q0 -68 -26 -133l-11 -21h-182q17 56 17 98q0 100 -113 115l-96 -688q168 12 168 174l-4 49h180q8 -24 8 -72q0 -168 -99 -252.5t-280 -86.5l-25 -183h-102l27 191 q-160 25 -246 130.5t-86 272.5zM295 426q0 -209 145 -250l95 676q-65 -15 -114.5 -64t-75 -114.5t-38 -128t-12.5 -119.5z" />
<glyph unicode="&#xa3;" horiz-adv-x="1130" d="M82 0l10 70l68 206l24 82q20 65 26.5 88.5t15 67t12.5 90.5h-121l18 123h111v27q1 14 -0.5 48t-1.5 52v88q0 232 121 351.5t346 119.5q91 0 171 -27.5t133.5 -87.5t53.5 -141q0 -32 -8 -66.5t-17 -50.5l-6 -16h-194q20 26 20 74q0 56 -46 90.5t-126 34.5 q-112 0 -170.5 -60t-58.5 -200v-127q0 -15 -4 -109h354l-18 -123h-349q-35 -249 -104 -409h576l-27 -195h-809z" />
<glyph unicode="&#xa4;" horiz-adv-x="1255" d="M51 86l215 213q-98 125 -98 287q0 164 100 288l-215 220l72 71l215 -219q125 101 289 101q162 0 284 -101l220 217l71 -71l-217 -218q103 -127 103 -288q0 -162 -101 -287l215 -215l-71 -72l-215 215q-120 -102 -289 -102q-162 0 -291 102l-215 -213zM268 586 q0 -149 106 -255t255 -106q150 0 254 106t104 255t-104.5 253.5t-253.5 104.5t-256 -104q-105 -105 -105 -254z" />
<glyph unicode="&#xa5;" horiz-adv-x="1173" d="M133 1393h232l225 -639l405 639h240l-502 -727h221l-14 -101h-276l-19 -123h277l-15 -100h-276l-47 -342h-195l47 342h-280l14 100h281l18 121h-281l15 103h223z" />
<glyph unicode="&#xa6;" horiz-adv-x="430" d="M164 -332v717h102v-717h-102zM164 778l102 656v-656h-102z" />
<glyph unicode="&#xa7;" horiz-adv-x="940" d="M41 211q0 70 33 117l10 16h180q-22 -28 -22 -76q0 -104 178 -104q83 0 135.5 32t52.5 101q0 36 -27.5 60.5t-72 39t-98 27t-107 29t-98 40.5t-72 67t-27.5 102q0 138 142 233l-23 19q-68 70 -69 169q0 149 113 239.5t280 90.5q87 0 166 -25.5t131.5 -79t52.5 -122.5 q0 -73 -43 -131l-172 2q21 27 21 71q0 101 -168 101q-84 0 -133.5 -33t-49.5 -84q0 -34 28 -57.5t72 -36.5t98 -25t108 -28.5t98 -40.5t72 -68t28 -104q0 -65 -41.5 -129t-101.5 -105l30 -24q20 -18 42 -64t22 -96q0 -88 -35 -157t-94 -111t-133.5 -64t-157.5 -22 q-60 0 -119 14t-110.5 41t-84.5 73t-34 103zM293 707q0 -20 11 -36.5t24.5 -26.5t44 -21t48.5 -16t60 -15l113 -27q76 64 76 142q0 39 -40.5 63t-146.5 53l-102 27l-25 -19q-19 -17 -41 -53.5t-22 -70.5z" />
<glyph unicode="&#xa8;" horiz-adv-x="753" d="M61 1319q0 55 41 95t95 40q55 0 95 -40t40 -95q0 -54 -40 -94.5t-95 -40.5q-54 0 -95 40.5t-41 94.5zM422 1319q0 55 40.5 95t94.5 40q55 0 95 -40t40 -95q0 -54 -40 -94.5t-95 -40.5q-54 0 -94.5 40.5t-40.5 94.5z" />
<glyph unicode="&#xa9;" horiz-adv-x="1679" d="M102 717q0 149 59.5 286t159 235.5t235.5 157t284 58.5q197 0 367 -100t270 -270t100 -367q0 -148 -58.5 -284t-157 -235.5t-235.5 -158.5t-286 -59q-150 0 -286.5 58.5t-235.5 157.5t-157.5 235t-58.5 286zM207 717q0 -128 50.5 -245.5t135 -202t202 -135t245.5 -50.5 q169 0 315 86t232 232t86 315t-86 315t-232 232t-315 86t-315 -86t-232 -232t-86 -315zM530 707q0 109 35.5 196t109.5 141t175 54q98 0 166.5 -49.5t68.5 -133.5l-8 -63h-96q4 16 4 29q0 120 -135 120q-58 0 -100.5 -27t-64.5 -72t-32 -94t-10 -103q0 -117 50 -191t153 -74 q66 0 105.5 33.5t39.5 97.5l-4 27h94q6 -9 6 -51q0 -96 -66 -149.5t-167 -53.5q-324 0 -324 363z" />
<glyph unicode="&#xaa;" horiz-adv-x="757" d="M82 1016q0 178 97 304t247 126q121 0 182 -76l13 64h137l-101 -703h-137l10 70h-4q-72 -84 -182 -84q-115 0 -188.5 84.5t-73.5 214.5zM233 1028q0 -182 138 -182q59 0 102.5 30t64.5 77t30.5 91t9.5 86q0 80 -36.5 133.5t-107.5 53.5q-93 0 -147 -85t-54 -204z" />
<glyph unicode="&#xab;" horiz-adv-x="825" d="M10 532l371 410h137l-373 -412l279 -409h-125zM287 532l370 410h138l-373 -412l278 -409h-125z" />
<glyph unicode="&#xac;" horiz-adv-x="935" d="M61 678v164h813v-543h-174v379h-639z" />
<glyph unicode="&#xad;" horiz-adv-x="768" d="M61 518l25 184h600l-24 -184h-601z" />
<glyph unicode="&#xae;" horiz-adv-x="1679" d="M102 717q0 149 59.5 286t159 235.5t235.5 157t284 58.5q197 0 367 -100t270 -270t100 -367q0 -148 -58.5 -284t-157 -235.5t-235.5 -158.5t-286 -59q-150 0 -286.5 58.5t-235.5 157.5t-157.5 235t-58.5 286zM207 717q0 -128 50.5 -245.5t135 -202t202 -135t245.5 -50.5 q169 0 315 86t232 232t86 315t-86 315t-232 232t-315 86t-315 -86t-232 -232t-86 -315zM608 350v740h217q279 0 279 -209q0 -146 -127 -193l149 -338h-141l-135 320h-119v-320h-123zM731 778h105h28q69 0 86 17l15 14q20 20 20 74q0 59 -39.5 78.5t-136.5 19.5h-78v-203z " />
<glyph unicode="&#xaf;" horiz-adv-x="759" d="M164 1434v122h579v-122h-579z" />
<glyph unicode="&#xb0;" horiz-adv-x="958" d="M164 1130q0 131 92.5 223.5t222.5 92.5q131 0 223.5 -93t92.5 -223t-92.5 -222.5t-223.5 -92.5t-223 92t-92 223zM266 1130q0 -89 62.5 -153t150.5 -64q86 0 148.5 64.5t62.5 152.5q0 89 -63 154.5t-148 65.5q-88 0 -151 -66q-62 -65 -62 -154z" />
<glyph unicode="&#xb1;" horiz-adv-x="1019" d="M82 0v102h856v-102h-856zM82 612v103h377v379h102v-379h377v-103h-377v-374h-102v374h-377z" />
<glyph unicode="&#xb2;" horiz-adv-x="733" d="M102 627l17 110l229 195q130 115 162.5 166t32.5 129q0 98 -101 98q-53 0 -81 -23t-25 -67l2 -33h-117q-8 13 -8 49q0 83 64 139t163 56q102 0 167 -49.5t65 -157.5q0 -89 -40 -167.5t-149 -172.5l-186 -151h309l-16 -121h-488z" />
<glyph unicode="&#xb3;" horiz-adv-x="669" d="M102 770q0 58 13 80l6 8h112q-10 -30 -10 -63q0 -68 86 -68q137 0 137 168q0 119 -98 119l-72 -13l-75 76l262 248h-260l14 109h412l-15 -109l-231 -217q85 0 134.5 -48.5t49.5 -152.5q0 -293 -266 -293q-87 0 -143 42t-56 114z" />
<glyph unicode="&#xb4;" horiz-adv-x="571" d="M51 1165l180 269h289l-289 -269h-180z" />
<glyph unicode="&#xb5;" horiz-adv-x="1009" d="M-61 -410l200 1434h207l-82 -582q-8 -47 -8 -104q0 -81 35.5 -127.5t126.5 -46.5q227 0 264 270l82 590h205l-144 -1024h-204l16 111h-2l-25 -30q-98 -101 -227 -101q-55 0 -100.5 14.5t-61.5 30.5l-16 16l-64 -451h-202z" />
<glyph unicode="&#xb6;" horiz-adv-x="935" d="M82 1153q0 122 87 201.5t222 79.5h524l-16 -123h-119l-205 -1450h-133l205 1450h-160l-204 -1450h-133l151 1069q-93 0 -156 64.5t-63 158.5z" />
<glyph unicode="&#xb7;" horiz-adv-x="481" d="M102 575q0 56 42.5 97t97.5 41t96 -41t41 -97q0 -55 -40.5 -97t-96.5 -42q-61 0 -99 41q-41 38 -41 98z" />
<glyph unicode="&#xb8;" horiz-adv-x="522" d="M0 -213l100 23q15 -74 111 -74q45 0 75.5 18t30.5 53q0 37 -23.5 51.5t-76.5 14.5q-33 0 -65 -8l-9 -4v76l4 2q4 2 12.5 4.5t19.5 5t29 4.5t38 2q172 0 172 -137q0 -71 -54.5 -115.5t-152.5 -44.5q-190 0 -211 129z" />
<glyph unicode="&#xb9;" horiz-adv-x="653" d="M102 627l17 110h170l67 482h-190l12 98q102 0 155.5 26t76.5 91h100l-96 -697h178l-17 -110h-473z" />
<glyph unicode="&#xba;" horiz-adv-x="765" d="M102 1001q0 120 41.5 220t126.5 162.5t197 62.5q130 0 204 -89.5t74 -230.5q0 -115 -39 -206t-122 -147t-199 -56q-136 0 -209.5 78t-73.5 206zM250 1024q0 -77 36 -124.5t107 -47.5q100 0 153.5 73t53.5 187q0 87 -35.5 143t-105.5 56q-52 0 -93.5 -27t-66 -70.5 t-37 -92.5t-12.5 -97z" />
<glyph unicode="&#xbb;" horiz-adv-x="907" d="M20 121l373 411l-278 410h125l288 -412l-370 -409h-138zM297 121l373 411l-279 410h125l289 -412l-371 -409h-137z" />
<glyph unicode="&#xbc;" horiz-adv-x="1454" d="M102 627l17 110h170l67 482h-190l12 98q102 0 155.5 26t76.5 91h100l-96 -697h178l-17 -110h-473zM449 -23l569 1506l78 -31l-568 -1501zM799 186l16 119l346 502h191l-70 -502h64l-17 -119h-63l-27 -186h-127l27 186h-340zM942 305h213l55 389z" />
<glyph unicode="&#xbd;" horiz-adv-x="1474" d="M102 627l17 110h170l67 482h-190l12 98q102 0 155.5 26t76.5 91h100l-96 -697h178l-17 -110h-473zM428 -23l569 1506l78 -31l-567 -1501zM803 0l16 111l230 194q90 80 130 126.5t52 80.5t12 88q0 98 -100 98q-53 0 -81.5 -23t-25.5 -67l2 -33h-116q-9 15 -9 50 q0 82 64.5 138t163.5 56q102 0 166.5 -49.5t64.5 -157.5q0 -89 -39.5 -167.5t-148.5 -172.5l-187 -151h310l-17 -121h-487z" />
<glyph unicode="&#xbe;" horiz-adv-x="1456" d="M102 770q0 58 13 80l6 8h112q-10 -30 -10 -63q0 -68 86 -68q137 0 137 168q0 119 -98 119l-72 -13l-75 76l262 248h-260l14 109h412l-15 -109l-231 -217q85 0 134.5 -48.5t49.5 -152.5q0 -293 -266 -293q-87 0 -143 42t-56 114zM428 -23l569 1506l78 -31l-567 -1501z M801 186l16 119l346 502h191l-70 -502h64l-17 -119h-63l-27 -186h-127l27 186h-340zM944 305h213l55 389z" />
<glyph unicode="&#xbf;" horiz-adv-x="919" d="M20 -117q0 122 44.5 204t121.5 155l144 125q65 56 88 106t41 162h192q-10 -65 -16.5 -100t-19.5 -75.5t-26 -63.5t-41 -57t-59.5 -63.5t-85.5 -76.5q-9 -8 -36 -31t-37.5 -33t-31 -31t-30 -37t-21 -39t-16 -48t-4.5 -54q0 -74 50 -120t135 -46q105 0 169 58.5t64 156.5 l-8 58h186q15 -24 15 -80q0 -164 -128.5 -273.5t-318.5 -109.5q-167 0 -269 83.5t-102 229.5zM426 909q0 54 41 94.5t94 40.5q57 0 101.5 -37.5t44.5 -93.5v-8q0 -63 -43 -102t-103 -39q-59 0 -97 44t-38 101z" />
<glyph unicode="&#xc0;" horiz-adv-x="1306" d="M-61 0l712 1434h242l311 -1434h-235l-68 350h-553l-166 -350h-243zM371 1829h295l180 -268h-187zM436 539h428l-123 641z" />
<glyph unicode="&#xc1;" horiz-adv-x="1306" d="M-61 0l712 1434h242l311 -1434h-235l-68 350h-553l-166 -350h-243zM436 539h428l-123 641zM666 1561l180 268h289l-289 -268h-180z" />
<glyph unicode="&#xc2;" horiz-adv-x="1306" d="M-61 0l712 1434h242l311 -1434h-235l-68 350h-553l-166 -350h-243zM436 539h428l-123 641zM457 1561l239 268h228l163 -268h-149l-147 118l-146 -118h-188z" />
<glyph unicode="&#xc3;" horiz-adv-x="1306" d="M-61 0l712 1434h242l311 -1434h-235l-68 350h-553l-166 -350h-243zM436 539h428l-123 641zM457 1561v43q0 101 52 158t136 57q36 0 140.5 -41t113.5 -41q64 0 64 65l-2 19h118q2 -14 2 -43q0 -101 -52 -158t-136 -57q-38 0 -143 41t-111 41q-64 0 -64 -66v-18h-118z" />
<glyph unicode="&#xc4;" horiz-adv-x="1306" d="M-61 0l712 1434h242l311 -1434h-235l-68 350h-553l-166 -350h-243zM414 1679q0 56 42 97t97 41t96 -41t41 -97q0 -55 -40.5 -97t-96.5 -42q-60 0 -98 41q-41 38 -41 98zM436 539h428l-123 641zM831 1679q0 56 42.5 97t97.5 41t96 -41t41 -97q0 -55 -40.5 -97t-96.5 -42 q-61 0 -99 41q-41 38 -41 98z" />
<glyph unicode="&#xc5;" horiz-adv-x="1306" d="M-61 0l712 1434h242l311 -1434h-235l-68 350h-553l-166 -350h-243zM436 539h428l-123 641zM569 1751q0 88 62.5 150.5t148.5 62.5q88 0 150.5 -62.5t62.5 -150.5q0 -86 -62.5 -148.5t-150.5 -62.5q-86 0 -148.5 62.5t-62.5 148.5zM672 1751q0 -45 32 -78t76 -33 q43 0 75 33.5t32 77.5t-32 78.5t-75 34.5q-44 0 -76 -33t-32 -80z" />
<glyph unicode="&#xc6;" horiz-adv-x="1646" d="M-61 0l852 1434h856l-27 -191h-498l-57 -416h457l-27 -190h-457l-63 -447h498l-27 -190h-717l49 348h-393l-207 -348h-239zM483 539h322l100 714z" />
<glyph unicode="&#xc7;" horiz-adv-x="1249" d="M61 551q0 133 32 263t96.5 245t153 203.5t210.5 140t260 51.5q180 0 293 -91t113 -224q0 -71 -25 -148l-8 -20h-201q14 43 14 110q0 87 -50 127.5t-158 40.5q-139 0 -255 -90t-182.5 -246t-66.5 -344q0 -183 86.5 -281t240.5 -98q145 0 218 63t73 181l-6 62h203 q14 -35 14 -97q0 -83 -32 -157.5t-91.5 -133.5t-154.5 -93.5t-213 -34.5q-268 0 -416 150.5t-148 420.5zM352 -233l101 22q15 -74 110 -74q45 0 76 18.5t31 53.5q0 37 -24 51.5t-77 14.5q-29 0 -65 -9l-8 -4v76l4 2q4 2 12 4.5t19 5t29 4.5t38 2q172 0 172 -137 q0 -71 -54 -115t-153 -44q-190 0 -211 129z" />
<glyph unicode="&#xc8;" horiz-adv-x="1060" d="M41 0l201 1434h819l-27 -197h-600l-57 -410h559l-29 -196h-559l-61 -434h600l-27 -197h-819zM336 1829h295l180 -268h-186z" />
<glyph unicode="&#xc9;" horiz-adv-x="1060" d="M41 0l201 1434h819l-27 -197h-600l-57 -410h559l-29 -196h-559l-61 -434h600l-27 -197h-819zM545 1561l180 268h289l-289 -268h-180z" />
<glyph unicode="&#xca;" horiz-adv-x="1060" d="M41 0l201 1434h819l-27 -197h-600l-57 -410h559l-29 -196h-559l-61 -434h600l-27 -197h-819zM336 1561l239 268h228l164 -268h-150l-147 118l-146 -118h-188z" />
<glyph unicode="&#xcb;" horiz-adv-x="1060" d="M41 0l201 1434h819l-27 -197h-600l-57 -410h559l-29 -196h-559l-61 -434h600l-27 -197h-819zM340 1700q0 56 42 96.5t97 40.5t96 -40.5t41 -96.5q0 -55 -40.5 -97t-96.5 -42q-60 0 -98 41q-41 38 -41 98zM709 1700q0 56 42 96.5t97 40.5q56 0 96.5 -40.5t40.5 -96.5 q0 -55 -40.5 -97t-96.5 -42q-60 0 -98 41q-41 38 -41 98z" />
<glyph unicode="&#xcc;" horiz-adv-x="548" d="M27 1829h295l180 -268h-187zM61 0l201 1434h232l-201 -1434h-232z" />
<glyph unicode="&#xcd;" horiz-adv-x="548" d="M61 0l201 1434h232l-201 -1434h-232zM297 1561l180 268h289l-289 -268h-180z" />
<glyph unicode="&#xce;" horiz-adv-x="548" d="M61 0l201 1434h232l-201 -1434h-232zM61 1561l232 268h235l164 -268h-149l-148 118l-145 -118h-189z" />
<glyph unicode="&#xcf;" horiz-adv-x="548" d="M61 0l201 1434h232l-201 -1434h-232zM76 1679q0 56 42 97t97 41t96 -41t41 -97q0 -55 -40.5 -97t-96.5 -42q-60 0 -98 41q-41 38 -41 98zM424 1679q0 56 42 97t97 41t96 -41t41 -97q0 -55 -40.5 -97t-96.5 -42q-60 0 -98 41q-41 38 -41 98z" />
<glyph unicode="&#xd0;" horiz-adv-x="1292" d="M0 633l27 184h129l86 617h442q251 0 404 -165t153 -454q0 -135 -26.5 -255t-82.5 -223t-137.5 -177.5t-198 -117t-257.5 -42.5h-498l88 633h-129zM287 197h223q103 0 190 33t158.5 102.5t112.5 191.5t41 287q0 426 -344 426h-234l-59 -420h334l-27 -184h-334z" />
<glyph unicode="&#xd1;" horiz-adv-x="1353" d="M51 0l201 1434h268l426 -1088l152 1088h215l-201 -1434h-258l-434 1108l-156 -1108h-213zM504 1561v43q0 101 52 158t136 57q36 0 140.5 -41t113.5 -41q64 0 64 65l-2 19h118q2 -14 2 -43q0 -101 -52 -158t-136 -57q-38 0 -143 41t-111 41q-63 0 -63 -66v-18h-119z" />
<glyph unicode="&#xd2;" d="M61 571q0 129 26 252.5t84 238.5t141 201.5t206 138.5t270 52q111 0 203.5 -37.5t155.5 -100t107 -146.5t64.5 -175.5t20.5 -187.5q0 -125 -25.5 -242t-82 -224t-138 -187t-203 -127t-267.5 -47q-176 0 -305 78t-193 210.5t-64 302.5zM291 582q0 -86 19 -156t58.5 -125.5 t106 -86t156.5 -30.5q93 0 169 27.5t127 76t88 108.5t57 132.5t29 140t9 138.5q0 70 -10 131.5t-34 119.5t-60.5 99.5t-94.5 66.5t-131 25q-87 0 -161 -30.5t-126 -83t-92 -119t-63.5 -142.5t-35 -149t-11.5 -143zM453 1829h295l180 -268h-187z" />
<glyph unicode="&#xd3;" d="M61 571q0 129 26 252.5t84 238.5t141 201.5t206 138.5t270 52q111 0 203.5 -37.5t155.5 -100t107 -146.5t64.5 -175.5t20.5 -187.5q0 -125 -25.5 -242t-82 -224t-138 -187t-203 -127t-267.5 -47q-176 0 -305 78t-193 210.5t-64 302.5zM291 582q0 -86 19 -156t58.5 -125.5 t106 -86t156.5 -30.5q93 0 169 27.5t127 76t88 108.5t57 132.5t29 140t9 138.5q0 70 -10 131.5t-34 119.5t-60.5 99.5t-94.5 66.5t-131 25q-87 0 -161 -30.5t-126 -83t-92 -119t-63.5 -142.5t-35 -149t-11.5 -143zM676 1561l180 268h289l-289 -268h-180z" />
<glyph unicode="&#xd4;" d="M61 571q0 129 26 252.5t84 238.5t141 201.5t206 138.5t270 52q111 0 203.5 -37.5t155.5 -100t107 -146.5t64.5 -175.5t20.5 -187.5q0 -125 -25.5 -242t-82 -224t-138 -187t-203 -127t-267.5 -47q-176 0 -305 78t-193 210.5t-64 302.5zM291 582q0 -86 19 -156t58.5 -125.5 t106 -86t156.5 -30.5q93 0 169 27.5t127 76t88 108.5t57 132.5t29 140t9 138.5q0 70 -10 131.5t-34 119.5t-60.5 99.5t-94.5 66.5t-131 25q-87 0 -161 -30.5t-126 -83t-92 -119t-63.5 -142.5t-35 -149t-11.5 -143zM485 1561l240 268h227l164 -268h-149l-148 118l-145 -118 h-189z" />
<glyph unicode="&#xd5;" d="M61 571q0 129 26 252.5t84 238.5t141 201.5t206 138.5t270 52q111 0 203.5 -37.5t155.5 -100t107 -146.5t64.5 -175.5t20.5 -187.5q0 -125 -25.5 -242t-82 -224t-138 -187t-203 -127t-267.5 -47q-176 0 -305 78t-193 210.5t-64 302.5zM291 582q0 -86 19 -156t58.5 -125.5 t106 -86t156.5 -30.5q93 0 169 27.5t127 76t88 108.5t57 132.5t29 140t9 138.5q0 70 -10 131.5t-34 119.5t-60.5 99.5t-94.5 66.5t-131 25q-87 0 -161 -30.5t-126 -83t-92 -119t-63.5 -142.5t-35 -149t-11.5 -143zM481 1561v43q0 100 52.5 157.5t136.5 57.5q36 0 140.5 -41 t113.5 -41q63 0 63 65l-2 19h119q2 -14 2 -43q0 -101 -52 -158t-136 -57q-38 0 -143 41t-111 41q-64 0 -64 -66v-18h-119z" />
<glyph unicode="&#xd6;" d="M61 571q0 129 26 252.5t84 238.5t141 201.5t206 138.5t270 52q111 0 203.5 -37.5t155.5 -100t107 -146.5t64.5 -175.5t20.5 -187.5q0 -125 -25.5 -242t-82 -224t-138 -187t-203 -127t-267.5 -47q-176 0 -305 78t-193 210.5t-64 302.5zM291 582q0 -86 19 -156t58.5 -125.5 t106 -86t156.5 -30.5q93 0 169 27.5t127 76t88 108.5t57 132.5t29 140t9 138.5q0 70 -10 131.5t-34 119.5t-60.5 99.5t-94.5 66.5t-131 25q-87 0 -161 -30.5t-126 -83t-92 -119t-63.5 -142.5t-35 -149t-11.5 -143zM506 1679q0 56 42 97t97 41t96 -41t41 -97q0 -55 -40.5 -97 t-96.5 -42q-60 0 -98 41q-41 38 -41 98zM874 1679q0 56 42.5 97t97.5 41t96 -41t41 -97q0 -55 -40.5 -97t-96.5 -42q-61 0 -99 41q-41 38 -41 98z" />
<glyph unicode="&#xd7;" horiz-adv-x="1017" d="M123 344l307 307l-307 310l78 77l309 -307l307 307l78 -80l-307 -307l305 -305l-78 -78l-305 305l-307 -307z" />
<glyph unicode="&#xd8;" d="M61 571q0 129 26 252.5t84 238.5t141 201.5t206 138.5t270 52q191 0 326 -108l98 124l113 -88l-113 -141q127 -180 127 -434q0 -125 -25.5 -242t-82 -224t-138 -187t-203 -127t-267.5 -47q-198 0 -338 96l-88 -111l-117 86l100 127q-119 155 -119 393zM291 582 q0 -132 39 -217l651 815q-78 69 -201 69q-87 0 -161 -30.5t-126 -83t-92 -119t-63.5 -142.5t-35 -149t-11.5 -143zM420 246q80 -62 211 -62q93 0 169 27.5t127 76t88 108.5t57 132.5t29 140t9 138.5q0 149 -43 250z" />
<glyph unicode="&#xd9;" horiz-adv-x="1282" d="M72 397q0 59 8 111l129 926h229l-131 -936q-6 -37 -6 -68q0 -121 70 -182.5t186 -61.5q131 0 223.5 78.5t114.5 233.5l131 936h225l-129 -926q-74 -528 -565 -528q-243 0 -364 109.5t-121 307.5zM383 1829h295l180 -268h-186z" />
<glyph unicode="&#xda;" horiz-adv-x="1282" d="M72 397q0 59 8 111l129 926h229l-131 -936q-6 -37 -6 -68q0 -121 70 -182.5t186 -61.5q131 0 223.5 78.5t114.5 233.5l131 936h225l-129 -926q-74 -528 -565 -528q-243 0 -364 109.5t-121 307.5zM590 1561l180 268h289l-289 -268h-180z" />
<glyph unicode="&#xdb;" horiz-adv-x="1282" d="M72 397q0 59 8 111l129 926h229l-131 -936q-6 -37 -6 -68q0 -121 70 -182.5t186 -61.5q131 0 223.5 78.5t114.5 233.5l131 936h225l-129 -926q-74 -528 -565 -528q-243 0 -364 109.5t-121 307.5zM424 1561l240 268h227l164 -268h-150l-147 118l-146 -118h-188z" />
<glyph unicode="&#xdc;" horiz-adv-x="1282" d="M72 397q0 59 8 111l129 926h229l-131 -936q-6 -37 -6 -68q0 -121 70 -182.5t186 -61.5q131 0 223.5 78.5t114.5 233.5l131 936h225l-129 -926q-74 -528 -565 -528q-243 0 -364 109.5t-121 307.5zM424 1679q0 56 42 97t97 41t96 -41t41 -97q0 -55 -40.5 -97t-96.5 -42 q-60 0 -98 41q-41 38 -41 98zM793 1679q0 56 42 97t97 41t96 -41t41 -97q0 -55 -40.5 -97t-96.5 -42q-60 0 -98 41q-41 38 -41 98z" />
<glyph unicode="&#xdd;" horiz-adv-x="1042" d="M51 1434h246l225 -637l402 637h262l-576 -854l-82 -580h-221l82 580zM502 1561l180 268h289l-289 -268h-180z" />
<glyph unicode="&#xde;" horiz-adv-x="1116" d="M41 0l201 1434h219l-37 -267h246q186 0 306 -94t120 -250q0 -220 -123.5 -344.5t-368.5 -124.5h-297l-47 -354h-219zM336 545h196q72 0 121.5 5t96 20.5t74 43.5t43.5 74t16 111q0 103 -69 141.5t-218 36.5l-199 -2z" />
<glyph unicode="&#xdf;" horiz-adv-x="1196" d="M41 850l25 174h135l16 113q27 188 138.5 293.5t295.5 105.5q166 0 265.5 -89.5t99.5 -238.5q0 -75 -13.5 -161t-29.5 -138l-15 -47q-66 4 -79 4q-185 0 -185 -135q0 -30 25.5 -54t66 -41.5t89.5 -36t98.5 -43t90 -56t66 -81.5t25.5 -114q0 -166 -104.5 -247t-288.5 -81 q-92 0 -171 26t-132 83t-53 135q0 89 34 141h176q-18 -30 -18 -86q0 -118 172 -118q186 0 186 133q0 39 -25 68t-65 47.5t-88 36t-96 38.5t-88 48t-65 72.5t-25 105.5q0 134 83.5 223t219.5 96q22 90 22 150q0 182 -182 182q-202 0 -229 -242l-158 -1116h-203l119 850h-135z " />
<glyph unicode="&#xe0;" horiz-adv-x="1058" d="M41 422q0 164 61 305t176.5 229t260.5 88q87 0 154.5 -29.5t101.5 -74.5h4l14 84h205l-146 -1024h-202l14 98h-6q-100 -118 -260 -118q-77 0 -144 27.5t-119.5 80t-83 139t-30.5 195.5zM217 1434h295l180 -269h-186zM252 438q0 -274 203 -274q60 0 110 21.5t83 58.5 t57 81t36.5 94t18.5 92t6 81q0 118 -53 193t-160 75q-98 0 -167.5 -60t-101.5 -153.5t-32 -208.5z" />
<glyph unicode="&#xe1;" horiz-adv-x="1058" d="M41 422q0 164 61 305t176.5 229t260.5 88q87 0 154.5 -29.5t101.5 -74.5h4l14 84h205l-146 -1024h-202l14 98h-6q-100 -118 -260 -118q-77 0 -144 27.5t-119.5 80t-83 139t-30.5 195.5zM252 438q0 -274 203 -274q60 0 110 21.5t83 58.5t57 81t36.5 94t18.5 92t6 81 q0 118 -53 193t-160 75q-98 0 -167.5 -60t-101.5 -153.5t-32 -208.5zM430 1165l180 269h289l-289 -269h-180z" />
<glyph unicode="&#xe2;" horiz-adv-x="1058" d="M41 422q0 164 61 305t176.5 229t260.5 88q87 0 154.5 -29.5t101.5 -74.5h4l14 84h205l-146 -1024h-202l14 98h-6q-100 -118 -260 -118q-77 0 -144 27.5t-119.5 80t-83 139t-30.5 195.5zM252 438q0 -274 203 -274q60 0 110 21.5t83 58.5t57 81t36.5 94t18.5 92t6 81 q0 118 -53 193t-160 75q-98 0 -167.5 -60t-101.5 -153.5t-32 -208.5zM268 1165l240 269h227l164 -269h-149l-148 119l-145 -119h-189z" />
<glyph unicode="&#xe3;" horiz-adv-x="1058" d="M41 422q0 164 61 305t176.5 229t260.5 88q87 0 154.5 -29.5t101.5 -74.5h4l14 84h205l-146 -1024h-202l14 98h-6q-100 -118 -260 -118q-77 0 -144 27.5t-119.5 80t-83 139t-30.5 195.5zM252 438q0 -274 203 -274q60 0 110 21.5t83 58.5t57 81t36.5 94t18.5 92t6 81 q0 118 -53 193t-160 75q-98 0 -167.5 -60t-101.5 -153.5t-32 -208.5zM266 1174v43q0 100 52.5 157.5t136.5 57.5q36 0 140.5 -41t113.5 -41q63 0 63 65l-2 19h119q2 -14 2 -43q0 -100 -52.5 -157.5t-136.5 -57.5q-38 0 -142.5 40.5t-110.5 40.5q-64 0 -64 -65v-18h-119z" />
<glyph unicode="&#xe4;" horiz-adv-x="1058" d="M41 422q0 164 61 305t176.5 229t260.5 88q87 0 154.5 -29.5t101.5 -74.5h4l14 84h205l-146 -1024h-202l14 98h-6q-100 -118 -260 -118q-77 0 -144 27.5t-119.5 80t-83 139t-30.5 195.5zM252 438q0 -274 203 -274q60 0 110 21.5t83 58.5t57 81t36.5 94t18.5 92t6 81 q0 118 -53 193t-160 75q-98 0 -167.5 -60t-101.5 -153.5t-32 -208.5zM297 1317q0 56 42 96.5t97 40.5q56 0 96.5 -41t40.5 -96t-40.5 -97t-96.5 -42q-60 0 -98 41q-41 38 -41 98zM666 1317q0 56 42 96.5t97 40.5t96 -41t41 -96t-40.5 -97t-96.5 -42q-60 0 -98 41 q-41 38 -41 98z" />
<glyph unicode="&#xe5;" horiz-adv-x="1058" d="M41 422q0 164 61 305t176.5 229t260.5 88q87 0 154.5 -29.5t101.5 -74.5h4l14 84h205l-146 -1024h-202l14 98h-6q-100 -118 -260 -118q-77 0 -144 27.5t-119.5 80t-83 139t-30.5 195.5zM252 438q0 -274 203 -274q60 0 110 21.5t83 58.5t57 81t36.5 94t18.5 92t6 81 q0 118 -53 193t-160 75q-98 0 -167.5 -60t-101.5 -153.5t-32 -208.5zM416 1350q0 88 62.5 150.5t148.5 62.5q88 0 150.5 -62.5t62.5 -150.5q0 -86 -62.5 -148.5t-150.5 -62.5q-86 0 -148.5 62.5t-62.5 148.5zM518 1350q0 -44 32.5 -77.5t76.5 -33.5q43 0 74.5 33.5 t31.5 77.5t-31.5 78t-74.5 34q-45 0 -77 -32.5t-32 -79.5z" />
<glyph unicode="&#xe6;" horiz-adv-x="1597" d="M31 236q0 163 107.5 247.5t312.5 108.5q141 17 201.5 56.5t60.5 109.5q0 57 -49.5 83.5t-124.5 26.5q-102 0 -159.5 -39t-57.5 -116l6 -54h-181q-10 38 -10 86q0 129 112.5 214t299.5 85q231 0 313 -131q134 131 334 131q166 0 263 -84.5t97 -224.5q0 -150 -109.5 -228.5 t-297.5 -78.5q-130 0 -264 35q-2 -20 -2 -60q0 -121 51.5 -179t169.5 -58q97 0 147 40t47 95l-2 29h174q9 -21 9 -49q0 -126 -101.5 -213.5t-273.5 -87.5q-118 0 -211 53t-143 147h-7q-54 -105 -146 -152.5t-241 -47.5t-237 69.5t-88 186.5zM231 266q0 -112 158 -112 q114 0 190.5 67.5t88.5 167.5l14 117h-4q-49 -62 -225 -82q-117 -15 -169.5 -52.5t-52.5 -105.5zM915 625q124 -27 238 -27q209 0 209 127q0 139 -180 139q-102 0 -174 -67t-93 -172z" />
<glyph unicode="&#xe7;" horiz-adv-x="942" d="M41 391q0 123 34 238t97.5 208.5t167 150t231.5 56.5q145 0 242.5 -68t97.5 -179q0 -68 -26 -133l-11 -21h-182q17 56 17 98q0 60 -43 89.5t-109 29.5q-55 0 -101 -20t-78.5 -55t-57 -78t-38.5 -93t-21 -96.5t-7 -91.5q0 -258 215 -258q199 0 199 174l-4 49h180 q8 -24 8 -72q0 -169 -100.5 -254t-282.5 -85q-206 0 -317 109.5t-111 301.5zM203 -213l100 23q15 -74 111 -74q45 0 75.5 18t30.5 53q0 37 -23.5 51.5t-76.5 14.5q-28 0 -68 -8l-6 -4v76l4 2q4 2 12.5 4.5t19.5 5t29 4.5t38 2q172 0 172 -137q0 -71 -54.5 -115.5 t-152.5 -44.5q-190 0 -211 129z" />
<glyph unicode="&#xe8;" horiz-adv-x="960" d="M41 401q0 98 19 189.5t60.5 174.5t101 144.5t146.5 98t191 36.5q166 0 263.5 -84.5t97.5 -224.5q0 -150 -110 -228.5t-298 -78.5q-130 0 -264 35q-2 -20 -2 -60q0 -121 51.5 -179t169.5 -58q97 0 147.5 40t47.5 95l-3 29h177q6 -21 6 -49q0 -126 -101.5 -213.5 t-273.5 -87.5q-200 0 -313 114t-113 307zM195 1434h294l181 -269h-187zM279 625q124 -27 237 -27q209 0 209 127q0 139 -180 139q-102 0 -173.5 -67t-92.5 -172z" />
<glyph unicode="&#xe9;" horiz-adv-x="960" d="M41 401q0 98 19 189.5t60.5 174.5t101 144.5t146.5 98t191 36.5q166 0 263.5 -84.5t97.5 -224.5q0 -150 -110 -228.5t-298 -78.5q-130 0 -264 35q-2 -20 -2 -60q0 -121 51.5 -179t169.5 -58q97 0 147.5 40t47.5 95l-3 29h177q6 -21 6 -49q0 -126 -101.5 -213.5 t-273.5 -87.5q-200 0 -313 114t-113 307zM279 625q124 -27 237 -27q209 0 209 127q0 139 -180 139q-102 0 -173.5 -67t-92.5 -172zM451 1165l180 269h289l-289 -269h-180z" />
<glyph unicode="&#xea;" horiz-adv-x="960" d="M41 401q0 98 19 189.5t60.5 174.5t101 144.5t146.5 98t191 36.5q166 0 263.5 -84.5t97.5 -224.5q0 -150 -110 -228.5t-298 -78.5q-130 0 -264 35q-2 -20 -2 -60q0 -121 51.5 -179t169.5 -58q97 0 147.5 40t47.5 95l-3 29h177q6 -21 6 -49q0 -126 -101.5 -213.5 t-273.5 -87.5q-200 0 -313 114t-113 307zM272 1165l240 269h227l164 -269h-149l-148 119l-145 -119h-189zM279 625q124 -27 237 -27q209 0 209 127q0 139 -180 139q-102 0 -173.5 -67t-92.5 -172z" />
<glyph unicode="&#xeb;" horiz-adv-x="960" d="M41 401q0 98 19 189.5t60.5 174.5t101 144.5t146.5 98t191 36.5q166 0 263.5 -84.5t97.5 -224.5q0 -150 -110 -228.5t-298 -78.5q-130 0 -264 35q-2 -20 -2 -60q0 -121 51.5 -179t169.5 -58q97 0 147.5 40t47.5 95l-3 29h177q6 -21 6 -49q0 -126 -101.5 -213.5 t-273.5 -87.5q-200 0 -313 114t-113 307zM254 1317q0 56 42 96.5t97 40.5t96 -41t41 -96t-40.5 -97t-96.5 -42q-60 0 -98 41q-41 38 -41 98zM279 625q124 -27 237 -27q209 0 209 127q0 139 -180 139q-102 0 -173.5 -67t-92.5 -172zM623 1317q0 56 42 96.5t97 40.5 q56 0 96.5 -41t40.5 -96t-40.5 -97t-96.5 -42q-60 0 -98 41q-41 38 -41 98z" />
<glyph unicode="&#xec;" horiz-adv-x="385" d="M-100 1434h295l180 -269h-187zM18 0l144 1024h205l-144 -1024h-205z" />
<glyph unicode="&#xed;" horiz-adv-x="385" d="M18 0l144 1024h205l-144 -1024h-205zM186 1165l181 269h288l-288 -269h-181z" />
<glyph unicode="&#xee;" horiz-adv-x="385" d="M-35 1165l240 269h227l164 -269h-150l-147 119l-145 -119h-189zM18 0l136 1024h213l-144 -1024h-205z" />
<glyph unicode="&#xef;" horiz-adv-x="385" d="M-16 1317q0 56 42 96.5t97 40.5t96 -41t41 -96t-40.5 -97t-96.5 -42q-60 0 -98 41q-41 38 -41 98zM18 0l144 1024h205l-144 -1024h-205zM332 1317q0 56 42 96.5t97 40.5t96 -41t41 -96t-40.5 -97t-96.5 -42q-60 0 -98 41q-41 38 -41 98z" />
<glyph unicode="&#xf0;" horiz-adv-x="1093" d="M41 395q0 128 35 244t100 207t168 144.5t229 53.5q38 0 73.5 -9.5t59 -22.5t42 -28t26.5 -24.5t10 -13.5q-6 149 -69 238l-144 -76l-39 90l107 55q-74 47 -176 47q-59 0 -76 -10l-8 -4v170q51 23 119 23q200 0 323 -129l195 102l37 -90l-172 -90q123 -200 123 -584 q0 -711 -553 -711q-194 0 -302 115t-108 303zM246 428q0 -118 54.5 -191t164.5 -73q103 0 175 56t104 143t32 196q0 61 -12 113.5t-36.5 96t-66.5 68.5t-98 25q-66 0 -121 -30.5t-90 -78t-60 -106.5t-35.5 -114.5t-10.5 -104.5z" />
<glyph unicode="&#xf1;" horiz-adv-x="1040" d="M41 0l143 1024h195l-14 -109h4q99 129 258 129q154 0 241.5 -91.5t87.5 -258.5q0 -46 -6 -98l-84 -596h-204l79 571q7 54 7 84q0 197 -173 197q-210 0 -251 -281l-80 -571h-203zM244 1217q80 215 239 215q36 0 140.5 -41t113.5 -41q64 0 64 65l-2 19h119q2 -14 2 -43 q0 -100 -52.5 -157.5t-136.5 -57.5q-38 0 -143 40.5t-111 40.5q-63 0 -63 -65v-18h-119z" />
<glyph unicode="&#xf2;" horiz-adv-x="1030" d="M41 397q0 99 20.5 192t63.5 176t104 145t148.5 98t191.5 36q126 0 220 -62t142 -166.5t48 -235.5q0 -126 -32.5 -234t-95.5 -190t-163 -129t-227 -47q-203 0 -311.5 115t-108.5 302zM207 1434h295l180 -269h-186zM254 422q0 -117 52 -187.5t159 -70.5q67 0 120.5 23.5 t87.5 62t56.5 91.5t31.5 109t9 117q0 126 -50.5 209.5t-156.5 83.5q-67 0 -121.5 -30.5t-88.5 -78t-57 -107.5t-32.5 -115.5t-9.5 -106.5z" />
<glyph unicode="&#xf3;" horiz-adv-x="1030" d="M41 397q0 99 20.5 192t63.5 176t104 145t148.5 98t191.5 36q126 0 220 -62t142 -166.5t48 -235.5q0 -126 -32.5 -234t-95.5 -190t-163 -129t-227 -47q-203 0 -311.5 115t-108.5 302zM254 422q0 -117 52 -187.5t159 -70.5q67 0 120.5 23.5t87.5 62t56.5 91.5t31.5 109 t9 117q0 126 -50.5 209.5t-156.5 83.5q-67 0 -121.5 -30.5t-88.5 -78t-57 -107.5t-32.5 -115.5t-9.5 -106.5zM455 1165l180 269h289l-289 -269h-180z" />
<glyph unicode="&#xf4;" horiz-adv-x="1030" d="M41 397q0 99 20.5 192t63.5 176t104 145t148.5 98t191.5 36q126 0 220 -62t142 -166.5t48 -235.5q0 -126 -32.5 -234t-95.5 -190t-163 -129t-227 -47q-203 0 -311.5 115t-108.5 302zM254 422q0 -117 52 -187.5t159 -70.5q67 0 120.5 23.5t87.5 62t56.5 91.5t31.5 109 t9 117q0 126 -50.5 209.5t-156.5 83.5q-67 0 -121.5 -30.5t-88.5 -78t-57 -107.5t-32.5 -115.5t-9.5 -106.5zM264 1165l240 269h227l164 -269h-150l-147 119l-145 -119h-189z" />
<glyph unicode="&#xf5;" horiz-adv-x="1030" d="M41 397q0 99 20.5 192t63.5 176t104 145t148.5 98t191.5 36q126 0 220 -62t142 -166.5t48 -235.5q0 -126 -32.5 -234t-95.5 -190t-163 -129t-227 -47q-203 0 -311.5 115t-108.5 302zM248 1174v43q0 101 52 158t136 57q36 0 140.5 -41t113.5 -41q64 0 64 65l-2 19h118 q2 -14 2 -43q0 -101 -52 -158t-136 -57q-38 0 -143 40.5t-111 40.5q-63 0 -63 -65v-18h-119zM254 422q0 -117 52 -187.5t159 -70.5q67 0 120.5 23.5t87.5 62t56.5 91.5t31.5 109t9 117q0 126 -50.5 209.5t-156.5 83.5q-67 0 -121.5 -30.5t-88.5 -78t-57 -107.5t-32.5 -115.5 t-9.5 -106.5z" />
<glyph unicode="&#xf6;" horiz-adv-x="1030" d="M41 397q0 99 20.5 192t63.5 176t104 145t148.5 98t191.5 36q126 0 220 -62t142 -166.5t48 -235.5q0 -126 -32.5 -234t-95.5 -190t-163 -129t-227 -47q-203 0 -311.5 115t-108.5 302zM254 422q0 -117 52 -187.5t159 -70.5q67 0 120.5 23.5t87.5 62t56.5 91.5t31.5 109 t9 117q0 126 -50.5 209.5t-156.5 83.5q-67 0 -121.5 -30.5t-88.5 -78t-57 -107.5t-32.5 -115.5t-9.5 -106.5zM274 1317q0 56 42.5 96.5t97.5 40.5q56 0 96.5 -41t40.5 -96t-40.5 -97t-96.5 -42q-61 0 -99 41q-41 38 -41 98zM643 1317q0 56 42 96.5t97 40.5q56 0 97 -41 t41 -96t-41 -97t-97 -42q-60 0 -98 41q-41 38 -41 98z" />
<glyph unicode="&#xf7;" horiz-adv-x="1101" d="M123 612v103h856v-103h-856zM387 297q0 63 45.5 108.5t108.5 45.5t108 -45.5t45 -108.5t-45 -108.5t-108 -45.5q-67 0 -109 45q-45 42 -45 109zM387 1012q0 63 45.5 108t108.5 45t108 -45t45 -108t-45 -108.5t-108 -45.5q-67 0 -109 45q-45 42 -45 109z" />
<glyph unicode="&#xf8;" horiz-adv-x="1032" d="M12 41l94 106q-65 103 -65 250q0 99 20.5 192t63.5 176t104 145t148.5 98t191.5 36q148 0 258 -90l95 107l92 -78l-109 -121q74 -121 74 -282q0 -126 -32.5 -234t-95.5 -190t-163 -129t-227 -47q-162 0 -271 77l-86 -96zM254 422q0 -40 10 -98l430 483q-50 53 -131 53 q-67 0 -121.5 -30.5t-88.5 -78t-57 -107.5t-32.5 -115.5t-9.5 -106.5zM328 211q53 -47 137 -47q67 0 120.5 23.5t87.5 62t56.5 91.5t31.5 109t9 117q0 70 -14 125z" />
<glyph unicode="&#xf9;" horiz-adv-x="1017" d="M53 307q0 41 6 88l88 629h201l-84 -604q-6 -44 -6 -78q0 -93 48 -131.5t134 -38.5q213 0 256 301l78 551h203l-143 -1024h-191l14 102h-4q-23 -27 -38.5 -42t-47.5 -37t-77.5 -32.5t-104.5 -10.5q-156 0 -244 84.5t-88 242.5zM221 1434h295l180 -269h-186z" />
<glyph unicode="&#xfa;" horiz-adv-x="1017" d="M53 307q0 41 6 88l88 629h201l-84 -604q-6 -44 -6 -78q0 -93 48 -131.5t134 -38.5q213 0 256 301l78 551h203l-143 -1024h-191l14 102h-4q-23 -27 -38.5 -42t-47.5 -37t-77.5 -32.5t-104.5 -10.5q-156 0 -244 84.5t-88 242.5zM473 1165l180 269h289l-289 -269h-180z" />
<glyph unicode="&#xfb;" horiz-adv-x="1017" d="M53 307q0 41 6 88l88 629h201l-84 -604q-6 -44 -6 -78q0 -93 48 -131.5t134 -38.5q213 0 256 301l78 551h203l-143 -1024h-191l14 102h-4q-23 -27 -38.5 -42t-47.5 -37t-77.5 -32.5t-104.5 -10.5q-156 0 -244 84.5t-88 242.5zM248 1165l239 269h228l164 -269h-150 l-147 119l-146 -119h-188z" />
<glyph unicode="&#xfc;" horiz-adv-x="1017" d="M53 307q0 41 6 88l88 629h201l-84 -604q-6 -44 -6 -78q0 -93 48 -131.5t134 -38.5q213 0 256 301l78 551h203l-143 -1024h-191l14 102h-4q-23 -27 -38.5 -42t-47.5 -37t-77.5 -32.5t-104.5 -10.5q-156 0 -244 84.5t-88 242.5zM270 1317q0 56 42.5 96.5t97.5 40.5 q56 0 96.5 -41t40.5 -96t-40.5 -97t-96.5 -42q-61 0 -99 41q-41 38 -41 98zM639 1317q0 56 42 96.5t97 40.5q56 0 96.5 -41t40.5 -96t-40.5 -97t-96.5 -42q-60 0 -98 41q-41 38 -41 98z" />
<glyph unicode="&#xfd;" horiz-adv-x="933" d="M-61 -334l24 172q27 -18 76 -18q79 0 124.5 41.5t102.5 152.5l21 41l-221 969h221l129 -692q2 -10 2 -25q0 2 10 25l322 692h225l-486 -981q-102 -205 -205.5 -302t-230.5 -97zM418 1165l180 269h289l-289 -269h-180z" />
<glyph unicode="&#xfe;" horiz-adv-x="1069" d="M-20 -410l258 1844h194l-72 -519h7q108 129 266 129q176 0 280.5 -126t104.5 -320q0 -126 -33 -237.5t-93.5 -196.5t-154 -134.5t-207.5 -49.5q-96 0 -169 28t-105 74h-4l-70 -492h-202zM293 432q0 -118 53 -193t160 -75q96 0 165.5 60t102.5 154t33 208q0 274 -203 274 q-60 0 -110 -21.5t-83 -58.5t-57 -81t-36.5 -94t-18.5 -92t-6 -81z" />
<glyph unicode="&#xff;" horiz-adv-x="933" d="M-61 -334l24 172q27 -18 76 -18q79 0 124.5 41.5t102.5 152.5l21 41l-221 969h221l129 -692q2 -10 2 -25q0 2 10 25l322 692h225l-486 -981q-102 -205 -205.5 -302t-230.5 -97zM227 1317q0 56 42.5 96.5t97.5 40.5t96 -41t41 -96t-40.5 -97t-96.5 -42q-61 0 -99 41 q-41 38 -41 98zM596 1317q0 56 42 96.5t97 40.5t96 -41t41 -96t-40.5 -97t-96.5 -42q-60 0 -98 41q-41 38 -41 98z" />
<glyph unicode="&#x152;" horiz-adv-x="1642" d="M61 571q0 129 26 252.5t84 238.5t141 201.5t206 138.5t270 52q79 0 158 -20h696l-26 -197h-477l-58 -410h437l-29 -196h-436l-62 -434h477l-26 -197h-637q-87 -20 -182 -20q-176 0 -305 78t-193 210.5t-64 302.5zM291 582q0 -86 19 -156t58.5 -125.5t106 -86t156.5 -30.5 q75 0 143 19l141 1018q-64 28 -135 28q-87 0 -161 -30.5t-126 -83t-92 -119t-63.5 -142.5t-35 -149t-11.5 -143z" />
<glyph unicode="&#x153;" horiz-adv-x="1744" d="M82 397q0 99 20.5 192t63.5 176t104 145t148.5 98t191.5 36q233 0 344 -196q138 196 389 196q166 0 263.5 -84.5t97.5 -224.5q0 -150 -110 -228.5t-298 -78.5q-130 0 -264 35q-2 -20 -2 -60q0 -121 51.5 -179t169.5 -58q99 0 147 39t48 96l-4 29h176q8 -19 8 -49 q0 -126 -101.5 -213.5t-273.5 -87.5q-252 0 -360 172q-138 -172 -389 -172q-203 0 -311.5 115t-108.5 302zM295 422q0 -117 52 -187.5t159 -70.5q67 0 120.5 23.5t87.5 62t56.5 91.5t31.5 109t9 117q0 126 -50.5 209.5t-156.5 83.5q-67 0 -121.5 -30.5t-88.5 -78t-57 -107.5 t-32.5 -115.5t-9.5 -106.5zM1063 625q124 -27 237 -27q209 0 209 127q0 139 -180 139q-102 0 -173.5 -67t-92.5 -172z" />
<glyph unicode="&#x178;" horiz-adv-x="1042" d="M51 1434h246l225 -637l402 637h262l-576 -854l-82 -580h-221l82 580zM303 1679q0 56 42 97t97 41q56 0 97 -41.5t41 -96.5t-41 -97t-97 -42q-60 0 -98 41q-41 38 -41 98zM672 1679q0 56 42 97t97 41t96 -41t41 -97q0 -55 -40.5 -97t-96.5 -42q-60 0 -98 41q-41 38 -41 98 z" />
<glyph unicode="&#x2c6;" horiz-adv-x="733" d="M102 1165l240 269h227l164 -269h-149l-148 119l-145 -119h-189z" />
<glyph unicode="&#x2dc;" horiz-adv-x="768" d="M72 1176v43q0 101 52 158t136 57q36 0 140.5 -41t113.5 -41q64 0 64 65l-3 17h119q2 -14 2 -41q0 -101 -52 -158t-136 -57q-38 0 -143 41t-111 41q-64 0 -64 -66v-18h-118z" />
<glyph unicode="&#x2000;" horiz-adv-x="982" />
<glyph unicode="&#x2001;" horiz-adv-x="1964" />
<glyph unicode="&#x2002;" horiz-adv-x="982" />
<glyph unicode="&#x2003;" horiz-adv-x="1964" />
<glyph unicode="&#x2004;" horiz-adv-x="654" />
<glyph unicode="&#x2005;" horiz-adv-x="491" />
<glyph unicode="&#x2006;" horiz-adv-x="327" />
<glyph unicode="&#x2007;" horiz-adv-x="327" />
<glyph unicode="&#x2008;" horiz-adv-x="245" />
<glyph unicode="&#x2009;" horiz-adv-x="392" />
<glyph unicode="&#x200a;" horiz-adv-x="109" />
<glyph unicode="&#x2010;" horiz-adv-x="768" d="M61 518l25 184h600l-24 -184h-601z" />
<glyph unicode="&#x2011;" horiz-adv-x="768" d="M61 518l25 184h600l-24 -184h-601z" />
<glyph unicode="&#x2012;" horiz-adv-x="768" d="M61 518l25 184h600l-24 -184h-601z" />
<glyph unicode="&#x2013;" horiz-adv-x="993" d="M61 549l25 184h825l-24 -184h-826z" />
<glyph unicode="&#x2014;" horiz-adv-x="1505" d="M61 549l25 184h1337l-24 -184h-1338z" />
<glyph unicode="&#x2018;" horiz-adv-x="382" d="M102 926l174 508h107l-174 -508h-107z" />
<glyph unicode="&#x2019;" horiz-adv-x="382" d="M102 926l174 508h107l-174 -508h-107z" />
<glyph unicode="&#x201a;" horiz-adv-x="405" d="M-41 -295l176 508h107l-176 -508h-107z" />
<glyph unicode="&#x201c;" horiz-adv-x="608" d="M102 926l174 508h107l-174 -508h-107zM328 926l174 508h106l-174 -508h-106z" />
<glyph unicode="&#x201d;" horiz-adv-x="608" d="M102 926l174 508h107l-174 -508h-107zM328 926l174 508h106l-174 -508h-106z" />
<glyph unicode="&#x201e;" horiz-adv-x="630" d="M-41 -295l176 508h107l-176 -508h-107zM184 -295l176 508h107l-176 -508h-107z" />
<glyph unicode="&#x2022;" horiz-adv-x="669" d="M102 582q0 95 69 164t163 69t163.5 -69.5t69.5 -163.5t-69 -163t-164 -69q-96 0 -164 68t-68 164z" />
<glyph unicode="&#x2026;" horiz-adv-x="1306" d="M0 127q0 56 42 96.5t97 40.5t96 -41t41 -96t-40.5 -97t-96.5 -42q-60 0 -98 41q-41 38 -41 98zM463 127q0 56 42 96.5t97 40.5q56 0 96.5 -41t40.5 -96t-40.5 -97t-96.5 -42q-60 0 -98 41q-41 38 -41 98zM928 127q0 56 42 96.5t97 40.5t96 -41t41 -96t-40.5 -97 t-96.5 -42q-60 0 -98 41q-41 38 -41 98z" />
<glyph unicode="&#x202f;" horiz-adv-x="392" />
<glyph unicode="&#x2039;" horiz-adv-x="569" d="M20 532l371 410h137l-372 -412l278 -409h-125z" />
<glyph unicode="&#x203a;" horiz-adv-x="569" d="M20 121l373 411l-278 410h125l288 -412l-370 -409h-138z" />
<glyph unicode="&#x205f;" horiz-adv-x="491" />
<glyph unicode="&#x20ac;" horiz-adv-x="1296" d="M41 500l18 123h156q6 87 21 161h-154l16 123h166q68 235 221.5 370.5t388.5 135.5q162 0 256.5 -72.5t94.5 -185.5q0 -70 -25 -115l-10 -16h-195q19 36 19 80q0 115 -152 115q-270 0 -379 -312h416l-16 -123h-432q-16 -86 -19 -161h428l-18 -123h-410q18 -326 268 -326 q109 0 162 51.5t53 132.5l-4 52h195q4 -46 4 -70q0 -27 -3 -54.5t-14 -64.5t-28 -69t-49 -64.5t-73.5 -55.5t-104 -37.5t-138.5 -14.5q-229 0 -357 134t-132 386h-170z" />
<glyph unicode="&#x2122;" horiz-adv-x="1101" d="M82 1343v91h399v-91h-147v-505h-103v505h-149zM520 838v596h166l115 -500l125 500h155v-596h-100v479l-119 -479h-123l-106 434l-15 41q3 -9 3 -41v-434h-101z" />
<glyph unicode="&#x25fc;" horiz-adv-x="1024" d="M0 0v1024h1024v-1024h-1024z" />
<glyph unicode="&#xfb03;" horiz-adv-x="1789" d="M61 850l25 174h135l21 141q52 371 338 371q103 0 172 -50.5t69 -135.5q0 -62 -22 -97l-8 -14h-158q18 24 18 55q0 66 -78 66q-55 0 -86 -42.5t-43 -129.5l-24 -164h225l-24 -174h-224l-118 -850h-201l119 850h-136zM719 850l24 174h136l20 141q52 371 338 371 q103 0 172.5 -50.5t69.5 -135.5q0 -60 -23 -97l-8 -14h-158q19 25 19 55q0 66 -78 66q-55 0 -86 -42.5t-43 -129.5l-25 -164h226l-25 -174h-223l-119 -850h-201l119 850h-135zM1356 0l143 1024h215l-143 -1024h-215zM1487 1303q0 63 44.5 107t106.5 44t107 -45t45 -106 q0 -62 -44.5 -107t-107.5 -45q-65 0 -108 43t-43 109z" />
<glyph unicode="&#xfb04;" horiz-adv-x="1787" d="M61 850l25 174h135l21 141q52 371 338 371q103 0 172 -50.5t69 -135.5q0 -62 -22 -97l-8 -14h-158q18 24 18 55q0 66 -78 66q-55 0 -86 -42.5t-43 -129.5l-24 -164h225l-24 -174h-224l-118 -850h-201l119 850h-136zM719 850l24 174h136l20 141q52 371 338 371 q103 0 172.5 -50.5t69.5 -135.5q0 -60 -23 -97l-8 -14h-158q19 25 19 55q0 66 -78 66q-55 0 -86 -42.5t-43 -129.5l-25 -164h226l-25 -174h-223l-119 -850h-201l119 850h-135zM1356 0l213 1516h219l-213 -1516h-219z" />
</font>
</defs>
</svg>
