<?xml version="1.0" standalone="no"?>
<!DOCTYPE svg PUBLIC "-//W3C//DTD SVG 1.1//EN" "http://www.w3.org/Graphics/SVG/1.1/DTD/svg11.dtd" >
<svg xmlns="http://www.w3.org/2000/svg">
<metadata></metadata>
<defs>
<font id="brezel_groteskbold_italic" horiz-adv-x="1425" >
<font-face units-per-em="2048" ascent="1536" descent="-512" />
<missing-glyph horiz-adv-x="512" />
<glyph unicode="&#xfb01;" horiz-adv-x="1064" d="M61 793l33 231h135l9 59q27 202 155.5 311t308.5 109q145 0 243.5 -70t98.5 -167q0 -56 -24 -99l-6 -16h-234q8 13 8 35q0 34 -26.5 55t-75.5 21q-83 0 -127.5 -49.5t-62.5 -151.5l-7 -37h531l-143 -1024h-265l111 793h-266l-111 -793h-260l111 793h-136z" />
<glyph unicode="&#xfb02;" horiz-adv-x="1157" d="M61 793l33 231h135l15 94q27 180 137.5 282.5t265.5 102.5q126 0 221 -59l4 35h265l-207 -1479h-264l170 1204q-52 58 -148 58q-74 0 -126 -45.5t-62 -122.5l-11 -70h211l-32 -231h-211l-111 -793h-260l111 793h-136z" />
<glyph horiz-adv-x="0" />
<glyph horiz-adv-x="682" />
<glyph unicode=" "  horiz-adv-x="512" />
<glyph unicode="&#x09;" horiz-adv-x="512" />
<glyph unicode="&#xa0;" horiz-adv-x="512" />
<glyph unicode="!" horiz-adv-x="587" d="M61 147q0 68 49.5 118t118.5 50t118.5 -50t49.5 -118q0 -69 -49.5 -118t-118.5 -49t-118.5 49t-49.5 118zM123 399l145 1035h258l-145 -1035h-258z" />
<glyph unicode="&#x22;" horiz-adv-x="452" d="M102 1010v424h123v-424h-123zM330 1010v424h123v-424h-123z" />
<glyph unicode="#" horiz-adv-x="1290" d="M20 449v143h273l88 246h-223v143h272l162 453h151l-161 -453h299l161 453h152l-162 -453h238v-143h-287l-86 -246h238v-143h-285l-162 -449h-151l161 449h-299l-161 -449h-152l162 449h-228zM446 592h297l88 246h-299z" />
<glyph unicode="$" horiz-adv-x="1185" d="M51 309q0 40 11 80.5t24 61.5l10 18h250q-31 -48 -31 -104q0 -115 146 -136l53 373q-59 24 -93.5 39.5t-79.5 40t-71 49.5t-51.5 59.5t-38 77.5t-14.5 97q0 185 131 307t330 137l20 147h144l-21 -149q153 -18 243.5 -97t90.5 -186q0 -56 -27 -118l-10 -17h-240 q17 31 17 60q0 37 -28.5 67.5t-80.5 42.5l-49 -338q70 -26 116.5 -47t96.5 -53.5t79.5 -69t49.5 -90t23 -119.5q0 -195 -127.5 -321t-356.5 -139l-20 -156h-144l23 158q-174 18 -274.5 102.5t-100.5 222.5zM430 1004q0 -92 121 -136l39 295q-72 -10 -116 -54.5t-44 -104.5z M602 223q85 12 135.5 63.5t50.5 116.5q0 107 -139 154z" />
<glyph unicode="%" horiz-adv-x="1378" d="M51 852q0 17 4 63q13 112 32.5 194t54.5 155t92.5 111t136.5 38q118 0 170.5 -86t52.5 -229q0 -249 -81 -383.5t-222 -134.5q-115 0 -177.5 71.5t-62.5 200.5zM215 893q0 -127 82 -127q52 0 80.5 42.5t46.5 137.5q18 68 18 137q0 146 -82 146q-36 0 -62 -23.5t-41 -67.5 t-23.5 -88t-14.5 -104q-4 -36 -4 -53zM352 -27l570 1506l118 -52l-567 -1501zM782 252q0 17 4 63q13 112 32.5 194t54.5 155t92.5 111t136.5 38q118 0 170.5 -86t52.5 -229q0 -249 -81 -383.5t-222 -134.5q-115 0 -177.5 71.5t-62.5 200.5zM946 283q0 -117 80 -117 q62 0 105 85.5t43 231.5t-82 146q-36 0 -62 -23.5t-41.5 -67.5t-24 -88t-14.5 -104q-4 -50 -4 -63z" />
<glyph unicode="&#x26;" horiz-adv-x="1175" d="M20 328q0 224 250 403q-80 145 -80 277q0 109 48.5 201t142.5 148t215 56q142 0 239 -81.5t97 -211.5q0 -128 -80.5 -227t-251.5 -207q52 -88 152 -209q36 97 51 232h235q-35 -259 -114 -408q62 -53 143 -53h16l-34 -248h-19q-157 0 -272 100q-144 -120 -320 -120 q-190 0 -304 98.5t-114 249.5zM283 365q0 -62 42 -103t115 -41q81 0 146 41q-104 107 -201 279q-102 -74 -102 -176zM438 1016q0 -78 54 -160q188 117 188 221q0 44 -27.5 70.5t-72.5 26.5q-60 0 -101 -45t-41 -113z" />
<glyph unicode="'" horiz-adv-x="266" d="M123 1061v373h143v-373h-143z" />
<glyph unicode="(" horiz-adv-x="380" d="M43 539q0 158 22.5 308t58 259.5t68 183.5t62.5 119l22 39h144q-11 -11 -47 -78q-145 -273 -178 -636q-9 -97 -9 -195q0 -511 189 -854l47 -74h-143q-15 15 -50 77q-143 251 -177 635q-9 105 -9 216z" />
<glyph unicode=")" horiz-adv-x="421" d="M-41 -389q14 14 49 75q142 254 177 633q10 107 10 220q0 158 -22.5 308t-58 259.5t-68 183t-62.5 119.5l-23 39h143l25 -41q28 -47 60 -125t67.5 -192t58.5 -265t23 -303q0 -502 -188 -837l-48 -74h-143z" />
<glyph unicode="*" horiz-adv-x="622" d="M102 1067l164 94q-4 0 -8 4l-156 90l50 84l157 -92l4 -4v191h99v-181q0 -8 -2 -10l163 96l50 -84l-156 -90q-4 -4 -10 -4q1 -1 10 -4l156 -90l-50 -84l-163 94q2 0 2 -8v-180h-99v186l-161 -92z" />
<glyph unicode="+" horiz-adv-x="937" d="M41 592v143h356v379h144v-379h356v-143h-356v-375h-144v375h-356z" />
<glyph unicode="," horiz-adv-x="374" d="M-41 -295l104 508h148l-105 -508h-147z" />
<glyph unicode="-" horiz-adv-x="774" d="M61 477l31 225h600l-30 -225h-601z" />
<glyph unicode="." horiz-adv-x="540" d="M41 147q0 68 49.5 118t118.5 50t118.5 -50t49.5 -118q0 -69 -49.5 -118t-118.5 -49t-118.5 49t-49.5 118z" />
<glyph unicode="/" horiz-adv-x="712" d="M0 0l541 1434h151l-540 -1434h-152z" />
<glyph unicode="0" horiz-adv-x="1087" d="M61 440q0 43 7 115q10 104 23 190t35.5 175t52 159t73 133t97.5 105t126.5 67.5t159.5 28.5q401 0 401 -512q0 -150 -35 -346q-52 -289 -178.5 -432t-347.5 -143q-203 0 -308.5 118.5t-105.5 341.5zM340 477q0 -241 149 -241q184 0 242 352q31 188 31 305q0 264 -144 264 q-210 0 -272 -569q-6 -62 -6 -111z" />
<glyph unicode="1" horiz-adv-x="972" d="M-10 0l35 248h319l105 741h-318l29 199q173 0 265 47t128 158h219l-162 -1145h291l-35 -248h-876z" />
<glyph unicode="2" horiz-adv-x="1019" d="M0 0l33 229l336 310q99 92 150.5 142t96 98t61 82t24.5 67.5t8 79.5q0 71 -39 110t-103 39q-67 0 -115 -41t-44 -96l2 -31h-240q-8 27 -8 72q0 152 116.5 252t311.5 100q168 0 283.5 -109t115.5 -266q0 -144 -73 -267.5t-275 -313.5l-223 -209h489l-35 -248h-872z" />
<glyph unicode="3" horiz-adv-x="985" d="M10 293q0 105 53 176h248q-35 -53 -35 -117q0 -55 42 -85.5t116 -30.5q90 0 146.5 64t56.5 181q0 84 -43 129t-113 45q-48 0 -104 -18l-17 -6l-106 157l364 353h-434l37 252h744l-33 -234l-326 -307q131 -5 214 -98.5t83 -253.5q0 -241 -134.5 -380.5t-356.5 -139.5 q-109 0 -199 35.5t-146.5 108t-56.5 169.5z" />
<glyph unicode="4" horiz-adv-x="1077" d="M0 317l33 232l585 844h349l-117 -828h166l-35 -248h-166l-45 -317h-266l45 317h-549zM287 565h297l73 533h-4z" />
<glyph unicode="5" horiz-adv-x="1015" d="M10 297q0 101 53 172h242q-37 -52 -37 -121q0 -56 40 -86.5t108 -30.5q110 0 170.5 67t60.5 189q0 95 -46.5 144t-127.5 49q-30 0 -67 -11.5t-60 -25.5l-20 -10l-160 166l156 594h653l-37 -252h-428l-61 -232q35 9 81 9q170 0 275.5 -104.5t105.5 -291.5 q0 -263 -133.5 -402.5t-367.5 -139.5q-173 0 -286.5 88.5t-113.5 228.5z" />
<glyph unicode="6" horiz-adv-x="1048" d="M61 383q0 313 71.5 546t203.5 358.5t309 125.5q146 0 249 -83t103 -204q0 -69 -22 -120l-6 -17h-230q13 41 13 70q0 44 -32.5 71t-96.5 27q-176 0 -226 -299q78 60 203 60q165 0 257.5 -112.5t92.5 -283.5q0 -255 -128.5 -398.5t-360.5 -143.5q-188 0 -294 101.5 t-106 301.5zM332 393q0 -157 153 -157q89 0 142 69t53 189q0 194 -135 194q-50 0 -89 -22.5t-61.5 -55.5t-37.5 -75.5t-20 -77t-5 -64.5z" />
<glyph unicode="7" horiz-adv-x="913" d="M92 1128l39 265h844l-37 -236q-121 -131 -201.5 -242t-147.5 -247.5t-110 -297t-71 -370.5h-297q28 205 123 452.5t212 417.5q68 102 205 258h-559z" />
<glyph unicode="8" horiz-adv-x="1058" d="M20 344q0 152 78 256t205 158q-131 79 -131 241q0 176 120 295t329 119q177 0 282 -93.5t105 -229.5q0 -214 -213 -332q81 -38 131.5 -115.5t50.5 -187.5q0 -147 -69 -256t-185 -163t-262 -54q-191 0 -316 96.5t-125 265.5zM293 399q0 -72 50 -116.5t132 -44.5 q101 0 168.5 60t67.5 157q0 78 -44.5 124t-131.5 72q-119 -33 -180.5 -91t-61.5 -161zM436 1006q0 -108 127 -152q78 24 125 72.5t47 113.5q0 52 -36 84.5t-95 32.5q-70 0 -119 -43t-49 -108z" />
<glyph unicode="9" horiz-adv-x="1046" d="M61 252q0 34 8 69.5t17 51.5l8 16h248q-14 -25 -14 -65q0 -38 35.5 -63t87.5 -25q88 0 138 64.5t79 221.5q-88 -55 -205 -55q-170 0 -262 102t-92 279q0 162 54.5 288t166.5 201.5t266 75.5q188 0 293.5 -120t105.5 -343q0 -224 -25 -391t-71 -277t-117 -178t-155.5 -96 t-194.5 -28q-171 0 -271 78.5t-100 193.5zM371 893q0 -84 39 -132t106 -48q215 0 215 272q0 67 -40.5 119.5t-104.5 52.5q-96 0 -155.5 -73.5t-59.5 -190.5z" />
<glyph unicode=":" horiz-adv-x="520" d="M20 147q0 68 49.5 118t118.5 50t118.5 -50t49.5 -118q0 -69 -49.5 -118t-118.5 -49t-118.5 49t-49.5 118zM123 879q0 68 49.5 118t118.5 50t118.5 -50t49.5 -118q0 -69 -49.5 -118.5t-118.5 -49.5t-118.5 49.5t-49.5 118.5z" />
<glyph unicode=";" horiz-adv-x="436" d="M-20 -295l104 508h147l-104 -508h-147zM39 879q0 68 49.5 118t118.5 50t118.5 -50t49.5 -118q0 -69 -49.5 -118.5t-118.5 -49.5t-118.5 49.5t-49.5 118.5z" />
<glyph unicode="&#x3c;" horiz-adv-x="1060" d="M143 580v122l775 379v-157l-588 -283l588 -283v-157z" />
<glyph unicode="=" horiz-adv-x="1163" d="M164 434v148h835v-148h-835zM164 756v147h835v-147h-835z" />
<glyph unicode="&#x3e;" horiz-adv-x="1060" d="M143 201v157l588 283l-588 283v157l775 -379v-122z" />
<glyph unicode="?" horiz-adv-x="917" d="M82 1057q0 173 120.5 285t301.5 112q171 0 282 -90t111 -244q0 -35 -6.5 -69t-14 -59t-26.5 -56t-29 -47t-38 -46t-37 -39.5t-42 -40.5t-38 -36l-86 -82q-31 -31 -61 -77.5t-34 -84.5l-6 -53h-264l10 76q8 61 44 123.5t73 101.5q33 36 91 86t92.5 82t62.5 80.5t28 99.5 q0 44 -36.5 76.5t-90.5 32.5q-76 0 -120.5 -50.5t-44.5 -127.5l4 -47h-234q-12 35 -12 94zM160 147q0 68 49.5 118t118.5 50t118.5 -50t49.5 -118q0 -69 -49.5 -118t-118.5 -49t-118.5 49t-49.5 118z" />
<glyph unicode="@" horiz-adv-x="1581" d="M41 662q0 207 98.5 379.5t270.5 272t381 99.5q211 0 381.5 -89t269 -252t98.5 -370q0 -107 -23 -192t-58.5 -135.5t-81.5 -84.5t-88 -46.5t-83 -12.5q-156 0 -211 119q-115 -139 -295 -139q-156 0 -244.5 110.5t-88.5 292.5q0 106 35 200t91.5 156.5t128 99t144.5 36.5 q129 0 188 -80l7 59h202l-51 -561q-2 -14 -2 -43q0 -129 104 -129q36 0 72 20t68.5 59.5t52.5 110t20 160.5q0 176 -80.5 315t-225.5 216.5t-330 77.5q-182 0 -329 -86t-228.5 -234t-81.5 -329q0 -177 85.5 -326t232.5 -235.5t321 -86.5q225 0 370 86l47 -90 q-168 -98 -417 -98q-154 0 -293 59t-239 159t-159 239t-59 293zM590 631q0 -93 40.5 -146t108.5 -53q95 0 137 76t42 229q0 150 -138 150q-88 0 -139 -72t-51 -184z" />
<glyph unicode="A" horiz-adv-x="1376" d="M-61 0l710 1434h316l309 -1434h-303l-56 283h-532l-133 -283h-311zM506 539h360l-104 540z" />
<glyph unicode="B" horiz-adv-x="1228" d="M41 0l201 1434h452q218 0 345.5 -84.5t127.5 -241.5q0 -250 -219 -356q78 -32 126 -105.5t48 -185.5q0 -222 -143.5 -341.5t-417.5 -119.5h-520zM360 256h222q118 0 179.5 56t61.5 151q0 149 -194 149h-219zM444 864h179q126 0 183.5 42t57.5 138q0 134 -162 134h-213z " />
<glyph unicode="C" horiz-adv-x="1282" d="M61 559q0 253 90.5 456t260 321t389.5 118q205 0 327.5 -98.5t122.5 -251.5q0 -46 -10.5 -93t-23.5 -73l-11 -23h-248q21 43 21 101q0 75 -49 118.5t-144 43.5q-134 0 -231.5 -81t-145 -214t-47.5 -301q0 -326 289 -326q112 0 182 62.5t70 181.5v26h273q4 -36 4 -65 q0 -233 -150 -357t-393 -124q-279 0 -427.5 159.5t-148.5 419.5z" />
<glyph unicode="D" horiz-adv-x="1320" d="M41 0l201 1434h434q270 0 432 -162.5t162 -452.5q0 -178 -49 -327.5t-140 -259t-229 -171t-309 -61.5h-502zM365 256h165q142 0 243 71.5t148.5 189t47.5 269.5q0 181 -79 286.5t-237 105.5h-159z" />
<glyph unicode="E" horiz-adv-x="1114" d="M41 0l201 1434h872l-35 -260h-590l-45 -318h551l-34 -246h-551l-50 -350h601l-37 -260h-883z" />
<glyph unicode="F" horiz-adv-x="1077" d="M41 0l201 1434h876l-35 -260h-589l-50 -338h531l-35 -250h-530l-82 -586h-287z" />
<glyph unicode="G" horiz-adv-x="1329" d="M61 569q0 134 31.5 262t96.5 240.5t155 198t215.5 135t269.5 49.5q212 0 330.5 -99.5t118.5 -248.5v-7q0 -59 -33 -145l-10 -24h-254q18 40 18 88q0 80 -54.5 125t-151.5 45q-125 0 -224.5 -82t-153 -220t-53.5 -304q0 -151 68 -238.5t201 -87.5q282 0 325 291h-325 l33 239h579l-110 -786h-246l16 111q-49 -56 -139 -93.5t-189 -37.5q-250 0 -382 161t-132 428z" />
<glyph unicode="H" horiz-adv-x="1361" d="M41 0l201 1434h301l-82 -578h477l82 578h301l-201 -1434h-301l82 586h-477l-82 -586h-301z" />
<glyph unicode="I" horiz-adv-x="626" d="M61 0l201 1434h303l-200 -1434h-304z" />
<glyph unicode="J" horiz-adv-x="940" d="M-41 252q0 51 11.5 99t25.5 71l12 18h254q-29 -53 -29 -112q0 -43 29.5 -67.5t77.5 -24.5q59 0 89 41t42 133l143 1024h295l-141 -1018q-9 -64 -23 -117t-37 -103.5t-57 -88.5t-79 -67.5t-106 -44.5t-136 -15q-168 0 -269.5 76t-101.5 196z" />
<glyph unicode="K" horiz-adv-x="1343" d="M41 0l201 1434h295l-78 -549l542 549h383l-682 -684l515 -750h-388l-407 618l-86 -618h-295z" />
<glyph unicode="L" horiz-adv-x="966" d="M41 0l201 1434h303l-164 -1164h524l-37 -270h-827z" />
<glyph unicode="M" horiz-adv-x="1792" d="M41 0l201 1434h401l195 -1104l501 1104h412l-201 -1434h-278l121 862q19 140 45 232l-498 -1094h-289l-190 1094q-3 -98 -21 -232l-121 -862h-278z" />
<glyph unicode="N" horiz-adv-x="1419" d="M41 0l201 1434h305l420 -959l133 959h278l-200 -1434h-304l-419 958l-136 -958h-278z" />
<glyph unicode="O" d="M61 575q0 108 21 213.5t61 204t103.5 182t143.5 146t185.5 98t225.5 35.5q135 0 243 -51t177.5 -139.5t106 -204t36.5 -248.5q0 -177 -47 -328t-136 -263.5t-226.5 -176t-309.5 -63.5q-274 0 -429 163t-155 432zM365 592q0 -155 70 -245.5t218 -90.5q75 0 137 20.5 t104 53.5t73.5 80t49 94t28.5 102.5t14.5 98.5t3.5 88q0 81 -16 149t-48.5 121.5t-88 84t-128.5 30.5q-94 0 -169 -40.5t-120 -102.5t-75 -142.5t-41.5 -155t-11.5 -145.5z" />
<glyph unicode="P" horiz-adv-x="1157" d="M41 0l201 1434h471q212 0 328 -99t116 -272q0 -225 -129.5 -363.5t-355.5 -138.5h-264l-80 -561h-287zM442 817h213q103 0 163.5 57t60.5 152q0 152 -183 152h-202z" />
<glyph unicode="Q" d="M61 575q0 108 21 213.5t61 204t103.5 182t143.5 146t185.5 98t225.5 35.5q135 0 243 -51t177.5 -139.5t106 -204t36.5 -248.5q0 -388 -205 -618l80 -91l-199 -172l-94 109q-136 -59 -301 -59q-274 0 -429 163t-155 432zM365 592q0 -155 70 -245.5t218 -90.5q61 0 97 8 l-86 101l200 172l105 -123q94 143 94 379q0 81 -16 149t-48.5 121.5t-88 84t-128.5 30.5q-94 0 -169 -40.5t-120 -102.5t-75 -142.5t-41.5 -155t-11.5 -145.5z" />
<glyph unicode="R" horiz-adv-x="1187" d="M41 0l201 1434h471q212 0 328 -99t116 -272t-78 -292t-223 -163l205 -608h-316l-178 582h-159l-80 -582h-287zM442 838h213q224 0 224 188q0 152 -183 152h-202z" />
<glyph unicode="S" horiz-adv-x="1105" d="M10 315q0 111 43 181h258q-28 -61 -28 -119q0 -61 53 -96t151 -35q114 0 178 48.5t64 119.5q0 47 -26.5 83t-69.5 59t-98 46t-113 42.5t-113 50t-98 67t-69.5 95t-26.5 132.5q0 132 69.5 238.5t190 166.5t266.5 60q194 0 309 -88.5t115 -235.5q0 -44 -9.5 -88t-21.5 -67 l-10 -21h-258q29 60 29 117q0 52 -46 84.5t-124 32.5q-87 0 -149 -45.5t-62 -108.5q0 -46 34 -81t88 -58.5t119.5 -47t131 -54.5t119.5 -72t88 -108.5t34 -155.5q0 -101 -33 -186.5t-97.5 -151t-168.5 -102.5t-237 -37q-141 0 -249 38.5t-170.5 115t-62.5 181.5z" />
<glyph unicode="T" horiz-adv-x="1075" d="M61 1169l37 265h1039l-37 -265h-367l-164 -1169h-284l164 1169h-388z" />
<glyph unicode="U" horiz-adv-x="1341" d="M72 436q0 58 8 105l125 893h307l-127 -910q-4 -36 -4 -55q0 -99 55 -154t158 -55q117 0 191.5 70.5t91.5 193.5l127 910h307l-125 -893q-38 -273 -193.5 -417t-404.5 -144q-229 0 -372.5 121.5t-143.5 334.5z" />
<glyph unicode="V" horiz-adv-x="1292" d="M92 1434h320l172 -1024l458 1024h332l-696 -1434h-291z" />
<glyph unicode="W" horiz-adv-x="1912" d="M82 1434h315l82 -1039q2 -10 2 -47q10 20 19 47l389 1039h319l99 -1039q2 -10 2 -47q7 14 18 47l373 1039h315l-567 -1434h-344l-111 963q0 3 -1 16t-1 14q-6 -6 -14 -30l-381 -963h-348z" />
<glyph unicode="X" horiz-adv-x="1310" d="M-102 0l565 735l-340 699h348l203 -463l334 463h364l-543 -699l359 -735h-340l-227 496l-367 -496h-356z" />
<glyph unicode="Y" horiz-adv-x="1175" d="M51 1434h344l207 -543l356 543h361l-608 -836l-84 -598h-285l84 598z" />
<glyph unicode="Z" horiz-adv-x="1110" d="M-51 0l28 211l777 956h-613l37 267h973l-31 -224l-772 -944h658l-37 -266h-1020z" />
<glyph unicode="[" horiz-adv-x="620" d="M20 -410l261 1858h340l-21 -154h-176l-221 -1573h176l-19 -131h-340z" />
<glyph unicode="\" horiz-adv-x="712" d="M20 1434h152l541 -1434h-152z" />
<glyph unicode="]" horiz-adv-x="620" d="M-41 -410l18 131h177l221 1573h-176l20 154h340l-260 -1858h-340z" />
<glyph unicode="^" horiz-adv-x="1105" d="M20 567l472 867h122l471 -867h-178l-354 664l-354 -664h-179z" />
<glyph unicode="_" horiz-adv-x="1150" d="M61 -20h1029v-164h-1029v164z" />
<glyph unicode="`" horiz-adv-x="645" d="M61 1434h338l185 -304h-199z" />
<glyph unicode="a" horiz-adv-x="1058" d="M41 414q0 175 63 320t170.5 227.5t233.5 82.5q163 0 233 -88h4l13 68h260l-141 -1024h-246l12 86h-4q-100 -106 -248 -106q-149 0 -249.5 114t-100.5 320zM295 442q0 -100 47 -153t123 -53q101 0 167 88.5t66 234.5q0 109 -41 168t-114 59q-113 0 -180.5 -93t-67.5 -251z " />
<glyph unicode="b" horiz-adv-x="1087" d="M41 0l207 1479h266l-72 -523h4q98 88 218 88q174 0 273 -123t99 -315q0 -130 -31 -242.5t-90 -198.5t-152.5 -135.5t-209.5 -49.5q-74 0 -143.5 31.5t-98.5 78.5h-4l-12 -90h-254zM373 438q0 -95 40.5 -150t123.5 -55q105 0 171 96.5t66 237.5q0 224 -160 224 q-77 0 -133.5 -54t-82 -132.5t-25.5 -166.5z" />
<glyph unicode="c" horiz-adv-x="946" d="M41 408q0 128 39 243t109 202.5t175 139t230 51.5q133 0 227 -71.5t94 -190.5q0 -108 -45 -170h-206q16 46 16 80q0 45 -30 72t-81 27q-86 0 -146.5 -48.5t-87 -122.5t-26.5 -167q0 -97 44 -157t124 -60q85 0 126.5 38.5t41.5 128.5v27h217q8 -36 8 -92 q0 -167 -109 -262.5t-282 -95.5q-195 0 -316.5 115t-121.5 313z" />
<glyph unicode="d" horiz-adv-x="1052" d="M31 414q0 130 40 247.5t106.5 201t155 132.5t183.5 49q145 0 215 -88h4l72 523h266l-207 -1479h-245l12 86h-4q-44 -45 -114.5 -75.5t-145.5 -30.5q-146 0 -242 114t-96 320zM285 442q0 -100 47 -153t123 -53q101 0 167 88.5t66 234.5q0 109 -41.5 168t-114.5 59 q-113 0 -180 -93t-67 -251z" />
<glyph unicode="e" horiz-adv-x="974" d="M41 406q0 98 18.5 188.5t59.5 173t100 143.5t147 97t195 36q160 0 266.5 -97t106.5 -240q0 -150 -110 -229t-298 -79q-106 0 -229 27q-2 -12 -2 -33q0 -184 194 -184q74 0 111 31t37 77v19h213q6 -24 6 -60q0 -95 -55 -164t-138.5 -100.5t-183.5 -31.5q-206 0 -322 116 t-116 310zM328 623q100 -23 182 -23h6q174 0 174 102q0 113 -147 113q-83 0 -140 -53.5t-75 -138.5z" />
<glyph unicode="f" horiz-adv-x="663" d="M61 793l33 231h135l11 76q9 67 24 122t42 109t64 90.5t93.5 59t126.5 22.5q100 0 168.5 -58.5t68.5 -148.5l-30 -145h-193q10 38 10 63q0 48 -32 48q-33 0 -50 -33t-30 -125l-13 -80h205l-32 -231h-205l-111 -793h-260l111 793h-136z" />
<glyph unicode="g" horiz-adv-x="1097" d="M41 -190q0 83 37 129h211q-19 -25 -19 -56q0 -92 170 -92q98 0 153.5 65t72.5 201l2 17h-4q-30 -39 -93 -66.5t-129 -27.5q-179 0 -280 112.5t-101 304.5q0 171 61 318.5t173 238t250 90.5q174 0 256 -104h6l10 84h240l-127 -897q-42 -298 -163 -427.5t-349 -129.5 q-195 0 -286 58t-91 182zM324 438q0 -92 38.5 -147t120.5 -55q59 0 104.5 22.5t71.5 56t42.5 79t22 84t5.5 77.5q0 103 -42 167t-126 64q-78 0 -133.5 -53t-79.5 -129.5t-24 -165.5z" />
<glyph unicode="h" horiz-adv-x="1069" d="M41 0l207 1479h268l-72 -523q104 88 234 88q144 0 226.5 -89t82.5 -234q0 -39 -6 -82l-90 -639h-266l82 590q4 46 4 59q0 137 -121 137q-76 0 -131 -54t-72 -157l-80 -575h-266z" />
<glyph unicode="i" horiz-adv-x="524" d="M41 0l143 1024h265l-144 -1024h-264zM156 1319q0 75 54.5 129.5t129.5 54.5t129.5 -54.5t54.5 -129.5t-54.5 -129.5t-129.5 -54.5q-81 0 -131 53q-53 50 -53 131z" />
<glyph unicode="j" horiz-adv-x="462" d="M-348 -227l33 129h198q-12 -21 -12 -49q0 -41 41 -41q32 0 45 27.5t27 121.5l149 1063h264l-143 -1020q-33 -237 -111.5 -335.5t-228.5 -98.5q-122 0 -192 55.5t-70 147.5zM115 1319q0 75 54.5 129.5t129.5 54.5t129.5 -54.5t54.5 -129.5t-54.5 -129.5t-129.5 -54.5 q-81 0 -131 53q-53 50 -53 131z" />
<glyph unicode="k" horiz-adv-x="985" d="M41 0l207 1479h266l-113 -807l334 352h332l-453 -455l322 -569h-291l-272 473l-66 -473h-266z" />
<glyph unicode="l" horiz-adv-x="512" d="M41 0l207 1479h264l-207 -1479h-264z" />
<glyph unicode="m" horiz-adv-x="1560" d="M41 0l143 1024h256l-12 -96h4q88 116 232 116q84 0 148 -38.5t89 -100.5q115 139 264 139q144 0 229 -86t85 -231q0 -37 -6 -84l-91 -643h-266l84 596q4 40 4 57q0 133 -112 133q-65 0 -107.5 -49.5t-54.5 -136.5l-84 -600h-264l84 596q4 40 4 55q0 135 -117 135 q-65 0 -108 -49t-54 -129l-86 -608h-264z" />
<glyph unicode="n" horiz-adv-x="1073" d="M41 0l143 1024h267l-15 -100h4q114 120 260 120q125 0 207 -85.5t82 -215.5q0 -19 -4 -65l-96 -678h-271l87 610q2 14 2 39q0 137 -121 137q-165 0 -199 -211l-80 -575h-266z" />
<glyph unicode="o" horiz-adv-x="1048" d="M41 403q0 172 63 316.5t187.5 234.5t286.5 90q128 0 224 -63t145.5 -168.5t49.5 -237.5q0 -126 -33.5 -233t-97.5 -188.5t-166 -127.5t-231 -46q-202 0 -315 117t-113 306zM319 424q0 -98 39 -143t125 -45q129 0 183.5 79.5t54.5 255.5q0 215 -160 215 q-125 0 -183.5 -98.5t-58.5 -263.5z" />
<glyph unicode="p" horiz-adv-x="1079" d="M-20 -410l200 1434h240l-10 -84h6q107 104 258 104q111 0 192.5 -62t121.5 -163t40 -225q0 -276 -129 -445t-346 -169q-148 0 -238 75h-4l-67 -465h-264zM362 442q0 -206 170 -206q57 0 101 23.5t68.5 58t40 81t20 85.5t4.5 79q0 102 -39 162.5t-117 60.5q-65 0 -115 -34 t-77.5 -87.5t-41.5 -110.5t-14 -112z" />
<glyph unicode="q" horiz-adv-x="1077" d="M41 397q0 171 61 318.5t172.5 238t249.5 90.5q174 0 256 -104h6l11 84h239l-200 -1434h-265l64 465h-4q-69 -75 -209 -75q-179 0 -280 112.5t-101 304.5zM303 438q0 -92 39 -147t121 -55q59 0 104.5 22.5t71.5 56t42.5 79t22 84t5.5 77.5q0 103 -42 167t-126 64 q-78 0 -133.5 -53t-80 -130t-24.5 -165z" />
<glyph unicode="r" horiz-adv-x="874" d="M20 0l144 1024h268l-10 -84h4q101 104 225 104q98 0 160.5 -56.5t62.5 -147.5t-43 -189l-14 -30h-219q20 41 20 92q0 86 -86 86q-133 0 -163 -224l-80 -575h-269z" />
<glyph unicode="s" horiz-adv-x="923" d="M20 236q0 76 29 124l8 19h240q-16 -37 -16 -80q0 -44 37 -70t100 -26q67 0 111 30t44 74q0 34 -26 59.5t-67 41.5t-91 30.5t-100.5 33.5t-91.5 44.5t-67 68t-26 99.5q0 169 109 263.5t297 94.5q149 0 250.5 -65t101.5 -178l-26 -127h-240q10 38 10 63q0 37 -31.5 60.5 t-80.5 23.5q-69 0 -104.5 -26.5t-35.5 -67.5q0 -34 35 -60.5t87.5 -42.5t114 -39.5t114 -48.5t87.5 -72t35 -108q0 -182 -110.5 -278t-313.5 -96q-173 0 -278 70t-105 186z" />
<glyph unicode="t" horiz-adv-x="784" d="M51 786l33 238h149l37 266h258l-36 -266h262l-33 -238h-262l-51 -370q-11 -90 -11 -117q0 -78 49 -78q52 0 52 64l-4 26h198q10 -38 10 -69q0 -128 -74.5 -195t-219.5 -67q-128 0 -203.5 75t-75.5 205q0 40 6 86l66 440h-150z" />
<glyph unicode="u" horiz-adv-x="1040" d="M51 270q0 20 4 56l99 698h270l-88 -631q-2 -16 -2 -45q0 -53 33.5 -81.5t89.5 -28.5q168 0 198 211l80 575h264l-143 -1024h-264l14 100h-4l-32.5 -35t-34 -29.5t-47.5 -30.5t-56 -16.5t-78 -8.5q-132 0 -217.5 81t-85.5 209z" />
<glyph unicode="v" horiz-adv-x="942" d="M51 1024h283l84 -680l272 680h283l-463 -1024h-283z" />
<glyph unicode="w" horiz-adv-x="1466" d="M72 1024h276l60 -653l260 653h235l76 -653l244 653h284l-436 -1024h-266l-78 578l-240 -578h-266z" />
<glyph unicode="x" horiz-adv-x="1050" d="M-61 0l403 524l-272 500h299l147 -266l211 266h324l-414 -500l260 -524h-293l-133 293l-211 -293h-321z" />
<glyph unicode="y" horiz-adv-x="964" d="M-61 -317l32 235q40 -29 95 -29q64 0 106 41t82 131l-231 963h286l113 -598q4 -12 4 -33q0 3 12 33l271 598h297l-492 -981q-60 -120 -109.5 -194.5t-102 -119.5t-105.5 -62t-125 -17z" />
<glyph unicode="z" horiz-adv-x="978" d="M-20 0l30 213l535 573h-441l35 238h799l-29 -213l-551 -575h482l-33 -236h-827z" />
<glyph unicode="{" horiz-adv-x="792" d="M41 514l12 137q86 7 191 68q59 34 80 65t30 97l33 227q26 176 103 261t233 85q49 0 111 -12l-15 -146q-56 15 -98 15q-162 0 -189 -232l-26 -209q-19 -128 -71 -190.5t-189 -106.5q98 -39 137 -104.5t39 -157.5q-4 -64 -8 -98l-33 -209q-6 -40 -6 -76q0 -75 30.5 -115 t88.5 -40q47 0 102 14l-16 -145q-73 -13 -117 -13q-117 0 -177.5 69.5t-60.5 192.5q0 41 6 84l33 230q6 49 6 88q0 50 -17.5 89.5t-42.5 62.5t-58.5 39t-59.5 22t-51 8z" />
<glyph unicode="|" horiz-adv-x="450" d="M143 -330v1764h164v-1764h-164z" />
<glyph unicode="}" horiz-adv-x="833" d="M-41 -352l16 149q49 -14 99 -14q139 0 166 227l24 203q10 60 19 102t28 94.5t43 86t63.5 61t90.5 35.5q-148 41 -148 217q0 3 5 61l26 203q6 43 6 80q0 147 -96 147q-50 0 -102 -14l14 150q67 18 115 18q117 0 178 -69t61 -191q0 -38 -6 -82l-33 -227q-6 -37 -6 -62 q0 -46 44.5 -85.5t96 -59t89.5 -21.5l-13 -147q-75 -6 -190 -68q-84 -47 -111 -241l-32 -228q-26 -174 -102.5 -259t-231.5 -85q-45 0 -113 19z" />
<glyph unicode="~" horiz-adv-x="1077" d="M102 586q0 103 70 164t180 61q55 0 115.5 -28.5t103.5 -63.5t89 -63.5t77 -28.5q33 0 53.5 20t20.5 55l-10 62h157q17 -34 17 -80q0 -103 -69.5 -164t-178.5 -61q-49 0 -110 28.5t-107.5 63.5t-93.5 63.5t-72 28.5q-36 0 -57 -20t-21 -56l10 -61h-157q-17 34 -17 80z" />
<glyph unicode="&#xa1;" horiz-adv-x="608" d="M51 -412l146 1035h258l-146 -1035h-258zM180 874q0 69 49.5 118.5t118.5 49.5t118.5 -49.5t49.5 -118.5q0 -68 -49.5 -117.5t-118.5 -49.5t-118.5 49.5t-49.5 117.5z" />
<glyph unicode="&#xa2;" horiz-adv-x="1054" d="M82 410q0 156 58.5 291t169.5 226t255 111l25 176h123l-25 -174q123 -13 209 -83.5t86 -176.5q0 -38 -10.5 -80t-22.5 -65l-12 -23h-207q17 49 17 80q0 90 -95 105l-80 -568q140 24 140 174v27h209q8 -36 8 -92q0 -164 -111.5 -259.5t-279.5 -98.5l-21 -156h-123l23 166 q-156 31 -246 141.5t-90 278.5zM350 444q0 -159 103 -206l77 550q-85 -27 -132.5 -124.5t-47.5 -219.5z" />
<glyph unicode="&#xa3;" horiz-adv-x="1161" d="M82 569l22 164h142q0 6 1 73t4.5 136.5t10.5 110.5q29 174 146.5 267t312.5 93q170 0 274.5 -81t104.5 -206q0 -67 -23 -120l-8 -17h-240q11 33 11 60q0 44 -38 76t-97 32q-56 0 -91.5 -16.5t-55.5 -57t-28 -90t-12 -133.5l-6 -127h340l-23 -164h-335q-29 -184 -66 -321 h584l-35 -248h-885l10 70q89 276 125 499h-145z" />
<glyph unicode="&#xa4;" horiz-adv-x="1255" d="M51 86l215 213q-98 125 -98 287q0 164 100 288l-215 220l72 71l215 -219q125 101 289 101q162 0 284 -101l220 217l71 -71l-217 -218q103 -127 103 -288q0 -162 -101 -287l215 -215l-71 -72l-215 215q-120 -102 -289 -102q-162 0 -291 102l-215 -213zM338 586 q0 -118 86 -204.5t205 -86.5q118 0 203.5 86.5t85.5 204.5q0 120 -85 204t-204 84q-118 0 -204.5 -85t-86.5 -203z" />
<glyph unicode="&#xa5;" horiz-adv-x="1300" d="M133 1393h311l215 -547l371 547h332l-492 -668h211l-22 -162h-297l-17 -125h295l-22 -162h-295l-39 -276h-266l39 276h-295l22 162h295l17 125h-293l22 162h209z" />
<glyph unicode="&#xa6;" horiz-adv-x="491" d="M164 -332v717h164v-717h-164zM164 778v656h164v-656h-164z" />
<glyph unicode="&#xa7;" horiz-adv-x="935" d="M41 201q0 79 47 135h221q-20 -33 -20 -57q0 -70 125 -70q69 0 111 23t42 63q0 28 -26.5 47.5t-68.5 32t-93 24.5t-101.5 30t-92.5 42t-68.5 67t-26.5 101q0 78 33.5 129t116.5 117q-90 66 -90 186q0 159 109.5 250.5t285.5 91.5q144 0 247 -59.5t103 -161.5 q0 -35 -11 -69.5t-24 -49.5l-10 -16h-221q18 35 18 59q0 68 -110 68q-66 0 -104 -25.5t-38 -64.5q0 -42 69 -72.5t165 -46.5q95 -17 165 -74.5t70 -144.5q0 -75 -35 -130.5t-112 -115.5q96 -66 96 -191q0 -156 -117 -247.5t-295 -91.5q-92 0 -172.5 24t-134 76t-53.5 121z M319 707q0 -69 246 -136q74 47 74 115t-248 135q-72 -47 -72 -114z" />
<glyph unicode="&#xa8;" horiz-adv-x="899" d="M61 1290q0 67 49.5 115.5t118.5 48.5q67 0 115.5 -48t48.5 -116q0 -69 -48.5 -118.5t-115.5 -49.5q-69 0 -118.5 49.5t-49.5 118.5zM506 1290q0 67 49.5 115.5t118.5 48.5q68 0 116 -48t48 -116q0 -69 -48.5 -118.5t-115.5 -49.5q-69 0 -118.5 49.5t-49.5 118.5z" />
<glyph unicode="&#xa9;" horiz-adv-x="1679" d="M102 717q0 149 59.5 286t159 235.5t235.5 157t284 58.5q197 0 367 -100t270 -270t100 -367q0 -148 -58.5 -284t-157 -235.5t-235.5 -158.5t-286 -59q-150 0 -286.5 58.5t-235.5 157.5t-157.5 235t-58.5 286zM236 717q0 -124 47.5 -237.5t128 -196.5t192.5 -132t236 -49 q123 0 235 49t192.5 132t128.5 196.5t48 237.5q0 122 -48 235t-128.5 196t-192.5 133t-235 50q-165 0 -304.5 -83.5t-219.5 -224.5t-80 -306zM516 709q0 182 97 301.5t257 119.5q122 0 192.5 -61.5t70.5 -157.5l-11 -75h-139q4 16 4 41q0 46 -30.5 74t-88.5 28 q-92 0 -141 -71.5t-49 -196.5q0 -238 186 -238q59 0 91.5 30t29.5 87l-2 31h141q9 -24 9 -62q0 -112 -78.5 -174.5t-196.5 -62.5q-342 0 -342 387z" />
<glyph unicode="&#xaa;" horiz-adv-x="751" d="M82 1016q0 183 93.5 307.5t225.5 124.5q110 0 160 -59l12 45h179l-99 -701h-168l9 60h-2q-71 -74 -170 -74q-103 0 -171.5 78t-68.5 219zM256 1036q0 -70 32 -105.5t85 -35.5q69 0 114 60t45 161q0 74 -28 115t-78 41q-78 0 -124 -63.5t-46 -172.5z" />
<glyph unicode="&#xab;" horiz-adv-x="940" d="M10 549l365 393h190l-372 -401l266 -420h-174zM354 549l365 393h190l-372 -401l266 -420h-174z" />
<glyph unicode="&#xac;" horiz-adv-x="1009" d="M61 627v254h887v-568h-248v314h-639z" />
<glyph unicode="&#xad;" horiz-adv-x="774" d="M61 477l31 225h600l-30 -225h-601z" />
<glyph unicode="&#xae;" horiz-adv-x="1679" d="M102 717q0 149 59.5 286t159 235.5t235.5 157t284 58.5q197 0 367 -100t270 -270t100 -367q0 -148 -58.5 -284t-157 -235.5t-235.5 -158.5t-286 -59q-150 0 -286.5 58.5t-235.5 157.5t-157.5 235t-58.5 286zM236 717q0 -124 47.5 -237.5t128 -196.5t192.5 -132t236 -49 q123 0 235 49t192.5 132t128.5 196.5t48 237.5q0 122 -48 235t-128.5 196t-192.5 133t-235 50q-165 0 -304.5 -83.5t-219.5 -224.5t-80 -306zM592 332v788h270q128 0 196 -61.5t68 -171.5q0 -159 -135 -215l162 -340h-174l-141 319h-88v-319h-158zM750 793h116q109 0 109 94 q0 92 -113 92h-112v-186z" />
<glyph unicode="&#xaf;" horiz-adv-x="743" d="M164 1208v185h579v-185h-579z" />
<glyph unicode="&#xb0;" horiz-adv-x="958" d="M164 1149q0 131 92 223t223 92t223.5 -92.5t92.5 -222.5t-92.5 -222.5t-223.5 -92.5t-223 92t-92 223zM301 1149q0 -76 52 -130t126 -54t126 54t52 130t-52 130t-126 54q-77 0 -127 -53q-51 -54 -51 -131z" />
<glyph unicode="&#xb1;" horiz-adv-x="1044" d="M82 176v143h876v-143h-876zM86 680v143h367v271h143v-271h367v-143h-367v-270h-143v270h-367z" />
<glyph unicode="&#xb2;" horiz-adv-x="737" d="M102 627l21 143l188 174q132 122 162.5 163.5t30.5 102.5q0 36 -20.5 57t-53.5 21q-35 0 -58.5 -20.5t-23.5 -50.5v-17h-147q-4 20 -4 43q0 87 67 145t180 58q99 0 165.5 -62.5t66.5 -154.5q0 -81 -44 -156t-159 -182l-108 -103h266l-23 -161h-506z" />
<glyph unicode="&#xb3;" horiz-adv-x="696" d="M102 795l33 104h154q-21 -27 -21 -63q0 -62 82 -62q45 0 76 35t31 94q0 46 -22 70t-60 24q-51 0 -68 -10l-8 -4l-61 94l208 201h-243l20 156h432l-18 -136l-188 -178q75 -2 123.5 -56t48.5 -146q0 -138 -79 -221t-208 -83q-102 0 -167 47t-65 134z" />
<glyph unicode="&#xb4;" horiz-adv-x="645" d="M61 1130l185 304h338l-324 -304h-199z" />
<glyph unicode="&#xb5;" horiz-adv-x="1026" d="M-61 -410l200 1434h271l-88 -631q-3 -18 -3 -35q0 -59 31.5 -89.5t91.5 -30.5q169 0 199 211l80 575h264l-143 -1024h-264l14 96h-4q-76 -108 -207 -108q-65 0 -119 28l-59 -426h-264z" />
<glyph unicode="&#xb6;" horiz-adv-x="1079" d="M82 1153q0 112 78 196.5t190 84.5h709l-25 -185h-139l-197 -1388h-194l196 1388h-159l-197 -1388h-194l151 1069q-93 0 -156 64.5t-63 158.5z" />
<glyph unicode="&#xb7;" horiz-adv-x="540" d="M102 578q0 68 49.5 117.5t118.5 49.5t118.5 -49.5t49.5 -117.5q0 -69 -49.5 -118.5t-118.5 -49.5t-118.5 49.5t-49.5 118.5z" />
<glyph unicode="&#xb8;" horiz-adv-x="696" d="M102 -301l140 53q27 -49 108 -49q90 0 90 70q0 32 -22 50.5t-62 18.5l-86 -12v88q63 14 125 14q90 0 144.5 -44.5t54.5 -116.5q0 -85 -64 -138t-184 -53q-183 0 -244 119z" />
<glyph unicode="&#xb9;" horiz-adv-x="704" d="M102 627l23 153h184l58 410h-183l17 125q100 0 153.5 27t73.5 92h137l-90 -654h168l-22 -153h-519z" />
<glyph unicode="&#xba;" horiz-adv-x="745" d="M41 995q0 184 100.5 311.5t266.5 127.5q131 0 208.5 -91t77.5 -231q0 -178 -93.5 -292.5t-268.5 -114.5q-136 0 -213.5 81t-77.5 209zM231 1010q0 -67 27 -98t84 -31q89 0 125.5 54t36.5 175q0 147 -109 147q-164 0 -164 -247z" />
<glyph unicode="&#xbb;" horiz-adv-x="980" d="M-20 121l372 401l-266 420h174l275 -428l-365 -393h-190zM324 121l372 401l-266 420h174l275 -428l-365 -393h-190z" />
<glyph unicode="&#xbc;" horiz-adv-x="1599" d="M102 627l23 153h184l58 410h-183l17 125q100 0 153.5 27t73.5 92h137l-90 -654h168l-22 -153h-519zM492 -23l569 1506l119 -51l-568 -1502zM897 184l18 133l336 490h215l-65 -469h96l-20 -154h-97l-26 -184h-164l27 184h-320zM1073 338h164l43 299h-2z" />
<glyph unicode="&#xbd;" horiz-adv-x="1601" d="M102 627l23 153h184l58 410h-183l17 125q100 0 153.5 27t73.5 92h137l-90 -654h168l-22 -153h-519zM492 -23l569 1506l119 -51l-568 -1502zM926 0l20 143l189 174q130 121 161 163t31 104q0 36 -20.5 57t-53.5 21q-35 0 -58.5 -21t-23.5 -51v-17h-147q-4 20 -4 43 q0 87 67.5 145t180.5 58q99 0 165 -62t66 -155q0 -81 -44 -156t-159 -182l-108 -102h266l-22 -162h-506z" />
<glyph unicode="&#xbe;" horiz-adv-x="1525" d="M102 795l33 104h154q-21 -27 -21 -63q0 -62 82 -62q45 0 76 35t31 94q0 46 -22 70t-60 24q-51 0 -68 -10l-8 -4l-61 94l208 201h-243l20 156h432l-18 -136l-188 -178q75 -2 123.5 -56t48.5 -146q0 -138 -79 -221t-208 -83q-102 0 -167 47t-65 134zM430 -23l569 1506 l119 -51l-567 -1502zM823 184l19 133l336 490h215l-66 -469h96l-20 -154h-96l-27 -184h-164l27 184h-320zM999 338h164l43 299h-2z" />
<glyph unicode="&#xbf;" horiz-adv-x="917" d="M20 -96q0 35 7 69t14.5 59.5t26.5 56t29.5 47.5t38 46t37.5 39.5t41.5 40t37.5 35.5l86 82q30 28 60 75.5t34 86.5l6 53h264l-10 -76q-8 -59 -45 -124.5t-72 -102.5l-96 -90q-6 -5 -19 -16q-41 -34 -61.5 -53t-47.5 -51t-38.5 -65t-11.5 -71q0 -44 36.5 -76.5t90.5 -32.5 q76 0 121 50.5t45 127.5l-4 47h233q13 -37 13 -94q0 -173 -120.5 -285t-301.5 -112q-171 0 -282.5 90t-111.5 244zM422 877q0 69 49.5 118t118.5 49t118.5 -49t49.5 -118q0 -68 -49.5 -118t-118.5 -50t-118.5 50t-49.5 118z" />
<glyph unicode="&#xc0;" horiz-adv-x="1376" d="M-61 0l710 1434h316l309 -1434h-303l-56 283h-532l-133 -283h-311zM395 1864h338l185 -303h-199zM506 539h360l-104 540z" />
<glyph unicode="&#xc1;" horiz-adv-x="1376" d="M-61 0l710 1434h316l309 -1434h-303l-56 283h-532l-133 -283h-311zM506 539h360l-104 540zM694 1561l185 303h338l-324 -303h-199z" />
<glyph unicode="&#xc2;" horiz-adv-x="1376" d="M-61 0l710 1434h316l309 -1434h-303l-56 283h-532l-133 -283h-311zM424 1561l260 290h299l178 -290h-196l-144 131l-180 -131h-217zM506 539h360l-104 540z" />
<glyph unicode="&#xc3;" horiz-adv-x="1376" d="M-61 0l710 1434h316l309 -1434h-303l-56 283h-532l-133 -283h-311zM498 1624q0 95 57 155t143 60q27 0 127 -41t129 -41q45 0 45 39l-4 31h146q4 -36 4 -60q0 -97 -57.5 -158t-143.5 -61q-32 0 -134 42t-122 42q-48 0 -45 -45l2 -26h-143q-4 46 -4 63zM506 539h360 l-104 540z" />
<glyph unicode="&#xc4;" horiz-adv-x="1376" d="M-61 0l710 1434h316l309 -1434h-303l-56 283h-532l-133 -283h-311zM432 1708q0 67 49.5 115.5t118.5 48.5q68 0 116 -48t48 -116q0 -69 -48.5 -118.5t-115.5 -49.5q-69 0 -118.5 49.5t-49.5 118.5zM506 539h360l-104 540zM877 1708q0 68 49 116t118 48q68 0 116 -48 t48 -116q0 -69 -48.5 -118.5t-115.5 -49.5q-69 0 -118 49.5t-49 118.5z" />
<glyph unicode="&#xc5;" horiz-adv-x="1376" d="M-61 0l710 1434h316l309 -1434h-303l-56 283h-532l-133 -283h-311zM506 539h360l-104 540zM561 1776q0 95 71 166t165 71q92 0 164.5 -72.5t72.5 -164.5q0 -94 -71 -165t-166 -71q-99 0 -166 70q-70 67 -70 166zM705 1776q0 -37 27.5 -65t64.5 -28q36 0 62 28t26 65 q0 38 -25.5 66t-62.5 28t-64.5 -28t-27.5 -66z" />
<glyph unicode="&#xc6;" horiz-adv-x="1732" d="M-61 0l858 1434h936l-35 -260h-467l-45 -318h428l-35 -246h-428l-49 -350h477l-37 -260h-760l39 279h-399l-164 -279h-319zM575 539h283l88 626z" />
<glyph unicode="&#xc7;" horiz-adv-x="1282" d="M61 559q0 253 90.5 456t260 321t389.5 118q205 0 327.5 -98.5t122.5 -251.5q0 -46 -10.5 -93t-23.5 -73l-11 -23h-248q21 43 21 101q0 75 -49 118.5t-144 43.5q-134 0 -231.5 -81t-145 -214t-47.5 -301q0 -326 289 -326q112 0 182 62.5t70 181.5v26h273q4 -36 4 -65 q0 -233 -150 -357t-393 -124q-279 0 -427.5 159.5t-148.5 419.5zM348 -301l139 53q27 -49 109 -49q90 0 90 70q0 32 -22 50.5t-62 18.5l-86 -12v88q63 14 125 14q90 0 144.5 -44.5t54.5 -116.5q0 -85 -64 -138t-184 -53q-183 0 -244 119z" />
<glyph unicode="&#xc8;" horiz-adv-x="1114" d="M41 0l201 1434h872l-35 -260h-590l-45 -318h551l-34 -246h-551l-50 -350h601l-37 -260h-883zM362 1864h338l185 -303h-199z" />
<glyph unicode="&#xc9;" horiz-adv-x="1114" d="M41 0l201 1434h872l-35 -260h-590l-45 -318h551l-34 -246h-551l-50 -350h601l-37 -260h-883zM580 1561l184 303h338l-324 -303h-198z" />
<glyph unicode="&#xca;" horiz-adv-x="1114" d="M41 0l201 1434h872l-35 -260h-590l-45 -318h551l-34 -246h-551l-50 -350h601l-37 -260h-883zM322 1561l260 290h299l178 -290h-197l-143 131l-180 -131h-217z" />
<glyph unicode="&#xcb;" horiz-adv-x="1114" d="M41 0l201 1434h872l-35 -260h-590l-45 -318h551l-34 -246h-551l-50 -350h601l-37 -260h-883zM326 1708q0 67 49.5 115.5t118.5 48.5q67 0 115 -48t48 -116q0 -69 -48 -118.5t-115 -49.5q-69 0 -118.5 49.5t-49.5 118.5zM770 1708q0 67 49.5 115.5t118.5 48.5 q68 0 116 -48t48 -116q0 -69 -48.5 -118.5t-115.5 -49.5q-69 0 -118.5 49.5t-49.5 118.5z" />
<glyph unicode="&#xcc;" horiz-adv-x="626" d="M12 1864h338l185 -303h-199zM61 0l201 1434h303l-200 -1434h-304z" />
<glyph unicode="&#xcd;" horiz-adv-x="626" d="M61 0l201 1434h303l-200 -1434h-304zM317 1561l185 303h338l-324 -303h-199z" />
<glyph unicode="&#xce;" horiz-adv-x="626" d="M57 1561l260 290h299l179 -290h-197l-143 131l-181 -131h-217zM61 0l201 1434h303l-200 -1434h-304z" />
<glyph unicode="&#xcf;" horiz-adv-x="626" d="M61 0l201 1434h303l-200 -1434h-304zM88 1708q0 67 49.5 115.5t118.5 48.5q68 0 116 -48t48 -116q0 -69 -48.5 -118.5t-115.5 -49.5q-69 0 -118.5 49.5t-49.5 118.5zM492 1708q0 68 49 116t118 48q67 0 115.5 -48t48.5 -116q0 -69 -48.5 -118.5t-115.5 -49.5 q-69 0 -118 49.5t-49 118.5z" />
<glyph unicode="&#xd0;" horiz-adv-x="1320" d="M6 639l31 225h125l80 570h434q270 0 432 -162.5t162 -452.5q0 -178 -49 -327.5t-140 -259t-229 -171t-309 -61.5h-502l88 639h-123zM365 256h165q142 0 243 71.5t148.5 189t47.5 269.5q0 181 -79 286.5t-237 105.5h-159l-45 -314h249l-30 -225h-250z" />
<glyph unicode="&#xd1;" horiz-adv-x="1431" d="M41 0l201 1434h305l420 -959l133 959h278l-200 -1434h-304l-419 958l-136 -958h-278zM496 1624q0 95 57 155t143 60q27 0 127 -41t129 -41q45 0 45 39l-4 31h146q4 -36 4 -60q0 -97 -57.5 -158t-143.5 -61q-32 0 -134 42t-122 42q-48 0 -45 -45l2 -26h-143q-4 46 -4 63z " />
<glyph unicode="&#xd2;" d="M61 575q0 108 21 213.5t61 204t103.5 182t143.5 146t185.5 98t225.5 35.5q135 0 243 -51t177.5 -139.5t106 -204t36.5 -248.5q0 -177 -47 -328t-136 -263.5t-226.5 -176t-309.5 -63.5q-274 0 -429 163t-155 432zM365 592q0 -155 70 -245.5t218 -90.5q75 0 137 20.5 t104 53.5t73.5 80t49 94t28.5 102.5t14.5 98.5t3.5 88q0 81 -16 149t-48.5 121.5t-88 84t-128.5 30.5q-94 0 -169 -40.5t-120 -102t-75 -143t-41 -155t-12 -145.5zM375 1864h338l184 -303h-199z" />
<glyph unicode="&#xd3;" d="M61 575q0 108 21 213.5t61 204t103.5 182t143.5 146t185.5 98t225.5 35.5q135 0 243 -51t177.5 -139.5t106 -204t36.5 -248.5q0 -177 -47 -328t-136 -263.5t-226.5 -176t-309.5 -63.5q-274 0 -429 163t-155 432zM365 592q0 -155 70 -245.5t218 -90.5q75 0 137 20.5 t104 53.5t73.5 80t49 94t28.5 102.5t14.5 98.5t3.5 88q0 81 -16 149t-48.5 121.5t-88 84t-128.5 30.5q-94 0 -169 -40.5t-120 -102.5t-75 -142.5t-41.5 -155t-11.5 -145.5zM672 1561l184 303h338l-324 -303h-198z" />
<glyph unicode="&#xd4;" d="M61 575q0 108 21 213.5t61 204t103.5 182t143.5 146t185.5 98t225.5 35.5q135 0 243 -51t177.5 -139.5t106 -204t36.5 -248.5q0 -177 -47 -328t-136 -263.5t-226.5 -176t-309.5 -63.5q-274 0 -429 163t-155 432zM365 592q0 -155 70 -245.5t218 -90.5q75 0 137 20.5 t104 53.5t73.5 80t49 94t28.5 102.5t14.5 98.5t3.5 88q0 81 -16 149t-48.5 121.5t-88 84t-128.5 30.5q-94 0 -169 -40.5t-120 -102.5t-75 -142.5t-41.5 -155t-11.5 -145.5zM438 1561l260 290h299l179 -290h-197l-143 131l-181 -131h-217z" />
<glyph unicode="&#xd5;" d="M61 575q0 108 21 213.5t61 204t103.5 182t143.5 146t185.5 98t225.5 35.5q135 0 243 -51t177.5 -139.5t106 -204t36.5 -248.5q0 -177 -47 -328t-136 -263.5t-226.5 -176t-309.5 -63.5q-274 0 -429 163t-155 432zM365 592q0 -155 70 -245.5t218 -90.5q75 0 137 20.5 t104 53.5t73.5 80t49 94t28.5 102.5t14.5 98.5t3.5 88q0 81 -16 149t-48.5 121.5t-88 84t-128.5 30.5q-94 0 -169 -40.5t-120 -102.5t-75 -142.5t-41.5 -155t-11.5 -145.5zM508 1624q0 95 57.5 155t143.5 60q27 0 127 -41t129 -41q45 0 45 39l-4 31h145q4 -36 4 -60 q0 -97 -57.5 -158t-143.5 -61q-32 0 -134 42t-122 42q-48 0 -45 -45l2 -26h-143q-4 46 -4 63z" />
<glyph unicode="&#xd6;" d="M61 575q0 108 21 213.5t61 204t103.5 182t143.5 146t185.5 98t225.5 35.5q135 0 243 -51t177.5 -139.5t106 -204t36.5 -248.5q0 -177 -47 -328t-136 -263.5t-226.5 -176t-309.5 -63.5q-274 0 -429 163t-155 432zM365 592q0 -155 70 -245.5t218 -90.5q75 0 137 20.5 t104 53.5t73.5 80t49 94t28.5 102.5t14.5 98.5t3.5 88q0 81 -16 149t-48.5 121.5t-88 84t-128.5 30.5q-94 0 -169 -40.5t-120 -102.5t-75 -142.5t-41.5 -155t-11.5 -145.5zM446 1708q0 67 49.5 115.5t118.5 48.5q68 0 116 -48t48 -116q0 -69 -48.5 -118.5t-115.5 -49.5 q-69 0 -118.5 49.5t-49.5 118.5zM891 1708q0 67 49.5 115.5t118.5 48.5q67 0 115.5 -48t48.5 -116q0 -69 -48.5 -118.5t-115.5 -49.5q-69 0 -118.5 49.5t-49.5 118.5z" />
<glyph unicode="&#xd7;" horiz-adv-x="1085" d="M123 322l317 317l-317 317l102 103l318 -318l317 318l103 -103l-318 -317l318 -317l-103 -103l-317 318l-318 -318z" />
<glyph unicode="&#xd8;" d="M8 100l135 140q-82 143 -82 335q0 108 21 213.5t61 204t103.5 182t143.5 146t185.5 98t225.5 35.5q228 0 373 -139l129 133l129 -113l-154 -159q86 -160 86 -365q0 -177 -47 -328t-136 -263.5t-226.5 -176t-309.5 -63.5q-243 0 -393 129l-117 -123zM365 592 q0 -59 10 -111l594 621q-70 76 -187 76q-94 0 -169 -40.5t-120 -102.5t-75 -142.5t-41.5 -155t-11.5 -145.5zM459 322q72 -66 194 -66q75 0 137 20.5t104 53.5t73.5 80t49 94t28.5 102.5t14.5 98.5t3.5 88q0 83 -14 143z" />
<glyph unicode="&#xd9;" horiz-adv-x="1341" d="M72 438q0 54 8 103l125 893h307l-127 -910q-4 -40 -4 -57q0 -98 54.5 -152.5t158.5 -54.5q117 0 191.5 70.5t91.5 193.5l127 910h307l-125 -893q-38 -273 -193.5 -417t-404.5 -144q-232 0 -374 121t-142 337zM358 1864h338l185 -303h-199z" />
<glyph unicode="&#xda;" horiz-adv-x="1341" d="M72 438q0 54 8 103l125 893h307l-127 -910q-4 -40 -4 -57q0 -98 54.5 -152.5t158.5 -54.5q117 0 191.5 70.5t91.5 193.5l127 910h307l-125 -893q-38 -273 -193.5 -417t-404.5 -144q-232 0 -374 121t-142 337zM655 1561l185 303h338l-324 -303h-199z" />
<glyph unicode="&#xdb;" horiz-adv-x="1341" d="M72 438q0 54 8 103l125 893h307l-127 -910q-4 -40 -4 -57q0 -98 54.5 -152.5t158.5 -54.5q117 0 191.5 70.5t91.5 193.5l127 910h307l-125 -893q-38 -273 -193.5 -417t-404.5 -144q-232 0 -374 121t-142 337zM408 1561l260 290h299l178 -290h-197l-143 131l-180 -131 h-217z" />
<glyph unicode="&#xdc;" horiz-adv-x="1341" d="M72 438q0 54 8 103l125 893h307l-127 -910q-4 -40 -4 -57q0 -98 54.5 -152.5t158.5 -54.5q117 0 191.5 70.5t91.5 193.5l127 910h307l-125 -893q-38 -273 -193.5 -417t-404.5 -144q-232 0 -374 121t-142 337zM393 1708q0 67 49.5 115.5t118.5 48.5q67 0 115.5 -48 t48.5 -116q0 -69 -48.5 -118.5t-115.5 -49.5q-69 0 -118.5 49.5t-49.5 118.5zM838 1708q0 67 49.5 115.5t118.5 48.5q67 0 115 -48t48 -116q0 -69 -48 -118.5t-115 -49.5q-69 0 -118.5 49.5t-49.5 118.5z" />
<glyph unicode="&#xdd;" horiz-adv-x="1175" d="M51 1434h344l207 -543l356 543h361l-608 -836l-84 -598h-285l84 598zM582 1561l184 303h338l-324 -303h-198z" />
<glyph unicode="&#xde;" horiz-adv-x="1140" d="M41 0l201 1434h286l-36 -267h184q208 0 326 -100.5t118 -269.5q0 -221 -134 -361.5t-353 -140.5h-264l-41 -295h-287zM406 551h212q101 0 161.5 58.5t60.5 150.5q0 71 -45.5 111t-135.5 40h-202z" />
<glyph unicode="&#xdf;" horiz-adv-x="1261" d="M41 793l33 231h127l14 98q27 180 159.5 297t321.5 117q183 0 283 -94.5t100 -265.5q0 -150 -82 -377q-59 18 -112 18q-46 0 -80.5 -21.5t-34.5 -62.5q0 -25 25 -44.5t64.5 -33.5t88 -29t96.5 -36.5t87.5 -50.5t64.5 -77t25 -110q0 -175 -120.5 -273.5t-324.5 -98.5 q-170 0 -266 69t-96 187q0 86 45 143h237q-24 -34 -24 -80q0 -92 139 -92q69 0 113.5 33.5t44.5 87.5q0 30 -24.5 51t-64 33.5t-87 25t-94.5 31.5t-86.5 45.5t-64 74t-24.5 111.5q0 135 90 224t215 92q19 74 19 125q0 149 -154 149q-99 0 -153.5 -54.5t-71.5 -172.5 l-150 -1063h-260l111 793h-129z" />
<glyph unicode="&#xe0;" horiz-adv-x="1058" d="M41 414q0 175 63 320t170.5 227.5t233.5 82.5q163 0 233 -88h4l13 68h260l-141 -1024h-246l12 86h-4q-100 -106 -248 -106q-149 0 -249.5 114t-100.5 320zM129 1434h338l184 -304h-198zM295 442q0 -100 47 -153t123 -53q101 0 167 88.5t66 234.5q0 109 -41 168t-114 59 q-113 0 -180.5 -93t-67.5 -251z" />
<glyph unicode="&#xe1;" horiz-adv-x="1058" d="M41 414q0 175 63 320t170.5 227.5t233.5 82.5q163 0 233 -88h4l13 68h260l-141 -1024h-246l12 86h-4q-100 -106 -248 -106q-149 0 -249.5 114t-100.5 320zM295 442q0 -100 47 -153t123 -53q101 0 167 88.5t66 234.5q0 109 -41 168t-114 59q-113 0 -180.5 -93t-67.5 -251z M420 1130l184 304h338l-324 -304h-198z" />
<glyph unicode="&#xe2;" horiz-adv-x="1058" d="M41 414q0 175 63 320t170.5 227.5t233.5 82.5q163 0 233 -88h4l13 68h260l-141 -1024h-246l12 86h-4q-100 -106 -248 -106q-149 0 -249.5 114t-100.5 320zM240 1143l260 291h299l178 -291h-197l-143 131l-180 -131h-217zM295 442q0 -100 47 -153t123 -53q101 0 167 88.5 t66 234.5q0 109 -41 168t-114 59q-113 0 -180.5 -93t-67.5 -251z" />
<glyph unicode="&#xe3;" horiz-adv-x="1058" d="M41 414q0 175 63 320t170.5 227.5t233.5 82.5q163 0 233 -88h4l13 68h260l-141 -1024h-246l12 86h-4q-100 -106 -248 -106q-149 0 -249.5 114t-100.5 320zM295 442q0 -100 47 -153t123 -53q101 0 167 88.5t66 234.5q0 109 -41 168t-114 59q-113 0 -180.5 -93t-67.5 -251z M295 1231q0 95 57.5 155t143.5 60q27 0 127 -41t129 -41q45 0 45 39l-4 31h145q4 -36 4 -60q0 -97 -57.5 -158t-143.5 -61q-31 0 -134 42t-122 42q-48 0 -45 -45l2 -27h-143q-4 46 -4 64z" />
<glyph unicode="&#xe4;" horiz-adv-x="1058" d="M41 414q0 175 63 320t170.5 227.5t233.5 82.5q163 0 233 -88h4l13 68h260l-141 -1024h-246l12 86h-4q-100 -106 -248 -106q-149 0 -249.5 114t-100.5 320zM223 1290q0 67 49.5 115.5t118.5 48.5q67 0 115.5 -48t48.5 -116q0 -69 -48.5 -118.5t-115.5 -49.5 q-69 0 -118.5 49.5t-49.5 118.5zM295 442q0 -100 47 -153t123 -53q101 0 167 88.5t66 234.5q0 109 -41 168t-114 59q-113 0 -180.5 -93t-67.5 -251zM668 1290q0 67 49.5 115.5t118.5 48.5q67 0 115 -48t48 -116q0 -69 -48 -118.5t-115 -49.5q-69 0 -118.5 49.5t-49.5 118.5z " />
<glyph unicode="&#xe5;" horiz-adv-x="1058" d="M41 414q0 175 63 320t170.5 227.5t233.5 82.5q163 0 233 -88h4l13 68h260l-141 -1024h-246l12 86h-4q-100 -106 -248 -106q-149 0 -249.5 114t-100.5 320zM295 442q0 -100 47 -153t123 -53q101 0 167 88.5t66 234.5q0 109 -41 168t-114 59q-113 0 -180.5 -93t-67.5 -251z M346 1364q0 95 71.5 166.5t164.5 71.5q92 0 164.5 -72t72.5 -166q0 -95 -71.5 -165.5t-165.5 -70.5q-95 0 -165.5 70.5t-70.5 165.5zM489 1364q0 -37 28 -64.5t65 -27.5q36 0 62 27.5t26 64.5q0 38 -25.5 66t-62.5 28t-65 -28t-28 -66z" />
<glyph unicode="&#xe6;" horiz-adv-x="1568" d="M31 244q0 80 21 140.5t56.5 100t91 67t114.5 41.5t137 23q122 13 167.5 40t45.5 79q0 40 -40 65t-96 25q-168 0 -168 -116l5 -37h-215q-13 37 -13 76q0 135 108 215.5t300 80.5q205 0 299 -116q119 116 311 116q160 0 266.5 -97t106.5 -240q0 -150 -110 -229t-298 -79 q-106 0 -229 27q-2 -12 -2 -35q0 -182 194 -182q74 0 111 31t37 77v19h213q6 -24 6 -60q0 -95 -55 -164t-138.5 -100.5t-183.5 -31.5q-226 0 -328 147q-13 -13 -28 -26t-52.5 -37t-77.5 -41t-102 -30t-129 -13q-153 0 -239 71t-86 193zM295 289q0 -84 100 -84q95 0 153 53 t70 141l9 60q-33 -19 -96.5 -34t-111.5 -24.5t-86 -37.5t-38 -74zM922 623q95 -23 192 -23q170 0 170 102q0 113 -147 113q-83 0 -140 -53.5t-75 -138.5z" />
<glyph unicode="&#xe7;" horiz-adv-x="946" d="M41 408q0 128 39 243t109 202.5t175 139t230 51.5q133 0 227 -71.5t94 -190.5q0 -108 -45 -170h-206q16 46 16 80q0 45 -30 72t-81 27q-86 0 -146.5 -48.5t-87 -122.5t-26.5 -167q0 -97 44 -157t124 -60q85 0 126.5 38.5t41.5 128.5v27h217q8 -36 8 -92 q0 -167 -109 -262.5t-282 -95.5q-195 0 -316.5 115t-121.5 313zM199 -301l139 53q27 -49 108 -49q91 0 91 70q0 32 -22 50.5t-62 18.5l-86 -12v88q63 14 125 14q90 0 144 -44.5t54 -116.5q0 -85 -64 -138t-184 -53q-182 0 -243 119z" />
<glyph unicode="&#xe8;" horiz-adv-x="974" d="M41 406q0 98 18.5 188.5t59.5 173t100 143.5t147 97t195 36q160 0 266.5 -97t106.5 -240q0 -150 -110 -229t-298 -79q-106 0 -229 27q-2 -12 -2 -35q0 -182 194 -182q74 0 111 31t37 77v19h213q6 -24 6 -60q0 -95 -55 -164t-138.5 -100.5t-183.5 -31.5q-206 0 -322 116 t-116 310zM137 1434h338l184 -304h-198zM328 623q95 -23 192 -23q170 0 170 102q0 113 -147 113q-83 0 -140 -53.5t-75 -138.5z" />
<glyph unicode="&#xe9;" horiz-adv-x="974" d="M41 406q0 98 18.5 188.5t59.5 173t100 143.5t147 97t195 36q160 0 266.5 -97t106.5 -240q0 -150 -110 -229t-298 -79q-106 0 -229 27q-2 -12 -2 -35q0 -182 194 -182q74 0 111 31t37 77v19h213q6 -24 6 -60q0 -95 -55 -164t-138.5 -100.5t-183.5 -31.5q-206 0 -322 116 t-116 310zM328 623q95 -23 192 -23q170 0 170 102q0 113 -147 113q-83 0 -140 -53.5t-75 -138.5zM451 1130l184 304h338l-324 -304h-198z" />
<glyph unicode="&#xea;" horiz-adv-x="974" d="M41 406q0 98 18.5 188.5t59.5 173t100 143.5t147 97t195 36q160 0 266.5 -97t106.5 -240q0 -150 -110 -229t-298 -79q-106 0 -229 27q-2 -12 -2 -35q0 -182 194 -182q74 0 111 31t37 77v19h213q6 -24 6 -60q0 -95 -55 -164t-138.5 -100.5t-183.5 -31.5q-206 0 -322 116 t-116 310zM193 1143l260 291h299l178 -291h-197l-143 131l-180 -131h-217zM328 623q95 -23 192 -23q170 0 170 102q0 113 -147 113q-83 0 -140 -53.5t-75 -138.5z" />
<glyph unicode="&#xeb;" horiz-adv-x="974" d="M41 406q0 98 18.5 188.5t59.5 173t100 143.5t147 97t195 36q160 0 266.5 -97t106.5 -240q0 -150 -110 -229t-298 -79q-106 0 -229 27q-2 -12 -2 -35q0 -182 194 -182q74 0 111 31t37 77v19h213q6 -24 6 -60q0 -95 -55 -164t-138.5 -100.5t-183.5 -31.5q-206 0 -322 116 t-116 310zM166 1290q0 67 49.5 115.5t118.5 48.5q68 0 116 -48t48 -116q0 -69 -48.5 -118.5t-115.5 -49.5q-69 0 -118.5 49.5t-49.5 118.5zM328 623q95 -23 192 -23q170 0 170 102q0 113 -147 113q-83 0 -140 -53.5t-75 -138.5zM610 1290q0 67 49.5 115.5t118.5 48.5 q68 0 116 -48t48 -116q0 -69 -48.5 -118.5t-115.5 -49.5q-69 0 -118.5 49.5t-49.5 118.5z" />
<glyph unicode="&#xec;" horiz-adv-x="512" d="M-80 1434h338l184 -304h-198zM41 0l143 1024h267l-144 -1024h-266z" />
<glyph unicode="&#xed;" horiz-adv-x="512" d="M41 0l143 1024h267l-144 -1024h-266zM219 1130l184 304h338l-323 -304h-199z" />
<glyph unicode="&#xee;" horiz-adv-x="512" d="M-59 1143l260 291h299l178 -291h-197l-143 131l-180 -131h-217zM41 0l143 1024h267l-144 -1024h-266z" />
<glyph unicode="&#xef;" horiz-adv-x="512" d="M-31 1290q0 67 49.5 115.5t118.5 48.5q67 0 115.5 -48t48.5 -116q0 -69 -48.5 -118.5t-115.5 -49.5q-69 0 -118.5 49.5t-49.5 118.5zM41 0l143 1024h267l-144 -1024h-266zM373 1290q0 67 49.5 115.5t118.5 48.5q67 0 115.5 -48t48.5 -116q0 -69 -48.5 -118.5 t-115.5 -49.5q-69 0 -118.5 49.5t-49.5 118.5z" />
<glyph unicode="&#xf0;" horiz-adv-x="1032" d="M27 395q0 125 38.5 243.5t103 208t155.5 143.5t190 54q150 0 221 -71q-9 139 -76 215l-139 -90l-55 84l108 71q-55 25 -116 25q-22 0 -78 -8l-10 -4l30 221q29 16 88 16q169 0 295 -114l144 96l57 -86l-133 -88q143 -198 143 -543q0 -178 -31.5 -319.5t-97 -249 t-174 -165t-254.5 -57.5q-194 0 -301.5 115t-107.5 303zM289 444q0 -94 43 -151t131 -57q119 0 184.5 91.5t65.5 233.5q0 109 -42.5 173.5t-127.5 64.5q-66 0 -118 -38t-80 -95.5t-42 -115t-14 -106.5z" />
<glyph unicode="&#xf1;" horiz-adv-x="1073" d="M41 0l143 1024h267l-15 -100h4q114 120 260 120q126 0 207.5 -85.5t81.5 -215.5q0 -19 -4 -65l-96 -678h-271l87 610q2 14 2 41q0 65 -31.5 100t-89.5 35q-165 0 -199 -211l-80 -575h-266zM291 1231q0 95 57.5 155t143.5 60q27 0 127 -41t129 -41q45 0 45 39l-5 31h146 q4 -36 4 -60q0 -97 -57.5 -158t-143.5 -61q-31 0 -134 42t-122 42q-48 0 -45 -45l2 -27h-143q-4 46 -4 64z" />
<glyph unicode="&#xf2;" horiz-adv-x="1048" d="M41 403q0 172 63 316.5t187.5 234.5t286.5 90q128 0 224 -63t145.5 -168.5t49.5 -237.5q0 -126 -33.5 -233t-97.5 -188.5t-166 -127.5t-231 -46q-202 0 -315 117t-113 306zM156 1434h338l184 -304h-199zM319 424q0 -98 39 -143t125 -45q129 0 183.5 79.5t54.5 255.5 q0 215 -160 215q-125 0 -183.5 -98.5t-58.5 -263.5z" />
<glyph unicode="&#xf3;" horiz-adv-x="1048" d="M41 403q0 172 63 316.5t187.5 234.5t286.5 90q128 0 224 -63t145.5 -168.5t49.5 -237.5q0 -126 -33.5 -233t-97.5 -188.5t-166 -127.5t-231 -46q-202 0 -315 117t-113 306zM319 424q0 -98 39 -143t125 -45q129 0 183.5 79.5t54.5 255.5q0 215 -160 215 q-125 0 -183.5 -98.5t-58.5 -263.5zM473 1130l184 304h338l-323 -304h-199z" />
<glyph unicode="&#xf4;" horiz-adv-x="1048" d="M41 403q0 172 63 316.5t187.5 234.5t286.5 90q128 0 224 -63t145.5 -168.5t49.5 -237.5q0 -126 -33.5 -233t-97.5 -188.5t-166 -127.5t-231 -46q-202 0 -315 117t-113 306zM197 1143l260 291h299l178 -291h-197l-143 131l-180 -131h-217zM319 424q0 -98 39 -143t125 -45 q129 0 183.5 79.5t54.5 255.5q0 215 -160 215q-125 0 -183.5 -98.5t-58.5 -263.5z" />
<glyph unicode="&#xf5;" horiz-adv-x="1048" d="M41 403q0 172 63 316.5t187.5 234.5t286.5 90q128 0 224 -63t145.5 -168.5t49.5 -237.5q0 -126 -33.5 -233t-97.5 -188.5t-166 -127.5t-231 -46q-202 0 -315 117t-113 306zM254 1231q0 95 57.5 155t143.5 60q27 0 127 -41t129 -41q45 0 45 39l-4 31h145q4 -36 4 -60 q0 -97 -57.5 -158t-143.5 -61q-32 0 -134 42t-122 42q-48 0 -45 -45l2 -27h-143q-4 46 -4 64zM319 424q0 -98 39 -143t125 -45q129 0 183.5 79.5t54.5 255.5q0 215 -160 215q-125 0 -183.5 -98.5t-58.5 -263.5z" />
<glyph unicode="&#xf6;" horiz-adv-x="1048" d="M41 403q0 172 63 316.5t187.5 234.5t286.5 90q128 0 224 -63t145.5 -168.5t49.5 -237.5q0 -126 -33.5 -233t-97.5 -188.5t-166 -127.5t-231 -46q-202 0 -315 117t-113 306zM170 1290q0 67 49.5 115.5t118.5 48.5q68 0 116 -48t48 -116q0 -69 -48.5 -118.5t-115.5 -49.5 q-69 0 -118.5 49.5t-49.5 118.5zM319 424q0 -98 39 -143t125 -45q129 0 183.5 79.5t54.5 255.5q0 215 -160 215q-125 0 -183.5 -98.5t-58.5 -263.5zM614 1290q0 67 49.5 115.5t118.5 48.5q68 0 116 -48t48 -116q0 -69 -48.5 -118.5t-115.5 -49.5q-69 0 -118.5 49.5 t-49.5 118.5z" />
<glyph unicode="&#xf7;" horiz-adv-x="1101" d="M123 592v143h856v-143h-856zM383 276q0 68 49.5 118t118.5 50t118.5 -50t49.5 -118q0 -69 -49.5 -118t-118.5 -49t-118.5 49t-49.5 118zM383 1032q0 68 49.5 118t118.5 50t118.5 -50t49.5 -118q0 -69 -49.5 -118.5t-118.5 -49.5t-118.5 49.5t-49.5 118.5z" />
<glyph unicode="&#xf8;" horiz-adv-x="1048" d="M12 76l88 90q-59 103 -59 237q0 172 63 316.5t187.5 234.5t286.5 90q166 0 274 -102l100 102l90 -92l-110 -112q65 -115 65 -265q0 -126 -33.5 -233t-97.5 -188.5t-166 -127.5t-231 -46q-175 0 -285 90l-84 -86zM319 393l347 357q-39 36 -105 36q-125 0 -183.5 -98.5 t-58.5 -263.5v-31zM375 264q39 -28 108 -28q129 0 183.5 79.5t54.5 255.5q0 37 -2 47z" />
<glyph unicode="&#xf9;" horiz-adv-x="1040" d="M51 270q0 16 4 56l99 698h270l-88 -631q-2 -12 -2 -35q0 -59 31.5 -89.5t91.5 -30.5q168 0 198 211l80 575h264l-143 -1024h-264l14 100h-4l-32.5 -35t-34 -29.5t-47.5 -30.5t-56 -16.5t-78 -8.5q-131 0 -217 81.5t-86 208.5zM188 1434h338l185 -304h-199z" />
<glyph unicode="&#xfa;" horiz-adv-x="1040" d="M51 270q0 16 4 56l99 698h270l-88 -631q-2 -12 -2 -35q0 -59 31.5 -89.5t91.5 -30.5q168 0 198 211l80 575h264l-143 -1024h-264l14 100h-4l-32.5 -35t-34 -29.5t-47.5 -30.5t-56 -16.5t-78 -8.5q-131 0 -217 81.5t-86 208.5zM504 1130l184 304h338l-324 -304h-198z" />
<glyph unicode="&#xfb;" horiz-adv-x="1040" d="M51 270q0 16 4 56l99 698h270l-88 -631q-2 -12 -2 -35q0 -59 31.5 -89.5t91.5 -30.5q168 0 198 211l80 575h264l-143 -1024h-264l14 100h-4l-32.5 -35t-34 -29.5t-47.5 -30.5t-56 -16.5t-78 -8.5q-131 0 -217 81.5t-86 208.5zM211 1143l260 291h299l178 -291h-196 l-144 131l-180 -131h-217z" />
<glyph unicode="&#xfc;" horiz-adv-x="1040" d="M51 270q0 16 4 56l99 698h270l-88 -631q-2 -12 -2 -35q0 -59 31.5 -89.5t91.5 -30.5q168 0 198 211l80 575h264l-143 -1024h-264l14 100h-4l-32.5 -35t-34 -29.5t-47.5 -30.5t-56 -16.5t-78 -8.5q-131 0 -217 81.5t-86 208.5zM207 1290q0 67 49.5 115.5t118.5 48.5 q67 0 115.5 -48t48.5 -116q0 -69 -48.5 -118.5t-115.5 -49.5q-69 0 -118.5 49.5t-49.5 118.5zM651 1290q0 67 49.5 115.5t118.5 48.5q67 0 115.5 -48t48.5 -116q0 -69 -48.5 -118.5t-115.5 -49.5q-69 0 -118.5 49.5t-49.5 118.5z" />
<glyph unicode="&#xfd;" horiz-adv-x="964" d="M-61 -317l32 235q40 -29 95 -29q64 0 106 41t82 131l-231 963h286l113 -598q4 -12 4 -33q0 3 12 33l271 598h297l-492 -981q-60 -120 -109.5 -194.5t-102 -119.5t-105.5 -62t-125 -17zM416 1130l184 304h338l-324 -304h-198z" />
<glyph unicode="&#xfe;" horiz-adv-x="1079" d="M-20 -410l258 1844h239l-67 -494h6q107 104 258 104q111 0 192.5 -62t121.5 -163t40 -225q0 -276 -129 -445t-346 -169q-148 0 -238 75h-4l-67 -465h-264zM362 442q0 -206 170 -206q57 0 101 23.5t68.5 58t40 81t20 85.5t4.5 79q0 102 -39 162.5t-117 60.5 q-65 0 -115 -34t-77.5 -87.5t-41.5 -110.5t-14 -112z" />
<glyph unicode="&#xff;" horiz-adv-x="964" d="M-61 -317l32 235q40 -29 95 -29q64 0 106 41t82 131l-231 963h286l113 -598q4 -12 4 -33q0 3 12 33l271 598h297l-492 -981q-60 -120 -109.5 -194.5t-102 -119.5t-105.5 -62t-125 -17zM150 1290q0 68 49 116t118 48q67 0 115.5 -48t48.5 -116q0 -69 -48.5 -118.5 t-115.5 -49.5q-69 0 -118 49.5t-49 118.5zM594 1290q0 67 49.5 115.5t118.5 48.5q68 0 116 -48t48 -116q0 -69 -48.5 -118.5t-115.5 -49.5q-69 0 -118.5 49.5t-49.5 118.5z" />
<glyph unicode="&#x152;" horiz-adv-x="1970" d="M61 575q0 108 21 213.5t61 204t103.5 182t143.5 146t185.5 98t225.5 35.5q206 0 346 -104l12 84h811l-35 -260h-528l-45 -318h489l-34 -246h-490l-49 -350h539l-37 -260h-822l9 61q-138 -81 -332 -81q-179 0 -310.5 78.5t-197.5 212t-66 304.5zM365 592q0 -155 70 -245.5 t218 -90.5q308 0 385 324l23 157q2 12 2 56q0 81 -16 149t-48.5 121.5t-88 84t-128.5 30.5q-94 0 -169 -40.5t-120 -102.5t-75 -142.5t-41.5 -155t-11.5 -145.5z" />
<glyph unicode="&#x153;" horiz-adv-x="1683" d="M82 403q0 128 37 243.5t104.5 204t170 141t224.5 52.5q197 0 306 -145q133 145 346 145q160 0 266 -97t106 -240q0 -150 -109.5 -229t-297.5 -79q-106 0 -229 27q0 -6 -1 -17t-1 -16q0 -184 194 -184q74 0 111 31t37 77v19h213q6 -24 6 -60q0 -95 -55 -164t-138.5 -100.5 t-183.5 -31.5q-217 0 -326 133q-130 -133 -352 -133q-202 0 -315 117t-113 306zM360 424q0 -98 39 -143t125 -45q129 0 183.5 79.5t54.5 255.5q0 215 -160 215q-125 0 -183.5 -98.5t-58.5 -263.5zM1036 623q95 -23 193 -23q170 0 170 102q0 113 -148 113q-83 0 -140 -53.5 t-75 -138.5z" />
<glyph unicode="&#x178;" horiz-adv-x="1175" d="M51 1434h344l207 -543l356 543h361l-608 -836l-84 -598h-285l84 598zM301 1708q0 67 49.5 115.5t118.5 48.5q67 0 115.5 -48t48.5 -116q0 -69 -48.5 -118.5t-115.5 -49.5q-69 0 -118.5 49.5t-49.5 118.5zM745 1708q0 67 49.5 115.5t118.5 48.5q67 0 115.5 -48t48.5 -116 q0 -69 -48.5 -118.5t-115.5 -49.5q-69 0 -118.5 49.5t-49.5 118.5z" />
<glyph unicode="&#x2c6;" horiz-adv-x="942" d="M102 1143l260 291h300l178 -291h-197l-143 131l-181 -131h-217z" />
<glyph unicode="&#x2dc;" horiz-adv-x="770" d="M61 1231q0 95 57.5 155t143.5 60q27 0 127 -41t129 -41q45 0 45 39l-4 31h146q4 -36 4 -60q0 -97 -57.5 -158t-143.5 -61q-31 0 -133.5 42t-122.5 42q-48 0 -45 -45l2 -27h-143q-5 57 -5 64z" />
<glyph unicode="&#x2000;" horiz-adv-x="1006" />
<glyph unicode="&#x2001;" horiz-adv-x="2013" />
<glyph unicode="&#x2002;" horiz-adv-x="1006" />
<glyph unicode="&#x2003;" horiz-adv-x="2013" />
<glyph unicode="&#x2004;" horiz-adv-x="671" />
<glyph unicode="&#x2005;" horiz-adv-x="503" />
<glyph unicode="&#x2006;" horiz-adv-x="335" />
<glyph unicode="&#x2007;" horiz-adv-x="335" />
<glyph unicode="&#x2008;" horiz-adv-x="251" />
<glyph unicode="&#x2009;" horiz-adv-x="402" />
<glyph unicode="&#x200a;" horiz-adv-x="111" />
<glyph unicode="&#x2010;" horiz-adv-x="774" d="M61 477l31 225h600l-30 -225h-601z" />
<glyph unicode="&#x2011;" horiz-adv-x="774" d="M61 477l31 225h600l-30 -225h-601z" />
<glyph unicode="&#x2012;" horiz-adv-x="774" d="M61 477l31 225h600l-30 -225h-601z" />
<glyph unicode="&#x2013;" horiz-adv-x="968" d="M61 487v246h826v-246h-826z" />
<glyph unicode="&#x2014;" horiz-adv-x="1480" d="M61 487v246h1338v-246h-1338z" />
<glyph unicode="&#x2018;" horiz-adv-x="354" d="M102 926l105 508h147l-104 -508h-148z" />
<glyph unicode="&#x2019;" horiz-adv-x="354" d="M102 926l105 508h147l-104 -508h-148z" />
<glyph unicode="&#x201a;" horiz-adv-x="374" d="M-41 -295l104 508h148l-105 -508h-147z" />
<glyph unicode="&#x201c;" horiz-adv-x="620" d="M102 926l105 508h147l-104 -508h-148zM369 926l104 508h148l-105 -508h-147z" />
<glyph unicode="&#x201d;" horiz-adv-x="620" d="M102 926l105 508h147l-104 -508h-148zM369 926l104 508h148l-105 -508h-147z" />
<glyph unicode="&#x201e;" horiz-adv-x="641" d="M-41 -295l104 508h148l-105 -508h-147zM225 -295l105 508h147l-104 -508h-148z" />
<glyph unicode="&#x2022;" horiz-adv-x="690" d="M102 592q0 100 70.5 172t171.5 72q100 0 172 -72t72 -172q0 -101 -72 -171.5t-172 -70.5q-101 0 -171.5 70.5t-70.5 171.5z" />
<glyph unicode="&#x2026;" horiz-adv-x="1400" d="M0 147q0 68 49.5 118t118.5 50t118.5 -50t49.5 -118q0 -69 -49.5 -118t-118.5 -49t-118.5 49t-49.5 118zM498 147q0 68 49.5 118t118.5 50t118.5 -50t49.5 -118q0 -69 -49.5 -118t-118.5 -49t-118.5 49t-49.5 118zM963 147q0 68 49 118t118 50t118.5 -50t49.5 -118 q0 -69 -49.5 -118t-118.5 -49t-118 49t-49 118z" />
<glyph unicode="&#x202f;" horiz-adv-x="402" />
<glyph unicode="&#x2039;" horiz-adv-x="616" d="M20 549l365 393h188l-372 -403l266 -418h-172z" />
<glyph unicode="&#x203a;" horiz-adv-x="616" d="M35 121l379 407l-262 414h170l274 -428l-365 -393h-196z" />
<glyph unicode="&#x205f;" horiz-adv-x="503" />
<glyph unicode="&#x20ac;" horiz-adv-x="1388" d="M41 477l22 164h168q0 1 1.5 11.5t5 36t6.5 52.5h-166l22 164h185q79 236 249 372t396 136q94 0 170 -24.5t122 -65t70.5 -89.5t24.5 -101q0 -81 -29 -129l-10 -15h-240q17 31 17 62q0 45 -38 75.5t-108 30.5q-246 0 -354 -252h387l-22 -164h-410q-9 -50 -12 -100h407 l-22 -164h-383q34 -241 270 -241q94 0 154.5 57t60.5 149l-2 27h244q6 -27 6 -66q0 -187 -140.5 -305t-342.5 -118q-243 0 -376 130t-147 367h-186z" />
<glyph unicode="&#x2122;" horiz-adv-x="1204" d="M82 1323v111h420v-111h-148v-485h-123v485h-149zM541 838v596h207l114 -500l125 500h197v-596h-121v479l-119 -479h-164l-106 434l-15 41q3 -9 3 -41v-434h-121z" />
<glyph unicode="&#x25fc;" horiz-adv-x="1024" d="M0 0v1024h1024v-1024h-1024z" />
<glyph unicode="&#xfb03;" horiz-adv-x="1851" d="M61 793l33 231h135l11 76q9 67 24 122t42 109t64 90.5t93.5 59t126.5 22.5q100 0 168.5 -58.5t68.5 -148.5l-30 -145h-193q10 38 10 63q0 48 -32 48q-33 0 -50 -33t-30 -125l-13 -80h205l-32 -231h-205l-111 -793h-260l111 793h-136zM725 793l33 231h135l10 76 q9 67 24 122t42 109t64 90.5t93.5 59t126.5 22.5q100 0 169 -58.5t69 -148.5l-31 -145h-192q10 38 10 63q0 48 -33 48t-50 -33t-30 -125l-12 -80h205l-33 -231h-205l-110 -793h-260l110 793h-135zM1368 0l143 1024h265l-144 -1024h-264zM1483 1319q0 75 54.5 129.5 t129.5 54.5t129.5 -54.5t54.5 -129.5t-54.5 -129.5t-129.5 -54.5q-81 0 -131 53q-53 50 -53 131z" />
<glyph unicode="&#xfb04;" horiz-adv-x="1839" d="M61 793l33 231h135l11 76q9 67 24 122t42 109t64 90.5t93.5 59t126.5 22.5q100 0 168.5 -58.5t68.5 -148.5l-30 -145h-193q10 38 10 63q0 48 -32 48q-33 0 -50 -33t-30 -125l-13 -80h205l-32 -231h-205l-111 -793h-260l111 793h-136zM725 793l33 231h135l10 76 q9 67 24 122t42 109t64 90.5t93.5 59t126.5 22.5q100 0 169 -58.5t69 -148.5l-31 -145h-192q10 38 10 63q0 48 -33 48t-50 -33t-30 -125l-12 -80h205l-33 -231h-205l-110 -793h-260l110 793h-135zM1368 0l207 1479h264l-207 -1479h-264z" />
</font>
</defs>
</svg>
