<?xml version="1.0" standalone="no"?>
<!DOCTYPE svg PUBLIC "-//W3C//DTD SVG 1.1//EN" "http://www.w3.org/Graphics/SVG/1.1/DTD/svg11.dtd" >
<svg xmlns="http://www.w3.org/2000/svg">
<metadata></metadata>
<defs>
<font id="brezel_groteskregular" horiz-adv-x="1302" >
<font-face units-per-em="2048" ascent="1536" descent="-512" />
<missing-glyph horiz-adv-x="512" />
<glyph unicode="&#xfb01;" horiz-adv-x="1040" d="M31 850v174h133q0 251 115.5 381.5t306.5 130.5q155 0 242 -68.5t87 -179.5l-10 -80h-164q7 18 7 37q0 113 -154 113q-118 0 -176 -76t-58 -258h578v-1024h-201v850h-375v-850h-196v850h-135z" />
<glyph unicode="&#xfb02;" horiz-adv-x="1060" d="M31 852v172h133q0 114 23 204t60.5 146.5t89 94t105.5 52.5t113 15q116 0 182 -57v37h201v-1516h-201v1274q-50 92 -157 92q-50 0 -88.5 -16t-61.5 -46t-38 -62t-21.5 -75.5t-8.5 -73.5t-2 -69h222v-172h-220v-852h-196v852h-135z" />
<glyph horiz-adv-x="0" />
<glyph horiz-adv-x="682" />
<glyph unicode=" "  horiz-adv-x="512" />
<glyph unicode="&#x09;" horiz-adv-x="512" />
<glyph unicode="&#xa0;" horiz-adv-x="512" />
<glyph unicode="!" horiz-adv-x="481" d="M102 119q0 56 42.5 96.5t97.5 40.5q56 0 96.5 -41t40.5 -96t-40.5 -97t-96.5 -42q-62 0 -99 40q-41 38 -41 99zM145 387v1047h197v-1047h-197z" />
<glyph unicode="&#x22;" horiz-adv-x="473" d="M72 1010v424h102v-424h-102zM299 1010v424h102v-424h-102z" />
<glyph unicode="#" horiz-adv-x="1351" d="M72 489v103h272l102 287h-237v102h272l162 453h111l-162 -453h340l162 453h110l-162 -453h238v-102h-272l-101 -287h238v-103h-275l-172 -489h-110l172 489h-340l-172 -489h-111l172 489h-237zM457 592h338l102 287h-340z" />
<glyph unicode="$" horiz-adv-x="1159" d="M133 289q0 59 21 106l6 15h194q-16 -37 -16 -97q0 -129 192 -141v467q-57 21 -96.5 39t-86 43.5t-77 55t-57.5 68t-40 87.5t-13 108q0 156 100 257t270 114v123h107v-123q167 -12 258.5 -90.5t91.5 -192.5q0 -66 -12 -94l-4 -10h-195q12 24 12 78q0 45 -37 77.5 t-114 39.5v-406l115 -47q57 -23 102 -52t89 -74.5t68.5 -112.5t24.5 -150q0 -78 -25 -146t-73 -122t-125.5 -87.5t-175.5 -39.5v-158h-107v158q-187 12 -292 91t-105 216zM371 1040q0 -113 159 -184v363q-159 -21 -159 -179zM637 172q96 10 144 65t48 140q0 76 -46.5 127 t-145.5 94v-426z" />
<glyph unicode="%" horiz-adv-x="1404" d="M53 930v147q6 162 73 249t189 87q141 0 202 -103.5t61 -320.5q0 -69 -6 -125t-23.5 -110.5t-46 -91.5t-76 -59.5t-111.5 -22.5q-72 0 -124.5 27.5t-81.5 77.5t-42.5 110.5t-13.5 134.5zM195 993q0 -45 2 -78.5t9 -71.5t19.5 -62.5t35.5 -41t54 -16.5q35 0 60 21.5 t38.5 59t19 79.5t5.5 92q0 55 -2 80q-5 111 -33 162t-88 51q-66 0 -93 -67t-27 -208zM389 -23l569 1506l78 -31l-567 -1501zM827 332v145q6 162 73.5 249t189.5 87q141 0 201.5 -103.5t60.5 -320.5q0 -69 -6 -125t-23.5 -110.5t-45.5 -91.5t-75.5 -59.5t-111.5 -22.5 q-72 0 -124.5 27.5t-82 77t-43 110.5t-13.5 137zM969 393q0 -57 4 -98t15.5 -84t37 -65.5t64.5 -22.5q122 0 122 252q0 55 -2 80q-5 111 -32.5 162t-87.5 51q-66 0 -93.5 -67t-27.5 -208z" />
<glyph unicode="&#x26;" horiz-adv-x="1150" d="M61 362q0 111 55 211.5t154 167.5q-135 173 -135 342q0 141 100 235.5t261 94.5q154 0 255 -83t101 -224q0 -233 -299 -397q166 -221 240 -289q34 103 34 229v37h201q0 -249 -74 -414q79 -71 187 -71v-201h-17q-60 0 -112.5 18t-81.5 37t-82 60q-65 -70 -142.5 -102.5 t-195.5 -32.5q-217 0 -333 106.5t-116 275.5zM270 369q0 -88 60.5 -142.5t169.5 -54.5q116 0 186 70q-130 112 -299 342q-117 -82 -117 -215zM344 1071q0 -107 96 -217q113 71 161 124.5t48 113.5q0 61 -41 96t-108 35q-72 0 -114 -42.5t-42 -109.5z" />
<glyph unicode="'" horiz-adv-x="286" d="M92 1102v332h103v-332h-103z" />
<glyph unicode="(" horiz-adv-x="434" d="M94 518q-1 158 22 310.5t59 266.5t69 191.5t63 126.5l25 41h102l-26 -43q-22 -41 -44 -88.5t-54 -136t-55.5 -182.5t-40.5 -224t-17 -262q0 -513 188 -854l47 -74h-102q-15 15 -50 77q-143 251 -177 635q-9 105 -9 216z" />
<glyph unicode=")" horiz-adv-x="434" d="M0 1454h102l25 -43q30 -54 60 -125.5t68 -187.5t61.5 -273t23.5 -323q0 -503 -188 -838l-48 -74h-102q14 14 49 75q142 254 177 633q10 107 10 220q1 158 -22 310.5t-59.5 267t-69 191t-62.5 126.5z" />
<glyph unicode="*" horiz-adv-x="663" d="M72 1067l164 94q-5 0 -9 4l-155 90l49 84l158 -92l4 -4v191h98v-181q0 -8 -2 -10l164 96l49 -84l-156 -90q-4 -4 -10 -4q0 -1 10 -4l156 -90l-49 -84l-164 94q2 0 2 -8v-180h-98v186l-162 -92z" />
<glyph unicode="+" horiz-adv-x="1019" d="M82 612v103h377v379h102v-379h377v-103h-377v-374h-102v374h-377z" />
<glyph unicode="," horiz-adv-x="415" d="M82 -295l104 508h127l-104 -508h-127z" />
<glyph unicode="-" horiz-adv-x="804" d="M102 518v184h600v-184h-600z" />
<glyph unicode="." horiz-adv-x="604" d="M164 127q0 56 42 96.5t97 40.5t96 -41t41 -96t-40.5 -97t-96.5 -42q-60 0 -98 41q-41 38 -41 98z" />
<glyph unicode="/" horiz-adv-x="817" d="M72 0l542 1434h131l-542 -1434h-131z" />
<glyph unicode="0" horiz-adv-x="1142" d="M113 690q0 122 11 221t42 195.5t80.5 161.5t132 105t192.5 40t192 -40t132 -105t80.5 -161.5t41.5 -195.5t11 -221q0 -90 -2 -135q-21 -575 -455 -575q-244 0 -351 173.5t-107 536.5zM324 694q0 -69 2 -108q6 -210 64.5 -311t180.5 -101q138 0 193 126t55 402 q0 517 -248 517q-50 0 -90 -20.5t-66.5 -58.5t-44.5 -85.5t-28 -109.5t-14 -121.5t-4 -129.5z" />
<glyph unicode="1" horiz-adv-x="935" d="M92 1024v170q169 0 245.5 43t96.5 156h178v-1203h273v-190h-785v190h293v834h-301z" />
<glyph unicode="2" horiz-adv-x="980" d="M102 0v190l377 402l70 76q77 92 108 168t31 174q0 99 -53.5 154t-132.5 55q-86 0 -134.5 -41.5t-48.5 -96.5l7 -57h-193q-10 38 -10 90q0 128 105.5 213.5t263.5 85.5q192 0 301.5 -110.5t109.5 -305.5q0 -258 -244 -514l-276 -293h537v-190h-818z" />
<glyph unicode="3" horiz-adv-x="985" d="M102 297l27 113h195q-15 -34 -15 -91q0 -71 52.5 -108t146.5 -37q82 0 134 62.5t52 181.5q0 260 -207 260q-58 0 -90 -16l-12 -7l-129 158l346 389h-452v191h704v-191l-328 -362q58 0 109 -11.5t101.5 -41.5t86 -77.5t58 -124t22.5 -175.5q0 -205 -110 -317.5 t-304 -112.5q-104 0 -191 37.5t-141.5 111t-54.5 168.5z" />
<glyph unicode="4" horiz-adv-x="1007" d="M41 338v190l465 865h291v-865h139v-190h-139v-338h-193v338h-563zM260 528h344v652h-4z" />
<glyph unicode="5" horiz-adv-x="987" d="M72 297l24 113h195q-17 -46 -17 -91q0 -70 55 -107.5t148 -37.5q102 0 160.5 67.5t58.5 202.5q0 275 -229 275q-92 0 -166 -47l-164 166l66 555h647v-191h-473l-39 -323q52 30 156 30q176 0 293.5 -120.5t117.5 -335.5q0 -219 -118.5 -346t-309.5 -127 q-168 0 -286.5 86.5t-118.5 230.5z" />
<glyph unicode="6" horiz-adv-x="1032" d="M113 485q0 180 8.5 311.5t30 238.5t55.5 176t87 116t122.5 66.5t163.5 19.5q149 0 241 -83.5t92 -205.5q0 -40 -16 -88l-6 -12h-182q14 35 14 78q0 56 -42 88.5t-116 32.5q-120 0 -180 -102.5t-61 -317.5l24 24q21 21 87.5 44.5t131.5 23.5q120 0 208.5 -63t131.5 -167 t43 -235q0 -215 -104.5 -332.5t-304.5 -117.5q-197 0 -312.5 129.5t-115.5 375.5zM315 424q0 -110 59.5 -180t170.5 -70q106 0 152 64t46 188q0 128 -50 208.5t-146 80.5q-112 0 -172 -81.5t-60 -209.5z" />
<glyph unicode="7" horiz-adv-x="866" d="M20 1188v205h836v-195q-235 -299 -318 -550t-83 -648h-230q0 662 400 1188h-605z" />
<glyph unicode="8" horiz-adv-x="1085" d="M102 383q0 266 240 377q-98 51 -147.5 122t-49.5 189q0 142 108.5 242t289.5 100t289 -99.5t108 -242.5q0 -118 -49.5 -189t-147.5 -122q240 -111 240 -377q0 -193 -120.5 -298t-319.5 -105t-320 105t-121 298zM313 395q0 -107 63.5 -164t166.5 -57t166 57t63 164 q0 224 -229 258q-230 -34 -230 -258zM352 1061q0 -163 191 -207q190 43 190 207q0 72 -54 115t-136 43t-136.5 -43t-54.5 -115z" />
<glyph unicode="9" horiz-adv-x="1040" d="M82 942q0 214 109.5 342.5t306.5 128.5q223 0 326.5 -151.5t103.5 -483.5q0 -190 -18 -328t-51 -229t-87.5 -144.5t-120 -75t-155.5 -21.5q-171 0 -263 79t-92 201l19 107h190q-12 -37 -12 -84q0 -111 154 -111q122 0 175 93t56 327l-27 -29q-20 -22 -86.5 -46.5 t-132.5 -24.5q-191 0 -293 120.5t-102 329.5zM283 954q0 -133 52.5 -205.5t153.5 -72.5q232 0 232 289q0 112 -57.5 183t-157.5 71q-223 0 -223 -265z" />
<glyph unicode=":" horiz-adv-x="634" d="M164 133q0 63 45 108.5t108 45.5t108.5 -45.5t45.5 -108.5t-45.5 -108t-108.5 -45q-66 0 -108 45q-45 42 -45 108zM164 891q0 63 45 108t108 45t108.5 -45t45.5 -108t-45.5 -108.5t-108.5 -45.5q-66 0 -108 45q-45 42 -45 109z" />
<glyph unicode=";" horiz-adv-x="604" d="M154 891q0 63 45 108t108 45t108.5 -45t45.5 -108t-45.5 -108.5t-108.5 -45.5q-66 0 -108 45q-45 42 -45 109zM164 -295l104 508h127l-104 -508h-127z" />
<glyph unicode="&#x3c;" horiz-adv-x="1026" d="M143 590v123l734 358v-131l-598 -289l604 -293v-131z" />
<glyph unicode="=" horiz-adv-x="1163" d="M164 487v103h835v-103h-835zM164 752v102h835v-102h-835z" />
<glyph unicode="&#x3e;" horiz-adv-x="1026" d="M143 227v131l605 293l-598 289v131l733 -358v-123z" />
<glyph unicode="?" horiz-adv-x="995" d="M92 1108q0 153 111 249.5t282 96.5q184 0 301 -97t117 -263q0 -70 -12.5 -121t-46.5 -103l-49 -73q-12 -18 -72 -78l-64 -62q-58 -61 -74 -109t-16 -159h-192q-1 118 12.5 180t47 110.5t120.5 137.5l74 76q29 30 50 80.5t21 99.5q0 85 -57.5 138t-150.5 53 q-96 0 -150.5 -49t-54.5 -136q0 -52 12 -80l4 -8h-186q-27 35 -27 117zM340 119q0 56 42 96.5t97 40.5t96 -41t41 -96t-40.5 -97t-96.5 -42q-61 0 -98 40q-41 38 -41 99z" />
<glyph unicode="@" horiz-adv-x="1662" d="M92 645q0 153 59 292.5t159 240t239 160t293 59.5q156 0 294 -53.5t238 -147t158.5 -226t58.5 -284.5q0 -87 -14.5 -158.5t-38 -120t-56.5 -85t-66.5 -56.5t-72.5 -32.5t-69 -16.5t-62 -4q-118 0 -161 100l-4 13q-4 -5 -11 -14t-33 -31.5t-57 -40t-83 -31.5t-111 -14 q-156 0 -245 110.5t-89 292.5q0 106 36 201t94 159.5t131 102t146 37.5q73 -1 132.5 -22t74.5 -44l15 -22l6 59h161l-57 -551q-4 -29 -4 -74q0 -55 16.5 -77.5t55.5 -22.5q30 0 57 4.5t65.5 25t65.5 55t46.5 101t19.5 156.5q0 267 -178 437.5t-459 170.5 q-181 0 -327.5 -86.5t-228 -235t-81.5 -327.5q0 -176 84.5 -325t231 -235.5t321.5 -86.5q225 0 370 86l48 -90q-168 -98 -418 -98q-154 0 -293 58.5t-239 158.5t-159 239t-59 293zM590 610q0 -262 182 -262q93 0 154 56t69 135l21 204q0 4 1 13.5t1 13.5q0 77 -43.5 126.5 t-134.5 49.5q-110 0 -180 -100.5t-70 -235.5z" />
<glyph unicode="A" d="M20 0l512 1434h238l512 -1434h-238l-116 350h-553l-117 -350h-238zM436 539h428l-213 641z" />
<glyph unicode="B" horiz-adv-x="1198" d="M143 0v1434h475q123 0 215 -29t146 -81.5t80 -119t26 -147.5q0 -110 -51 -188.5t-131 -116.5q99 -33 161 -123t62 -209q0 -420 -503 -420h-480zM362 190h265q270 0 270 234q0 102 -65.5 161.5t-202.5 59.5h-267v-455zM362 834h250q128 0 186 53t58 160q0 95 -58.5 145.5 t-162.5 50.5h-273v-409z" />
<glyph unicode="C" horiz-adv-x="1310" d="M102 686q0 115 24.5 224.5t77 208.5t127.5 173t184 118t239 44q192 0 312 -102t120 -250l-19 -131h-200q8 31 8 69q0 107 -56.5 158t-179.5 51q-181 0 -294 -155.5t-113 -407.5q0 -239 104 -370.5t283 -131.5q258 0 258 219l-14 93h202q23 -64 23 -150 q0 -70 -29.5 -134.5t-84.5 -116.5t-144 -83.5t-199 -31.5q-305 0 -467 183t-162 523z" />
<glyph unicode="D" horiz-adv-x="1327" d="M143 0v1434h463q138 0 254 -50.5t199 -144.5t129.5 -235.5t46.5 -317.5q0 -150 -39 -274.5t-114 -217t-193 -143.5t-268 -51h-478zM362 197h224q194 0 307 118t113 363q0 559 -410 559h-234v-1040z" />
<glyph unicode="E" horiz-adv-x="1044" d="M143 0v1434h820v-197h-601v-410h560v-196h-560v-434h601v-197h-820z" />
<glyph unicode="F" horiz-adv-x="1034" d="M143 0v1434h820v-197h-601v-430h539v-197h-539v-610h-219z" />
<glyph unicode="G" horiz-adv-x="1341" d="M102 686q0 119 25 229.5t78.5 209t129.5 171.5t185.5 115.5t239.5 42.5q194 0 318 -104t124 -248l-18 -131h-201q8 31 8 69q0 99 -64 154t-182 55q-187 0 -300 -153t-113 -410q0 -239 104 -371.5t283 -132.5q83 0 144 29t97 82t53 119.5t17 148.5h-342v193h531v-754h-177 v139q-49 -72 -136.5 -115.5t-196.5 -43.5q-289 0 -448 184.5t-159 521.5z" />
<glyph unicode="H" horiz-adv-x="1325" d="M143 0v1434h228v-613h583v613h228v-1434h-228v621h-583v-621h-228z" />
<glyph unicode="I" horiz-adv-x="559" d="M164 0v1434h231v-1434h-231z" />
<glyph unicode="J" horiz-adv-x="864" d="M10 238l25 135h196q-18 -50 -18 -101q0 -46 36.5 -75t102.5 -29q82 0 115 63.5t33 221.5v981h221v-988q0 -234 -85 -350t-280 -116q-92 0 -162 23t-108.5 61t-57 82t-18.5 92z" />
<glyph unicode="K" horiz-adv-x="1220" d="M143 0v1434h219v-596l500 596h287l-592 -684l633 -750h-295l-533 641v-641h-219z" />
<glyph unicode="L" horiz-adv-x="997" d="M143 0v1434h230v-1229h573v-205h-803z" />
<glyph unicode="M" horiz-adv-x="1699" d="M143 0v1434h357l350 -1153l364 1153h342v-1434h-219v981v236l-381 -1207h-211l-391 1207q8 -112 8 -236v-981h-219z" />
<glyph unicode="N" horiz-adv-x="1349" d="M143 0v1434h271l577 -1088v1088h215v-1434h-260l-590 1108v-1108h-213z" />
<glyph unicode="O" horiz-adv-x="1400" d="M72 686q0 99 16 192t48.5 179.5t85 158.5t120 125.5t159.5 83t199 29.5q126 0 231.5 -44.5t178 -119t123 -174t73.5 -208t23 -222.5q0 -149 -40.5 -276.5t-117.5 -223.5t-198 -151t-273 -55t-272.5 54t-197.5 149.5t-117.5 223.5t-40.5 279zM301 682q0 -79 11.5 -148 t40 -134.5t73 -112.5t114.5 -75t160 -28t160 28t114.5 75t73.5 112.5t40.5 134.5t11.5 148q0 89 -12.5 168.5t-42 153.5t-74.5 127.5t-114.5 85.5t-156.5 32q-88 0 -157.5 -34t-114 -89t-74 -130.5t-41.5 -153t-12 -160.5z" />
<glyph unicode="P" horiz-adv-x="1136" d="M143 0v1434h475q109 0 198.5 -34t147.5 -91.5t89.5 -133t31.5 -159.5q0 -87 -27.5 -161.5t-80.5 -132.5t-140 -91t-198 -33h-277v-598h-219zM362 788h261q113 0 173 59t60 169q0 108 -67.5 167.5t-186.5 59.5h-240v-455z" />
<glyph unicode="Q" horiz-adv-x="1411" d="M72 686q0 99 16 192t48.5 179.5t85 158.5t120 125.5t159.5 83t199 29.5q126 0 231.5 -44.5t178 -119t123 -174t73.5 -208t23 -222.5q0 -358 -205 -551l101 -98l-135 -131l-125 123q-119 -49 -265 -49q-152 0 -272.5 54t-197.5 149.5t-117.5 223.5t-40.5 279zM301 682 q0 -79 11.5 -148t40 -134.5t73 -112.5t114.5 -75t160 -28q58 0 99 9l-125 126l135 132l164 -164q127 130 127 395q0 89 -12.5 168.5t-42 153.5t-74.5 127.5t-114.5 85.5t-156.5 32q-88 0 -157.5 -34t-114 -89t-74 -130.5t-41.5 -153t-12 -160.5z" />
<glyph unicode="R" horiz-adv-x="1169" d="M143 0v1434h475q111 0 201 -32.5t147.5 -88.5t88 -129.5t30.5 -157.5q0 -137 -74 -241t-212 -144l299 -641h-246l-279 618h-211v-618h-219zM362 809h248q117 0 181.5 55t64.5 162q0 108 -65.5 162.5t-188.5 54.5h-240v-434z" />
<glyph unicode="S" horiz-adv-x="1146" d="M92 352q0 51 21 111l6 14h217q-19 -36 -19 -98q0 -203 261 -203q132 0 197 55t65 150q0 92 -71 146.5t-222 103.5l-123 43q-47 18 -84.5 37.5t-78.5 52.5t-68.5 72.5t-45.5 97.5t-18 127q0 172 129 282.5t326 110.5q205 0 321.5 -96t116.5 -258q0 -64 -21 -111l-6 -14 h-213q19 36 19 98q0 88 -60.5 136t-156.5 48q-106 0 -168 -52.5t-62 -143.5q0 -43 18.5 -76.5t59 -60t84 -44.5t113.5 -42l37 -13q72 -24 126 -48.5t108 -62.5t88.5 -82.5t55.5 -108.5t21 -142q0 -174 -126 -287.5t-361 -113.5q-228 0 -357 97.5t-129 274.5z" />
<glyph unicode="T" horiz-adv-x="1091" d="M41 1233v201h1010v-201h-398v-1233h-219v1233h-393z" />
<glyph unicode="U" horiz-adv-x="1288" d="M123 508v926h229v-936q0 -155 81 -233.5t212 -78.5q132 0 213.5 79t81.5 233v936h225v-926q0 -86 -16 -161t-54 -143.5t-96 -117t-148.5 -77.5t-205.5 -29q-522 0 -522 528z" />
<glyph unicode="V" horiz-adv-x="1269" d="M31 1434h248l356 -1145l356 1145h248l-481 -1434h-246z" />
<glyph unicode="W" horiz-adv-x="1884" d="M41 1434h244l282 -1141q0 17 8 41l248 1100h238l256 -1141q0 17 8 41l274 1100h244l-401 -1434h-246l-248 1024q-6 21 -6 39q-3 -6 -6 -39l-242 -1024h-252z" />
<glyph unicode="X" horiz-adv-x="1245" d="M31 0l458 737l-430 697h265l299 -510l299 510h264l-432 -697l460 -737h-258l-333 553l-326 -553h-266z" />
<glyph unicode="Y" horiz-adv-x="1196" d="M31 1434h254l313 -637l313 637h254l-456 -854v-580h-222v580z" />
<glyph unicode="Z" horiz-adv-x="1140" d="M92 0v190l686 1043h-639v201h908v-191l-695 -1042h697v-201h-957z" />
<glyph unicode="[" horiz-adv-x="493" d="M154 -410v1858h278v-92h-176v-1675h176v-91h-278z" />
<glyph unicode="\" horiz-adv-x="817" d="M72 1434h131l542 -1434h-131z" />
<glyph unicode="]" horiz-adv-x="493" d="M61 -319h177v1675h-177v92h279v-1858h-279v91z" />
<glyph unicode="^" horiz-adv-x="1249" d="M154 649l430 785h82l430 -785h-117l-354 664l-355 -664h-116z" />
<glyph unicode="_" horiz-adv-x="1110" d="M41 -23h1028v-108h-1028v108z" />
<glyph unicode="`" horiz-adv-x="720" d="M123 1438h295l180 -269h-186z" />
<glyph unicode="a" horiz-adv-x="970" d="M61 281q0 271 371 311q141 19 190.5 50t49.5 101q0 65 -54 95t-137 30q-194 0 -194 -135q0 -37 12 -65l4 -9h-180q-27 49 -27 119q0 123 104.5 194.5t286.5 71.5q392 0 392 -403v-641h-195v115h-6q-38 -55 -113 -95t-162 -40q-164 0 -253 80t-89 221zM258 285 q0 -131 174 -131q114 0 180 66.5t66 168.5v117h-6q-37 -58 -213 -82q-201 -27 -201 -139z" />
<glyph unicode="b" horiz-adv-x="1089" d="M123 0v1516h196v-607q39 58 112.5 96.5t162.5 38.5q135 0 232.5 -73t144.5 -193t47 -272q0 -150 -48 -268t-146 -188t-232 -70q-93 0 -166.5 42t-114.5 103h-4v-125h-184zM309 492q0 -44 6.5 -85.5t24 -87t45 -79t73.5 -55t105 -21.5q120 0 183 93t63 230q0 373 -246 373 q-68 0 -118.5 -29t-79.5 -81t-42.5 -116t-13.5 -142z" />
<glyph unicode="c" horiz-adv-x="978" d="M72 483q0 156 53.5 282t160.5 202.5t249 76.5q153 0 254.5 -76.5t101.5 -201.5q0 -69 -17 -107l-6 -16h-182q10 38 10 80q0 69 -48 103t-122 34q-69 0 -119 -32.5t-76.5 -87.5t-38 -114t-11.5 -124q0 -338 256 -338q84 0 130 42t46 118l-8 65h176q16 -43 16 -88 q0 -160 -94.5 -240.5t-261.5 -80.5q-231 0 -350 132.5t-119 370.5z" />
<glyph unicode="d" horiz-adv-x="1089" d="M72 506q0 148 48 268.5t147 195t235 74.5q86 0 158.5 -36.5t109.5 -96.5v605h197v-1516h-185v125h-6q-86 -145 -272 -145q-210 0 -321 141t-111 385zM281 487q0 -139 64.5 -231t184.5 -92q59 0 104.5 20t72.5 51.5t44 76t23 87t6 90.5q0 74 -14.5 138.5t-44 117.5 t-79.5 84t-114 31q-58 0 -102.5 -22.5t-71.5 -58.5t-44 -86t-23 -100t-6 -106z" />
<glyph unicode="e" horiz-adv-x="999" d="M72 489q0 159 50.5 283t154.5 198t247 74q117 0 208.5 -56t138.5 -147t47 -198q0 -85 -27 -180h-623q11 -150 75 -224.5t194 -74.5q91 0 133.5 35t42.5 90l-6 41h176q12 -35 12 -80q0 -111 -96.5 -190.5t-257.5 -79.5q-225 0 -347 136t-122 373zM276 625h445q2 12 2 47 t-10 66t-31.5 61t-64.5 47.5t-101 17.5q-106 0 -170 -66.5t-70 -172.5z" />
<glyph unicode="f" horiz-adv-x="675" d="M61 850v174h136v141q0 57 8 107t29 100t54 85t87 57t125 22q111 0 179.5 -57t68.5 -158q0 -42 -13 -72l-4 -10h-158q11 22 11 45q0 76 -86 76q-107 0 -107 -172v-164h225v-174h-223v-850h-196v850h-136z" />
<glyph unicode="g" horiz-adv-x="956" d="M51 -158q0 48 15 88l6 13h182q-14 -25 -14 -74q0 -57 58.5 -90t162.5 -33q233 0 233 123q0 63 -58 88t-196 33q-63 3 -110 9t-96 21t-79.5 37t-50.5 59.5t-20 88.5q0 103 98 182q-104 98 -104 260q0 172 112.5 284.5t282.5 112.5q137 0 238 -73l114 90l111 -141l-111 -89 q41 -84 41 -184q0 -156 -104 -260t-283 -104q-80 0 -157 22q-39 -33 -39 -69q0 -28 26 -43t68 -18.5t96.5 -8t110.5 -8.5t110.5 -22.5t96.5 -47t68 -85t26 -134.5q0 -146 -114 -222.5t-310 -76.5q-186 0 -298 70t-112 202zM274 653q0 -80 52.5 -136t144.5 -56q91 0 145 54.5 t54 135.5q0 103 -51 158t-148 55q-90 0 -143.5 -58t-53.5 -153z" />
<glyph unicode="h" horiz-adv-x="1026" d="M113 0v1516h196v-596q29 47 101.5 85.5t152.5 38.5q185 0 278 -112.5t93 -315.5v-616h-203v586q0 274 -196 274q-102 0 -165 -69.5t-63 -200.5v-590h-194z" />
<glyph unicode="i" horiz-adv-x="507" d="M102 1303q0 64 43.5 107.5t108.5 43.5t108.5 -43.5t43.5 -107.5q0 -65 -44 -108.5t-108 -43.5q-66 0 -109 43t-43 109zM152 0v1024h204v-1024h-204z" />
<glyph unicode="j" horiz-adv-x="557" d="M-174 -211q0 46 12 74l4 10h168q-6 -15 -6 -45q0 -78 86 -78q62 0 82.5 50t20.5 198v1026h200v-985q0 -263 -68 -366t-231 -103q-128 0 -198 57t-70 162zM141 1303q0 64 43.5 107.5t108.5 43.5t108 -43t43 -108t-43.5 -108.5t-107.5 -43.5q-66 0 -109 43t-43 109z" />
<glyph unicode="k" horiz-adv-x="946" d="M113 0v1516h196v-854l342 362h269l-443 -455l469 -569h-254l-385 469v-469h-194z" />
<glyph unicode="l" horiz-adv-x="434" d="M113 0v1516h209v-1516h-209z" />
<glyph unicode="m" horiz-adv-x="1556" d="M113 0v1024h192v-113h4q86 133 252 133q78 0 145.5 -41t104.5 -110q109 151 285 151q368 0 368 -446v-598h-200v571q0 147 -45 213t-140 66q-98 0 -145 -66.5t-47 -212.5v-571h-201v571q0 147 -44 213t-138 66q-195 0 -195 -279v-571h-196z" />
<glyph unicode="n" horiz-adv-x="1030" d="M113 0v1024h198v-119h4q37 63 106 101t150 38q173 0 270 -116.5t97 -331.5v-596h-205v571q0 281 -205 281q-213 0 -213 -281v-571h-202z" />
<glyph unicode="o" horiz-adv-x="1064" d="M72 487q0 158 51.5 282.5t157.5 199.5t251 75q142 0 248.5 -75.5t159.5 -200.5t53 -281q0 -225 -119 -366t-342 -141q-155 0 -260 67t-152.5 178.5t-47.5 261.5zM281 487q0 -68 13 -123.5t41.5 -101.5t78.5 -72t118 -26q128 0 190 87t62 234q0 51 -6.5 99.5t-24 99.5 t-45 89t-73 62.5t-103.5 24.5q-71 0 -122.5 -34.5t-78 -92t-38.5 -118.5t-12 -128z" />
<glyph unicode="p" horiz-adv-x="1089" d="M123 -410v1434h184v-115h6q99 135 273 135q132 0 231.5 -72t150 -193t50.5 -273q0 -150 -48 -268t-146 -188t-232 -70q-180 0 -268 102h-5v-492h-196zM309 492q0 -44 6.5 -85.5t24 -87t45 -79t73.5 -55t105 -21.5q120 0 183 93t63 230q0 373 -246 373q-68 0 -118.5 -29 t-79.5 -81t-42.5 -116t-13.5 -142z" />
<glyph unicode="q" horiz-adv-x="1089" d="M72 506q0 149 49 269.5t149.5 194.5t237.5 74q182 0 268 -133h6v113h185v-1434h-197v500h-6q-82 -110 -254 -110q-211 0 -324.5 142.5t-113.5 383.5zM281 487q0 -87 28 -159t87 -118t141 -46q243 0 243 325q0 74 -14.5 138.5t-44 117.5t-79.5 84t-114 31 q-58 0 -102.5 -22.5t-71.5 -58.5t-44 -86t-23 -100t-6 -106z" />
<glyph unicode="r" horiz-adv-x="817" d="M113 0v1024h188v-127h4q95 147 256 147q104 0 175 -68t71 -175q0 -60 -16 -121l-7 -16h-182q16 32 16 73q0 55 -29 84t-79 29q-82 0 -139.5 -85.5t-57.5 -252.5v-512h-200z" />
<glyph unicode="s" horiz-adv-x="942" d="M82 250q0 55 16 98l6 12h189q-14 -25 -14 -61q0 -141 198 -141q89 0 140 30t51 88q0 61 -45 90t-158 58q-150 38 -226 77.5t-105.5 93.5t-29.5 146q0 141 100 222t267 81q153 0 256.5 -68t103.5 -190q0 -58 -18 -94l-6 -14h-178q12 21 12 61q0 127 -168 127 q-178 0 -178 -118q0 -56 48 -83.5t159 -54.5q73 -18 116.5 -31.5t95.5 -39t80 -55.5t47 -77.5t19 -109.5q0 -159 -99.5 -239.5t-287.5 -80.5q-181 0 -286 74.5t-105 198.5z" />
<glyph unicode="t" horiz-adv-x="765" d="M51 850v174h154v266h196v-266h281v-174h-281v-561q0 -125 91 -125q42 0 66 18t24 45l-7 56h166q15 -47 15 -84q0 -92 -75 -155.5t-189 -63.5q-287 0 -287 321v549h-154z" />
<glyph unicode="u" horiz-adv-x="1028" d="M92 395v629h201v-604q0 -139 54 -193.5t157 -54.5q215 0 215 301v551h196v-1024h-184v102h-4q-94 -122 -272 -122q-173 0 -268 107t-95 308z" />
<glyph unicode="v" horiz-adv-x="935" d="M20 1024h224l225 -827q0 10 18 75l205 752h223l-319 -1024h-256z" />
<glyph unicode="w" horiz-adv-x="1529" d="M31 1024h223l180 -752q8 -43 15 -53q-2 7 12 53l198 752h211l199 -752q12 -46 12 -53q0 6 15 53l180 752h223l-293 -1024h-237l-205 745l-203 -745h-237z" />
<glyph unicode="x" horiz-adv-x="962" d="M31 0l340 524l-332 500h235l207 -338l207 338h236l-332 -500l340 -524h-240l-211 367l-211 -367h-239z" />
<glyph unicode="y" horiz-adv-x="958" d="M31 1024h225l225 -692q3 -20 6 -23q0 2 7 23l225 692h209l-348 -981q-74 -207 -161.5 -303t-213.5 -96l-117 22v172q27 -18 78 -18q82 0 125.5 43t81.5 151l14 41z" />
<glyph unicode="z" horiz-adv-x="874" d="M61 0v172l498 674h-471v178h711v-172l-500 -674h514v-178h-752z" />
<glyph unicode="{" horiz-adv-x="720" d="M31 514v96q62 4 148 49.5t102 106.5q12 52 12 168v37q0 93 6 160.5t24 131.5t49 104t82.5 63.5t123.5 23.5q48 0 112 -12v-105q-56 15 -100 15q-109 0 -149 -79t-40 -265v-70q0 -9 1 -23t1 -18v-14q0 -28 -0.5 -44t-4 -47.5t-11.5 -53t-23.5 -50.5t-38 -50t-58.5 -42 t-81 -35q45 -17 80 -40.5t58 -45t38.5 -52.5t23.5 -53t12 -57t4.5 -54t0.5 -54q0 -5 -1 -22.5t-1 -28.5v-78q0 -67 2.5 -111.5t12 -92.5t27 -76t48 -46t74.5 -18q70 0 125 14v-104q-63 -13 -127 -13q-68 0 -117.5 24.5t-78.5 64t-46 104.5t-22.5 132t-5.5 159q0 84 -3 137 t-7 85t-16.5 52.5t-22 28.5t-33.5 24q-114 71 -180 74z" />
<glyph unicode="|" horiz-adv-x="430" d="M164 -332v1766h102v-1766h-102z" />
<glyph unicode="}" horiz-adv-x="720" d="M31 -254q55 -14 125 -14q95 0 129 81t34 263q1 8 0.5 14.5t-1.5 26t-1 37.5v79q5 24 10 62.5t8.5 61.5t16 55.5t32.5 55t58 47.5t93 46q-112 39 -161 99.5t-52 154.5q-4 51 -5 57v66q0 14 1 31t1.5 23.5t-0.5 15.5q0 186 -39.5 265t-148.5 79q-45 0 -100 -15v105 q65 12 112 12q72 0 124.5 -24.5t83 -65t48.5 -105.5t23.5 -131t5.5 -157q0 -94 2 -142t14.5 -79t23 -40.5t42.5 -29.5q101 -64 180 -70v-96q-71 -3 -180 -74q-53 -33 -67.5 -92.5t-14.5 -197.5v-37q0 -92 -5.5 -159t-22.5 -132t-46 -104.5t-78.5 -64t-117.5 -24.5 q-64 0 -127 13v104z" />
<glyph unicode="~" horiz-adv-x="1013" d="M102 584q0 87 59 141.5t152 54.5q65 0 115 -25.5t113 -76.5q101 -82 168 -82q100 0 100 104l-12 64h100q14 -32 14 -78q0 -87 -59 -142t-152 -55q-64 0 -112.5 24.5t-110.5 74.5q-112 86 -172 86q-100 0 -100 -105l12 -63h-100q-15 34 -15 78z" />
<glyph unicode="&#xa1;" horiz-adv-x="481" d="M102 903q0 55 42 97t98 42t96.5 -42t40.5 -97t-40 -96t-97 -41q-60 0 -99 39q-41 38 -41 98zM145 -412v1047h197v-1047h-197z" />
<glyph unicode="&#xa2;" horiz-adv-x="1071" d="M133 483q0 146 45.5 265t136.5 197.5t215 94.5v174h103v-172q140 -11 229.5 -85.5t89.5 -190.5q0 -71 -16 -107l-6 -16h-182q10 38 10 80q0 112 -125 133v-690q141 15 141 158l-8 65h176q16 -43 16 -88q0 -151 -86.5 -232t-238.5 -87v-158h-103v160q-197 18 -297 148.5 t-100 350.5zM342 502q0 -285 188 -332v682q-52 -12 -90.5 -49t-59 -89t-29.5 -105t-9 -107z" />
<glyph unicode="&#xa3;" horiz-adv-x="1081" d="M123 604v123h108q-1 5 -7.5 52t-12.5 92t-11 98.5t-5 83.5q0 171 113 265.5t315 94.5q98 0 181 -30.5t139 -98.5t56 -162l-14 -98h-194q10 23 10 57q0 63 -51 102.5t-140 39.5q-200 0 -200 -185q0 -12 6.5 -65.5t15.5 -126t12 -119.5h357v-123h-352v-22q-1 -74 -12 -176 t-21 -158l-10 -53h575v-195h-809v70q68 366 68 503v31h-117z" />
<glyph unicode="&#xa4;" horiz-adv-x="1398" d="M123 86l215 213q-98 125 -98 287q0 164 100 288l-215 220l72 71l215 -219q125 101 288 101t285 -101l219 217l72 -71l-217 -218q102 -126 102 -288q0 -163 -100 -287l215 -215l-72 -72l-215 215q-120 -102 -289 -102q-161 0 -290 102l-215 -213zM391 586q0 -128 91 -219 t218 -91t217.5 91.5t90.5 218.5q0 126 -91 216.5t-217 90.5t-219 -90q-90 -90 -90 -217z" />
<glyph unicode="&#xa5;" horiz-adv-x="1265" d="M82 1393h235l316 -639l315 639h236l-400 -727h217v-101h-272v-123h272v-100h-272v-342h-194v342h-285v100h285v123h-285v101h229z" />
<glyph unicode="&#xa6;" horiz-adv-x="430" d="M164 -332v717h102v-717h-102zM164 778l102 656v-656h-102z" />
<glyph unicode="&#xa7;" horiz-adv-x="968" d="M102 1110q0 140 105.5 221.5t263.5 81.5q92 0 173 -28t135.5 -87.5t54.5 -138.5q0 -52 -19 -90l-6 -14l-174 2q12 21 12 57q0 115 -182 115q-77 0 -122.5 -30.5t-45.5 -76.5q0 -38 30.5 -63.5t80 -39.5t109 -26t118.5 -30.5t108.5 -45.5t80 -77.5t30.5 -120.5 q0 -54 -33.5 -110t-79.5 -91l35 -24q25 -18 56.5 -76.5t31.5 -114.5q0 -154 -105.5 -238.5t-275.5 -84.5q-98 0 -179.5 26.5t-137 87t-55.5 146.5q0 56 18 92l6 12h180q-12 -21 -12 -59q0 -121 195 -121q170 0 170 121q0 40 -30.5 67t-79.5 41.5t-108 27t-118.5 30.5 t-108.5 44.5t-79.5 77t-30.5 121.5q0 119 110 201l-35 25q-26 24 -56 80t-30 110zM293 717q0 -19 6.5 -34.5t23.5 -28t30 -20.5t44.5 -17t46.5 -12.5t54 -12.5l116 -27q58 58 58 131q0 44 -45 73.5t-158 53.5l-107 27q-69 -51 -69 -133z" />
<glyph unicode="&#xa8;" horiz-adv-x="815" d="M92 1319q0 55 40.5 95t94.5 40q55 0 95 -40t40 -95q0 -54 -40 -94.5t-95 -40.5q-54 0 -94.5 40.5t-40.5 94.5zM453 1319q0 55 40.5 95t94.5 40q56 0 95.5 -40t39.5 -95q0 -54 -40 -94.5t-95 -40.5q-54 0 -94.5 40.5t-40.5 94.5z" />
<glyph unicode="&#xa9;" horiz-adv-x="1658" d="M92 717q0 149 59 286t158.5 235.5t235.5 157t284 58.5t284.5 -59.5t236 -159t158.5 -235.5t59 -283q0 -148 -58.5 -284t-157.5 -235.5t-236 -158.5t-286 -59q-200 0 -369.5 99t-268.5 268.5t-99 369.5zM197 717q0 -127 50.5 -244.5t135.5 -202.5t202 -135.5t244 -50.5 q169 0 315 86t232 232t86 315t-86 315t-232 232t-315 86t-315 -86t-231.5 -232t-85.5 -315zM520 707q0 109 35.5 196t109.5 141t175 54q98 0 166.5 -49.5t68.5 -133.5l-8 -63h-96q4 16 4 29q0 120 -135 120q-58 0 -100.5 -27t-64.5 -72t-32 -94t-10 -103q0 -117 50 -191 t153 -74q66 0 105.5 33.5t39.5 97.5l-4 27h94q6 -9 6 -51q0 -96 -66 -149.5t-167 -53.5q-324 0 -324 363z" />
<glyph unicode="&#xaa;" horiz-adv-x="720" d="M82 924q0 186 252 213q97 10 131.5 32t34.5 70q0 44 -38 65t-93 21q-131 0 -131 -92l10 -51h-123q-19 36 -19 82q0 85 72 133.5t195 48.5q266 0 266 -277v-438h-133l-2 78q-27 -38 -79 -65t-112 -27q-110 0 -170.5 55t-60.5 152zM217 926q0 -88 117 -88q78 0 124 46 t46 115v80h-4q-25 -42 -148 -57q-135 -18 -135 -96z" />
<glyph unicode="&#xab;" horiz-adv-x="940" d="M92 530l322 412h129l-322 -410l322 -411h-129zM377 530l321 412h129l-321 -410l321 -411h-129z" />
<glyph unicode="&#xac;" horiz-adv-x="1028" d="M102 678v164h813v-543h-174v379h-639z" />
<glyph unicode="&#xad;" horiz-adv-x="804" d="M102 518v184h600v-184h-600z" />
<glyph unicode="&#xae;" horiz-adv-x="1658" d="M92 717q0 149 59 286t158.5 235.5t235.5 157t284 58.5t284.5 -59.5t236 -159t158.5 -235.5t59 -283q0 -148 -58.5 -284t-157.5 -235.5t-236 -158.5t-286 -59q-200 0 -369.5 99t-268.5 268.5t-99 369.5zM197 717q0 -127 50.5 -244.5t135.5 -202.5t202 -135.5t244 -50.5 q169 0 315 86t232 232t86 315t-86 315t-232 232t-315 86t-315 -86t-231.5 -232t-85.5 -315zM598 350v740h217q279 0 279 -209q0 -146 -127 -193l149 -338h-141l-135 320h-119v-320h-123zM721 778h106h27q64 0 88 17l12 14q21 21 21 74q0 59 -39.5 78.5t-136.5 19.5h-78v-203 z" />
<glyph unicode="&#xaf;" horiz-adv-x="907" d="M164 1573v123h579v-123h-579z" />
<glyph unicode="&#xb0;" horiz-adv-x="917" d="M143 1130q0 130 92.5 223t223.5 93q130 0 222.5 -92.5t92.5 -223.5q0 -130 -92 -222.5t-223 -92.5t-223 92q-93 93 -93 223zM246 1130q0 -89 62.5 -153t150.5 -64q86 0 148.5 64.5t62.5 152.5q0 89 -63 154.5t-148 65.5q-89 0 -152 -66q-61 -64 -61 -154z" />
<glyph unicode="&#xb1;" horiz-adv-x="1019" d="M82 0v102h856v-102h-856zM82 612v103h377v379h102v-379h377v-103h-377v-374h-102v374h-377z" />
<glyph unicode="&#xb2;" horiz-adv-x="589" d="M41 627v110l203 195q3 3 22 21t23.5 22t20.5 20.5t21 23.5t17.5 23.5t17 27t12.5 28t11 32.5t5.5 34.5t2.5 39.5q0 121 -114 121q-95 0 -95 -65l9 -58h-117q-17 24 -17 72q0 74 58 123t149 49q52 0 96 -13t81 -41t58 -77.5t21 -116.5q0 -159 -143 -299l-164 -151h309 v-121h-487z" />
<glyph unicode="&#xb3;" horiz-adv-x="542" d="M51 795q0 44 10 57l5 6h112q-8 -16 -8 -51q0 -80 96 -80q115 0 115 135q0 152 -117 152l-69 -13l-86 76l227 248h-260v109h411v-109l-200 -217q97 0 156 -61t59 -189q0 -244 -242 -244q-93 0 -151 48.5t-58 132.5z" />
<glyph unicode="&#xb4;" horiz-adv-x="714" d="M123 1167l180 269h289l-289 -269h-180z" />
<glyph unicode="&#xb5;" horiz-adv-x="1075" d="M133 -410v1434h207v-582q0 -50 3.5 -87t15.5 -75t32.5 -62t56 -39t84.5 -15q226 0 226 270v590h205v-1024h-205l-2 111q-3 -5 -9 -14t-27.5 -31.5t-46 -40t-65.5 -31.5t-86 -14q-128 0 -186 61v-451h-203z" />
<glyph unicode="&#xb6;" horiz-adv-x="919" d="M51 1182q0 103 74 177.5t178 74.5h545v-123h-119v-1450h-133v1450h-160v-1450h-133v1069q-104 0 -178 74t-74 178z" />
<glyph unicode="&#xb7;" horiz-adv-x="604" d="M164 575q0 56 42 97t97 41t96 -41t41 -97q0 -55 -40.5 -97t-96.5 -42q-60 0 -98 41q-41 38 -41 98z" />
<glyph unicode="&#xb8;" horiz-adv-x="1341" d="M461 -213l100 23q15 -74 111 -74q45 0 75.5 18t30.5 53q0 66 -100 66q-44 0 -68 -8l-6 -4v76q41 18 92 18q90 0 136.5 -36t46.5 -101q0 -73 -58 -116.5t-162 -43.5q-177 0 -198 129z" />
<glyph unicode="&#xb9;" horiz-adv-x="557" d="M41 1219v98q102 0 152 26t63 91h100v-697h170v-110h-473v110h178v482h-190z" />
<glyph unicode="&#xba;" horiz-adv-x="815" d="M92 1063q0 166 84 274.5t232 108.5q147 0 231 -108.5t84 -274.5q0 -155 -82 -250.5t-233 -95.5q-156 0 -236 93t-80 253zM238 1063q0 -93 42 -152t128 -59q85 0 128.5 58t43.5 153q0 64 -16.5 118t-57 92t-98.5 38q-59 0 -99 -37.5t-55.5 -91t-15.5 -119.5z" />
<glyph unicode="&#xbb;" horiz-adv-x="919" d="M113 121l321 411l-321 410h129l321 -412l-321 -409h-129zM397 121l322 411l-322 410h129l322 -412l-322 -409h-129z" />
<glyph unicode="&#xbc;" horiz-adv-x="1370" d="M41 1219v98q102 0 152 26t63 91h100v-697h170v-110h-473v110h178v482h-190zM410 -23l569 1506l78 -31l-568 -1501zM799 186v119l276 502h191v-502h63v-119h-63v-186h-127v186h-340zM926 305h213v389z" />
<glyph unicode="&#xbd;" horiz-adv-x="1423" d="M41 1219v98q102 0 152 26t63 91h100v-697h170v-110h-473v110h178v482h-190zM410 -23l569 1506l78 -31l-568 -1501zM874 0v111l203 194q3 3 22 21t23.5 22t21 21t21 23.5t17.5 23.5t17 27t12.5 27.5t11.5 33t5.5 35t2.5 39.5q0 120 -115 120q-94 0 -94 -65l8 -58h-117 q-16 22 -16 72q0 74 58 123t149 49q52 0 96 -13t81 -41t58 -77.5t21 -116.5q0 -159 -143 -299l-164 -151h309v-121h-488z" />
<glyph unicode="&#xbe;" horiz-adv-x="1366" d="M51 795q0 44 10 57l5 6h112q-8 -16 -8 -51q0 -80 96 -80q115 0 115 135q0 152 -117 152l-69 -13l-86 76l227 248h-260v109h411v-109l-200 -217q97 0 156 -61t59 -189q0 -244 -242 -244q-93 0 -151 48.5t-58 132.5zM389 -23l569 1506l78 -31l-567 -1501zM795 186v119 l276 502h191v-502h63v-119h-63v-186h-127v186h-340zM922 305h213v389z" />
<glyph unicode="&#xbf;" horiz-adv-x="995" d="M92 -70q0 72 11.5 122.5t46.5 101.5l49 71q12 17 73 78l64 64q57 57 72.5 107t17.5 161h192q0 -119 -13 -181t-47.5 -113t-119.5 -136l-73 -74q-30 -30 -51 -80t-21 -100q0 -85 57.5 -138t151.5 -53q96 0 150.5 49t54.5 136q0 50 -13 80l-4 8h187q26 -33 26 -117 q0 -150 -110.5 -248t-282.5 -98q-182 0 -300 96.5t-118 263.5zM379 905q0 57 40.5 98t96.5 41t97.5 -42t41.5 -97q0 -56 -41 -96.5t-98 -40.5q-59 0 -98 39t-39 98z" />
<glyph unicode="&#xc0;" d="M20 0l512 1434h238l512 -1434h-238l-116 350h-553l-117 -350h-238zM270 1829h295l180 -268h-186zM436 539h428l-213 641z" />
<glyph unicode="&#xc1;" d="M20 0l512 1434h238l512 -1434h-238l-116 350h-553l-117 -350h-238zM436 539h428l-213 641zM553 1561l180 268h289l-289 -268h-180z" />
<glyph unicode="&#xc2;" d="M20 0l512 1434h238l512 -1434h-238l-116 350h-553l-117 -350h-238zM336 1561l201 268h233l197 -268h-160l-156 118l-155 -118h-160zM436 539h428l-213 641z" />
<glyph unicode="&#xc3;" d="M20 0l512 1434h238l512 -1434h-238l-116 350h-553l-117 -350h-238zM346 1653q0 75 45 120.5t117 45.5q36 0 146 -41t118 -41q55 0 55 51l-4 33h119q10 -58 10 -92q0 -75 -44.5 -120.5t-116.5 -45.5q-37 0 -148 41t-117 41q-55 0 -55 -52l4 -32h-119q-10 58 -10 92z M436 539h428l-213 641z" />
<glyph unicode="&#xc4;" d="M20 0l512 1434h238l512 -1434h-238l-116 350h-553l-117 -350h-238zM336 1677q0 55 40.5 95t94.5 40q55 0 95 -40t40 -95q0 -54 -40 -94.5t-95 -40.5q-54 0 -94.5 40.5t-40.5 94.5zM436 539h428l-213 641zM696 1677q0 55 40.5 95t94.5 40q56 0 96 -40t40 -95 q0 -54 -40.5 -94.5t-95.5 -40.5q-54 0 -94.5 40.5t-40.5 94.5z" />
<glyph unicode="&#xc5;" d="M20 0l512 1434h238l512 -1434h-238l-116 350h-553l-117 -350h-238zM436 539h428l-213 641zM440 1753q0 88 62.5 150.5t148.5 62.5q88 0 150.5 -62.5t62.5 -150.5q0 -86 -62.5 -148.5t-150.5 -62.5q-86 0 -148.5 62.5t-62.5 148.5zM543 1753q0 -45 32 -78t76 -33 q43 0 75 33.5t32 77.5t-32 78.5t-75 34.5q-44 0 -76 -33t-32 -80z" />
<glyph unicode="&#xc6;" horiz-adv-x="1589" d="M20 0l652 1434h835v-191h-477v-416h436v-190h-436v-447h477v-190h-696v348h-393l-158 -348h-240zM489 539h322v708z" />
<glyph unicode="&#xc7;" horiz-adv-x="1310" d="M102 686q0 115 24.5 224.5t77 208.5t127.5 173t184 118t239 44q192 0 312 -102t120 -250l-19 -131h-200q8 31 8 69q0 107 -56.5 158t-179.5 51q-181 0 -294 -155.5t-113 -407.5q0 -239 104 -370.5t283 -131.5q258 0 258 219l-14 93h202q23 -64 23 -150 q0 -70 -29.5 -134.5t-84.5 -116.5t-144 -83.5t-199 -31.5q-305 0 -467 183t-162 523zM481 -213l101 23q15 -74 110 -74q45 0 76 18t31 53q0 66 -101 66q-43 0 -67 -8l-6 -4v76q41 18 92 18q90 0 136 -36t46 -101q0 -73 -57.5 -116.5t-161.5 -43.5q-178 0 -199 129z" />
<glyph unicode="&#xc8;" horiz-adv-x="1044" d="M143 0v1434h820v-197h-601v-410h560v-196h-560v-434h601v-197h-820zM229 1829h295l181 -268h-187z" />
<glyph unicode="&#xc9;" horiz-adv-x="1044" d="M143 0v1434h820v-197h-601v-410h560v-196h-560v-434h601v-197h-820zM461 1561l180 268h289l-289 -268h-180z" />
<glyph unicode="&#xca;" horiz-adv-x="1044" d="M143 0v1434h820v-197h-601v-410h560v-196h-560v-434h601v-197h-820zM248 1561l201 268h233l197 -268h-160l-156 118l-155 -118h-160z" />
<glyph unicode="&#xcb;" horiz-adv-x="1044" d="M143 0v1434h820v-197h-601v-410h560v-196h-560v-434h601v-197h-820zM246 1677q0 55 40.5 95t94.5 40q55 0 95 -40t40 -95q0 -54 -40 -94.5t-95 -40.5q-54 0 -94.5 40.5t-40.5 94.5zM606 1677q0 55 40.5 95t94.5 40q56 0 96 -40t40 -95q0 -54 -40.5 -94.5t-95.5 -40.5 q-54 0 -94.5 40.5t-40.5 94.5z" />
<glyph unicode="&#xcc;" horiz-adv-x="552" d="M-106 1829h294l181 -268h-187zM164 0v1434h231v-1434h-231z" />
<glyph unicode="&#xcd;" horiz-adv-x="552" d="M164 0v1434h231v-1434h-231zM168 1561l227 268h242l-289 -268h-180z" />
<glyph unicode="&#xce;" horiz-adv-x="552" d="M-39 1561l201 268h233l197 -268h-160l-156 118l-155 -118h-160zM164 0v1434h231v-1434h-231z" />
<glyph unicode="&#xcf;" horiz-adv-x="552" d="M-29 1677q0 55 40.5 95t94.5 40q56 0 96 -40t40 -95q0 -54 -40.5 -94.5t-95.5 -40.5q-54 0 -94.5 40.5t-40.5 94.5zM164 0v1434h231v-1434h-231zM311 1677q0 55 40.5 95t94.5 40q56 0 96 -40t40 -95q0 -54 -40.5 -94.5t-95.5 -40.5q-54 0 -94.5 40.5t-40.5 94.5z" />
<glyph unicode="&#xd0;" horiz-adv-x="1357" d="M-20 633v184h194v617h463q132 0 239 -42t178.5 -113.5t120 -168.5t70 -203t21.5 -221q0 -148 -40 -273t-116 -217t-193.5 -144t-265.5 -52h-477v633h-194zM393 190h234q108 0 189 36.5t129.5 103.5t71.5 153.5t23 194.5q0 120 -20.5 217.5t-65.5 178t-125.5 125 t-191.5 44.5h-244v-426h269v-184h-269v-443z" />
<glyph unicode="&#xd1;" horiz-adv-x="1357" d="M152 0v1434h270l577 -1088v1088h215v-1434h-260l-589 1108v-1108h-213zM395 1653q0 75 45 120.5t117 45.5q36 0 146 -41t118 -41q56 0 56 51l-5 33h119q10 -58 10 -92q0 -75 -44.5 -120.5t-116.5 -45.5q-36 0 -147 41t-118 41q-55 0 -55 -52l4 -32h-118q-11 64 -11 92z " />
<glyph unicode="&#xd2;" horiz-adv-x="1400" d="M72 686q0 99 16 192t48.5 179.5t85 158.5t120 125.5t159.5 83t199 29.5q126 0 231.5 -44.5t178 -119t123 -174t73.5 -208t23 -222.5q0 -149 -40.5 -276.5t-117.5 -223.5t-198 -151t-273 -55t-272.5 54t-197.5 149.5t-117.5 223.5t-40.5 279zM301 682q0 -79 11.5 -148 t40 -134.5t73 -112.5t114.5 -75t160 -28t160 28t114.5 75t73.5 112.5t40.5 134.5t11.5 148q0 89 -12.5 168.5t-42 153.5t-74.5 127.5t-114.5 85.5t-156.5 32q-88 0 -158 -34t-114.5 -89t-73.5 -130.5t-41 -152.5t-12 -161zM303 1829h295l180 -268h-186z" />
<glyph unicode="&#xd3;" horiz-adv-x="1400" d="M72 686q0 99 16 192t48.5 179.5t85 158.5t120 125.5t159.5 83t199 29.5q126 0 231.5 -44.5t178 -119t123 -174t73.5 -208t23 -222.5q0 -149 -40.5 -276.5t-117.5 -223.5t-198 -151t-273 -55t-272.5 54t-197.5 149.5t-117.5 223.5t-40.5 279zM301 682q0 -79 11.5 -148 t40 -134.5t73 -112.5t114.5 -75t160 -28t160 28t114.5 75t73.5 112.5t40.5 134.5t11.5 148q0 89 -12.5 168.5t-42 153.5t-74.5 127.5t-114.5 85.5t-156.5 32q-88 0 -157.5 -34t-114 -89t-74 -130.5t-41.5 -153t-12 -160.5zM594 1561l180 268h289l-289 -268h-180z" />
<glyph unicode="&#xd4;" horiz-adv-x="1400" d="M72 686q0 99 16 192t48.5 179.5t85 158.5t120 125.5t159.5 83t199 29.5q126 0 231.5 -44.5t178 -119t123 -174t73.5 -208t23 -222.5q0 -149 -40.5 -276.5t-117.5 -223.5t-198 -151t-273 -55t-272.5 54t-197.5 149.5t-117.5 223.5t-40.5 279zM301 682q0 -79 11.5 -148 t40 -134.5t73 -112.5t114.5 -75t160 -28t160 28t114.5 75t73.5 112.5t40.5 134.5t11.5 148q0 89 -12.5 168.5t-42 153.5t-74.5 127.5t-114.5 85.5t-156.5 32q-88 0 -157.5 -34t-114 -89t-74 -130.5t-41.5 -153t-12 -160.5zM393 1561l201 268h233l197 -268h-160l-155 118 l-156 -118h-160z" />
<glyph unicode="&#xd5;" horiz-adv-x="1400" d="M72 686q0 99 16 192t48.5 179.5t85 158.5t120 125.5t159.5 83t199 29.5q126 0 231.5 -44.5t178 -119t123 -174t73.5 -208t23 -222.5q0 -149 -40.5 -276.5t-117.5 -223.5t-198 -151t-273 -55t-272.5 54t-197.5 149.5t-117.5 223.5t-40.5 279zM301 682q0 -79 11.5 -148 t40 -134.5t73 -112.5t114.5 -75t160 -28t160 28t114.5 75t73.5 112.5t40.5 134.5t11.5 148q0 89 -12.5 168.5t-42 153.5t-74.5 127.5t-114.5 85.5t-156.5 32q-88 0 -157.5 -34t-114 -89t-74 -130.5t-41.5 -153t-12 -160.5zM406 1653q0 75 44.5 120.5t116.5 45.5 q36 0 146 -41t118 -41q56 0 56 51l-4 33h118q11 -64 11 -92q0 -75 -45 -120.5t-117 -45.5q-36 0 -147 41t-117 41q-56 0 -56 -52l5 -32h-119q-10 58 -10 92z" />
<glyph unicode="&#xd6;" horiz-adv-x="1400" d="M72 686q0 99 16 192t48.5 179.5t85 158.5t120 125.5t159.5 83t199 29.5q126 0 231.5 -44.5t178 -119t123 -174t73.5 -208t23 -222.5q0 -149 -40.5 -276.5t-117.5 -223.5t-198 -151t-273 -55t-272.5 54t-197.5 149.5t-117.5 223.5t-40.5 279zM301 682q0 -79 11.5 -148 t40 -134.5t73 -112.5t114.5 -75t160 -28t160 28t114.5 75t73.5 112.5t40.5 134.5t11.5 148q0 89 -12.5 168.5t-42 153.5t-74.5 127.5t-114.5 85.5t-156.5 32q-88 0 -157.5 -34t-114 -89t-74 -130.5t-41.5 -153t-12 -160.5zM385 1675q0 55 40.5 95t94.5 40q56 0 95.5 -40 t39.5 -95q0 -54 -40 -94.5t-95 -40.5q-54 0 -94.5 40.5t-40.5 94.5zM745 1675q0 55 41 95t95 40q55 0 95 -40t40 -95q0 -54 -40 -94.5t-95 -40.5q-54 0 -95 40.5t-41 94.5z" />
<glyph unicode="&#xd7;" horiz-adv-x="1017" d="M123 344l307 307l-307 310l78 77l309 -307l307 307l78 -80l-307 -307l305 -305l-78 -78l-305 305l-307 -307z" />
<glyph unicode="&#xd8;" horiz-adv-x="1400" d="M72 686q0 99 16 192t48.5 179.5t85 158.5t120 125.5t159.5 83t199 29.5q193 0 334 -102l107 159l121 -77l-119 -179q186 -223 186 -569q0 -149 -40.5 -276.5t-117.5 -223.5t-198 -151t-273 -55q-198 0 -344 90l-96 -146l-123 76l109 164q-174 192 -174 522zM301 682 q0 -199 74 -326l545 824q-87 69 -220 69q-88 0 -157.5 -34t-114 -89t-74 -130.5t-41.5 -153t-12 -160.5zM473 246q89 -62 227 -62q90 0 160 28t114.5 75t73.5 112.5t40.5 134.5t11.5 148q0 237 -82 383z" />
<glyph unicode="&#xd9;" horiz-adv-x="1288" d="M123 508v926h229v-936q0 -155 81 -233.5t212 -78.5q132 0 213.5 79t81.5 233v936h225v-926q0 -86 -16 -161t-54 -143.5t-96 -117t-148.5 -77.5t-205.5 -29q-522 0 -522 528zM289 1829h295l180 -268h-186z" />
<glyph unicode="&#xda;" horiz-adv-x="1288" d="M123 508v926h229v-936q0 -155 81 -233.5t212 -78.5q132 0 213.5 79t81.5 233v936h225v-926q0 -86 -16 -161t-54 -143.5t-96 -117t-148.5 -77.5t-205.5 -29q-522 0 -522 528zM569 1561l181 268h288l-288 -268h-181z" />
<glyph unicode="&#xdb;" horiz-adv-x="1288" d="M123 508v926h229v-936q0 -155 81 -233.5t212 -78.5q132 0 213.5 79t81.5 233v936h225v-926q0 -86 -16 -161t-54 -143.5t-96 -117t-148.5 -77.5t-205.5 -29q-522 0 -522 528zM340 1561l201 268h233l197 -268h-160l-156 118l-155 -118h-160z" />
<glyph unicode="&#xdc;" horiz-adv-x="1288" d="M123 508v926h229v-936q0 -155 81 -233.5t212 -78.5q132 0 213.5 79t81.5 233v936h225v-926q0 -86 -16 -161t-54 -143.5t-96 -117t-148.5 -77.5t-205.5 -29q-522 0 -522 528zM350 1696q0 55 40.5 95t94.5 40q56 0 96 -40t40 -95q0 -54 -40.5 -94.5t-95.5 -40.5 q-54 0 -94.5 40.5t-40.5 94.5zM711 1696q0 55 40.5 95t94.5 40q56 0 95.5 -39.5t39.5 -95.5q0 -54 -40 -94.5t-95 -40.5q-54 0 -94.5 40.5t-40.5 94.5z" />
<glyph unicode="&#xdd;" horiz-adv-x="1196" d="M31 1434h254l313 -637l313 637h254l-456 -854v-580h-222v580zM530 1561l181 268h288l-288 -268h-181z" />
<glyph unicode="&#xde;" horiz-adv-x="1157" d="M143 0v1434h219v-267h267q208 0 332 -107t124 -290q0 -199 -113 -307.5t-335 -108.5h-275v-354h-219zM362 545h197q80 0 132 7.5t96.5 29t65.5 65t21 111.5q0 129 -72.5 174t-240.5 45h-199v-432z" />
<glyph unicode="&#xdf;" horiz-adv-x="1234" d="M31 850v174h135v113q0 173 108.5 286t290.5 113q183 0 288 -104t105 -283q0 -146 -30 -287q-40 4 -62 4q-71 0 -119.5 -30.5t-48.5 -90.5q0 -85 199 -143l16 -6q69 -21 117 -43t93 -57.5t68 -88t23 -122.5q0 -149 -99.5 -228.5t-260.5 -79.5q-98 0 -181 30t-137.5 93.5 t-54.5 149.5q0 60 17 98l6 14h178q-14 -20 -14 -63q0 -141 188 -141q168 0 168 116q0 99 -209 164l-16 6q-68 20 -114.5 40.5t-88.5 54t-63 84t-21 118.5q0 120 70.5 196t187.5 95q6 46 6 84q0 242 -211 242q-95 0 -145.5 -65.5t-50.5 -176.5v-1116h-203v850h-135z" />
<glyph unicode="&#xe0;" horiz-adv-x="970" d="M61 281q0 271 371 311q141 19 190.5 50t49.5 101q0 65 -54 95t-137 30q-194 0 -194 -135q0 -37 12 -65l4 -9h-180q-27 49 -27 119q0 123 104.5 194.5t286.5 71.5q392 0 392 -403v-641h-195v115h-6q-38 -55 -113 -95t-162 -40q-164 0 -253 80t-89 221zM106 1434h295 l181 -269h-187zM258 285q0 -131 174 -131q114 0 180 66.5t66 168.5v117h-6q-37 -58 -213 -82q-201 -27 -201 -139z" />
<glyph unicode="&#xe1;" horiz-adv-x="970" d="M61 281q0 271 371 311q141 19 190.5 50t49.5 101q0 65 -54 95t-137 30q-194 0 -194 -135q0 -37 12 -65l4 -9h-180q-27 49 -27 119q0 123 104.5 194.5t286.5 71.5q392 0 392 -403v-641h-195v115h-6q-38 -55 -113 -95t-162 -40q-164 0 -253 80t-89 221zM258 285 q0 -131 174 -131q114 0 180 66.5t66 168.5v117h-6q-37 -58 -213 -82q-201 -27 -201 -139zM319 1165l181 269h288l-288 -269h-181z" />
<glyph unicode="&#xe2;" horiz-adv-x="970" d="M61 281q0 271 371 311q141 19 190.5 50t49.5 101q0 65 -54 95t-137 30q-194 0 -194 -135q0 -37 12 -65l4 -9h-180q-27 49 -27 119q0 123 104.5 194.5t286.5 71.5q392 0 392 -403v-641h-195v115h-6q-38 -55 -113 -95t-162 -40q-164 0 -253 80t-89 221zM164 1165l201 269 h233l197 -269h-160l-156 119l-155 -119h-160zM258 285q0 -131 174 -131q114 0 180 66.5t66 168.5v117h-6q-37 -58 -213 -82q-201 -27 -201 -139z" />
<glyph unicode="&#xe3;" horiz-adv-x="970" d="M61 281q0 271 371 311q141 19 190.5 50t49.5 101q0 65 -54 95t-137 30q-194 0 -194 -135q0 -37 12 -65l4 -9h-180q-27 49 -27 119q0 123 104.5 194.5t286.5 71.5q392 0 392 -403v-641h-195v115h-6q-38 -55 -113 -95t-162 -40q-164 0 -253 80t-89 221zM176 1247 q0 75 45 120.5t117 45.5q36 0 146 -41t118 -41q55 0 55 51l-4 33h119q10 -58 10 -92q0 -75 -44.5 -120.5t-116.5 -45.5q-37 0 -148 41t-117 41q-55 0 -55 -51l4 -33h-119q-10 58 -10 92zM258 285q0 -131 174 -131q114 0 180 66.5t66 168.5v117h-6q-37 -58 -213 -82 q-201 -27 -201 -139z" />
<glyph unicode="&#xe4;" horiz-adv-x="970" d="M61 281q0 271 371 311q141 19 190.5 50t49.5 101q0 65 -54 95t-137 30q-194 0 -194 -135q0 -37 12 -65l4 -9h-180q-27 49 -27 119q0 123 104.5 194.5t286.5 71.5q392 0 392 -403v-641h-195v115h-6q-38 -55 -113 -95t-162 -40q-164 0 -253 80t-89 221zM164 1319 q0 55 40.5 95t94.5 40q55 0 95 -40t40 -95q0 -54 -40 -94.5t-95 -40.5q-54 0 -94.5 40.5t-40.5 94.5zM258 285q0 -131 174 -131q114 0 180 66.5t66 168.5v117h-6q-37 -58 -213 -82q-201 -27 -201 -139zM524 1319q0 55 40.5 95t94.5 40q56 0 96 -40t40 -95q0 -54 -40.5 -94.5 t-95.5 -40.5q-54 0 -94.5 40.5t-40.5 94.5z" />
<glyph unicode="&#xe5;" horiz-adv-x="970" d="M61 281q0 271 371 311q141 19 190.5 50t49.5 101q0 65 -54 95t-137 30q-194 0 -194 -135q0 -37 12 -65l4 -9h-180q-27 49 -27 119q0 123 104.5 194.5t286.5 71.5q392 0 392 -403v-641h-195v115h-6q-38 -55 -113 -95t-162 -40q-164 0 -253 80t-89 221zM258 285 q0 -131 174 -131q114 0 180 66.5t66 168.5v117h-6q-37 -58 -213 -82q-201 -27 -201 -139zM270 1350q0 88 62.5 150.5t148.5 62.5q88 0 150.5 -62.5t62.5 -150.5q0 -86 -62.5 -148.5t-150.5 -62.5q-86 0 -148.5 62.5t-62.5 148.5zM373 1350q0 -45 32 -78t76 -33q43 0 75 33.5 t32 77.5t-32 78t-75 34q-45 0 -76.5 -32.5t-31.5 -79.5z" />
<glyph unicode="&#xe6;" horiz-adv-x="1605" d="M72 270q0 159 96 234.5t297 87.5q127 11 166 36.5t51 112.5q0 65 -57.5 96t-145.5 31q-81 0 -131.5 -33.5t-50.5 -101.5q0 -45 12 -65l4 -9h-180q-27 47 -27 117q0 82 55 145t135.5 93t168.5 30q250 0 352 -141q120 141 324 141q171 0 282 -118.5t111 -286.5 q0 -93 -23 -164l-8 -22h-610q0 -289 260 -289q176 0 176 133q0 11 -4 31h176q2 0 5.5 -10t6.5 -29t3 -39q0 -87 -53 -150t-132.5 -91.5t-173.5 -28.5q-126 0 -220 45.5t-142 126.5q-44 -90 -128 -131t-239 -41q-159 0 -257.5 81.5t-98.5 208.5zM264 289q0 -65 52 -101 t141 -36q130 0 180.5 62.5t50.5 203.5v98h-6q-24 -44 -63 -61t-134 -23q-121 -9 -171 -42t-50 -101zM903 627h434q0 233 -204 233q-53 0 -95.5 -19.5t-67 -47t-40.5 -61.5t-21.5 -60t-5.5 -45z" />
<glyph unicode="&#xe7;" horiz-adv-x="978" d="M72 483q0 156 53.5 282t160.5 202.5t249 76.5q153 0 254.5 -76.5t101.5 -201.5q0 -69 -17 -107l-6 -16h-182q10 38 10 80q0 69 -48 103t-122 34q-69 0 -119 -32.5t-76.5 -87.5t-38 -114t-11.5 -124q0 -338 256 -338q84 0 130 42t46 118l-8 65h176q16 -43 16 -88 q0 -160 -94.5 -240.5t-261.5 -80.5q-231 0 -350 132.5t-119 370.5zM287 -213l100 23q15 -74 111 -74q45 0 75.5 18t30.5 53q0 66 -100 66q-38 0 -70 -8l-4 -4v76q41 18 92 18q90 0 136.5 -36t46.5 -101q0 -73 -58 -116.5t-162 -43.5q-177 0 -198 129z" />
<glyph unicode="&#xe8;" horiz-adv-x="999" d="M72 489q0 159 50.5 283t154.5 198t247 74q117 0 208.5 -56t138.5 -147t47 -198q0 -85 -27 -180h-623q11 -150 75 -224.5t194 -74.5q91 0 133.5 35t42.5 90l-6 41h176q12 -35 12 -80q0 -111 -96.5 -190.5t-257.5 -79.5q-225 0 -347 136t-122 373zM160 1434h295l180 -269 h-186zM276 625h445q2 12 2 39q0 29 -5 55t-19 53.5t-36.5 47t-60 32t-86.5 12.5q-106 0 -170 -66.5t-70 -172.5z" />
<glyph unicode="&#xe9;" horiz-adv-x="999" d="M72 489q0 159 50.5 283t154.5 198t247 74q117 0 208.5 -56t138.5 -147t47 -198q0 -85 -27 -180h-623q11 -150 75 -224.5t194 -74.5q91 0 133.5 35t42.5 90l-6 41h176q12 -35 12 -80q0 -111 -96.5 -190.5t-257.5 -79.5q-225 0 -347 136t-122 373zM276 625h445q2 12 2 39 q0 29 -5 55t-19 53.5t-36.5 47t-60 32t-86.5 12.5q-106 0 -170 -66.5t-70 -172.5zM406 1165l180 269h288l-288 -269h-180z" />
<glyph unicode="&#xea;" horiz-adv-x="999" d="M72 489q0 159 50.5 283t154.5 198t247 74q117 0 208.5 -56t138.5 -147t47 -198q0 -85 -27 -180h-623q11 -150 75 -224.5t194 -74.5q91 0 133.5 35t42.5 90l-6 41h176q12 -35 12 -80q0 -111 -96.5 -190.5t-257.5 -79.5q-225 0 -347 136t-122 373zM201 1165l200 269h234 l196 -269h-159l-156 119l-156 -119h-159zM276 625h445q2 12 2 39q0 29 -5 55t-19 53.5t-36.5 47t-60 32t-86.5 12.5q-106 0 -170 -66.5t-70 -172.5z" />
<glyph unicode="&#xeb;" horiz-adv-x="999" d="M72 489q0 159 50.5 283t154.5 198t247 74q117 0 208.5 -56t138.5 -147t47 -198q0 -85 -27 -180h-623q11 -150 75 -224.5t194 -74.5q91 0 133.5 35t42.5 90l-6 41h176q12 -35 12 -80q0 -111 -96.5 -190.5t-257.5 -79.5q-225 0 -347 136t-122 373zM174 1319q0 55 40.5 95 t94.5 40q55 0 95 -40t40 -95q0 -54 -40 -94.5t-95 -40.5q-54 0 -94.5 40.5t-40.5 94.5zM276 625h445q2 12 2 39q0 29 -5 55t-19 53.5t-36.5 47t-60 32t-86.5 12.5q-106 0 -170 -66.5t-70 -172.5zM535 1319q0 55 40.5 95t94.5 40q56 0 95.5 -40t39.5 -95q0 -54 -40 -94.5 t-95 -40.5q-54 0 -94.5 40.5t-40.5 94.5z" />
<glyph unicode="&#xec;" horiz-adv-x="512" d="M-133 1434h295l180 -269h-186zM154 0v1024h204v-1024h-204z" />
<glyph unicode="&#xed;" horiz-adv-x="512" d="M147 1165l181 269h288l-288 -269h-181zM154 0v1024h204v-1024h-204z" />
<glyph unicode="&#xee;" horiz-adv-x="512" d="M-59 1165l200 269h234l196 -269h-159l-156 119l-156 -119h-159zM154 0v1024h204v-1024h-204z" />
<glyph unicode="&#xef;" horiz-adv-x="512" d="M-49 1319q0 55 40.5 95t94.5 40q56 0 95.5 -40t39.5 -95q0 -54 -40 -94.5t-95 -40.5q-54 0 -94.5 40.5t-40.5 94.5zM154 0v1024h204v-1024h-204zM291 1319q0 55 40.5 95t94.5 40q56 0 95.5 -40t39.5 -95q0 -54 -40 -94.5t-95 -40.5q-54 0 -94.5 40.5t-40.5 94.5z" />
<glyph unicode="&#xf0;" horiz-adv-x="1040" d="M51 487q0 157 53 281.5t160 200t252 75.5q64 0 120.5 -15t78.5 -34l20 -16q-38 133 -108 209l-142 -80l-51 90l105 59q-82 43 -189 43q-48 0 -84 -8v181q46 6 94 6q222 0 359 -119l162 92l51 -90l-139 -80q70 -83 128 -293.5t58 -425.5q0 -276 -120.5 -431t-354.5 -155 q-221 0 -337 138.5t-116 371.5zM252 487q0 -139 64.5 -231t195.5 -92q128 0 194 88.5t66 232.5q0 72 -15 137.5t-45.5 120t-82 87t-117.5 32.5q-87 0 -147.5 -56t-86.5 -138t-26 -181z" />
<glyph unicode="&#xf1;" horiz-adv-x="1030" d="M113 0v1024h198v-119h4q37 63 106 101t150 38q173 0 270 -116.5t97 -331.5v-596h-205v571q0 281 -205 281q-213 0 -213 -281v-571h-202zM221 1266q0 75 45 120.5t117 45.5q36 0 146 -41t118 -41q55 0 55 51l-4 33h119q10 -58 10 -93q0 -75 -44.5 -120t-116.5 -45 q-36 0 -147 40.5t-118 40.5q-55 0 -55 -51l4 -32h-119q-10 58 -10 92z" />
<glyph unicode="&#xf2;" horiz-adv-x="1064" d="M72 487q0 158 51.5 282.5t157.5 199.5t251 75q142 0 248.5 -75.5t159.5 -200.5t53 -281q0 -225 -119 -366t-342 -141q-155 0 -260 67t-152.5 178.5t-47.5 261.5zM145 1434h295l181 -269h-187zM281 487q0 -68 13 -123.5t41.5 -101.5t78.5 -72t118 -26q128 0 190 87t62 234 q0 51 -6.5 99.5t-24 99.5t-45 89t-73 62.5t-103.5 24.5q-71 0 -122.5 -34.5t-78 -92t-38.5 -118.5t-12 -128z" />
<glyph unicode="&#xf3;" horiz-adv-x="1064" d="M72 487q0 158 51.5 282.5t157.5 199.5t251 75q142 0 248.5 -75.5t159.5 -200.5t53 -281q0 -225 -119 -366t-342 -141q-155 0 -260 67t-152.5 178.5t-47.5 261.5zM281 487q0 -68 13 -123.5t41.5 -101.5t78.5 -72t118 -26q128 0 190 87t62 234q0 51 -6.5 99.5t-24 99.5 t-45 89t-73 62.5t-103.5 24.5q-71 0 -122.5 -34.5t-78 -92t-38.5 -118.5t-12 -128zM412 1165l180 269h289l-289 -269h-180z" />
<glyph unicode="&#xf4;" horiz-adv-x="1064" d="M72 487q0 158 51.5 282.5t157.5 199.5t251 75q142 0 248.5 -75.5t159.5 -200.5t53 -281q0 -225 -119 -366t-342 -141q-155 0 -260 67t-152.5 178.5t-47.5 261.5zM217 1165l201 269h233l197 -269h-160l-156 119l-155 -119h-160zM281 487q0 -68 13 -123.5t41.5 -101.5 t78.5 -72t118 -26q128 0 190 87t62 234q0 51 -6.5 99.5t-24 99.5t-45 89t-73 62.5t-103.5 24.5q-71 0 -122.5 -34.5t-78 -92t-38.5 -118.5t-12 -128z" />
<glyph unicode="&#xf5;" horiz-adv-x="1064" d="M72 487q0 158 51.5 282.5t157.5 199.5t251 75q142 0 248.5 -75.5t159.5 -200.5t53 -281q0 -225 -119 -366t-342 -141q-155 0 -260 67t-152.5 178.5t-47.5 261.5zM229 1266q0 75 45 120.5t117 45.5q36 0 146 -41t118 -41q56 0 56 51l-4 33h118q11 -64 11 -93 q0 -75 -45 -120t-117 -45q-36 0 -147 40.5t-117 40.5q-56 0 -56 -51l4 -32h-118q-11 64 -11 92zM281 487q0 -68 13 -123.5t41.5 -101.5t78.5 -72t118 -26q128 0 190 87t62 234q0 51 -6.5 99.5t-24 99.5t-45 89t-73 62.5t-103.5 24.5q-71 0 -122.5 -34.5t-78 -92 t-38.5 -118.5t-12 -128z" />
<glyph unicode="&#xf6;" horiz-adv-x="1064" d="M72 487q0 158 51.5 282.5t157.5 199.5t251 75q142 0 248.5 -75.5t159.5 -200.5t53 -281q0 -225 -119 -366t-342 -141q-155 0 -260 67t-152.5 178.5t-47.5 261.5zM217 1319q0 55 40.5 95t94.5 40q56 0 95.5 -40t39.5 -95q0 -54 -40 -94.5t-95 -40.5q-54 0 -94.5 40.5 t-40.5 94.5zM281 487q0 -68 13 -123.5t41.5 -101.5t78.5 -72t118 -26q128 0 190 87t62 234q0 51 -6.5 99.5t-24 99.5t-45 89t-73 62.5t-103.5 24.5q-71 0 -122.5 -34.5t-78 -92t-38.5 -118.5t-12 -128zM578 1319q0 55 40.5 95t94.5 40q55 0 95 -40t40 -95q0 -54 -40 -94.5 t-95 -40.5q-54 0 -94.5 40.5t-40.5 94.5z" />
<glyph unicode="&#xf7;" horiz-adv-x="1101" d="M123 612v103h856v-103h-856zM387 297q0 63 45.5 108.5t108.5 45.5t108 -45.5t45 -108.5t-45 -108.5t-108 -45.5q-67 0 -109 45q-45 42 -45 109zM387 1012q0 63 45.5 108t108.5 45t108 -45t45 -108t-45 -108.5t-108 -45.5q-67 0 -109 45q-45 42 -45 109z" />
<glyph unicode="&#xf8;" horiz-adv-x="1064" d="M72 487q0 158 51.5 282.5t157.5 199.5t251 75q152 0 261 -81l98 131l98 -70l-110 -147q114 -156 114 -390q0 -225 -119 -366t-342 -141q-158 0 -270 71l-90 -123l-98 72l100 133q-102 132 -102 354zM281 487q0 -96 28 -172l367 492q-59 53 -144 53q-71 0 -122.5 -34.5 t-78 -92t-38.5 -118.5t-12 -128zM383 211q59 -47 149 -47q128 0 190 87t62 234q0 124 -36 215z" />
<glyph unicode="&#xf9;" horiz-adv-x="1028" d="M92 395v629h201v-604q0 -139 54 -193.5t157 -54.5q215 0 215 301v551h196v-1024h-184v102h-4q-94 -122 -272 -122q-173 0 -268 107t-95 308zM150 1434h294l181 -269h-187z" />
<glyph unicode="&#xfa;" horiz-adv-x="1028" d="M92 395v629h201v-604q0 -139 54 -193.5t157 -54.5q215 0 215 301v551h196v-1024h-184v102h-4q-94 -122 -272 -122q-173 0 -268 107t-95 308zM408 1165l180 269h289l-289 -269h-180z" />
<glyph unicode="&#xfb;" horiz-adv-x="1028" d="M92 395v629h201v-604q0 -139 54 -193.5t157 -54.5q215 0 215 301v551h196v-1024h-184v102h-4q-94 -122 -272 -122q-173 0 -268 107t-95 308zM209 1165l201 269h233l197 -269h-160l-156 119l-155 -119h-160z" />
<glyph unicode="&#xfc;" horiz-adv-x="1028" d="M92 395v629h201v-604q0 -139 54 -193.5t157 -54.5q215 0 215 301v551h196v-1024h-184v102h-4q-94 -122 -272 -122q-173 0 -268 107t-95 308zM209 1319q0 55 40.5 95t94.5 40q56 0 95.5 -40t39.5 -95q0 -54 -40 -94.5t-95 -40.5q-54 0 -94.5 40.5t-40.5 94.5zM569 1319 q0 55 41 95t95 40q55 0 95 -40t40 -95q0 -54 -40 -94.5t-95 -40.5q-54 0 -95 40.5t-41 94.5z" />
<glyph unicode="&#xfd;" horiz-adv-x="958" d="M31 1024h225l225 -692q3 -20 6 -23q0 2 7 23l225 692h209l-348 -981q-74 -207 -161.5 -303t-213.5 -96l-117 22v172q27 -18 78 -18q82 0 125.5 43t81.5 151l14 41zM365 1165l180 269h289l-289 -269h-180z" />
<glyph unicode="&#xfe;" horiz-adv-x="1079" d="M113 -410v1844h184v-525h6q99 135 272 135q132 0 232 -72t150.5 -193t50.5 -273q0 -150 -48 -268t-146 -188t-232 -70q-180 0 -269 102h-4v-492h-196zM299 492q0 -44 6.5 -85.5t24 -87t45 -79t73.5 -55t105 -21.5q120 0 183 93t63 230q0 373 -246 373q-68 0 -118.5 -29 t-79.5 -81t-42.5 -116t-13.5 -142z" />
<glyph unicode="&#xff;" horiz-adv-x="958" d="M31 1024h225l225 -692q3 -20 6 -23q0 2 7 23l225 692h209l-348 -981q-74 -207 -161.5 -303t-213.5 -96l-117 22v172q27 -18 78 -18q82 0 125.5 43t81.5 151l14 41zM158 1319q0 55 40.5 95t94.5 40q55 0 95 -40t40 -95q0 -54 -40 -94.5t-95 -40.5q-54 0 -94.5 40.5 t-40.5 94.5zM518 1319q0 55 40.5 95t94.5 40q55 0 95 -40t40 -95q0 -54 -40 -94.5t-95 -40.5q-54 0 -94.5 40.5t-40.5 94.5z" />
<glyph unicode="&#x152;" horiz-adv-x="1699" d="M72 686q0 120 22 229.5t71 208.5t120.5 172t177.5 115.5t235 42.5q98 0 162 -20h758v-191h-539v-416h498v-190h-498v-447h539v-190h-756q-70 -20 -164 -20q-126 0 -230 37t-176.5 102t-122.5 154t-73.5 193t-23.5 220zM295 682q0 -79 12 -150t41.5 -138.5t74.5 -116.5 t115.5 -79t159.5 -30q101 0 162 25v1040q-67 31 -162 31q-108 0 -189 -52t-126 -139t-66.5 -185t-21.5 -206z" />
<glyph unicode="&#x153;" horiz-adv-x="1720" d="M72 487q0 158 51.5 282.5t157.5 199.5t251 75q231 0 357 -184q120 184 356 184q171 0 282 -118.5t111 -286.5q0 -90 -24 -164l-6 -22h-611q0 -289 260 -289q177 0 177 133q0 11 -4 31h176q2 0 5.5 -10t6 -29t2.5 -39q0 -87 -53 -150t-132 -91.5t-173 -28.5 q-243 0 -369 163q-123 -163 -361 -163q-155 0 -260 67t-152.5 178.5t-47.5 261.5zM272 487q0 -139 64.5 -231t195.5 -92q128 0 194.5 88.5t66.5 236.5q0 102 -28 184.5t-88.5 134.5t-144.5 52q-88 0 -148.5 -56t-86 -137.5t-25.5 -179.5zM1008 627h434q0 233 -205 233 q-53 0 -95.5 -19.5t-66.5 -47t-40 -61.5t-21.5 -60t-5.5 -45z" />
<glyph unicode="&#x178;" horiz-adv-x="1196" d="M31 1434h254l313 -637l313 637h254l-456 -854v-580h-222v580zM303 1710q0 55 40.5 95t94.5 40q56 0 95.5 -39.5t39.5 -95.5q0 -54 -40 -94.5t-95 -40.5q-54 0 -94.5 40.5t-40.5 94.5zM664 1710q0 55 40.5 95t94.5 40q55 0 95 -39.5t40 -95.5q0 -54 -40 -94.5t-95 -40.5 q-54 0 -94.5 40.5t-40.5 94.5z" />
<glyph unicode="&#x2c6;" horiz-adv-x="999" d="M184 1165l201 269h233l197 -269h-160l-155 119l-156 -119h-160z" />
<glyph unicode="&#x2dc;" horiz-adv-x="811" d="M102 1268q0 75 45 120.5t117 45.5q36 0 146 -41t118 -41q56 0 56 51l-4 31h118q11 -64 11 -91q0 -75 -45 -120t-117 -45q-37 0 -147 41t-117 41q-56 0 -56 -52l4 -32h-118q-11 64 -11 92z" />
<glyph unicode="&#x2000;" horiz-adv-x="983" />
<glyph unicode="&#x2001;" horiz-adv-x="1966" />
<glyph unicode="&#x2002;" horiz-adv-x="983" />
<glyph unicode="&#x2003;" horiz-adv-x="1966" />
<glyph unicode="&#x2004;" horiz-adv-x="655" />
<glyph unicode="&#x2005;" horiz-adv-x="491" />
<glyph unicode="&#x2006;" horiz-adv-x="327" />
<glyph unicode="&#x2007;" horiz-adv-x="327" />
<glyph unicode="&#x2008;" horiz-adv-x="245" />
<glyph unicode="&#x2009;" horiz-adv-x="393" />
<glyph unicode="&#x200a;" horiz-adv-x="109" />
<glyph unicode="&#x2010;" horiz-adv-x="804" d="M102 518v184h600v-184h-600z" />
<glyph unicode="&#x2011;" horiz-adv-x="804" d="M102 518v184h600v-184h-600z" />
<glyph unicode="&#x2012;" horiz-adv-x="804" d="M102 518v184h600v-184h-600z" />
<glyph unicode="&#x2013;" horiz-adv-x="1030" d="M102 518v184h826v-184h-826z" />
<glyph unicode="&#x2014;" horiz-adv-x="1542" d="M102 518v184h1338v-184h-1338z" />
<glyph unicode="&#x2018;" horiz-adv-x="395" d="M82 926l104 508h107l-105 -508h-106z" />
<glyph unicode="&#x2019;" horiz-adv-x="395" d="M102 926l105 508h106l-104 -508h-107z" />
<glyph unicode="&#x201a;" horiz-adv-x="395" d="M82 -295l104 508h107l-105 -508h-106z" />
<glyph unicode="&#x201c;" horiz-adv-x="620" d="M82 926l104 508h107l-105 -508h-106zM307 926l105 508h106l-104 -508h-107z" />
<glyph unicode="&#x201d;" horiz-adv-x="624" d="M102 909l109 525h106l-108 -525h-107zM328 909l108 525h107l-109 -525h-106z" />
<glyph unicode="&#x201e;" horiz-adv-x="620" d="M82 -295l104 508h107l-105 -508h-106zM307 -295l105 508h106l-104 -508h-107z" />
<glyph unicode="&#x2022;" horiz-adv-x="772" d="M154 582q0 95 68.5 164t162.5 69t163.5 -69.5t69.5 -163.5t-69 -163t-164 -69q-96 0 -164 68q-67 67 -67 164z" />
<glyph unicode="&#x2026;" horiz-adv-x="1449" d="M123 127q0 56 42 96.5t97 40.5q56 0 96.5 -41t40.5 -96t-40.5 -97t-96.5 -42q-60 0 -98 41q-41 38 -41 98zM586 127q0 56 42 96.5t97 40.5t96 -41t41 -96t-40.5 -97t-96.5 -42q-60 0 -98 41q-41 38 -41 98zM1051 127q0 56 42 96.5t97 40.5q56 0 96.5 -41t40.5 -96 t-40.5 -97t-96.5 -42q-60 0 -98 41q-41 38 -41 98z" />
<glyph unicode="&#x202f;" horiz-adv-x="393" />
<glyph unicode="&#x2039;" horiz-adv-x="608" d="M72 532l321 410h103l-322 -410l322 -411h-103z" />
<glyph unicode="&#x203a;" horiz-adv-x="608" d="M113 121l321 411l-321 410h102l322 -412l-322 -409h-102z" />
<glyph unicode="&#x205f;" horiz-adv-x="491" />
<glyph unicode="&#x20ac;" horiz-adv-x="1257" d="M82 500v123h160v43q0 16 4 118h-164v123h180q45 237 181.5 371.5t363.5 134.5q174 0 271.5 -81.5t97.5 -209.5l-19 -98h-194q8 19 8 59q0 136 -170 136q-256 0 -324 -312h406v-123h-422q-4 -46 -4 -102v-59h426v-123h-414q56 -326 317 -326q95 0 143 43t48 113l-12 80 h194q17 -63 17 -113q0 -39 -8 -77t-33.5 -83t-66 -78.5t-111.5 -56t-164 -22.5q-233 0 -371 131.5t-170 388.5h-170z" />
<glyph unicode="&#x2122;" horiz-adv-x="1173" d="M61 1343v91h400v-91h-148v-505h-102v505h-150zM500 838v596h166l114 -500l125 500h156v-596h-100v479l-119 -479h-123l-107 434l-14 41q2 -6 2 -41v-434h-100z" />
<glyph unicode="&#x25fc;" horiz-adv-x="1024" d="M0 0v1024h1024v-1024h-1024z" />
<glyph unicode="&#xfb03;" horiz-adv-x="1859" d="M61 850v174h136v141q0 57 8 107t29 100t54 85t87 57t125 22q111 0 179.5 -57t68.5 -158q0 -42 -13 -72l-4 -10h-158q11 22 11 45q0 76 -86 76q-107 0 -107 -172v-164h225v-174h-223v-850h-196v850h-136zM737 850v174h135v141q0 73 14 134t46 117t94.5 88t149.5 32 q111 0 179 -57t68 -158q0 -44 -12 -72l-4 -10h-158q11 22 11 45q0 76 -86 76q-107 0 -107 -172v-164h225v-174h-223v-850h-197v850h-135zM1454 1303q0 64 43.5 107.5t108.5 43.5q64 0 107.5 -43t43.5 -108t-43.5 -108.5t-107.5 -43.5q-66 0 -109 43t-43 109zM1503 0v1024 h205v-1024h-205z" />
<glyph unicode="&#xfb04;" horiz-adv-x="1785" d="M61 850v174h136v141q0 57 8 107t29 100t54 85t87 57t125 22q111 0 179.5 -57t68.5 -158q0 -42 -13 -72l-4 -10h-158q11 22 11 45q0 76 -86 76q-107 0 -107 -172v-164h225v-174h-223v-850h-196v850h-136zM737 850v174h135v141q0 73 14 134t46 117t94.5 88t149.5 32 q111 0 179 -57t68 -158q0 -44 -12 -72l-4 -10h-158q11 22 11 45q0 76 -86 76q-107 0 -107 -172v-164h225v-174h-223v-850h-197v850h-135zM1464 0v1516h209v-1516h-209z" />
</font>
</defs>
</svg>
