<?xml version="1.0" standalone="no"?>
<!DOCTYPE svg PUBLIC "-//W3C//DTD SVG 1.1//EN" "http://www.w3.org/Graphics/SVG/1.1/DTD/svg11.dtd" >
<svg xmlns="http://www.w3.org/2000/svg">
<metadata></metadata>
<defs>
<font id="maison_neuebook_italic" horiz-adv-x="1132" >
<font-face units-per-em="2048" ascent="1587" descent="-461" />
<missing-glyph horiz-adv-x="460" />
<glyph unicode="&#xfb01;" horiz-adv-x="1128" d="M102 0l166 938h-151l24 147h152l26 138q23 125 86.5 175t165.5 50h168l-28 -154h-113q-63 0 -88 -23.5t-39 -101.5l-16 -84h589l-190 -1085h-168l164 938h-418l-166 -938h-164zM885 1260l33 188h190l-33 -188h-190z" />
<glyph unicode="&#xfb02;" horiz-adv-x="1130" d="M102 0l164 938h-149l24 147h152l24 123q27 135 92.5 187.5t172.5 52.5h166l-25 -150h-125q-63 0 -88 -24.5t-39 -102.5l-16 -86h413l74 410h168l-264 -1495h-168l166 938h-412l-166 -938h-164z" />
<glyph horiz-adv-x="0" />
<glyph horiz-adv-x="0" />
<glyph horiz-adv-x="682" />
<glyph unicode="&#xd;" horiz-adv-x="681" />
<glyph unicode=" "  horiz-adv-x="460" />
<glyph unicode="&#x09;" horiz-adv-x="460" />
<glyph unicode="&#xa0;" horiz-adv-x="460" />
<glyph unicode="!" horiz-adv-x="587" d="M72 0l41 236h237l-41 -236h-237zM170 426l178 1008h168l-178 -1008h-168z" />
<glyph unicode="&#x22;" horiz-adv-x="638" d="M154 977l79 457h127l-79 -457h-127zM422 977l80 457h127l-80 -457h-127z" />
<glyph unicode="#" horiz-adv-x="1370" d="M92 614l21 121h272l70 279h-228l23 121h233l72 299h131l-72 -299h275l72 299h133l-74 -299h258l-21 -121h-266l-69 -279h221l-23 -121h-227l-72 -297h-131l70 297h-273l-71 -297h-131l69 297h-262zM518 735h273l67 279h-272z" />
<glyph unicode="$" horiz-adv-x="1372" d="M92 512l180 20q0 -344 279 -393l100 559q-236 80 -324.5 159t-88.5 212q0 164 142 279.5t378 115.5h28l23 123h92l-24 -133q170 -29 274 -135.5t109 -267.5l-175 -21q-14 225 -235 266l-84 -460q256 -86 347 -175.5t91 -226.5q0 -188 -151.5 -326.5t-401.5 -138.5h-41 l-30 -170h-88l30 181q-178 29 -288.5 136t-133.5 283q-8 70 -8 113zM414 1079q0 -68 48 -110.5t220 -102.5l78 441q-160 0 -253 -65t-93 -163zM639 131q168 0 279.5 82t111.5 215q0 74 -56 129t-239 115z" />
<glyph unicode="%" horiz-adv-x="1912" d="M154 981q0 223 114.5 350t272.5 127q135 0 222 -98t87 -252q0 -219 -113.5 -349t-273.5 -130q-137 0 -223 97t-86 255zM293 993q0 -102 43 -168.5t125 -66.5q109 0 179.5 93t70.5 251q0 100 -44 163.5t-128 63.5q-109 0 -177.5 -90t-68.5 -246zM418 -80l1001 1669 l105 -65l-1000 -1667zM1063 328q0 223 114.5 350t272.5 127q135 0 222 -98.5t87 -251.5q0 -219 -113.5 -349.5t-271.5 -130.5q-139 0 -225 97.5t-86 255.5zM1202 340q0 -102 43 -169t125 -67q109 0 179.5 93.5t70.5 251.5q0 100 -44 163.5t-128 63.5q-109 0 -177.5 -90 t-68.5 -246z" />
<glyph unicode="&#x26;" horiz-adv-x="1351" d="M41 356q0 326 362 510q-94 121 -94 240q0 152 111.5 255t288.5 103q186 0 282 -98t99 -258l-158 -14q-12 221 -219 221q-117 0 -178.5 -63.5t-61.5 -145.5q0 -84 117 -213l330 -375l47 252h155l-69 -391l217 -240l-117 -108l-164 184q-47 -104 -184 -175t-293 -71 q-219 0 -345 103.5t-126 283.5zM205 381q0 -258 317 -258q72 0 137.5 17.5t126.5 67.5t86 128l-380 420q-287 -141 -287 -375z" />
<glyph unicode="'" horiz-adv-x="370" d="M154 977l79 457h127l-79 -457h-127z" />
<glyph unicode="(" horiz-adv-x="751" d="M164 469q0 332 152.5 626t437.5 517l90 -103q-526 -416 -529 -1013q-2 -410 213 -795l-122 -72q-242 432 -242 840z" />
<glyph unicode=")" horiz-adv-x="819" d="M-31 -262q522 420 525 1007q2 406 -211 795l120 72q240 -428 242 -850q0 -332 -152.5 -625t-437.5 -508z" />
<glyph unicode="*" horiz-adv-x="913" d="M133 1190l78 104l225 -155l51 295h134l-52 -304l256 140l58 -113l-283 -151l162 -244l-113 -80l-172 281l-233 -238l-88 96l213 207z" />
<glyph unicode="+" horiz-adv-x="1040" d="M41 711v135h408v414h143v-414h407v-135h-407v-465h-143v465h-408z" />
<glyph unicode="," horiz-adv-x="598" d="M31 -238l20 113q100 18 121 125h-100l41 236h249l-40 -226q-39 -228 -291 -248z" />
<glyph unicode="-" horiz-adv-x="946" d="M133 631l27 143h653l-27 -143h-653z" />
<glyph unicode="." horiz-adv-x="610" d="M92 0l43 238h240l-43 -238h-240z" />
<glyph unicode="/" horiz-adv-x="749" d="M-51 -29l737 1557l115 -51l-738 -1553z" />
<glyph unicode="0" horiz-adv-x="1286" d="M92 532q0 236 73 445t222.5 348t347.5 139q201 0 330 -146.5t129 -416.5q0 -246 -72.5 -454.5t-222 -343t-350.5 -134.5q-205 0 -331 140.5t-126 422.5zM260 532q0 -197 80 -300t223.5 -103t252 125t158.5 297t50 348q0 195 -81 302.5t-222 107.5t-251 -129t-160 -302 t-50 -346z" />
<glyph unicode="1" horiz-adv-x="833" d="M123 1032l35 203l364 199h148l-252 -1434h-168l217 1221z" />
<glyph unicode="2" horiz-adv-x="1175" d="M31 0l20 129q35 219 131.5 336t331.5 217q8 4 53 22.5t59.5 25.5t57.5 26.5t60.5 31t53.5 35t52 41t40.5 44t36 51t19.5 56.5t8 66q0 104 -80.5 167t-189.5 63q-135 0 -223 -82t-121 -236l-162 39q35 203 175.5 317.5t328.5 114.5q207 0 324.5 -110.5t117.5 -272.5 q0 -102 -35.5 -181t-115.5 -141.5t-159 -103.5t-216 -100q-195 -84 -265.5 -158.5t-92.5 -224.5h741l-33 -172h-917z" />
<glyph unicode="3" horiz-adv-x="1179" d="M31 487l170 25q14 -389 331 -389q162 0 249 93t87 237q0 117 -76.5 179t-203.5 62h-76l27 148h92q127 0 209 68.5t82 195.5q0 90 -65.5 147.5t-182.5 57.5q-123 0 -195.5 -71t-101.5 -177l-158 47q27 141 147.5 247.5t311.5 106.5q180 0 293.5 -96t115.5 -244 q0 -129 -71.5 -222t-190.5 -132v-6q88 -31 149.5 -115t61.5 -209q0 -201 -133 -336t-373 -135q-236 0 -364.5 139t-134.5 379z" />
<glyph unicode="4" horiz-adv-x="1173" d="M31 334l26 151l748 949h260l-172 -949h178l-27 -151h-176l-57 -334h-168l59 334h-671zM236 485h489l154 809h-5z" />
<glyph unicode="5" horiz-adv-x="1230" d="M72 399l164 39q23 -141 102.5 -228t228.5 -87q170 0 272.5 116.5t102.5 286.5q0 131 -81 211t-218 80q-186 0 -328 -141l-133 86l213 672h705l-27 -156h-571l-135 -432h4q129 109 301 108q188 0 312 -117.5t124 -304.5q0 -254 -150.5 -408.5t-392.5 -154.5 q-207 0 -337.5 121t-155.5 309z" />
<glyph unicode="6" horiz-adv-x="1277" d="M102 535q0 391 191.5 660t464.5 269q203 0 308 -125t110 -290l-162 -23q-25 285 -262 285q-158 0 -282 -142.5t-171 -386.5h2q2 -2 4 -2q49 57 150.5 110.5t228.5 53.5q211 0 332 -126t121 -304q0 -248 -148.5 -396.5t-378.5 -148.5q-219 0 -363.5 152.5t-144.5 413.5z M291 461q0 -156 91 -245t230 -89q158 0 259.5 107.5t101.5 279.5q0 119 -78 207t-231 88q-162 0 -267.5 -103.5t-105.5 -244.5z" />
<glyph unicode="7" horiz-adv-x="1075" d="M10 0l899 1270v6h-731l29 158h919l-26 -152l-895 -1282h-195z" />
<glyph unicode="8" horiz-adv-x="1173" d="M51 377q0 172 101.5 281.5t238.5 138.5v4q-164 78 -164 280q0 152 124 267.5t331 115.5q195 0 302.5 -106.5t107.5 -249.5q0 -129 -67 -216t-171 -120v-4q86 -37 147.5 -130t61.5 -210q0 -209 -153.5 -334t-393.5 -125q-213 0 -339 116t-126 292zM223 395 q0 -119 77 -190.5t239 -71.5q156 0 251 84t95 221q0 123 -79 193.5t-224 70.5q-162 0 -260.5 -85t-98.5 -222zM387 1075q0 -94 65.5 -159.5t186.5 -65.5q129 0 210 69.5t81 182.5q0 98 -63.5 158.5t-192.5 60.5q-125 0 -206 -71.5t-81 -174.5z" />
<glyph unicode="9" horiz-adv-x="1208" d="M92 362l164 35q12 -123 77.5 -198.5t194.5 -75.5q166 0 275.5 153.5t136.5 393.5h-6q-39 -63 -140.5 -118.5t-240.5 -55.5q-174 0 -297 115.5t-123 328.5q0 225 152.5 374.5t363.5 149.5q213 0 345 -155.5t132 -427.5q0 -414 -169 -663t-437 -249q-184 0 -301 106.5 t-127 286.5zM295 944q0 -131 79 -216t206 -85q158 0 260 95.5t102 236.5q0 150 -82 243t-219 93q-160 0 -253 -109.5t-93 -257.5z" />
<glyph unicode=":" horiz-adv-x="630" d="M92 0l43 238h240l-43 -238h-240zM219 850l41 235h238l-41 -235h-238z" />
<glyph unicode=";" horiz-adv-x="612" d="M31 -238l20 113q100 18 121 125h-100l41 236h249l-40 -226q-39 -228 -291 -248zM219 850l43 235h238l-41 -235h-240z" />
<glyph unicode="&#x3c;" horiz-adv-x="1099" d="M92 649v144l801 477l74 -121l-717 -428l717 -432l-76 -121z" />
<glyph unicode="=" horiz-adv-x="1214" d="M133 512v141h948v-141h-948zM133 856v141h948v-141h-948z" />
<glyph unicode="&#x3e;" horiz-adv-x="1099" d="M51 289l717 432l-717 428l74 121l801 -477v-144l-799 -481z" />
<glyph unicode="?" horiz-adv-x="1175" d="M174 1055q25 182 150 295.5t317 113.5q174 0 293 -93t127 -236q6 -74 -8 -129q-23 -104 -102 -183.5t-161.5 -118t-156.5 -92t-86 -114.5l-25 -109h-164l23 115q16 90 77.5 157.5t134.5 107.5t143.5 80t117.5 102.5t47 150.5q0 84 -67.5 148.5t-194.5 64.5 q-131 0 -209 -78t-102 -215zM262 0l43 238h240l-43 -238h-240z" />
<glyph unicode="@" horiz-adv-x="1490" d="M82 578q0 172 49 329.5t140 283.5t236.5 200.5t323.5 74.5q258 0 418 -171t160 -429q0 -279 -91 -416t-251 -137q-123 0 -168 97h-4q-80 -96 -219 -97q-123 0 -196.5 83t-73.5 231q0 186 102 320t250 134q61 0 110.5 -27.5t67.5 -60.5l12 68h123l-88 -516 q-10 -59 13.5 -93t74.5 -34q102 0 163.5 112.5t61.5 335.5q0 213 -124.5 353.5t-350.5 140.5q-156 0 -278.5 -69.5t-196.5 -183.5t-111.5 -250t-37.5 -279q0 -223 105.5 -361.5t313.5 -138.5q155 0 302 88l45 -105q-98 -66 -258 -81q-68 -8 -136 -7q-238 10 -362.5 179.5 t-124.5 425.5zM524 637q0 -215 162 -215q76 0 123 42.5t59 108.5l39 222q14 80 -29.5 130t-121.5 50q-100 0 -166 -100.5t-66 -237.5z" />
<glyph unicode="A" horiz-adv-x="1230" d="M-113 0l768 1434h168l264 -1434h-167l-54 289h-651l-152 -289h-176zM287 428h555l-140 780h-4z" />
<glyph unicode="B" horiz-adv-x="1312" d="M51 0l252 1434h512q195 0 295 -94.5t100 -241.5q0 -127 -71.5 -213t-175.5 -129v-4q188 -86 188 -301q0 -195 -138.5 -323t-410.5 -128h-551zM246 156h381q156 0 257 85t101 216q0 106 -73.5 165.5t-217.5 59.5h-356zM365 827h352q162 0 243.5 72t81.5 191 q0 88 -65.5 140t-188.5 52h-344z" />
<glyph unicode="C" horiz-adv-x="1329" d="M92 580q0 391 201 637.5t471 246.5q224 0 364 -138q139 -136 138 -357v-6l-179 -15q-4 158 -83.5 257.5t-258.5 99.5q-193 0 -335 -209t-142 -492q0 -209 102.5 -339t266.5 -130q152 0 250 105.5t139 279.5l176 -47q-49 -233 -196.5 -368.5t-376.5 -135.5 q-240 0 -388.5 170t-148.5 441z" />
<glyph unicode="D" horiz-adv-x="1343" d="M51 0l252 1434h430q246 0 387.5 -154t141.5 -428q0 -217 -60.5 -384t-166 -267.5t-236.5 -150.5t-283 -50h-465zM246 158h264q258 0 414.5 186t156.5 504q0 213 -99 322.5t-280 109.5h-258z" />
<glyph unicode="E" horiz-adv-x="1173" d="M51 0l252 1434h860l-26 -154h-693l-82 -467h635l-24 -145h-637l-90 -510h694l-29 -158h-860z" />
<glyph unicode="F" horiz-adv-x="1155" d="M51 0l252 1434h862l-26 -156h-695l-92 -518h637l-24 -146h-639l-109 -614h-166z" />
<glyph unicode="G" horiz-adv-x="1349" d="M92 592q0 389 203 630.5t477 241.5q217 0 355.5 -136t140.5 -353l-178 -17q-8 152 -86 248.5t-244 96.5q-203 0 -346.5 -203t-143.5 -496q0 -213 100.5 -340t266.5 -127q172 0 281.5 110.5t142.5 289.5h-352l28 157h529l-21 -135q-43 -266 -207 -428t-407 -162 q-246 0 -392.5 171t-146.5 452z" />
<glyph unicode="H" horiz-adv-x="1333" d="M51 0l252 1434h168l-109 -617h644l108 617h168l-252 -1434h-168l117 668h-641l-119 -668h-168z" />
<glyph unicode="I" horiz-adv-x="524" d="M51 0l252 1434h170l-252 -1434h-170z" />
<glyph unicode="J" horiz-adv-x="927" d="M-20 313l163 37q23 -219 179 -219q154 0 192 227l191 1076h172l-191 -1082q-70 -383 -375 -383q-137 0 -228 92t-103 252z" />
<glyph unicode="K" horiz-adv-x="1226" d="M51 0l252 1434h166l-121 -691h4l692 691h224l-647 -639l442 -795h-193l-372 684h-4l-189 -192l-88 -492h-166z" />
<glyph unicode="L" horiz-adv-x="993" d="M51 0l252 1434h168l-223 -1282h622l-26 -152h-793z" />
<glyph unicode="M" horiz-adv-x="1697" d="M51 0l252 1434h207l276 -1098h5l622 1098h234l-252 -1434h-168l205 1159h-5l-663 -1159h-49l-287 1159h-4l-207 -1159h-166z" />
<glyph unicode="N" horiz-adv-x="1355" d="M51 0l252 1434h146l489 -1115h4l195 1115h168l-252 -1434h-140l-495 1114h-4l-197 -1114h-166z" />
<glyph unicode="O" horiz-adv-x="1394" d="M92 590q0 205 59.5 375t158 276.5t218 164.5t246.5 58q240 0 384.5 -171t144.5 -449q0 -205 -59.5 -375t-157 -276.5t-215 -165t-240.5 -58.5q-248 0 -393.5 168t-145.5 453zM268 600q0 -215 95.5 -340t269.5 -125q203 0 347 197.5t144 501.5q0 217 -94 344t-262 127 q-205 0 -352.5 -202t-147.5 -503z" />
<glyph unicode="P" horiz-adv-x="1251" d="M51 0l252 1434h498q195 0 307.5 -102.5t112.5 -268.5q0 -238 -157 -374t-411 -136h-338l-98 -553h-166zM342 709h334q158 0 265.5 90t107.5 260q0 104 -71 162.5t-204 58.5h-330z" />
<glyph unicode="Q" horiz-adv-x="1435" d="M92 590q0 205 59.5 375t158 276.5t218 164.5t246.5 58q240 0 384.5 -171t144.5 -449q0 -352 -170 -594l153 -178l-104 -88l-140 163q-182 -178 -411 -178q-248 0 -393.5 168t-145.5 453zM268 600q0 -215 95.5 -340t269.5 -125q170 0 301 141l-297 355l106 88l273 -330 q108 186 108 440q0 223 -94 349q-94 127 -262 127q-205 0 -352.5 -202t-147.5 -503z" />
<glyph unicode="R" horiz-adv-x="1298" d="M51 0l252 1434h524q197 0 308.5 -98.5t111.5 -272.5q0 -195 -115.5 -318.5t-316.5 -160.5l223 -584h-184l-213 571h-324l-100 -571h-166zM346 723h340q174 0 280.5 89t106.5 247q0 109 -71.5 165t-200.5 56h-357z" />
<glyph unicode="S" horiz-adv-x="1259" d="M51 512l178 20q4 -197 90.5 -299t276.5 -102q150 0 251 86t101 211q0 76 -59.5 133t-251.5 125q-252 88 -346 169t-94 218q0 158 135 274.5t360 116.5q209 0 345.5 -112.5t140.5 -300.5l-172 -21q-8 123 -85 200t-235 77q-139 0 -226 -68t-87 -162q0 -74 64.5 -121 t295.5 -129q225 -80 307 -167t82 -226q0 -195 -145.5 -330t-388.5 -135q-207 0 -343 98.5t-173 282.5q-21 82 -21 162z" />
<glyph unicode="T" horiz-adv-x="1157" d="M133 1280l25 154h1050l-26 -154h-434l-226 -1280h-176l225 1280h-438z" />
<glyph unicode="U" horiz-adv-x="1392" d="M143 459l172 975h172l-168 -955q-8 -49 -8 -91q0 -106 52 -169q73 -88 239 -88q168 0 268.5 91t130.5 257l168 955h172l-174 -994q-41 -225 -188.5 -348t-388.5 -123q-238 -1 -362 133q-94 102 -94 255q0 49 9 102z" />
<glyph unicode="V" horiz-adv-x="1310" d="M154 1434h188l197 -1237h4l620 1237h199l-750 -1434h-209z" />
<glyph unicode="W" horiz-adv-x="1869" d="M215 1434h172l6 -1186h4l566 1186h182l145 -1186h4l424 1186h183l-515 -1434h-212l-154 1194h-4l-574 -1194h-217z" />
<glyph unicode="X" d="M-113 0l574 748l-287 686h180l224 -566h4l405 566h197l-518 -699l307 -735h-180l-244 612h-4l-461 -612h-197z" />
<glyph unicode="Y" horiz-adv-x="1155" d="M133 1434h182l246 -662h4l479 662h203l-616 -830l-107 -604h-172l107 604z" />
<glyph unicode="Z" horiz-adv-x="1247" d="M-20 0l22 137l1006 1139v6h-756l27 152h978l-22 -138l-1006 -1128v-4h803l-31 -164h-1021z" />
<glyph unicode="[" horiz-adv-x="854" d="M113 -371l329 1866h463l-20 -123h-328l-287 -1622h328l-23 -121h-462z" />
<glyph unicode="\" horiz-adv-x="954" d="M51 1473l115 53l737 -1557l-115 -49z" />
<glyph unicode="]" horiz-adv-x="874" d="M-51 -371l20 121h328l287 1622h-328l23 123h462l-329 -1866h-463z" />
<glyph unicode="^" horiz-adv-x="1114" d="M154 666l354 768h98l355 -768h-154l-250 573l-252 -573h-151z" />
<glyph unicode="_" horiz-adv-x="1069" d="M-92 -143h1028v-138h-1028v138z" />
<glyph unicode="`" horiz-adv-x="610" d="M113 1466h204l160 -247h-145z" />
<glyph unicode="a" d="M72 393q0 303 161.5 513t384.5 210q174 0 248 -129h6l19 98h170l-191 -1085h-151l20 125h-4q-37 -59 -115.5 -107.5t-195.5 -48.5q-143 0 -247.5 110.5t-104.5 313.5zM236 395q0 -119 57 -194.5t145 -75.5q109 0 214.5 98t140.5 301l24 142q7 42 7 78q0 85 -38 141 q-54 80 -176 80q-147 0 -260.5 -167t-113.5 -403z" />
<glyph unicode="b" horiz-adv-x="1191" d="M51 0l264 1495h164l-88 -498h4q115 119 299 119q178 0 292 -141t114 -357q0 -289 -147.5 -469t-377.5 -180q-125 0 -210.5 46t-126.5 108h-5l-22 -123h-160zM283 365q-3 -16 -3 -31q0 -74 64 -137q76 -76 203 -76q178 0 282.5 136t104.5 361q0 150 -73 248.5t-210 98.5 q-119 0 -206 -81.5t-105 -185.5z" />
<glyph unicode="c" horiz-adv-x="1134" d="M72 449q0 301 163.5 484t387.5 183q197 0 309 -124q108 -120 108 -297v-13l-163 -12q0 123 -61.5 209t-194.5 86q-154 0 -266.5 -140.5t-112.5 -367.5q0 -156 78.5 -244t201.5 -88q227 0 307 266l160 -55q-53 -176 -174 -271.5t-299 -95.5q-201 0 -322.5 130t-121.5 350z " />
<glyph unicode="d" horiz-adv-x="1208" d="M72 436q0 303 154.5 491.5t381.5 188.5q109 0 190 -46t124 -107h4l96 532h166l-264 -1495h-154l16 98h-4q-29 -43 -109.5 -86t-183.5 -43q-195 0 -306 129t-111 338zM240 451q0 -137 69.5 -233.5t202.5 -96.5q121 0 206 69.5t103 167.5l60 334q4 20 4 40q-1 80 -61 148 q-74 84 -208 85q-166 0 -271 -144.5t-105 -369.5z" />
<glyph unicode="e" horiz-adv-x="1167" d="M72 469q0 272 158.5 459.5t396.5 187.5q201 0 324.5 -126t123.5 -337l-10 -159h-823q-2 -18 -2 -37q0 -137 71.5 -236.5t216.5 -99.5q210 0 353 213l127 -105q-184 -260 -482 -260q-205 0 -329.5 133.5t-124.5 366.5zM258 629h653l2 6v19.5v19.5q0 125 -73.5 209 t-214.5 84q-150 0 -248.5 -104.5t-118.5 -233.5z" />
<glyph unicode="f" horiz-adv-x="749" d="M102 0l164 938h-151l24 147h154l37 185q23 125 86 175t166 50h188l-29 -154h-133q-63 0 -87.5 -23.5t-39.5 -100.5l-26 -132h270l-27 -147h-266l-166 -938h-164z" />
<glyph unicode="g" horiz-adv-x="1206" d="M51 -186l150 61q31 -106 92 -160.5t178 -54.5q244 0 297 283l29 147h-4q-104 -121 -289 -121q-188 0 -306 129t-118 336q0 309 156.5 495.5t384.5 186.5q104 0 187 -41t128 -104h4l21 114h174l-191 -1087q-45 -246 -158.5 -368t-328.5 -122q-162 0 -265.5 83.5 t-140.5 222.5zM250 453q0 -139 71.5 -234.5t208.5 -95.5q117 0 204.5 68.5t105.5 166.5l57 332q3 20 3 39q0 81 -62 151q-76 85 -207 85q-168 0 -274.5 -143.5t-106.5 -368.5z" />
<glyph unicode="h" horiz-adv-x="1140" d="M51 0l264 1495h166l-90 -502h4q43 49 121 86t174 37q186 0 274 -120q63 -86 64 -206q0 -48 -10 -102l-121 -688h-166l119 664q10 53 10 96q0 203 -213 203q-111 0 -198 -73t-107 -190l-123 -700h-168z" />
<glyph unicode="i" horiz-adv-x="501" d="M51 0l191 1085h166l-191 -1085h-166zM258 1307l33 188h190l-32 -188h-191z" />
<glyph unicode="j" horiz-adv-x="514" d="M-133 -399l29 166h32q55 0 78 20t33 76l215 1222h164l-219 -1253q-41 -231 -258 -231h-74zM272 1307l33 188h189l-31 -188h-191z" />
<glyph unicode="k" horiz-adv-x="1048" d="M51 0l264 1495h164l-160 -895h5l534 485h221l-483 -438l334 -647h-178l-279 549h-4l-186 -168l-68 -381h-164z" />
<glyph unicode="l" horiz-adv-x="505" d="M51 0l264 1495h170l-264 -1495h-170z" />
<glyph unicode="m" horiz-adv-x="1701" d="M51 0l191 1085h147l-18 -104h4q117 135 282 135q106 0 179 -50t94 -118q49 72 133 120t192 48q167 0 263 -108q72 -80 72 -198q0 -40 -9 -85l-127 -725h-164l125 723q5 31 5 57q0 76 -38 122q-51 62 -153 63q-111 0 -181.5 -69t-95.5 -198l-121 -698h-159l127 723 q6 32 6 60q0 71 -36 117q-50 66 -157 65q-115 0 -184.5 -75t-91.5 -192l-123 -698h-162z" />
<glyph unicode="n" horiz-adv-x="1159" d="M51 0l191 1085h159l-14 -98h4q47 51 129 90t180 39q176 0 274 -112q73 -84 72 -209q0 -42 -8 -88l-123 -707h-165l120 680q7 42 7 78q1 85 -41 135q-60 70 -183 70q-119 0 -205 -73t-106 -190l-125 -700h-166z" />
<glyph unicode="o" horiz-adv-x="1165" d="M72 469q0 293 161.5 470t391.5 177q203 0 325.5 -139t122.5 -361q0 -293 -162 -470t-391 -177q-203 0 -325.5 140.5t-122.5 359.5zM236 467q0 -152 75.5 -249t206.5 -97q164 0 276.5 132t112.5 365q0 152 -75.5 249.5t-206.5 97.5q-164 0 -276.5 -132.5t-112.5 -365.5z " />
<glyph unicode="p" horiz-adv-x="1175" d="M-51 -461l272 1546h160l-19 -102h5q43 53 122.5 93t178.5 40q184 0 299.5 -138t115.5 -355q0 -293 -151.5 -473.5t-376.5 -180.5q-223 0 -334 154h-4l-104 -584h-164zM258 358q-3 -15 -3 -29q0 -71 67 -133q79 -75 204 -75q176 0 285 137t109 358q0 154 -76 251.5 t-213 97.5q-119 0 -207.5 -81.5t-106.5 -183.5z" />
<glyph unicode="q" horiz-adv-x="1198" d="M72 438q0 303 156.5 490.5t381.5 187.5q104 0 187.5 -40t130.5 -105h4l20 114h174l-272 -1546h-166l98 557h-4q-37 -49 -117.5 -88t-175.5 -39q-182 0 -299.5 130t-117.5 339zM240 455q0 -139 69.5 -236.5t206.5 -97.5q119 0 207 69.5t106 165.5l62 340q3 20 3 39 q0 81 -60 147q-76 83 -211 83q-168 0 -275.5 -143.5t-107.5 -366.5z" />
<glyph unicode="r" horiz-adv-x="712" d="M51 0l191 1085h159l-20 -114h4q47 66 115.5 100.5t134.5 34.5q57 0 88 -21l-57 -163q-49 16 -88 16q-88 0 -154 -67.5t-90 -211.5l-117 -659h-166z" />
<glyph unicode="s" horiz-adv-x="1026" d="M51 373l160 24q27 -278 270 -278h2q131 0 203 59.5t72 145.5q0 57 -50.5 99t-215.5 87q-199 55 -274 119.5t-75 167.5q0 131 105.5 225t298.5 94q178 0 282.5 -94t114.5 -242l-151 -22q-12 96 -75 155.5t-171 59.5q-119 0 -182.5 -51.5t-63.5 -114.5q0 -57 56.5 -90 t248.5 -90q180 -53 247 -125t67 -187q0 -133 -115 -239.5t-316 -106.5q-205 0 -318.5 114t-119.5 290z" />
<glyph unicode="t" horiz-adv-x="702" d="M113 936l24 149h156l49 267h160l-47 -267h268l-27 -149h-268l-86 -490q-25 -141 -25 -188q0 -53 27 -74.5t84 -21.5h80l-29 -162h-59q-152 0 -213.5 50t-61.5 159q0 59 19 162l100 565h-151z" />
<glyph unicode="u" horiz-adv-x="1150" d="M102 377l123 708h168l-123 -702q-7 -39 -7 -73q0 -185 222 -185q258 0 310 278l118 682h166l-190 -1085h-164l18 104h-4q-12 -18 -38.5 -42.5t-100.5 -58.5t-160 -34q-178 1 -276 101q-72 73 -72 202q0 48 10 105z" />
<glyph unicode="v" horiz-adv-x="1085" d="M113 1085h170l180 -847h4l469 847h190l-626 -1085h-142z" />
<glyph unicode="w" horiz-adv-x="1609" d="M164 1085h172l26 -819l435 819h176l143 -819l330 819h184l-450 -1085h-172l-152 889l-467 -889h-176z" />
<glyph unicode="x" horiz-adv-x="1038" d="M-51 0l465 559l-254 526h172l192 -421h4l330 421h201l-436 -528l270 -557h-174l-207 446h-4l-361 -446h-198z" />
<glyph unicode="y" horiz-adv-x="1087" d="M92 -461l324 584l-234 962h168l176 -755h4l400 755h188l-856 -1546h-170z" />
<glyph unicode="z" horiz-adv-x="1155" d="M0 0l23 129l825 805v4h-643l22 147h877l-23 -127l-815 -796v-4h672l-31 -160z" />
<glyph unicode="{" horiz-adv-x="784" d="M72 522l32 183h58q59 0 89 29.5t42 94.5l78 422q23 137 91 190.5t193 53.5h140l-23 -123h-104q-86 0 -120 -32.5t-50 -122.5l-72 -394q-10 -57 -34.5 -101t-53.5 -64.5t-48.5 -31t-31.5 -12.5q12 -4 25.5 -14t36 -33.5t31.5 -64.5t1 -92l-90 -510q-14 -78 9.5 -113 t105.5 -35h106l-20 -123h-111q-143 0 -195.5 67.5t-25.5 223.5l86 483q10 66 -8.5 92.5t-77.5 26.5h-59z" />
<glyph unicode="|" horiz-adv-x="393" d="M133 -614v2201h127v-2201h-127z" />
<glyph unicode="}" horiz-adv-x="821" d="M-72 -371l21 123h106q86 0 120 34t50 122l88 495q27 160 164 209q-16 6 -38.5 22.5t-43 67t-8.5 115.5l74 408q12 80 -10.5 113.5t-104.5 33.5h-106l20 123h111q141 0 193 -66.5t26 -222.5l-68 -383q-10 -66 8.5 -92t77.5 -26h60l-33 -183h-57q-59 0 -89 -29.5t-43 -95.5 l-94 -524q-23 -137 -92.5 -190.5t-191.5 -53.5h-140z" />
<glyph unicode="~" horiz-adv-x="1220" d="M113 653q29 125 98.5 209t181.5 84q86 0 165 -45t146.5 -89t122.5 -44q39 0 68 14.5t50.5 51t27.5 52t22 64.5l113 -35q-29 -125 -98.5 -208.5t-182.5 -83.5q-86 0 -166.5 45t-147.5 89t-120 44q-39 0 -67.5 -14.5t-50 -51.5t-27.5 -52t-23 -65z" />
<glyph unicode="&#xa1;" horiz-adv-x="608" d="M-31 -348l178 1007h168l-178 -1007h-168zM135 850l41 235h238l-41 -235h-238z" />
<glyph unicode="&#xa2;" horiz-adv-x="1257" d="M133 459q0 299 163 478t388 179h2l31 176h80l-33 -182q162 -27 253 -145.5t85 -282.5l-160 -12q2 106 -48 188t-155 100l-145 -837q211 4 295 262l160 -49q-51 -174 -174 -269.5t-297 -95.5h-11l-32 -194h-82l34 202q-162 29 -258 158t-96 324zM301 465q0 -139 57.5 -225 t155.5 -111l145 836q-154 -10 -256 -145.5t-102 -354.5z" />
<glyph unicode="&#xa3;" horiz-adv-x="1384" d="M92 0l27 156h76q68 0 101.5 28.5t43.5 96.5l66 364h-203l24 135h203l43 248q39 213 158 324.5t297 111.5q168 0 268 -106.5t94 -313.5l-157 -14q0 143 -47.5 213t-165.5 70q-225 0 -279 -303l-41 -230h485l-24 -135h-488l-86 -489h635l-28 -156h-1002z" />
<glyph unicode="&#xa4;" horiz-adv-x="1513" d="M236 233l133 134q-96 131 -97 307q0 170 97 305l-133 133l81 82l129 -131q137 117 310 117q180 0 313 -113l127 127l82 -82l-131 -131q94 -137 94 -307q0 -178 -96 -309l133 -132l-82 -81l-131 129q-131 -104 -309 -105q-182 0 -307 107l-132 -131zM453 672 q0 -178 89 -260t216 -82q123 0 211 83t88 259q0 180 -88 265t-211 85q-127 0 -216 -84t-89 -266z" />
<glyph unicode="&#xa5;" horiz-adv-x="1329" d="M92 295l23 127h424l32 182h-426l25 127h350l-274 703h182l246 -662h4l479 662h203l-522 -703h340l-23 -127h-412l-32 -182h411l-22 -127h-412l-51 -295h-172l51 295h-424z" />
<glyph unicode="&#xa6;" horiz-adv-x="581" d="M215 -268v669h152v-669h-152zM215 657v670h152v-670h-152z" />
<glyph unicode="&#xa7;" horiz-adv-x="1110" d="M33 51l162 12q0 -143 54 -211.5t171 -68.5q115 0 185.5 61.5t70.5 161.5q0 106 -144 178l-262 140q-125 66 -177 130t-52 156q0 184 235 318q-53 68 -53 166q0 158 121 264t305 106q188 0 291.5 -110.5t95.5 -309.5l-162 -12q0 143 -54 212t-171 69q-115 0 -185.5 -61.5 t-70.5 -161.5q0 -106 144 -179l262 -139q125 -66 177 -130t52 -157q1 -184 -235 -317q53 -68 53 -166q0 -158 -121 -264.5t-305 -106.5q-188 0 -291.5 111t-95.5 309zM211 623q0 -49 34 -89t124 -88l262 -137q63 -31 69 -45q158 92 158 209q0 49 -33.5 89t-124.5 87 l-262 137q-63 31 -69 45q-158 -92 -158 -208z" />
<glyph unicode="&#xa8;" horiz-adv-x="876" d="M133 1253l31 185h186l-33 -185h-184zM526 1253l31 185h186l-30 -185h-187z" />
<glyph unicode="&#xa9;" horiz-adv-x="1425" d="M82 725q0 266 181 447.5t448 181.5q268 0 450 -181.5t182 -447.5q0 -268 -182 -450.5t-450 -182.5q-266 0 -447.5 182.5t-181.5 450.5zM190 725q0 -223 150 -374.5t371 -151.5q223 0 372.5 150.5t149.5 375.5q0 221 -149.5 371.5t-372.5 150.5q-221 0 -371 -150.5 t-150 -371.5zM403 715q0 186 91.5 291.5t226.5 105.5q115 0 187.5 -74.5t86.5 -193.5l-123 -23q-29 172 -151 172q-82 0 -134 -71.5t-52 -206.5q0 -133 52 -199.5t132 -66.5q133 0 158 186l124 -29q-18 -127 -91.5 -201.5t-190.5 -74.5q-137 0 -226.5 102.5t-89.5 282.5z " />
<glyph unicode="&#xaa;" horiz-adv-x="739" d="M133 942q0 82 54.5 135t187.5 78q129 25 162.5 40t40.5 50q6 39 -30 70t-95 31q-121 0 -160 -109l-96 39q25 78 91 124t165 46q111 0 180 -63.5t49 -182.5l-72 -414h-104l12 74h-2q-57 -92 -184 -92q-94 0 -146.5 47t-52.5 127zM250 954q0 -80 108 -80q72 0 118 36t54 85 l25 121h-2q-27 -27 -150 -53q-154 -33 -153 -109z" />
<glyph unicode="&#xab;" horiz-adv-x="1114" d="M133 610l283 334h184l-305 -354l154 -412h-156zM535 610l282 334h184l-305 -354l154 -412h-156z" />
<glyph unicode="&#xac;" horiz-adv-x="1284" d="M133 772v152h977v-508h-164v356h-813z" />
<glyph unicode="&#xad;" horiz-adv-x="946" d="M133 631l27 143h653l-27 -143h-653z" />
<glyph unicode="&#xae;" horiz-adv-x="874" d="M123 1085.5q0 151.5 104.5 256t256 104.5t256 -104.5t104.5 -256t-104.5 -256t-256 -104.5t-256 104.5t-104.5 256zM186 1085q0 -129 85 -216t212 -87t214 88t87 215t-87 213t-214 86t-212 -86t-85 -213zM358 868v430h131q156 0 156 -127q0 -98 -106 -122l96 -181h-66 l-90 176h-65v-176h-56zM414 1096h78q94 0 94 75.5t-97 75.5h-75v-151z" />
<glyph unicode="&#xaf;" horiz-adv-x="876" d="M133 1270l21 116h589l-20 -116h-590z" />
<glyph unicode="&#xb0;" horiz-adv-x="802" d="M184 1286q0 121 80 207t197 86q121 0 200.5 -84t79.5 -209t-78.5 -207t-201.5 -82q-121 0 -199 83t-78 206zM319 1286q1 -166 142 -166q143 0 143 166q0 170 -143 170q-141 0 -142 -170z" />
<glyph unicode="&#xb1;" horiz-adv-x="1296" d="M133 856v143h438v342h152v-342h440v-143h-440v-385h-152v385h-438zM188 197v143h936v-143h-936z" />
<glyph unicode="&#xb2;" horiz-adv-x="729" d="M113 969l18 100q20 133 79.5 200.5t207.5 127.5q143 57 196.5 102t53.5 111q0 55 -40 88t-104 33q-152 0 -192 -172l-127 30q20 123 108 193.5t207 70.5q129 0 205 -68.5t76 -172.5q0 -117 -79 -183.5t-230 -128.5q-119 -49 -160 -89t-51 -107h434l-25 -135h-577z" />
<glyph unicode="&#xb3;" horiz-adv-x="774" d="M154 1276l129 18q10 -215 188 -215q84 0 129 45t45 123q0 127 -156 127h-49l21 111h51q74 0 118 35.5t44 107.5q0 47 -35 77t-94 30q-129 0 -168 -136l-117 35q20 92 96 155.5t191 63.5q113 0 184.5 -59t71.5 -147q2 -76 -41 -132.5t-111 -80.5v-4q49 -16 86 -66.5 t37 -120.5q0 -129 -79 -207t-226 -78q-150 0 -230.5 85.5t-84.5 232.5z" />
<glyph unicode="&#xb4;" horiz-adv-x="589" d="M113 1219l159 247h205l-219 -247h-145z" />
<glyph unicode="&#xb5;" horiz-adv-x="1208" d="M143 -461v1546h164v-657q0 -150 77 -226.5t206 -76.5q125 0 197.5 77t72.5 206v677h164v-1085h-164v104h-4q-6 -14 -37 -42.5t-98.5 -60.5t-142.5 -32q-182 0 -273 103v-533h-162z" />
<glyph unicode="&#xb6;" d="M92 915q0 180 115 288t289 108h585l-280 -1590h-150l254 1442h-291l-252 -1442h-155l160 910q-121 4 -198 82t-77 202z" />
<glyph unicode="&#xb7;" horiz-adv-x="589" d="M154 655l43 238h239l-43 -238h-239z" />
<glyph unicode="&#xb8;" horiz-adv-x="618" d="M61 -352l64 82q66 -59 149 -60q119 0 119 88q0 37 -32.5 56.5t-77.5 19.5q-29 0 -56.5 -9t-40.5 -18l-12 -8l-70 37l97 164h96l-76 -119v-2q43 31 107 31q70 0 125 -40t55 -114q0 -92 -62.5 -142t-160.5 -50q-140 0 -224 84z" />
<glyph unicode="&#xb9;" horiz-adv-x="573" d="M184 1571l29 155l221 117h121l-156 -874h-133l129 712z" />
<glyph unicode="&#xba;" horiz-adv-x="737" d="M123 1061q0 178 94 281.5t229 103.5q123 0 197 -83t74 -210q0 -180 -94.5 -282.5t-229.5 -102.5q-123 0 -196.5 83t-73.5 210zM246 1073q0 -78 38 -133t107 -55q86 0 145.5 70.5t59.5 191.5q0 76 -39 130t-111 54q-86 0 -143 -68.5t-57 -189.5z" />
<glyph unicode="&#xbb;" horiz-adv-x="1110" d="M72 178l311 365l-152 401h156l160 -422l-291 -344h-184zM481 178l312 365l-152 401h156l159 -422l-290 -344h-185z" />
<glyph unicode="&#xbc;" horiz-adv-x="1937" d="M215 1161l29 156l221 117h121l-156 -875h-133l129 713zM360 -80l1002 1669l104 -65l-999 -1667zM1034 184l23 125l442 565h207l-100 -569h106l-22 -121h-103l-28 -184h-136l31 184h-420zM1188 305h285l88 473h-5z" />
<glyph unicode="&#xbd;" horiz-adv-x="2015" d="M215 1159l29 156l221 117h121l-156 -875h-133l129 713zM360 -82l1002 1669l104 -65l-999 -1667zM1153 0l18 100q20 133 80 201t207 127q143 57 196.5 102t53.5 111q0 55 -40 88t-103 33q-152 0 -193 -172l-127 31q20 123 108.5 193.5t207.5 70.5q129 0 204.5 -68.5 t75.5 -173.5q0 -117 -79 -183.5t-230 -127.5q-119 -49 -160 -89t-51 -108h434l-24 -135h-578z" />
<glyph unicode="&#xbe;" horiz-adv-x="2027" d="M133 866l129 19q10 -215 189 -215q84 0 129 45t45 123q0 127 -156 127h-49l20 110h52q74 0 117.5 36t43.5 108q0 47 -34.5 76.5t-94.5 29.5q-129 0 -168 -135l-116 35q20 92 96 155.5t190 63.5q113 0 184.5 -59.5t71.5 -147.5q2 -76 -41 -132t-110 -81v-4 q49 -16 86 -66.5t37 -119.5q0 -129 -79 -207t-226 -78q-150 0 -231 85t-85 232zM477 -80l1002 1669l104 -65l-999 -1667zM1124 184l23 125l442 565h207l-100 -569h106l-22 -121h-103l-28 -184h-136l31 184h-420zM1278 305h285l88 473h-4z" />
<glyph unicode="&#xbf;" horiz-adv-x="1134" d="M-8 -49q-6 74 8 129q23 104 101.5 183t161.5 118t157 92t86 115l24 108h164l-22 -114q-16 -90 -78 -158t-134.5 -108t-143 -79.5t-117.5 -102t-47 -150.5q0 -84 67.5 -148.5t194.5 -64.5q131 0 208.5 77.5t102.5 214.5l154 -32q-25 -182 -150 -296t-317 -114 q-174 0 -293 93t-127 237zM508 848l43 237h240l-43 -237h-240z" />
<glyph unicode="&#xc0;" horiz-adv-x="1230" d="M-113 0l768 1434h168l264 -1434h-167l-54 289h-651l-152 -289h-176zM287 428h555l-140 780h-4zM440 1815h205l160 -248h-146z" />
<glyph unicode="&#xc1;" horiz-adv-x="1230" d="M-113 0l768 1434h168l264 -1434h-167l-54 289h-651l-152 -289h-176zM287 428h555l-140 780h-4zM694 1567l160 248h205l-219 -248h-146z" />
<glyph unicode="&#xc2;" horiz-adv-x="1230" d="M-113 0l768 1434h168l264 -1434h-167l-54 289h-651l-152 -289h-176zM287 428h555l-140 780h-4zM512 1624l160 160h207l127 -176l-105 -76l-129 178l-176 -178z" />
<glyph unicode="&#xc3;" horiz-adv-x="1230" d="M-113 0l768 1434h168l264 -1434h-167l-54 289h-651l-152 -289h-176zM287 428h555l-140 780h-4zM463 1567q68 193 211 192q57 0 122.5 -39t102.5 -39q55 0 82 68h94q-68 -193 -211 -193q-55 0 -123.5 39t-101.5 39q-55 1 -82 -67h-94z" />
<glyph unicode="&#xc4;" horiz-adv-x="1230" d="M-113 0l768 1434h168l264 -1434h-167l-54 289h-651l-152 -289h-176zM287 428h555l-140 780h-4zM463 1567l33 186h186l-35 -186h-184zM856 1567l33 186h186l-33 -186h-186z" />
<glyph unicode="&#xc5;" horiz-adv-x="1230" d="M-113 0l762 1421q-96 49 -96 162q0 100 62.5 168t158.5 68q80 0 132 -52.5t52 -128t-35.5 -135t-97.5 -84.5l262 -1419h-167l-54 289h-651l-152 -289h-176zM287 428h555l-140 780h-4zM657 1585q0 -43 25.5 -67.5t58.5 -24.5q45 0 79 39t34 104q0 45 -24.5 69t-59.5 24 q-47 0 -80 -38t-33 -106z" />
<glyph unicode="&#xc6;" horiz-adv-x="1775" d="M-82 0l780 1434h1078l-25 -156h-633l-80 -453h576l-25 -145h-575l-92 -524h630l-28 -156h-799l53 305h-510l-164 -305h-186zM346 453h457l149 827h-164z" />
<glyph unicode="&#xc7;" horiz-adv-x="1329" d="M92 580q0 391 201 637.5t471 246.5q223 0 363.5 -138t138.5 -363l-179 -15q-4 158 -83.5 257.5t-258.5 99.5q-193 0 -335 -209t-142 -492q0 -209 102.5 -339t266.5 -130q152 0 250 105.5t139 279.5l176 -47q-47 -225 -185 -358t-351 -144l-56 -90v-2q43 31 107 31 q70 0 125 -40t55 -114q0 -92 -62.5 -142t-160.5 -50q-139 0 -223 84l63 82q66 -59 150 -60q119 0 118 88q0 37 -32.5 56.5t-77.5 19.5q-29 0 -56.5 -9t-40.5 -18l-12 -8l-69 37l79 137q-217 20 -349 186.5t-132 420.5z" />
<glyph unicode="&#xc8;" horiz-adv-x="1173" d="M51 0l252 1434h860l-26 -154h-693l-82 -467h635l-24 -145h-637l-90 -510h694l-29 -158h-860zM492 1815h204l160 -248h-145z" />
<glyph unicode="&#xc9;" horiz-adv-x="1173" d="M51 0l252 1434h860l-26 -154h-693l-82 -467h635l-24 -145h-637l-90 -510h694l-29 -158h-860zM659 1567l160 248h205l-219 -248h-146z" />
<glyph unicode="&#xca;" horiz-adv-x="1173" d="M51 0l252 1434h860l-26 -154h-693l-82 -467h635l-24 -145h-637l-90 -510h694l-29 -158h-860zM508 1624l160 160h206l127 -176l-104 -76l-129 178l-176 -178z" />
<glyph unicode="&#xcb;" horiz-adv-x="1173" d="M51 0l252 1434h860l-26 -154h-693l-82 -467h635l-24 -145h-637l-90 -510h694l-29 -158h-860zM467 1567l33 186h186l-35 -186h-184zM860 1567l33 186h186l-32 -186h-187z" />
<glyph unicode="&#xcc;" horiz-adv-x="524" d="M51 0l252 1434h170l-252 -1434h-170zM98 1815h205l160 -248h-146z" />
<glyph unicode="&#xcd;" horiz-adv-x="524" d="M51 0l252 1434h170l-252 -1434h-170zM326 1567l159 248h205l-219 -248h-145z" />
<glyph unicode="&#xce;" horiz-adv-x="524" d="M51 0l252 1434h170l-252 -1434h-170zM164 1624l160 160h206l127 -176l-104 -76l-129 178l-176 -178z" />
<glyph unicode="&#xcf;" horiz-adv-x="524" d="M51 0l252 1434h170l-252 -1434h-170zM113 1567l32 186h187l-35 -186h-184zM506 1567l33 186h186l-33 -186h-186z" />
<glyph unicode="&#xd0;" horiz-adv-x="1357" d="M61 678l25 141h133l109 615h430q246 0 387 -154t141 -428q0 -217 -60.5 -384t-166 -267.5t-236.5 -150.5t-282 -50h-465l119 678h-134zM270 158h265q258 0 414.5 186t156.5 504q0 213 -99.5 322.5t-279.5 109.5h-258l-82 -461h387l-24 -141h-388z" />
<glyph unicode="&#xd1;" horiz-adv-x="1355" d="M51 0l252 1434h146l489 -1115h4l195 1115h168l-252 -1434h-140l-495 1114h-4l-197 -1114h-166zM530 1567q68 193 211 192q57 0 123 -39t103 -39q55 0 82 68h94q-68 -193 -211 -193q-55 0 -124 39t-101 39q-55 1 -82 -67h-95z" />
<glyph unicode="&#xd2;" horiz-adv-x="1394" d="M92 590q0 205 59.5 375t158 276.5t218 164.5t246.5 58q240 0 384.5 -171t144.5 -449q0 -205 -59.5 -375t-157 -276.5t-215 -165t-240.5 -58.5q-248 0 -393.5 168t-145.5 453zM268 600q0 -215 95.5 -340t269.5 -125q203 0 347 197.5t144 501.5q0 217 -94 344t-262 127 q-205 0 -352.5 -202t-147.5 -503zM514 1815h205l160 -248h-146z" />
<glyph unicode="&#xd3;" horiz-adv-x="1394" d="M92 590q0 205 59.5 375t158 276.5t218 164.5t246.5 58q240 0 384.5 -171t144.5 -449q0 -205 -59.5 -375t-157 -276.5t-215 -165t-240.5 -58.5q-248 0 -393.5 168t-145.5 453zM268 600q0 -215 95.5 -340t269.5 -125q203 0 347 197.5t144 501.5q0 217 -94 344t-262 127 q-205 0 -352.5 -202t-147.5 -503zM729 1567l160 248h205l-220 -248h-145z" />
<glyph unicode="&#xd4;" horiz-adv-x="1394" d="M92 590q0 205 59.5 375t158 276.5t218 164.5t246.5 58q240 0 384.5 -171t144.5 -449q0 -205 -59.5 -375t-157 -276.5t-215 -165t-240.5 -58.5q-248 0 -393.5 168t-145.5 453zM268 600q0 -215 95.5 -340t269.5 -125q203 0 347 197.5t144 501.5q0 217 -94 344t-262 127 q-205 0 -352.5 -202t-147.5 -503zM555 1624l160 160h207l127 -176l-105 -76l-129 178l-176 -178z" />
<glyph unicode="&#xd5;" horiz-adv-x="1394" d="M92 590q0 205 59.5 375t158 276.5t218 164.5t246.5 58q240 0 384.5 -171t144.5 -449q0 -205 -59.5 -375t-157 -276.5t-215 -165t-240.5 -58.5q-248 0 -393.5 168t-145.5 453zM268 600q0 -215 95.5 -340t269.5 -125q203 0 347 197.5t144 501.5q0 217 -94 344t-262 127 q-205 0 -352.5 -202t-147.5 -503zM502 1567q68 193 211 192q57 0 122.5 -39t102.5 -39q55 0 82 68h94q-68 -193 -211 -193q-55 0 -123.5 39t-101.5 39q-55 1 -82 -67h-94z" />
<glyph unicode="&#xd6;" horiz-adv-x="1394" d="M92 590q0 205 59.5 375t158 276.5t218 164.5t246.5 58q240 0 384.5 -171t144.5 -449q0 -205 -59.5 -375t-157 -276.5t-215 -165t-240.5 -58.5q-248 0 -393.5 168t-145.5 453zM268 600q0 -215 95.5 -340t269.5 -125q203 0 347 197.5t144 501.5q0 217 -94 344t-262 127 q-205 0 -352.5 -202t-147.5 -503zM508 1567l33 186h186l-35 -186h-184zM901 1567l33 186h186l-33 -186h-186z" />
<glyph unicode="&#xd7;" horiz-adv-x="1202" d="M154 344l344 344l-324 326l102 102l324 -325l326 325l102 -102l-326 -326l347 -344l-103 -102l-346 344l-344 -344z" />
<glyph unicode="&#xd8;" horiz-adv-x="1425" d="M92 592q0 205 59.5 375t159 276.5t221 163.5t250.5 57q188 0 328 -123l57 78l76 -55l-63 -86q154 -170 153 -436q0 -205 -60.5 -375t-158.5 -276.5t-219 -164t-250 -57.5q-193 0 -334 125l-57 -80l-80 56l68 90q-150 166 -150 432zM268 604q0 -176 72 -299l676 899 q-100 100 -238 101q-213 0 -361.5 -200t-148.5 -501zM408 233q94 -98 239 -98q211 0 359.5 195.5t148.5 498.5q0 180 -74 301z" />
<glyph unicode="&#xd9;" horiz-adv-x="1392" d="M143 459l172 975h172l-168 -955q-29 -172 44 -260t239 -88q168 0 268.5 91t130.5 257l168 955h172l-174 -994q-41 -225 -188.5 -348t-388.5 -123q-238 0 -362 133.5t-85 356.5zM549 1815h205l159 -248h-145z" />
<glyph unicode="&#xda;" horiz-adv-x="1392" d="M143 459l172 975h172l-168 -955q-29 -172 44 -260t239 -88q168 0 268.5 91t130.5 257l168 955h172l-174 -994q-41 -225 -188.5 -348t-388.5 -123q-238 0 -362 133.5t-85 356.5zM762 1567l160 248h204l-219 -248h-145z" />
<glyph unicode="&#xdb;" horiz-adv-x="1392" d="M143 459l172 975h172l-168 -955q-29 -172 44 -260t239 -88q168 0 268.5 91t130.5 257l168 955h172l-174 -994q-41 -225 -188.5 -348t-388.5 -123q-238 0 -362 133.5t-85 356.5zM582 1624l159 160h207l127 -176l-104 -76l-129 178l-176 -178z" />
<glyph unicode="&#xdc;" horiz-adv-x="1392" d="M143 459l172 975h172l-168 -955q-29 -172 44 -260t239 -88q168 0 268.5 91t130.5 257l168 955h172l-174 -994q-41 -225 -188.5 -348t-388.5 -123q-238 0 -362 133.5t-85 356.5zM537 1567l32 186h187l-35 -186h-184zM930 1567l33 186h186l-33 -186h-186z" />
<glyph unicode="&#xdd;" horiz-adv-x="1155" d="M133 1434h182l246 -662h4l479 662h203l-616 -830l-107 -604h-172l107 604zM604 1567l160 248h205l-219 -248h-146z" />
<glyph unicode="&#xde;" horiz-adv-x="1210" d="M31 0l252 1434h168l-43 -240h335q180 0 298 -102.5t118 -268.5q0 -236 -157.5 -373t-407.5 -137h-340l-55 -313h-168zM281 469h335q152 0 261.5 92t109.5 258q0 104 -72.5 162.5t-203.5 58.5h-330z" />
<glyph unicode="&#xdf;" horiz-adv-x="1171" d="M51 0l178 1034q37 213 156 321.5t305 108.5q174 0 287 -98t113 -244q0 -236 -224 -331q78 -31 131.5 -105t53.5 -186q0 -229 -139.5 -364.5t-419.5 -135.5h-74l24 152h60q199 0 294 93t95 259q0 106 -68.5 158.5t-177.5 52.5h-102l22 137h92q111 0 193 64.5t82 183.5 q0 96 -63.5 155.5t-178.5 59.5q-131 0 -201.5 -81t-101.5 -251l-170 -983h-166z" />
<glyph unicode="&#xe0;" d="M72 393q0 303 161.5 513t384.5 210q174 0 248 -129h6l19 98h170l-191 -1085h-151l20 125h-4q-37 -59 -115.5 -107.5t-195.5 -48.5q-143 0 -247.5 110.5t-104.5 313.5zM236 395q0 -119 57 -194.5t145 -75.5q109 0 214.5 98t140.5 301l24 142q23 139 -30.5 219t-176.5 80 q-147 0 -260.5 -167t-113.5 -403zM338 1466h205l159 -247h-145z" />
<glyph unicode="&#xe1;" d="M72 393q0 303 161.5 513t384.5 210q174 0 248 -129h6l19 98h170l-191 -1085h-151l20 125h-4q-37 -59 -115.5 -107.5t-195.5 -48.5q-143 0 -247.5 110.5t-104.5 313.5zM236 395q0 -119 57 -194.5t145 -75.5q109 0 214.5 98t140.5 301l24 142q23 139 -30.5 219t-176.5 80 q-147 0 -260.5 -167t-113.5 -403zM565 1219l160 247h205l-219 -247h-146z" />
<glyph unicode="&#xe2;" d="M72 393q0 303 161.5 513t384.5 210q174 0 248 -129h6l19 98h170l-191 -1085h-151l20 125h-4q-37 -59 -115.5 -107.5t-195.5 -48.5q-143 0 -247.5 110.5t-104.5 313.5zM236 395q0 -119 57 -194.5t145 -75.5q109 0 214.5 98t140.5 301l24 142q23 139 -30.5 219t-176.5 80 q-147 0 -260.5 -167t-113.5 -403zM367 1284l159 160h207l127 -178l-104 -74l-129 178l-176 -178z" />
<glyph unicode="&#xe3;" d="M72 393q0 303 161.5 513t384.5 210q174 0 248 -129h6l19 98h170l-191 -1085h-151l20 125h-4q-37 -59 -115.5 -107.5t-195.5 -48.5q-143 0 -247.5 110.5t-104.5 313.5zM236 395q0 -119 57 -194.5t145 -75.5q109 0 214.5 98t140.5 301l24 142q23 139 -30.5 219t-176.5 80 q-147 0 -260.5 -167t-113.5 -403zM319 1235q70 190 211 190q57 0 123 -38.5t103 -38.5q55 0 82 67h94q-68 -190 -211 -190q-55 0 -124 37.5t-101 37.5q-55 1 -82 -65h-95z" />
<glyph unicode="&#xe4;" d="M72 393q0 303 161.5 513t384.5 210q174 0 248 -129h6l19 98h170l-191 -1085h-151l20 125h-4q-37 -59 -115.5 -107.5t-195.5 -48.5q-143 0 -247.5 110.5t-104.5 313.5zM236 395q0 -119 57 -194.5t145 -75.5q109 0 214.5 98t140.5 301l24 142q23 139 -30.5 219t-176.5 80 q-147 0 -260.5 -167t-113.5 -403zM365 1253l30 185h187l-33 -185h-184zM758 1253l30 185h187l-31 -185h-186z" />
<glyph unicode="&#xe5;" d="M72 393q0 260 125 458t309 249q-80 53 -80 153.5t62.5 168t158.5 67.5q80 0 132 -53.5t52 -128.5q0 -143 -108 -207q96 -31 143 -113h6l19 98h170l-191 -1085h-151l20 125h-4q-37 -59 -115.5 -107.5t-195.5 -48.5q-143 0 -247.5 110.5t-104.5 313.5zM236 395 q0 -119 57 -194.5t145 -75.5q109 0 214.5 98t140.5 301l24 142q23 139 -30.5 219t-176.5 80q-147 0 -260.5 -167t-113.5 -403zM530 1253q0 -43 25.5 -67.5t58.5 -24.5q45 0 79 39t34 105q0 45 -24.5 68.5t-59.5 23.5q-47 0 -80 -38t-33 -106z" />
<glyph unicode="&#xe6;" horiz-adv-x="1880" d="M51 258q0 133 85 225t259 123q197 35 280 58.5t114.5 50t31.5 78.5q0 74 -63.5 124t-167.5 50q-205 0 -279 -195l-143 55q47 135 156.5 212t267.5 77q113 0 209 -48t139 -144q147 193 393 192q201 0 328 -127t127 -348l-10 -147h-826q-2 -18 -2 -37q0 -139 72 -238.5 t219 -99.5q213 0 340 219l131 -86q-160 -283 -477 -283q-125 0 -228.5 60.5t-158.5 171.5h-4q-43 -104 -157 -168t-281 -64q-166 0 -260.5 80t-94.5 209zM211 285q0 -166 219 -166q143 0 223.5 62.5t94.5 146.5l34 272h-4q-41 -35 -109.5 -58.5t-228.5 -56.5 q-121 -25 -175 -71.5t-54 -128.5zM969 629h657v57q-4 119 -81 200t-208 81q-150 0 -247.5 -104.5t-120.5 -233.5z" />
<glyph unicode="&#xe7;" horiz-adv-x="1134" d="M72 449q0 301 163.5 484t387.5 183q197 0 309 -124t108 -310l-163 -12q0 123 -61.5 209t-194.5 86q-154 0 -266.5 -140.5t-112.5 -367.5q0 -156 78.5 -244t201.5 -88q227 0 307 266l160 -55q-102 -336 -422 -365l-57 -90v-2q43 31 106 31q70 0 125.5 -40t55.5 -114 q0 -92 -62.5 -142t-161.5 -50q-139 0 -223 84l64 82q66 -59 149 -60q119 0 119 88q0 37 -33 56.5t-78 19.5q-29 0 -56.5 -9t-39.5 -18l-12 -8l-70 37l78 135q-182 14 -290.5 142.5t-108.5 335.5z" />
<glyph unicode="&#xe8;" horiz-adv-x="1167" d="M72 469q0 272 158.5 459.5t396.5 187.5q201 0 324.5 -126t123.5 -337l-10 -159h-823q-2 -18 -2 -37q0 -137 71.5 -236.5t216.5 -99.5q210 0 353 213l127 -105q-184 -260 -482 -260q-205 0 -329.5 133.5t-124.5 366.5zM258 629h653l2 6v19.5v19.5q0 125 -73.5 209 t-214.5 84q-150 0 -248.5 -104.5t-118.5 -233.5zM369 1466h204l160 -247h-145z" />
<glyph unicode="&#xe9;" horiz-adv-x="1167" d="M72 469q0 272 158.5 459.5t396.5 187.5q201 0 324.5 -126t123.5 -337l-10 -159h-823q-2 -18 -2 -37q0 -137 71.5 -236.5t216.5 -99.5q210 0 353 213l127 -105q-184 -260 -482 -260q-205 0 -329.5 133.5t-124.5 366.5zM258 629h653l2 6v19.5v19.5q0 125 -73.5 209 t-214.5 84q-150 0 -248.5 -104.5t-118.5 -233.5zM584 1219l159 247h205l-219 -247h-145z" />
<glyph unicode="&#xea;" horiz-adv-x="1167" d="M72 469q0 272 158.5 459.5t396.5 187.5q201 0 324.5 -126t123.5 -337l-10 -159h-823q-2 -18 -2 -37q0 -137 71.5 -236.5t216.5 -99.5q210 0 353 213l127 -105q-184 -260 -482 -260q-205 0 -329.5 133.5t-124.5 366.5zM258 629h653l2 6v19.5v19.5q0 125 -73.5 209 t-214.5 84q-150 0 -248.5 -104.5t-118.5 -233.5zM426 1284l160 160h207l127 -178l-105 -74l-129 178l-176 -178z" />
<glyph unicode="&#xeb;" horiz-adv-x="1167" d="M72 469q0 272 158.5 459.5t396.5 187.5q201 0 324.5 -126t123.5 -337l-10 -159h-823q-2 -18 -2 -37q0 -137 71.5 -236.5t216.5 -99.5q210 0 353 213l127 -105q-184 -260 -482 -260q-205 0 -329.5 133.5t-124.5 366.5zM258 629h653l2 6v19.5v19.5q0 125 -73.5 209 t-214.5 84q-150 0 -248.5 -104.5t-118.5 -233.5zM381 1253l31 185h186l-33 -185h-184zM774 1253l31 185h186l-30 -185h-187z" />
<glyph unicode="&#xec;" horiz-adv-x="489" d="M45 1466h205l160 -247h-146zM51 0l191 1085h166l-191 -1085h-166z" />
<glyph unicode="&#xed;" horiz-adv-x="489" d="M51 0l191 1085h166l-191 -1085h-166zM266 1219l160 247h205l-219 -247h-146z" />
<glyph unicode="&#xee;" horiz-adv-x="489" d="M51 0l191 1085h166l-191 -1085h-166zM90 1284l160 160h207l127 -178l-105 -74l-129 178l-176 -178z" />
<glyph unicode="&#xef;" horiz-adv-x="489" d="M51 0l191 1085h166l-191 -1085h-166zM51 1253l31 185h186l-32 -185h-185zM444 1253l31 185h187l-31 -185h-187z" />
<glyph unicode="&#xf0;" horiz-adv-x="1200" d="M72 469q0 291 159.5 469t378.5 178q109 0 191 -46t125 -105h4q-31 193 -113 350l-356 -47l-15 92l322 41q-55 92 -115 180l2 6h181q37 -55 92 -164l219 29l12 -92l-190 -25q125 -289 125 -587q0 -381 -157 -580t-405 -199q-211 0 -335.5 139.5t-124.5 360.5zM236 467 q0 -147 81.5 -244.5t214.5 -97.5q178 0 279.5 151.5t101.5 368.5q0 139 -79.5 229.5t-219.5 90.5q-158 0 -268 -133.5t-110 -364.5z" />
<glyph unicode="&#xf1;" horiz-adv-x="1159" d="M51 0l191 1085h159l-14 -98h4q47 51 129 90t180 39q176 0 273.5 -112.5t64.5 -296.5l-123 -707h-165l120 680q25 143 -34.5 213t-182.5 70q-119 0 -205 -73t-106 -190l-125 -700h-166zM391 1235q70 190 211 190q57 0 123 -38.5t102 -38.5q55 0 82 67h95 q-68 -190 -211 -190q-55 0 -124 37.5t-102 37.5q-55 1 -82 -65h-94z" />
<glyph unicode="&#xf2;" horiz-adv-x="1165" d="M72 469q0 293 161.5 470t391.5 177q203 0 325.5 -139t122.5 -361q0 -293 -162 -470t-391 -177q-203 0 -325.5 140.5t-122.5 359.5zM236 467q0 -152 75.5 -249t206.5 -97q164 0 276.5 132t112.5 365q0 152 -75.5 249.5t-206.5 97.5q-164 0 -276.5 -132.5t-112.5 -365.5z M350 1466h205l160 -247h-146z" />
<glyph unicode="&#xf3;" horiz-adv-x="1165" d="M72 469q0 293 161.5 470t391.5 177q203 0 325.5 -139t122.5 -361q0 -293 -162 -470t-391 -177q-203 0 -325.5 140.5t-122.5 359.5zM236 467q0 -152 75.5 -249t206.5 -97q164 0 276.5 132t112.5 365q0 152 -75.5 249.5t-206.5 97.5q-164 0 -276.5 -132.5t-112.5 -365.5z M549 1219l160 247h204l-219 -247h-145z" />
<glyph unicode="&#xf4;" horiz-adv-x="1165" d="M72 469q0 293 161.5 470t391.5 177q203 0 325.5 -139t122.5 -361q0 -293 -162 -470t-391 -177q-203 0 -325.5 140.5t-122.5 359.5zM236 467q0 -152 75.5 -249t206.5 -97q164 0 276.5 132t112.5 365q0 152 -75.5 249.5t-206.5 97.5q-164 0 -276.5 -132.5t-112.5 -365.5z M381 1284l160 160h207l126 -178l-104 -74l-129 178l-176 -178z" />
<glyph unicode="&#xf5;" horiz-adv-x="1165" d="M72 469q0 293 161.5 470t391.5 177q203 0 325.5 -139t122.5 -361q0 -293 -162 -470t-391 -177q-203 0 -325.5 140.5t-122.5 359.5zM236 467q0 -152 75.5 -249t206.5 -97q164 0 276.5 132t112.5 365q0 152 -75.5 249.5t-206.5 97.5q-164 0 -276.5 -132.5t-112.5 -365.5z M330 1235q70 190 211 190q57 0 122.5 -38.5t102.5 -38.5q55 0 82 67h94q-68 -190 -211 -190q-55 0 -123.5 37.5t-101.5 37.5q-55 1 -82 -65h-94z" />
<glyph unicode="&#xf6;" horiz-adv-x="1165" d="M72 469q0 293 161.5 470t391.5 177q203 0 325.5 -139t122.5 -361q0 -293 -162 -470t-391 -177q-203 0 -325.5 140.5t-122.5 359.5zM236 467q0 -152 75.5 -249t206.5 -97q164 0 276.5 132t112.5 365q0 152 -75.5 249.5t-206.5 97.5q-164 0 -276.5 -132.5t-112.5 -365.5z M365 1253l30 185h187l-33 -185h-184zM758 1253l30 185h187l-31 -185h-186z" />
<glyph unicode="&#xf7;" horiz-adv-x="868" d="M41 653v144h786v-144h-786zM287 289q0 61 42 103t103.5 42t103.5 -42t42 -103q0 -59 -42 -101.5t-103.5 -42.5t-103.5 42.5t-42 101.5zM287 1159q0 61 42 103.5t103.5 42.5t103.5 -42t42 -104q0 -59 -42 -101t-103.5 -42t-103.5 42t-42 101z" />
<glyph unicode="&#xf8;" horiz-adv-x="1193" d="M72 92l88 86q-78 123 -78 291q0 293 162 470t391 177q203 0 328 -145l81 78l58 -62l-90 -86q72 -127 71 -285q0 -293 -160.5 -470t-390.5 -177q-201 0 -321 142l-80 -78zM246 467q-1 -98 30 -168l574 555q-78 111 -215 111q-164 0 -276.5 -132.5t-112.5 -365.5zM322 227 q76 -106 208 -106q164 0 277 132t113 365q0 88 -27 160z" />
<glyph unicode="&#xf9;" horiz-adv-x="1150" d="M102 377l123 708h168l-123 -702q-47 -258 215 -258q258 0 310 278l118 682h166l-190 -1085h-164l18 104h-4q-12 -18 -38.5 -42.5t-100.5 -58.5t-160 -34q-178 0 -276.5 100.5t-61.5 307.5zM371 1466h204l160 -247h-145z" />
<glyph unicode="&#xfa;" horiz-adv-x="1150" d="M102 377l123 708h168l-123 -702q-47 -258 215 -258q258 0 310 278l118 682h166l-190 -1085h-164l18 104h-4q-12 -18 -38.5 -42.5t-100.5 -58.5t-160 -34q-178 0 -276.5 100.5t-61.5 307.5zM584 1219l159 247h205l-219 -247h-145z" />
<glyph unicode="&#xfb;" horiz-adv-x="1150" d="M102 377l123 708h168l-123 -702q-47 -258 215 -258q258 0 310 278l118 682h166l-190 -1085h-164l18 104h-4q-12 -18 -38.5 -42.5t-100.5 -58.5t-160 -34q-178 0 -276.5 100.5t-61.5 307.5zM420 1284l160 160h206l127 -178l-104 -74l-129 178l-176 -178z" />
<glyph unicode="&#xfc;" horiz-adv-x="1150" d="M102 377l123 708h168l-123 -702q-47 -258 215 -258q258 0 310 278l118 682h166l-190 -1085h-164l18 104h-4q-12 -18 -38.5 -42.5t-100.5 -58.5t-160 -34q-178 0 -276.5 100.5t-61.5 307.5zM391 1253l31 185h186l-33 -185h-184zM784 1253l31 185h186l-30 -185h-187z" />
<glyph unicode="&#xfd;" horiz-adv-x="1087" d="M92 -461l324 584l-234 962h168l176 -755h4l400 755h188l-856 -1546h-170zM561 1219l160 247h205l-219 -247h-146z" />
<glyph unicode="&#xfe;" horiz-adv-x="1177" d="M-51 -461l342 1942h162l-82 -477h4q113 113 293 112q184 0 300.5 -138t116.5 -355q0 -293 -151.5 -473.5t-376.5 -180.5q-221 0 -336 154h-4l-102 -584h-166zM260 358q-16 -88 63.5 -162.5t202.5 -74.5q178 0 286 137t108 358q0 154 -75 251.5t-212 97.5 q-119 0 -208.5 -81.5t-105.5 -183.5z" />
<glyph unicode="&#xff;" horiz-adv-x="1087" d="M92 -461l324 584l-234 962h168l176 -755h4l400 755h188l-856 -1546h-170zM362 1253l31 185h187l-33 -185h-185zM756 1253l30 185h187l-31 -185h-186z" />
<glyph unicode="&#x152;" horiz-adv-x="1955" d="M92 588q0 403 208 639.5t482 236.5q203 0 342 -133l19 103h813l-27 -156h-645l-82 -465h588l-25 -145h-587l-91 -512h646l-29 -156h-799l15 86h-5q-35 -37 -119.5 -77t-179.5 -40q-240 0 -382 170t-142 449zM272 600q0 -223 96.5 -344t272.5 -121q84 0 166 35t129 90 l158 891q-37 70 -123 112t-185 42q-219 0 -366.5 -202t-147.5 -503z" />
<glyph unicode="&#x153;" horiz-adv-x="2004" d="M72 469q0 293 161.5 470t391.5 177q135 0 238.5 -69.5t156.5 -188.5q72 121 186.5 189.5t251.5 68.5q203 0 329 -125t126 -338l-10 -159h-828q-2 -18 -2 -37q0 -137 72 -236.5t219 -99.5q211 0 340 219l135 -88q-74 -129 -195.5 -206t-281.5 -77q-137 0 -242.5 67.5 t-158.5 190.5q-74 -123 -191 -190.5t-250 -67.5q-203 0 -325.5 140.5t-122.5 359.5zM236 467q0 -152 75.5 -249t206.5 -97q164 0 276.5 132t112.5 365q0 152 -75.5 249.5t-206.5 97.5q-164 0 -276.5 -132.5t-112.5 -365.5zM1092 629h657v57q-4 119 -79 200t-210 81 q-150 0 -247.5 -104.5t-120.5 -233.5z" />
<glyph unicode="&#x178;" horiz-adv-x="1155" d="M133 1434h182l246 -662h4l479 662h203l-616 -830l-107 -604h-172l107 604zM403 1567l33 186h187l-35 -186h-185zM797 1567l32 186h187l-33 -186h-186z" />
<glyph unicode="&#x2c6;" horiz-adv-x="761" d="M139 1284l160 160h207l127 -178l-105 -74l-129 178l-176 -178z" />
<glyph unicode="&#x2dc;" horiz-adv-x="878" d="M133 1235q70 190 211 190q57 0 122.5 -38.5t102.5 -38.5q55 0 82 67h94q-68 -190 -210 -190q-55 0 -124 37.5t-102 37.5q-55 1 -82 -65h-94z" />
<glyph unicode="&#x2000;" horiz-adv-x="926" />
<glyph unicode="&#x2001;" horiz-adv-x="1853" />
<glyph unicode="&#x2002;" horiz-adv-x="926" />
<glyph unicode="&#x2003;" horiz-adv-x="1853" />
<glyph unicode="&#x2004;" horiz-adv-x="617" />
<glyph unicode="&#x2005;" horiz-adv-x="463" />
<glyph unicode="&#x2006;" horiz-adv-x="308" />
<glyph unicode="&#x2007;" horiz-adv-x="308" />
<glyph unicode="&#x2008;" horiz-adv-x="231" />
<glyph unicode="&#x2009;" horiz-adv-x="370" />
<glyph unicode="&#x200a;" horiz-adv-x="102" />
<glyph unicode="&#x2010;" horiz-adv-x="946" d="M133 631l27 143h653l-27 -143h-653z" />
<glyph unicode="&#x2011;" horiz-adv-x="946" d="M133 631l27 143h653l-27 -143h-653z" />
<glyph unicode="&#x2012;" horiz-adv-x="946" d="M133 631l27 143h653l-27 -143h-653z" />
<glyph unicode="&#x2013;" horiz-adv-x="1314" d="M133 627l27 147h1022l-27 -147h-1022z" />
<glyph unicode="&#x2014;" horiz-adv-x="2031" d="M195 627l26 147h1616l-27 -147h-1615z" />
<glyph unicode="&#x2018;" horiz-adv-x="514" d="M201 1225l35 209h247l-39 -236h-98q-23 -117 76 -133l-19 -104q-113 12 -167.5 80.5t-34.5 183.5z" />
<glyph unicode="&#x2019;" horiz-adv-x="536" d="M174 961l21 112q100 18 120 125h-100l41 236h250l-41 -226q-39 -227 -291 -247z" />
<glyph unicode="&#x201a;" horiz-adv-x="598" d="M31 -238l20 113q100 18 121 125h-100l41 236h249l-40 -226q-39 -228 -291 -248z" />
<glyph unicode="&#x201c;" horiz-adv-x="882" d="M201 1225l35 209h247l-39 -236h-98q-23 -117 76 -133l-19 -104q-113 12 -167.5 80.5t-34.5 183.5zM569 1225l35 209h248l-39 -236h-98q-23 -117 76 -133l-19 -104q-113 12 -168 80.5t-35 183.5z" />
<glyph unicode="&#x201d;" horiz-adv-x="907" d="M174 967l21 112q100 18 120 125h-100l41 236h250l-41 -226q-39 -227 -291 -247zM545 967l20 112q100 18 121 125h-100l41 236h250l-41 -226q-39 -227 -291 -247z" />
<glyph unicode="&#x201e;" horiz-adv-x="970" d="M31 -238l20 113q100 18 121 125h-100l41 236h249l-40 -226q-39 -228 -291 -248zM403 -238l21 113q100 18 121 125h-101l41 236h250l-41 -226q-39 -228 -291 -248z" />
<glyph unicode="&#x2022;" horiz-adv-x="675" d="M154 735q0 82 50 135.5t132 53.5q84 0 135 -53.5t51 -135.5t-51 -135t-135 -53q-82 0 -132 53t-50 135z" />
<glyph unicode="&#x2026;" horiz-adv-x="1626" d="M92 0l41 236h238l-43 -236h-236zM608 0l41 236h238l-43 -236h-236zM1112 0l43 236h236l-41 -236h-238z" />
<glyph unicode="&#x202f;" horiz-adv-x="370" />
<glyph unicode="&#x2039;" horiz-adv-x="712" d="M133 610l283 334h184l-305 -354l154 -412h-156z" />
<glyph unicode="&#x203a;" horiz-adv-x="700" d="M72 178l311 365l-154 401h158l160 -422l-291 -344h-184z" />
<glyph unicode="&#x205f;" horiz-adv-x="463" />
<glyph unicode="&#x20ac;" horiz-adv-x="1515" d="M72 502l24 137h172q6 106 23 178h-164l25 137h174q82 236 250.5 373t363.5 137q223 0 363.5 -138t138.5 -363l-178 -15q-4 158 -84 257.5t-258 99.5q-125 0 -236 -96.5t-174 -254.5h428l-25 -137h-448q-20 -92 -23 -178h441l-25 -137h-409q25 -168 122 -267.5t240 -99.5 q152 0 250 105.5t139 279.5l176 -47q-49 -233 -196.5 -368.5t-376.5 -135.5q-221 0 -365.5 146.5t-167.5 386.5h-200z" />
<glyph unicode="&#x2122;" horiz-adv-x="1497" d="M113 1327l18 107h526l-18 -107h-201l-100 -588h-115l103 588h-213zM635 739l121 695h159l119 -527h4l301 527h168l-121 -695h-114l94 541h-4l-309 -541h-86l-117 539h-4l-94 -539h-117z" />
<glyph unicode="&#x25fc;" horiz-adv-x="1085" d="M0 0v1085h1085v-1085h-1085z" />
</font>
</defs>
</svg>
