<?xml version="1.0" standalone="no"?>
<!DOCTYPE svg PUBLIC "-//W3C//DTD SVG 1.1//EN" "http://www.w3.org/Graphics/SVG/1.1/DTD/svg11.dtd" >
<svg xmlns="http://www.w3.org/2000/svg">
<metadata></metadata>
<defs>
<font id="maison_neuedemi_italic" horiz-adv-x="1146" >
<font-face units-per-em="2048" ascent="1587" descent="-461" />
<missing-glyph horiz-adv-x="460" />
<glyph unicode="&#xfb01;" horiz-adv-x="1226" d="M82 0l158 885h-152l35 200h156l32 181q23 123 90.5 176t180.5 53h217l-39 -207h-129q-53 0 -77 -20.5t-34 -79.5l-20 -103h661l-190 -1085h-242l156 885h-414l-156 -885h-233zM944 1264l41 231h242l-41 -231h-242z" />
<glyph unicode="&#xfb02;" horiz-adv-x="1243" d="M82 0l158 885h-152l35 200h156l30 177q23 127 90.5 180t182.5 53h217l-37 -207h-133q-53 0 -77 -20.5t-34 -77.5l-18 -105h428l73 410h242l-264 -1495h-242l158 885h-422l-158 -885h-233z" />
<glyph horiz-adv-x="0" />
<glyph horiz-adv-x="0" />
<glyph horiz-adv-x="682" />
<glyph unicode="&#xd;" horiz-adv-x="681" />
<glyph unicode=" "  horiz-adv-x="460" />
<glyph unicode="&#x09;" horiz-adv-x="460" />
<glyph unicode="&#xa0;" horiz-adv-x="460" />
<glyph unicode="!" horiz-adv-x="612" d="M51 0l49 272h283l-47 -272h-285zM150 457l169 977h242l-172 -977h-239z" />
<glyph unicode="&#x22;" horiz-adv-x="663" d="M123 944l92 490h160l-92 -490h-160zM412 944l92 490h160l-93 -490h-159z" />
<glyph unicode="#" horiz-adv-x="1378" d="M72 553l30 162h271l65 282h-217l29 160h229l66 277h170l-66 -277h221l66 277h172l-66 -277h265l-29 -160h-274l-68 -282h221l-29 -162h-231l-66 -274h-172l66 274h-221l-66 -274h-172l66 274h-260zM545 715h219l67 282h-221z" />
<glyph unicode="$" horiz-adv-x="1351" d="M72 535l254 24q0 -154 50 -238.5t169 -109.5l82 444q-238 92 -328 174t-90 222q0 170 145.5 291.5t384.5 121.5h31l23 123h106l-25 -135q170 -31 272.5 -138.5t113.5 -275.5l-238 -32q-20 182 -188 223l-68 -379q256 -98 349 -188.5t93 -225.5q0 -199 -152.5 -333 t-396.5 -134q-35 0 -53 2l-31 -172h-104l33 183q-197 35 -309.5 156.5t-120.5 312.5q-2 27 -2 84zM453 1067q0 -53 41 -90t174 -88l63 354q-133 0 -205.5 -50t-72.5 -126zM647 199q141 0 229.5 62.5t88.5 160.5q0 57 -48.5 100t-193.5 99z" />
<glyph unicode="%" horiz-adv-x="1935" d="M133 963q0 236 116 365.5t273 129.5q125 0 217 -90t92 -242q0 -223 -115.5 -360t-275.5 -137q-129 0 -218 87t-89 247zM311 985q0 -86 33 -138t96 -52q94 0 153.5 91t59.5 226q0 82 -33.5 130t-99.5 48q-98 0 -153.5 -83t-55.5 -222zM406 -74l1001 1669l133 -82 l-999 -1667zM1106 309q0 236 115.5 366t273.5 130q125 0 216 -90t91 -242q0 -223 -114.5 -360.5t-274.5 -137.5q-129 0 -218 87t-89 247zM1282 332q0 -86 34 -138.5t97 -52.5q94 0 153.5 91.5t59.5 226.5q0 178 -135 178q-98 0 -153.5 -83t-55.5 -222z" />
<glyph unicode="&#x26;" horiz-adv-x="1366" d="M20 377q0 319 361 493q-96 115 -96 238q0 150 115.5 253t304.5 103q190 0 298.5 -105.5t104.5 -281.5l-215 -20q-8 109 -53 154.5t-140 45.5q-90 0 -139 -39.5t-49 -101.5q0 -12 2 -23.5t6 -23.5t8 -21.5t13.5 -21.5t13.5 -18.5t15.5 -20.5t15.5 -18t17 -18.5t15 -16.5 l295 -326l35 197h209l-67 -373l215 -225l-158 -152l-150 160q-10 -23 -43.5 -59.5t-92 -80.5t-153 -75t-202.5 -31q-207 0 -346.5 106.5t-139.5 301.5zM254 403q0 -100 74.5 -158.5t195.5 -58.5q106 0 193.5 48.5t122.5 132.5l-332 356q-254 -117 -254 -320z" />
<glyph unicode="'" horiz-adv-x="374" d="M133 944l92 490h160l-92 -490h-160z" />
<glyph unicode="(" horiz-adv-x="733" d="M143 469q0 334 153 631t437 512l113 -131q-500 -399 -512 -955q-4 -254 49.5 -441.5t151.5 -365.5l-150 -90q-31 51 -62.5 116t-76.5 176.5t-73 256t-30 291.5z" />
<glyph unicode=")" horiz-adv-x="802" d="M-51 -240q498 397 510 955q4 252 -50.5 436t-154.5 367l154 94q45 -76 90 -168t97 -287.5t54 -388.5q0 -336 -152.5 -632t-437.5 -507z" />
<glyph unicode="*" horiz-adv-x="915" d="M113 1167l112 142l195 -144l47 269h180l-49 -285l238 117l69 -160l-270 -129l149 -232l-147 -100l-168 268l-236 -229l-118 127l217 203z" />
<glyph unicode="+" horiz-adv-x="1048" d="M20 664v182h408v414h193v-414h407v-182h-407v-459h-193v459h-408z" />
<glyph unicode="," horiz-adv-x="616" d="M10 -276l25 145q68 10 94.5 40t36.5 91h-107l47 272h295l-47 -260q-20 -123 -106 -199.5t-238 -88.5z" />
<glyph unicode="-" horiz-adv-x="872" d="M113 590l34 184h613l-35 -184h-612z" />
<glyph unicode="." horiz-adv-x="628" d="M72 0l51 283h291l-52 -283h-290z" />
<glyph unicode="/" horiz-adv-x="743" d="M-72 -27l738 1557l149 -68l-737 -1552z" />
<glyph unicode="0" horiz-adv-x="1275" d="M72 545q0 240 73.5 446.5t224 339.5t347.5 133q207 0 347 -143t140 -432q0 -246 -73.5 -453t-223 -337t-348.5 -130q-207 0 -347 142.5t-140 433.5zM311 547q0 -348 271 -348q125 0 216 115.5t129 266t38 304.5q0 186 -73 271t-196 85q-94 0 -170.5 -68.5t-122 -175 t-69 -223.5t-23.5 -227z" />
<glyph unicode="1" horiz-adv-x="876" d="M102 981l48 264l366 189h217l-252 -1434h-237l205 1157z" />
<glyph unicode="2" horiz-adv-x="1200" d="M10 0l31 180q35 211 140.5 322.5t346.5 210.5q231 94 318.5 160.5t87.5 175.5q0 92 -69.5 145t-170.5 53q-250 0 -303 -284l-225 57q33 209 177 326.5t343 117.5q221 0 352 -113.5t131 -295.5q0 -106 -37.5 -187.5t-117.5 -141.5t-150.5 -97t-189.5 -84q-98 -41 -164 -74 t-100.5 -56.5t-55 -56t-24.5 -51t-13 -63.5h715l-45 -244h-977z" />
<glyph unicode="3" horiz-adv-x="1183" d="M10 506l238 35q6 -356 291 -357q143 0 221 76t78 203q0 94 -66.5 143t-185.5 49h-88l34 195h89q119 0 190.5 55.5t71.5 173.5q0 72 -55.5 121t-155.5 49q-203 0 -262 -217l-215 64q37 170 167 269t324 99q182 0 304 -102t122 -264q0 -238 -217 -338v-6q78 -29 133 -112 t55 -189q0 -219 -148.5 -351.5t-397.5 -132.5q-248 0 -386.5 140.5t-140.5 396.5z" />
<glyph unicode="4" horiz-adv-x="1222" d="M10 299l37 217l725 918h369l-172 -924h170l-35 -211h-168l-53 -299h-234l56 299h-695zM287 510h452l146 754h-4z" />
<glyph unicode="5" horiz-adv-x="1236" d="M51 410l234 57q25 -133 93 -207t202 -74q147 0 234 95.5t87 238.5q0 121 -73.5 188.5t-192.5 67.5q-186 0 -303 -131l-178 117l213 672h749l-39 -222h-567l-107 -340l5 -2q115 90 268 91q205 0 332 -118t127 -308q0 -264 -158 -415t-404 -151q-207 0 -352 117t-170 324z " />
<glyph unicode="6" horiz-adv-x="1275" d="M82 553q0 242 84 449.5t239.5 334.5t346.5 127q219 0 327.5 -128t114.5 -304l-227 -28q-23 244 -226 243q-141 0 -249.5 -125.5t-143.5 -320.5l2 -2q131 143 350 143q188 0 317.5 -122t129.5 -312q0 -233 -153.5 -386t-387.5 -153q-229 0 -376.5 156t-147.5 428zM338 457 q0 -123 72.5 -197t199.5 -74q135 0 223.5 91.5t88.5 226.5q0 106 -65.5 182t-203.5 76q-133 0 -224 -93.5t-91 -211.5z" />
<glyph unicode="7" horiz-adv-x="1077" d="M-10 0l870 1208l2 4h-702l37 222h952l-64 -283l-811 -1151h-284z" />
<glyph unicode="8" horiz-adv-x="1183" d="M31 381q0 160 99 270.5t237 143.5v4q-59 33 -105.5 104.5t-46.5 167.5q0 164 135 278.5t332 114.5q207 0 323.5 -106.5t116.5 -263.5q0 -113 -66.5 -199t-170.5 -125v-4q94 -39 150.5 -126t56.5 -206q0 -211 -159 -338t-411 -127q-211 0 -351 108.5t-140 303.5zM264 414 q0 -230 283 -230q137 0 222 74t85 199q0 102 -71.5 159.5t-200.5 57.5q-139 0 -228.5 -74t-89.5 -186zM430 1049q0 -82 59.5 -135.5t161.5 -53.5q111 0 179.5 60.5t68.5 158.5q0 82 -55.5 134.5t-161.5 52.5q-115 0 -183.5 -63.5t-68.5 -153.5z" />
<glyph unicode="9" horiz-adv-x="1220" d="M72 365l227 47q25 -229 248 -230q131 0 225 117t125 330h-6q-25 -41 -116 -92.5t-220 -51.5q-170 0 -301 117t-131 332q0 229 156.5 379.5t384.5 150.5q223 0 359 -157.5t136 -434.5q0 -408 -169 -655.5t-449 -247.5q-205 0 -330 103t-139 293zM350 944 q0 -111 69.5 -182.5t178.5 -71.5q145 0 228 81t83 206t-70.5 200.5t-187.5 75.5q-137 0 -219 -94t-82 -215z" />
<glyph unicode=":" horiz-adv-x="638" d="M72 0l51 283h291l-52 -283h-290zM195 813l49 272h282l-47 -272h-284z" />
<glyph unicode=";" horiz-adv-x="612" d="M10 -276l25 145q68 10 94.5 40t36.5 91h-107l50 283h294l-49 -271q-20 -123 -106 -199.5t-238 -88.5zM190 813l48 272h282l-47 -272h-283z" />
<glyph unicode="&#x3c;" horiz-adv-x="1085" d="M72 649l2 144l798 477l101 -162l-647 -387l647 -389l-103 -164z" />
<glyph unicode="=" horiz-adv-x="1173" d="M113 479v185h948v-185h-948zM113 844v184h948v-184h-948z" />
<glyph unicode="&#x3e;" horiz-adv-x="1085" d="M82 332l647 389l-647 387l100 162l799 -477l2 -144l-799 -481z" />
<glyph unicode="?" horiz-adv-x="1196" d="M154 1028q23 199 156.5 317.5t336.5 118.5q186 0 321.5 -102t135.5 -293q0 -94 -33 -167t-83 -112.5t-110.5 -76.5t-113.5 -60.5t-94 -61.5t-52 -83l-16 -68h-229l16 80q18 98 75.5 165t125 101.5t132 67.5t107.5 85t43 130q0 74 -59 130t-166 56q-238 0 -282 -274z M274 0l52 283h288l-51 -283h-289z" />
<glyph unicode="@" horiz-adv-x="1452" d="M61 578q0 373 204 629.5t542 256.5q266 0 425 -168t159 -430q0 -279 -93.5 -416t-253.5 -137q-131 0 -174 88h-4q-70 -92 -215 -92q-123 0 -197.5 82t-74.5 238q0 180 102.5 316t241.5 136q102 0 182 -86l13 66h151l-92 -529q-8 -45 11.5 -69.5t60.5 -24.5 q88 0 147 100.5t59 327.5q0 201 -116.5 335t-329.5 134q-150 0 -268.5 -63.5t-190 -171t-109.5 -241.5t-38 -281q0 -213 110.5 -345.5t304.5 -132.5q173 0 306 80l55 -127q-12 -8 -50 -24.5t-119 -35t-163 -20.5q-72 -2 -139 7q-211 33 -329 196.5t-118 401.5zM535 639 q0 -186 135 -186q66 0 109 40.5t55 106.5l32 188q10 66 -24.5 110t-106.5 44q-84 0 -142 -89t-58 -214z" />
<glyph unicode="A" horiz-adv-x="1226" d="M-133 0l770 1434h203l264 -1434h-238l-43 248h-579l-129 -248h-248zM350 453h436l-106 620h-4z" />
<glyph unicode="B" horiz-adv-x="1310" d="M31 0l252 1434h534q207 0 309.5 -96.5t102.5 -258.5q0 -211 -205 -319v-4q150 -84 150 -291q0 -197 -135.5 -331t-395.5 -134h-612zM313 225h336q123 0 205 63.5t82 184.5q0 84 -53.5 128t-153.5 44h-344zM422 846h315q119 0 183.5 57.5t64.5 161.5q0 70 -52 109.5 t-147 39.5h-299z" />
<glyph unicode="C" horiz-adv-x="1325" d="M72 588q0 205 58 375t156.5 277.5t220.5 165.5t253 58q240 0 382 -142t142 -376l-250 -20q-4 141 -70.5 226t-203.5 85q-176 0 -304 -177t-128 -429q0 -203 82 -314.5t221 -111.5q248 0 332 340l251 -66q-49 -242 -200.5 -376t-390.5 -134q-248 0 -399.5 172t-151.5 447z " />
<glyph unicode="D" horiz-adv-x="1325" d="M31 0l252 1434h452q223 0 376 -154t153 -428q0 -438 -201 -645t-545 -207h-487zM313 227h246q195 0 321 157t126 464q0 184 -86 275t-230 91h-203z" />
<glyph unicode="E" horiz-adv-x="1165" d="M31 0l252 1434h893l-37 -220h-652l-65 -372h594l-35 -199h-594l-74 -416h652l-41 -227h-893z" />
<glyph unicode="F" d="M31 0l252 1434h895l-39 -220h-654l-73 -428h596l-37 -204h-596l-103 -582h-241z" />
<glyph unicode="G" horiz-adv-x="1339" d="M72 592q0 203 59 372t157.5 276.5t220.5 165.5t253 58q233 0 372.5 -138t143.5 -365l-248 -21q-18 299 -272 299q-176 0 -304 -176t-128 -432q0 -205 81.5 -317.5t223.5 -112.5q287 0 350 297h-287l37 213h533l-29 -179q-41 -266 -209 -414.5t-405 -148.5 q-252 0 -400.5 169t-148.5 454z" />
<glyph unicode="H" horiz-adv-x="1337" d="M31 0l252 1434h241l-102 -590h541l102 590h242l-252 -1434h-242l113 635h-541l-113 -635h-241z" />
<glyph unicode="I" horiz-adv-x="559" d="M31 0l252 1434h245l-252 -1434h-245z" />
<glyph unicode="J" horiz-adv-x="929" d="M-41 328l225 51q16 -180 138 -180q66 0 100.5 41t50.5 139l184 1055h242l-186 -1063q-72 -401 -396 -402q-154 0 -253 96.5t-105 262.5z" />
<glyph unicode="K" horiz-adv-x="1282" d="M31 0l252 1434h241l-110 -625h4l610 625h315l-643 -641l439 -793h-275l-344 625h-4l-164 -174l-80 -451h-241z" />
<glyph unicode="L" horiz-adv-x="1017" d="M31 0l252 1434h245l-215 -1219h602l-36 -215h-848z" />
<glyph unicode="M" horiz-adv-x="1732" d="M31 0l252 1434h260l278 -967h4l568 967h309l-252 -1434h-244l174 985h-4l-596 -985h-49l-280 985h-5l-174 -985h-241z" />
<glyph unicode="N" horiz-adv-x="1363" d="M31 0l252 1434h213l417 -983h5l174 983h241l-252 -1434h-209l-423 983h-5l-172 -983h-241z" />
<glyph unicode="O" horiz-adv-x="1396" d="M72 582q0 211 58 382t157.5 278.5t225.5 164.5t265 57q252 0 399.5 -177t147.5 -437q0 -209 -59.5 -380t-159.5 -278.5t-224 -165t-257 -57.5q-258 0 -405.5 168t-147.5 445zM328 618q0 -205 77.5 -311t229.5 -106q176 0 304 172t128 442q0 205 -80 313.5t-227 108.5 q-176 0 -304 -177t-128 -442z" />
<glyph unicode="P" horiz-adv-x="1269" d="M31 0l252 1434h532q209 0 327 -106.5t118 -285.5q0 -236 -151 -373t-407 -137h-335l-95 -532h-241zM406 756h311q129 0 210 71.5t81 198.5q0 92 -57.5 140t-162.5 48h-303z" />
<glyph unicode="Q" horiz-adv-x="1437" d="M72 582q0 211 58 382t157.5 278.5t225.5 164.5t265 57q252 0 399.5 -177t147.5 -437q0 -360 -174 -602l137 -162l-135 -113l-123 146q-176 -150 -405 -150q-258 0 -405.5 168t-147.5 445zM328 618q0 -205 77.5 -311t229.5 -106q133 0 239 100l-268 320l137 112l240 -287 q84 162 84 369q0 205 -80 313.5t-227 108.5q-176 0 -304 -177t-128 -442z" />
<glyph unicode="R" horiz-adv-x="1284" d="M31 0l252 1434h520q221 0 335.5 -103.5t114.5 -288.5q0 -207 -108.5 -326.5t-302.5 -156.5l211 -559h-254l-199 545h-233l-95 -545h-241zM406 760h301q145 0 219.5 70.5t74.5 195.5q0 188 -219 188h-297z" />
<glyph unicode="S" horiz-adv-x="1232" d="M33 535l251 24q2 -182 72 -271t234 -89q125 0 206 64.5t81 158.5q0 63 -59.5 109.5t-252.5 125.5q-221 90 -309 176.5t-88 227.5q0 162 137 282.5t365 120.5q215 0 352 -113.5t149 -312.5l-237 -32q-27 235 -266 235h-2q-117 0 -185.5 -53t-68.5 -125q0 -61 56 -101 t255 -120q227 -92 312 -181.5t85 -224.5q0 -201 -147.5 -334t-382.5 -133q-248 0 -394.5 123t-158.5 342q-5 42 -5 78q0 12 1 23z" />
<glyph unicode="T" horiz-adv-x="1159" d="M113 1214l37 220h1081l-37 -220h-410l-213 -1214h-249l215 1214h-424z" />
<glyph unicode="U" horiz-adv-x="1386" d="M125 496l164 938h246l-168 -955q-7 -42 -8 -78q0 -202 233 -202h2q299 0 350 290l168 945h244l-178 -1008q-39 -213 -197 -335t-397 -122q-246 -1 -375 137q-96 102 -96 267q0 58 12 123z" />
<glyph unicode="V" horiz-adv-x="1345" d="M133 1434h262l180 -1098h5l548 1098h289l-760 -1434h-262z" />
<glyph unicode="W" horiz-adv-x="1882" d="M195 1434h247l17 -1010h4l520 1010h150l161 -1010h4l363 1010h272l-526 -1434h-270l-150 991h-4l-496 -991h-266z" />
<glyph unicode="X" horiz-adv-x="1202" d="M-133 0l582 764l-277 670h260l189 -519h4l366 519h283l-535 -711l297 -723h-258l-211 571h-4l-413 -571h-283z" />
<glyph unicode="Y" horiz-adv-x="1189" d="M113 1434h260l213 -598h4l422 598h291l-619 -830l-106 -604h-248l106 604z" />
<glyph unicode="Z" horiz-adv-x="1222" d="M-41 0l39 219l911 989v4h-690l35 222h999l-39 -220l-907 -972v-4h727l-39 -238h-1036z" />
<glyph unicode="[" horiz-adv-x="856" d="M92 -369l330 1864h506l-29 -164h-317l-273 -1536h320l-31 -164h-506z" />
<glyph unicode="\" horiz-adv-x="948" d="M31 1462l149 68l738 -1557l-150 -63z" />
<glyph unicode="]" horiz-adv-x="876" d="M-72 -369l31 164h317l271 1536h-318l29 164h506l-330 -1864h-506z" />
<glyph unicode="^" horiz-adv-x="1136" d="M133 666l354 768h162l355 -768h-189l-246 561l-245 -561h-191z" />
<glyph unicode="_" horiz-adv-x="1028" d="M-113 -143h1028v-170h-1028v170z" />
<glyph unicode="`" horiz-adv-x="624" d="M92 1464h258l162 -250h-197z" />
<glyph unicode="a" horiz-adv-x="1148" d="M51 393q0 303 162 513t385 210q174 0 248 -129h6l18 98h228l-191 -1085h-209l21 125h-4q-37 -59 -116 -107.5t-196 -48.5q-143 0 -247.5 110.5t-104.5 313.5zM283 414q0 -231 172 -232q94 0 192 90t127 256l21 121q6 35 6 66q0 73 -34 121q-48 68 -159 69 q-131 0 -228 -143.5t-97 -347.5z" />
<glyph unicode="b" horiz-adv-x="1200" d="M31 0l264 1495h233l-86 -487h4q112 108 268 108h3q176 0 293.5 -137t117.5 -354q0 -295 -142 -475.5t-386 -180.5q-92 0 -170 32t-106.5 56.5t-44.5 44.5h-5l-22 -102h-221zM346 436q-4 -24 -4 -47q0 -79 48 -135q62 -72 185 -72q147 0 235.5 115t88.5 328 q0 127 -64.5 203.5t-177.5 76.5q-111 0 -182.5 -67t-89.5 -176z" />
<glyph unicode="c" horiz-adv-x="1107" d="M51 432q0 311 161 497.5t396 186.5q208 0 318 -123q109 -121 108 -310v-7l-221 -17v14q0 93 -48 160q-52 72 -163 72q-139 0 -227 -127t-88 -327q0 -129 59.5 -198t165.5 -69t163.5 63.5t96.5 172.5l215 -80q-119 -371 -493 -371q-199 0 -321 126t-122 337z" />
<glyph unicode="d" horiz-adv-x="1220" d="M51 424q0 301 151.5 496.5t387.5 195.5q88 0 160.5 -32.5t98 -58.5t42.5 -50h4l92 520h234l-265 -1495h-217l19 104h-4q-14 -20 -38 -43.5t-95.5 -57.5t-153.5 -34q-186 0 -301 125t-115 330zM285 453q0 -125 58 -198t165 -73q111 0 189 68t96 166l38 231q4 23 4 44 q0 77 -50 137q-64 77 -187 77q-141 0 -227 -124t-86 -328z" />
<glyph unicode="e" horiz-adv-x="1140" d="M51 469q0 270 161 458.5t400 188.5q201 0 329 -125t128 -348q0 -35 -4 -77t-8 -66l-4 -27h-770q-2 -16 -2 -39q0 -106 65.5 -180t181.5 -74q170 1 303 185l166 -150q-68 -96 -190.5 -171t-282.5 -75q-213 0 -343 132t-130 368zM305 651h543q2 10 2 39q0 96 -63.5 160.5 t-178.5 64.5q-123 0 -201.5 -82t-101.5 -182z" />
<glyph unicode="f" horiz-adv-x="780" d="M82 0l158 885h-152l37 200h154l32 181q23 123 90.5 176t180.5 53h239l-39 -207h-151q-53 0 -77 -20.5t-34 -79.5l-18 -103h274l-37 -200h-266l-158 -885h-233z" />
<glyph unicode="g" horiz-adv-x="1220" d="M31 -188l202 92q57 -188 242 -189q223 0 264 230l29 147h-4q-96 -123 -276.5 -123t-302.5 124t-122 331q0 315 157 503.5t388 188.5q102 0 183 -39t124 -96h7l18 104h229l-190 -1085q-47 -246 -169 -369t-353 -123q-172 0 -280.5 84.5t-145.5 219.5zM295 455 q0 -127 61.5 -200t182.5 -73q100 0 176 65t96 167l41 227q5 24 5 47q0 77 -53 138q-67 79 -186 79q-145 0 -234 -121.5t-89 -328.5z" />
<glyph unicode="h" d="M31 0l264 1495h233l-90 -498h4q111 119 287 119t263 -116q62 -82 62 -204q0 -49 -10 -104l-120 -692h-230l117 664q7 37 7 68q0 64 -28 106q-40 63 -147 63q-90 0 -161.5 -57.5t-90.5 -155.5l-121 -688h-239z" />
<glyph unicode="i" horiz-adv-x="528" d="M31 0l190 1085h242l-191 -1085h-241zM246 1264l41 231h241l-41 -231h-241z" />
<glyph unicode="j" horiz-adv-x="540" d="M-154 -399l43 237h45q82 0 99 92l200 1155h236l-213 -1212q-47 -272 -309 -272h-101zM258 1264l41 231h242l-41 -231h-242z" />
<glyph unicode="k" horiz-adv-x="1091" d="M31 0l264 1495h233l-149 -821h4l453 411h307l-492 -446l338 -639h-241l-265 498h-4l-153 -146l-62 -352h-233z" />
<glyph unicode="l" horiz-adv-x="536" d="M31 0l264 1495h242l-265 -1495h-241z" />
<glyph unicode="m" horiz-adv-x="1732" d="M31 0l190 1085h213l-18 -104h4q49 59 126 97t159 38q92 0 162.5 -44t97.5 -107h4q130 151 320 151h3q172 0 272 -110q76 -83 76 -207q0 -41 -8 -86l-127 -713h-225l121 698q4 26 4 50q0 60 -29 98q-41 54 -137 55q-90 0 -156.5 -58.5t-85.5 -156.5l-120 -686h-218 l123 698q5 26 5 49q1 59 -29 99q-40 56 -137 55q-92 0 -159 -60.5t-83 -154.5l-121 -686h-227z" />
<glyph unicode="n" horiz-adv-x="1163" d="M31 0l190 1085h225l-16 -102h4q117 133 307 133q169 0 263 -116q67 -83 67 -212q0 -51 -10 -110l-119 -678h-233l116 655q6 39 6 71q0 175 -184 175q-102 0 -173 -59.5t-87 -153.5l-123 -688h-233z" />
<glyph unicode="o" d="M51 469q0 279 162 463t405 184q203 0 330 -136t127 -364q0 -279 -159.5 -463t-401.5 -184q-205 0 -334 136.5t-129 363.5zM283 459q0 -127 65.5 -202t171.5 -75q141 0 233.5 118t92.5 325q0 129 -66.5 204.5t-173.5 75.5q-139 0 -231 -118.5t-92 -327.5z" />
<glyph unicode="p" horiz-adv-x="1193" d="M-72 -461l273 1546h223l-16 -96h4q104 127 293 127q180 0 298.5 -134t118.5 -349q0 -301 -155.5 -482.5t-388.5 -181.5q-106 0 -189.5 42t-120.5 100h-4l-102 -572h-234zM319 416q-3 -18 -3 -35q0 -72 56 -129q68 -70 183 -70q150 0 243 117t93 319q0 131 -68.5 209 t-181.5 78q-111 0 -186 -65.5t-93 -169.5z" />
<glyph unicode="q" horiz-adv-x="1210" d="M51 430q0 303 159 494.5t386 191.5q109 0 191.5 -41t117.5 -98h4l21 108h229l-272 -1546h-234l99 565h-4q-41 -55 -115 -95t-168 -40q-186 0 -300 126t-114 335zM285 465q0 -127 56 -205t181 -78q106 0 183.5 66t95.5 160l45 247q5 24 5 47q0 75 -53 131q-67 72 -188 72 q-139 0 -232 -118.5t-93 -321.5z" />
<glyph unicode="r" horiz-adv-x="743" d="M31 0l190 1085h228l-21 -114h4q45 61 112.5 98t137.5 37q47 0 92 -21l-78 -227q-37 16 -94 16q-180 0 -223 -258l-109 -616h-239z" />
<glyph unicode="s" horiz-adv-x="1024" d="M31 373l219 39q18 -236 242 -236q102 0 158.5 39t56.5 107q0 45 -46.5 78.5t-214.5 91.5q-186 61 -253.5 126.5t-67.5 172.5q0 127 105.5 226t310.5 99q186 0 297.5 -97t124.5 -249l-209 -33q-16 82 -72.5 131.5t-149 49.5t-141.5 -36t-49 -81q0 -43 54.5 -75t236.5 -91 q174 -57 235.5 -128t61.5 -181q0 -143 -117 -250t-321 -107q-223 0 -340 114t-121 290z" />
<glyph unicode="t" horiz-adv-x="739" d="M92 885l37 200h156l49 267h221l-47 -267h272l-37 -200h-270l-80 -463q-14 -90 -14 -115q0 -43 25.5 -62.5t95.5 -19.5h86l-41 -225h-94q-164 0 -236 60.5t-72 187.5q0 59 13 133l88 504h-152z" />
<glyph unicode="u" horiz-adv-x="1161" d="M82 369l127 716h237l-118 -677q-7 -38 -7 -69q1 -61 27 -95q40 -51 137 -51q229 0 267 208l118 684h240l-190 -1085h-230l19 104h-4q-35 -47 -114 -91t-185 -44q-186 -1 -274 99q-61 70 -61 190q0 51 11 111z" />
<glyph unicode="v" horiz-adv-x="1093" d="M92 1085h234l161 -763l402 763h266l-620 -1085h-197z" />
<glyph unicode="w" horiz-adv-x="1654" d="M143 1085h232l18 -759h4l394 759h237l113 -757h4l297 757h254l-451 -1085h-254l-125 815l-426 -815h-247z" />
<glyph unicode="x" horiz-adv-x="1120" d="M-72 0l480 563l-267 522h244l184 -389h4l310 389h278l-448 -526l280 -559h-248l-194 414h-4l-340 -414h-279z" />
<glyph unicode="y" horiz-adv-x="1130" d="M72 -461l309 553l-252 993h244l159 -712h5l378 712h267l-869 -1546h-241z" />
<glyph unicode="z" horiz-adv-x="1122" d="M-20 0l34 193l736 681v5h-586l35 206h893l-31 -188l-719 -668v-4h614l-43 -225h-933z" />
<glyph unicode="{" horiz-adv-x="782" d="M51 516l33 182h57q59 0 89 30t42 95l68 379q29 166 105.5 229.5t222.5 63.5h145l-27 -164h-114q-74 0 -108 -37t-50 -125l-63 -352q-8 -47 -24.5 -85t-33 -59.5t-36 -36.5t-30 -20.5t-16.5 -7.5q12 -8 27.5 -26.5t31 -68.5t7.5 -112l-78 -438q-16 -90 6.5 -129t100.5 -39 h108l-31 -164h-104q-162 0 -226.5 71t-33.5 251l78 444q10 66 -6.5 92.5t-75.5 26.5h-64z" />
<glyph unicode="|" horiz-adv-x="385" d="M113 -614v2201h159v-2201h-159z" />
<glyph unicode="}" horiz-adv-x="815" d="M-92 -369l26 164h115q72 0 106.5 37t51.5 125l78 440q8 49 25.5 89t34.5 61.5t35.5 36t29 18.5t14.5 4q-8 4 -25.5 21.5t-35 70t-5.5 115.5l64 350q16 90 -6.5 129t-100.5 39h-108l31 164h106q160 0 224.5 -70.5t33.5 -250.5l-65 -357q-10 -66 6 -92.5t75 -26.5h64 l-33 -182h-57q-59 0 -89 -29.5t-40 -95.5l-82 -467q-29 -166 -105.5 -229.5t-222.5 -63.5h-145z" />
<glyph unicode="~" horiz-adv-x="1234" d="M92 614q25 147 100.5 239.5t198.5 92.5q86 0 171 -45t158 -89t128 -44q47 0 81 34t46 65.5t24 82.5l144 -35q-25 -147 -100.5 -239t-198.5 -92q-68 0 -137.5 27.5t-116.5 61.5t-103.5 61.5t-101.5 27.5q-47 0 -80 -34t-45 -65.5t-24 -82.5z" />
<glyph unicode="&#xa1;" horiz-adv-x="632" d="M0 -348l172 977h240l-170 -977h-242zM178 813l47 272h285l-49 -272h-283z" />
<glyph unicode="&#xa2;" horiz-adv-x="1239" d="M113 434q0 307 159.5 492.5t393.5 189.5l30 176h103l-31 -184q164 -27 252 -143.5t84 -288.5l-227 -17q2 84 -34 148.5t-112 87.5l-119 -711q152 22 211 219l224 -69q-104 -352 -472 -365l-32 -194h-103l33 200q-164 25 -262 148t-98 311zM348 453q0 -221 162 -265 l121 715q-127 -16 -205 -139t-78 -311z" />
<glyph unicode="&#xa3;" horiz-adv-x="1374" d="M72 0l41 223h65q104 0 125 105l53 299h-178l31 168h178l39 217q41 229 166 340.5t313 111.5q174 0 289 -109.5t106 -328.5l-217 -25q2 123 -40 185.5t-142 62.5q-193 0 -235 -237l-41 -217h395l-31 -168h-397l-72 -404h608l-41 -223h-1015z" />
<glyph unicode="&#xa4;" horiz-adv-x="1472" d="M215 233l133 134q-96 131 -96 307q0 170 96 305l-133 133l82 82l129 -131q137 117 309 117q180 0 314 -113l127 127l81 -82l-131 -131q94 -137 95 -307q0 -178 -97 -309l133 -132l-81 -81l-132 129q-131 -104 -309 -105q-182 0 -307 107l-131 -131zM489 672 q0 -152 71 -217.5t177 -65.5q104 0 175 65.5t71 217.5q0 156 -70.5 223.5t-175.5 67.5q-106 0 -177 -68t-71 -223z" />
<glyph unicode="&#xa5;" horiz-adv-x="1343" d="M72 279l28 159h398l30 166h-397l27 158h309l-262 672h260l213 -598h4l422 598h291l-502 -672h319l-28 -158h-408l-31 -166h408l-27 -159h-407l-49 -279h-248l49 279h-399z" />
<glyph unicode="&#xa6;" horiz-adv-x="583" d="M195 -268v669h194v-669h-194zM195 657v670h194v-670h-194z" />
<glyph unicode="&#xa7;" horiz-adv-x="1126" d="M10 621q0 100 68.5 190t165.5 123q-33 53 -33 151q0 160 123 269.5t330 109.5q188 0 294.5 -106.5t104.5 -296.5l-223 -27q0 215 -193 215q-90 0 -145.5 -44t-55.5 -122q0 -61 32 -96t95 -69l283 -148q119 -61 169 -124.5t50 -158.5q0 -98 -68.5 -189t-164.5 -124 q33 -53 32 -151q0 -160 -122.5 -269.5t-329.5 -109.5q-188 0 -295 106.5t-104 296.5l223 27q0 -215 192 -215q90 0 145.5 44t55.5 122q0 61 -32 96t-95 69l-283 148q-119 61 -169 124.5t-50 158.5zM254 639q0 -39 31.5 -75t120.5 -79l229 -116q64 -33 84 -58q113 70 112 158 q0 39 -31.5 75t-119.5 79l-229 116q-63 31 -84 58q-113 -70 -113 -158z" />
<glyph unicode="&#xa8;" horiz-adv-x="894" d="M113 1214l39 220h229l-39 -220h-229zM516 1214l39 220h227l-37 -220h-229z" />
<glyph unicode="&#xa9;" horiz-adv-x="1386" d="M61 725q0 268 181.5 449.5t450 181.5t450.5 -181.5t182 -449.5t-182 -450.5t-450.5 -182.5t-450 182.5t-181.5 450.5zM190 725q0 -215 144.5 -363.5t357.5 -148.5t358.5 148.5t145.5 363.5q0 213 -145.5 360.5t-358.5 147.5t-357.5 -147.5t-144.5 -360.5zM377 721 q0 182 93 286.5t232 104.5q113 0 189 -72.5t94 -195.5l-160 -29q-10 61 -40.5 102t-82.5 41q-68 0 -111.5 -61t-43.5 -176q0 -127 44 -182.5t111 -55.5q104 0 127 162l162 -41q-20 -131 -97 -202.5t-192 -71.5q-141 0 -233 103.5t-92 287.5z" />
<glyph unicode="&#xaa;" horiz-adv-x="714" d="M113 942q0 168 221 215q176 37 198 55q14 12 15 35q0 33 -31 55.5t-82 22.5q-115 0 -149 -96l-115 49q23 72 93.5 120t168.5 48q117 0 192.5 -67.5t53.5 -200.5l-66 -392h-125l11 66h-2q-6 -12 -22.5 -27.5t-61.5 -36t-99 -20.5q-96 0 -148 47t-52 127zM248 958 q0 -61 94 -61q72 0 115 31.5t49 72.5l22 119h-2q-35 -39 -155 -65q-123 -29 -123 -97z" />
<glyph unicode="&#xab;" horiz-adv-x="1150" d="M113 614l282 330h236l-305 -352l153 -414h-205zM541 614l282 330h236l-305 -352l153 -414h-205z" />
<glyph unicode="&#xac;" horiz-adv-x="1243" d="M113 709v215h977v-549h-226v334h-751z" />
<glyph unicode="&#xad;" horiz-adv-x="872" d="M113 590l34 184h613l-35 -184h-612z" />
<glyph unicode="&#xae;" horiz-adv-x="831" d="M102 1085.5q0 153.5 103.5 257t257.5 103.5q152 0 255 -103.5t103 -257t-103 -257t-255 -103.5q-154 0 -257.5 103.5t-103.5 257zM170 1085.5q0 -124.5 84 -209.5t209 -85t208 85t83 209.5t-83 208.5t-208 84t-209 -84t-84 -208.5zM334 868v430h143q72 0 111 -34.5 t39 -98.5q0 -96 -97 -127l95 -170h-84l-86 166h-43v-166h-78zM412 1102h59q80 0 80 63.5t-80 63.5h-59v-127z" />
<glyph unicode="&#xaf;" horiz-adv-x="841" d="M113 1262l26 147h590l-27 -147h-589z" />
<glyph unicode="&#xb0;" horiz-adv-x="794" d="M164 1286q0 127 86 217t209 90q127 0 211 -88t84 -219q0 -133 -83 -218t-212 -85t-212 87t-83 216zM328 1286q0 -151 131 -151q129 0 129 151q0 156 -129 156q-131 0 -131 -156z" />
<glyph unicode="&#xb1;" horiz-adv-x="1255" d="M113 856v184h417v322h195v-322h418v-184h-418v-364h-195v364h-417zM160 176v184h944v-184h-944z" />
<glyph unicode="&#xb2;" horiz-adv-x="718" d="M92 969l21 125q20 127 85.5 192.5t217.5 124.5q139 55 187 95t48 91q0 47 -33.5 77t-93.5 30q-145 0 -182 -162l-154 41q18 129 111.5 199.5t218.5 70.5q133 0 213 -67.5t80 -183.5q0 -66 -23.5 -116t-70.5 -86t-88 -56.5t-107 -47.5q-127 -51 -170 -81.5t-45 -79.5h422 l-29 -166h-608z" />
<glyph unicode="&#xb3;" horiz-adv-x="763" d="M133 1278l160 31q14 -199 178 -199q156 0 156 143q0 104 -144 105h-53l23 131h49q150 0 149 125q0 41 -28.5 66.5t-79.5 25.5q-119 0 -156 -125l-147 47q25 100 105.5 162.5t199.5 62.5q117 0 192.5 -61t75.5 -150q2 -78 -41 -133t-104 -77v-5q45 -16 80.5 -65t35.5 -113 q0 -131 -84 -211t-231 -80q-158 0 -244 88.5t-92 231.5z" />
<glyph unicode="&#xb4;" horiz-adv-x="604" d="M92 1214l162 250h258l-221 -250h-199z" />
<glyph unicode="&#xb5;" horiz-adv-x="1189" d="M123 -461v1546h233v-647q0 -121 57.5 -183t166.5 -62q104 0 158.5 58t54.5 163v671h233v-1085h-227v104h-4q-27 -51 -90.5 -93t-149.5 -42q-135 0 -203 74h-2v-504h-227z" />
<glyph unicode="&#xb6;" horiz-adv-x="1130" d="M72 915q0 178 117.5 287t285.5 109h625l-281 -1590h-180l244 1389h-271l-243 -1389h-183l160 910q-121 4 -197.5 82t-76.5 202z" />
<glyph unicode="&#xb7;" horiz-adv-x="608" d="M133 606l51 283h291l-51 -283h-291z" />
<glyph unicode="&#xb8;" horiz-adv-x="600" d="M51 -350l72 90q68 -63 149 -64q111 0 111 82q0 33 -29.5 51.5t-70.5 18.5q-29 0 -55.5 -8t-39.5 -17l-12 -10l-80 45l97 162h104l-76 -119l2 -2q39 31 109 31q68 0 122 -41t54 -115q0 -92 -61.5 -142t-161.5 -50q-140 0 -234 88z" />
<glyph unicode="&#xb9;" horiz-adv-x="573" d="M164 1548l33 185l223 110h155l-153 -874h-170l125 684z" />
<glyph unicode="&#xba;" horiz-adv-x="714" d="M102 1059q0 178 98.5 283.5t237.5 105.5q127 0 202 -85t75 -208q0 -180 -96.5 -283.5t-239.5 -103.5q-127 0 -202 84t-75 207zM244 1079q0 -80 36.5 -126t104.5 -46q78 0 133 65.5t55 170.5q0 80 -36.5 125t-106.5 45q-74 0 -130 -65t-56 -169z" />
<glyph unicode="&#xbb;" horiz-adv-x="1157" d="M51 178l316 363l-152 403h205l162 -428l-291 -338h-240zM496 178l315 363l-152 403h205l160 -428l-289 -338h-239z" />
<glyph unicode="&#xbc;" horiz-adv-x="1945" d="M195 1139l32 184l224 111h155l-153 -875h-170l125 684zM340 -74l1001 1669l134 -82l-1000 -1667zM1014 170l26 156l428 548h261l-101 -555h103l-27 -149h-98l-29 -170h-164l31 170h-430zM1202 319h266l84 443h-4z" />
<glyph unicode="&#xbd;" horiz-adv-x="2004" d="M195 1137l32 184l224 111h155l-153 -875h-170l125 684zM340 -76l1001 1669l134 -82l-1000 -1667zM1133 0l20 125q20 127 86 192.5t217 124.5q139 55 187.5 95.5t48.5 91.5q0 47 -34 76.5t-93 29.5q-145 0 -183 -162l-153 41q18 129 111.5 200t218.5 71q133 0 212.5 -67.5 t79.5 -184.5q0 -66 -23.5 -116t-70.5 -86t-88 -56.5t-106 -46.5q-127 -51 -170 -82t-45 -80h421l-28 -166h-608z" />
<glyph unicode="&#xbe;" horiz-adv-x="2025" d="M113 868l159 31q14 -199 179 -199q156 0 155 144q0 104 -143 104h-53l22 131h49q150 0 150 125q0 41 -29 66.5t-80 25.5q-119 0 -155 -125l-148 48q25 100 106 162.5t199 62.5q117 0 193 -61.5t76 -149.5q2 -78 -41 -133.5t-105 -77.5v-4q45 -16 81 -65.5t36 -112.5 q0 -131 -84 -211t-231 -80q-158 0 -244 88t-92 231zM457 -74l1001 1669l133 -82l-999 -1667zM1104 170l26 156l429 548h260l-101 -555h103l-27 -149h-98l-29 -170h-164l31 170h-430zM1292 319h267l83 443h-4z" />
<glyph unicode="&#xbf;" horiz-adv-x="1155" d="M31 16q0 94 32.5 167t83 113t110.5 77t113.5 60.5t94.5 61t51 83.5l16 67h230l-17 -80q-18 -98 -75.5 -164.5t-125 -101.5t-132 -67.5t-107.5 -85t-43 -130.5q0 -74 59.5 -130t165.5 -56q238 0 283 274l211 -47q-23 -199 -157 -317.5t-337 -118.5q-186 0 -321 102.5 t-135 292.5zM520 803l51 282h289l-51 -282h-289z" />
<glyph unicode="&#xc0;" horiz-adv-x="1226" d="M-133 0l770 1434h203l264 -1434h-238l-43 248h-579l-129 -248h-248zM350 453h436l-106 620h-4zM410 1821h258l163 -254h-196z" />
<glyph unicode="&#xc1;" horiz-adv-x="1226" d="M-133 0l770 1434h203l264 -1434h-238l-43 248h-579l-129 -248h-248zM350 453h436l-106 620h-4zM662 1567l165 254h256l-223 -254h-198z" />
<glyph unicode="&#xc2;" horiz-adv-x="1226" d="M-133 0l770 1434h203l264 -1434h-238l-43 248h-579l-129 -248h-248zM350 453h436l-106 620h-4zM481 1651l162 159h252l127 -180l-131 -94l-127 176l-176 -176z" />
<glyph unicode="&#xc3;" horiz-adv-x="1226" d="M-133 0l770 1434h203l264 -1434h-238l-43 248h-579l-129 -248h-248zM350 453h436l-106 620h-4zM418 1569q74 213 229 213q68 0 141.5 -39t102.5 -39q57 0 84 68h121q-72 -213 -230 -213q-68 0 -141.5 38.5t-99.5 38.5q-55 1 -84 -67h-123z" />
<glyph unicode="&#xc4;" horiz-adv-x="1226" d="M-133 0l770 1434h203l264 -1434h-238l-43 248h-579l-129 -248h-248zM350 453h436l-106 620h-4zM440 1567l39 219h230l-39 -219h-230zM844 1567l39 219h229l-39 -219h-229z" />
<glyph unicode="&#xc5;" horiz-adv-x="1226" d="M-133 0l766 1427q-74 55 -74 158q0 100 63.5 170t159.5 70q86 0 141.5 -55.5t55.5 -137.5q0 -78 -36 -138t-99 -87l260 -1407h-238l-43 248h-579l-129 -248h-248zM350 453h436l-106 620h-4zM682 1587q0 -41 22.5 -63.5t53.5 -22.5q39 0 68.5 35t29.5 96q0 41 -22.5 62.5 t-53.5 21.5q-39 0 -68.5 -33.5t-29.5 -95.5z" />
<glyph unicode="&#xc6;" horiz-adv-x="1787" d="M-102 0l753 1434h1157l-36 -220h-590l-66 -368h533l-33 -199h-535l-73 -424h587l-39 -223h-829l45 268h-479l-141 -268h-254zM401 481l406 -2l137 735h-166z" />
<glyph unicode="&#xc7;" horiz-adv-x="1325" d="M72 588q0 205 58 375t156.5 277.5t220.5 165.5t253 58q240 0 382 -142t142 -376l-250 -20q-4 141 -70.5 226t-203.5 85q-176 0 -304 -177t-128 -429q0 -203 82 -314.5t221 -111.5q248 0 332 340l251 -66q-49 -233 -189 -365t-363 -143l-56 -90l2 -2q39 31 109 31 q68 0 122 -41t54 -115q0 -92 -61.5 -142t-161.5 -50q-140 0 -234 88l72 90q68 -63 149 -64q111 0 111 82q0 33 -29.5 51.5t-70.5 18.5q-29 0 -55.5 -8t-39.5 -17l-12 -10l-80 45l80 135q-223 20 -356 188.5t-133 426.5z" />
<glyph unicode="&#xc8;" horiz-adv-x="1165" d="M31 0l252 1434h893l-37 -220h-652l-65 -372h594l-35 -199h-594l-74 -416h652l-41 -227h-893zM438 1821h258l164 -254h-196z" />
<glyph unicode="&#xc9;" horiz-adv-x="1165" d="M31 0l252 1434h893l-37 -220h-652l-65 -372h594l-35 -199h-594l-74 -416h652l-41 -227h-893zM618 1567l166 254h256l-223 -254h-199z" />
<glyph unicode="&#xca;" horiz-adv-x="1165" d="M31 0l252 1434h893l-37 -220h-652l-65 -372h594l-35 -199h-594l-74 -416h652l-41 -227h-893zM485 1651l162 159h252l127 -180l-131 -94l-127 176l-176 -176z" />
<glyph unicode="&#xcb;" horiz-adv-x="1165" d="M31 0l252 1434h893l-37 -220h-652l-65 -372h594l-35 -199h-594l-74 -416h652l-41 -227h-893zM436 1567l39 219h230l-39 -219h-230zM840 1567l39 219h229l-39 -219h-229z" />
<glyph unicode="&#xcc;" horiz-adv-x="559" d="M31 0l252 1434h245l-252 -1434h-245zM104 1821h258l164 -254h-196z" />
<glyph unicode="&#xcd;" horiz-adv-x="559" d="M31 0l252 1434h245l-252 -1434h-245zM309 1567l166 254h256l-223 -254h-199z" />
<glyph unicode="&#xce;" horiz-adv-x="559" d="M31 0l252 1434h245l-252 -1434h-245zM162 1651l162 159h251l127 -180l-131 -94l-127 176l-176 -176z" />
<glyph unicode="&#xcf;" horiz-adv-x="559" d="M31 0l252 1434h245l-252 -1434h-245zM115 1567l39 219h229l-39 -219h-229zM518 1567l39 219h229l-38 -219h-230z" />
<glyph unicode="&#xd0;" horiz-adv-x="1333" d="M41 645l37 201h119l104 588h453q223 0 375.5 -154t152.5 -428q0 -438 -200.5 -645t-544.5 -207h-488l113 645h-121zM332 227h246q195 0 320.5 157t125.5 464q0 184 -86 275t-229 91h-203l-66 -368h328l-35 -201h-327z" />
<glyph unicode="&#xd1;" horiz-adv-x="1363" d="M31 0l252 1434h213l417 -983h5l174 983h241l-252 -1434h-209l-423 983h-5l-172 -983h-241zM510 1569q74 213 229 213q68 0 141.5 -39t102.5 -39q57 0 84 68h121q-72 -213 -230 -213q-70 0 -143.5 38.5t-97.5 38.5q-55 1 -84 -67h-123z" />
<glyph unicode="&#xd2;" horiz-adv-x="1396" d="M72 582q0 211 58 382t157.5 278.5t225.5 164.5t265 57q252 0 399.5 -177t147.5 -437q0 -209 -59.5 -380t-159.5 -278.5t-224 -165t-257 -57.5q-258 0 -405.5 168t-147.5 445zM328 618q0 -205 77.5 -311t229.5 -106q176 0 304 172t128 442q0 205 -80 313.5t-227 108.5 q-176 0 -304 -177t-128 -442zM492 1821h258l163 -254h-196z" />
<glyph unicode="&#xd3;" horiz-adv-x="1396" d="M72 582q0 211 58 382t157.5 278.5t225.5 164.5t265 57q252 0 399.5 -177t147.5 -437q0 -209 -59.5 -380t-159.5 -278.5t-224 -165t-257 -57.5q-258 0 -405.5 168t-147.5 445zM328 618q0 -205 77.5 -311t229.5 -106q176 0 304 172t128 442q0 205 -80 313.5t-227 108.5 q-176 0 -304 -177t-128 -442zM735 1567l166 254h256l-223 -254h-199z" />
<glyph unicode="&#xd4;" horiz-adv-x="1396" d="M72 582q0 211 58 382t157.5 278.5t225.5 164.5t265 57q252 0 399.5 -177t147.5 -437q0 -209 -59.5 -380t-159.5 -278.5t-224 -165t-257 -57.5q-258 0 -405.5 168t-147.5 445zM328 618q0 -205 77.5 -311t229.5 -106q176 0 304 172t128 442q0 205 -80 313.5t-227 108.5 q-176 0 -304 -177t-128 -442zM532 1651l162 159h252l127 -180l-131 -94l-127 176l-176 -176z" />
<glyph unicode="&#xd5;" horiz-adv-x="1396" d="M72 582q0 211 58 382t157.5 278.5t225.5 164.5t265 57q252 0 399.5 -177t147.5 -437q0 -209 -59.5 -380t-159.5 -278.5t-224 -165t-257 -57.5q-258 0 -405.5 168t-147.5 445zM328 618q0 -205 77.5 -311t229.5 -106q176 0 304 172t128 442q0 205 -80 313.5t-227 108.5 q-176 0 -304 -177t-128 -442zM485 1569q74 213 230 213q68 0 141.5 -39t101.5 -39q57 0 84 68h121q-72 -213 -229 -213q-70 0 -143.5 38.5t-98.5 38.5q-55 1 -84 -67h-123z" />
<glyph unicode="&#xd6;" horiz-adv-x="1396" d="M72 582q0 211 58 382t157.5 278.5t225.5 164.5t265 57q252 0 399.5 -177t147.5 -437q0 -209 -59.5 -380t-159.5 -278.5t-224 -165t-257 -57.5q-258 0 -405.5 168t-147.5 445zM328 618q0 -205 77.5 -311t229.5 -106q176 0 304 172t128 442q0 205 -80 313.5t-227 108.5 q-176 0 -304 -177t-128 -442zM467 1567l39 219h229l-39 -219h-229zM870 1567l39 219h230l-39 -219h-230z" />
<glyph unicode="&#xd7;" horiz-adv-x="1191" d="M133 360l332 330l-311 311l133 134l311 -312l309 310l131 -134l-309 -309l330 -328l-131 -133l-330 330l-332 -332z" />
<glyph unicode="&#xd8;" horiz-adv-x="1392" d="M72 582q0 209 61.5 381t161.5 279.5t225 164.5t258 57q125 0 232 -51l41 74l104 -55l-45 -84q100 -84 155.5 -214t55.5 -284q0 -209 -61.5 -380t-163 -278.5t-223 -165t-248.5 -57.5q-129 0 -244 56l-43 -78l-107 55l48 88q-207 170 -207 492zM328 618q0 -203 73 -307 l494 895q-59 31 -135 31q-176 0 -304 -177.5t-128 -441.5zM494 231q61 -30 141 -30q176 0 304 172t128 442q0 201 -80 313z" />
<glyph unicode="&#xd9;" horiz-adv-x="1386" d="M125 496l164 938h246l-168 -955q-49 -281 227 -280q299 0 350 290l168 945h244l-178 -1008q-39 -213 -197 -335t-397 -122q-246 0 -375 137.5t-84 389.5zM506 1821h258l164 -254h-197z" />
<glyph unicode="&#xda;" horiz-adv-x="1386" d="M125 496l164 938h246l-168 -955q-49 -281 227 -280q299 0 350 290l168 945h244l-178 -1008q-39 -213 -197 -335t-397 -122q-246 0 -375 137.5t-84 389.5zM737 1567l166 254h256l-223 -254h-199z" />
<glyph unicode="&#xdb;" horiz-adv-x="1386" d="M125 496l164 938h246l-168 -955q-49 -281 227 -280q299 0 350 290l168 945h244l-178 -1008q-39 -213 -197 -335t-397 -122q-246 0 -375 137.5t-84 389.5zM559 1651l162 159h252l127 -180l-131 -94l-127 176l-176 -176z" />
<glyph unicode="&#xdc;" horiz-adv-x="1386" d="M125 496l164 938h246l-168 -955q-49 -281 227 -280q299 0 350 290l168 945h244l-178 -1008q-39 -213 -197 -335t-397 -122q-246 0 -375 137.5t-84 389.5zM502 1567l39 219h229l-39 -219h-229zM905 1567l39 219h230l-39 -219h-230z" />
<glyph unicode="&#xdd;" horiz-adv-x="1189" d="M113 1434h260l213 -598h4l422 598h291l-619 -830l-106 -604h-248l106 604zM612 1567l166 254h256l-223 -254h-199z" />
<glyph unicode="&#xde;" horiz-adv-x="1224" d="M10 0l250 1434h242l-45 -248h295q195 0 318.5 -107.5t123.5 -283.5q0 -231 -154.5 -370.5t-402.5 -139.5h-336l-51 -285h-240zM340 512h311q121 0 206 73.5t85 196.5q0 92 -60.5 140.5t-168.5 48.5h-293z" />
<glyph unicode="&#xdf;" horiz-adv-x="1132" d="M31 0l170 1012q37 225 161.5 338.5t315.5 113.5q174 0 285.5 -103.5t111.5 -242.5q0 -223 -203 -332q78 -39 127.5 -112.5t49.5 -171.5q0 -236 -142.5 -369t-406.5 -133h-92l32 215h68q332 0 332 291q0 90 -61.5 134t-151.5 44h-103l27 174h67q104 0 175 58.5t71 162.5 q0 80 -53 129t-137 49q-123 0 -177.5 -81.5t-84.5 -262.5l-154 -913h-227z" />
<glyph unicode="&#xe0;" horiz-adv-x="1148" d="M51 393q0 303 162 513t385 210q174 0 248 -129h6l18 98h228l-191 -1085h-209l21 125h-4q-37 -59 -116 -107.5t-196 -48.5q-143 0 -247.5 110.5t-104.5 313.5zM283 414q0 -231 172 -232q94 0 192 90t127 256l21 121q20 119 -28 187.5t-159 68.5q-131 0 -228 -143.5 t-97 -347.5zM315 1464h258l162 -250h-196z" />
<glyph unicode="&#xe1;" horiz-adv-x="1148" d="M51 393q0 303 162 513t385 210q174 0 248 -129h6l18 98h228l-191 -1085h-209l21 125h-4q-37 -59 -116 -107.5t-196 -48.5q-143 0 -247.5 110.5t-104.5 313.5zM283 414q0 -231 172 -232q94 0 192 90t127 256l21 121q20 119 -28 187.5t-159 68.5q-131 0 -228 -143.5 t-97 -347.5zM528 1214l162 250h258l-221 -250h-199z" />
<glyph unicode="&#xe2;" horiz-adv-x="1148" d="M51 393q0 303 162 513t385 210q174 0 248 -129h6l18 98h228l-191 -1085h-209l21 125h-4q-37 -59 -116 -107.5t-196 -48.5q-143 0 -247.5 110.5t-104.5 313.5zM283 414q0 -231 172 -232q94 0 192 90t127 256l21 121q20 119 -28 187.5t-159 68.5q-131 0 -228 -143.5 t-97 -347.5zM348 1307l162 157h252l127 -180l-131 -94l-127 178l-176 -178z" />
<glyph unicode="&#xe3;" horiz-adv-x="1148" d="M51 393q0 303 162 513t385 210q174 0 248 -129h6l18 98h228l-191 -1085h-209l21 125h-4q-37 -59 -116 -107.5t-196 -48.5q-143 0 -247.5 110.5t-104.5 313.5zM283 414q0 -231 172 -232q94 0 192 90t127 256l21 121q20 119 -28 187.5t-159 68.5q-131 0 -228 -143.5 t-97 -347.5zM317 1229q37 102 89.5 158.5t140.5 56.5q68 0 141.5 -40t102.5 -40q59 0 83 70h121q-72 -215 -229 -215q-70 0 -143.5 39.5t-98.5 39.5q-55 1 -84 -69h-123z" />
<glyph unicode="&#xe4;" horiz-adv-x="1148" d="M51 393q0 303 162 513t385 210q174 0 248 -129h6l18 98h228l-191 -1085h-209l21 125h-4q-37 -59 -116 -107.5t-196 -48.5q-143 0 -247.5 110.5t-104.5 313.5zM283 414q0 -231 172 -232q94 0 192 90t127 256l21 121q20 119 -28 187.5t-159 68.5q-131 0 -228 -143.5 t-97 -347.5zM342 1214l39 220h229l-39 -220h-229zM745 1214l39 220h228l-37 -220h-230z" />
<glyph unicode="&#xe5;" horiz-adv-x="1148" d="M51 393q0 266 130 466t321 245q-78 55 -78 160q0 100 63.5 169.5t159.5 69.5q86 0 141.5 -55t55.5 -137q0 -158 -121 -219q82 -33 123 -105h6l18 98h228l-191 -1085h-209l21 125h-4q-37 -59 -116 -107.5t-196 -48.5q-143 0 -247.5 110.5t-104.5 313.5zM283 414 q0 -231 172 -232q94 0 192 90t127 256l21 121q20 119 -28 187.5t-159 68.5q-131 0 -228 -143.5t-97 -347.5zM547 1264q0 -39 22.5 -61.5t53.5 -22.5q39 0 68.5 34.5t29.5 96.5q0 41 -22.5 62.5t-53.5 21.5q-41 0 -69.5 -35t-28.5 -96z" />
<glyph unicode="&#xe6;" horiz-adv-x="1824" d="M31 258q0 139 84 236.5t266 130.5q217 39 306 69.5t89 85.5q0 61 -52 97t-151 36q-182 0 -249 -165l-191 86q115 283 455 282q123 0 211 -48t127 -124h4q59 76 157 124t207 48q197 0 328 -123t131 -350q0 -35 -4 -77t-8 -66l-4 -27h-772q-2 -16 -2 -39q0 -106 64.5 -180 t182.5 -74q59 0 108.5 19.5t86.5 56.5t54.5 60.5t41.5 62.5l180 -135q-172 -274 -473 -275q-250 0 -387 189q-45 -74 -147.5 -131.5t-263.5 -57.5q-182 0 -280.5 78t-98.5 211zM248 293q0 -121 182 -121q127 0 196 53t83 125l34 215l-8 -2q-14 -31 -69.5 -51t-192.5 -49 q-129 -27 -177 -67t-48 -103zM989 651h539q2 10 2 31q0 96 -65.5 161.5t-174.5 65.5q-123 0 -200.5 -79t-100.5 -179z" />
<glyph unicode="&#xe7;" horiz-adv-x="1110" d="M51 432q0 311 161 497.5t396 186.5q207 0 317.5 -123t108.5 -317l-221 -17q4 102 -48 174t-163 72q-139 0 -227 -127t-88 -327q0 -129 59.5 -198t165.5 -69t163.5 63.5t96.5 172.5l215 -80q-109 -332 -420 -367l-57 -92l2 -2q39 31 109 31q68 0 122 -41t54 -115 q0 -92 -61.5 -142t-162.5 -50q-139 0 -233 88l72 90q68 -63 149 -64q111 0 111 82q0 33 -30 51.5t-71 18.5q-29 0 -55.5 -8t-38.5 -17l-12 -10l-80 45l78 133q-186 10 -299 134t-113 327z" />
<glyph unicode="&#xe8;" horiz-adv-x="1140" d="M51 469q0 270 161 458.5t400 188.5q201 0 329 -125t128 -348q0 -35 -4 -77t-8 -66l-4 -27h-770q-2 -16 -2 -39q0 -106 65.5 -180t181.5 -74q170 1 303 185l166 -150q-68 -96 -190.5 -171t-282.5 -75q-213 0 -343 132t-130 368zM305 651h543q2 10 2 39q0 96 -63.5 160.5 t-178.5 64.5q-123 0 -201.5 -82t-101.5 -182zM348 1464h258l162 -250h-197z" />
<glyph unicode="&#xe9;" horiz-adv-x="1140" d="M51 469q0 270 161 458.5t400 188.5q201 0 329 -125t128 -348q0 -35 -4 -77t-8 -66l-4 -27h-770q-2 -16 -2 -39q0 -106 65.5 -180t181.5 -74q170 1 303 185l166 -150q-68 -96 -190.5 -171t-282.5 -75q-213 0 -343 132t-130 368zM305 651h543q2 10 2 39q0 96 -63.5 160.5 t-178.5 64.5q-123 0 -201.5 -82t-101.5 -182zM522 1214l162 250h258l-221 -250h-199z" />
<glyph unicode="&#xea;" horiz-adv-x="1140" d="M51 469q0 270 161 458.5t400 188.5q201 0 329 -125t128 -348q0 -35 -4 -77t-8 -66l-4 -27h-770q-2 -16 -2 -39q0 -106 65.5 -180t181.5 -74q170 1 303 185l166 -150q-68 -96 -190.5 -171t-282.5 -75q-213 0 -343 132t-130 368zM305 651h543q2 10 2 39q0 96 -63.5 160.5 t-178.5 64.5q-123 0 -201.5 -82t-101.5 -182zM385 1307l162 157h252l127 -180l-131 -94l-127 178l-176 -178z" />
<glyph unicode="&#xeb;" horiz-adv-x="1140" d="M51 469q0 270 161 458.5t400 188.5q201 0 329 -125t128 -348q0 -35 -4 -77t-8 -66l-4 -27h-770q-2 -16 -2 -39q0 -106 65.5 -180t181.5 -74q170 1 303 185l166 -150q-68 -96 -190.5 -171t-282.5 -75q-213 0 -343 132t-130 368zM305 651h543q2 10 2 39q0 96 -63.5 160.5 t-178.5 64.5q-123 0 -201.5 -82t-101.5 -182zM340 1214l39 220h229l-39 -220h-229zM743 1214l39 220h228l-37 -220h-230z" />
<glyph unicode="&#xec;" horiz-adv-x="524" d="M25 1464h258l161 -250h-196zM31 0l190 1085h242l-191 -1085h-241z" />
<glyph unicode="&#xed;" horiz-adv-x="524" d="M31 0l190 1085h242l-191 -1085h-241zM246 1214l162 250h258l-222 -250h-198z" />
<glyph unicode="&#xee;" horiz-adv-x="524" d="M31 0l190 1085h242l-191 -1085h-241zM102 1307l162 157h252l127 -180l-131 -94l-127 178l-176 -178z" />
<glyph unicode="&#xef;" horiz-adv-x="524" d="M31 0l190 1085h242l-191 -1085h-241zM49 1214l39 220h229l-38 -220h-230zM453 1214l39 220h227l-37 -220h-229z" />
<glyph unicode="&#xf0;" horiz-adv-x="1181" d="M51 469q0 274 160 460.5t387 186.5q88 0 160.5 -36t103.5 -83h4q-29 158 -110 301l-310 -38l-14 108l268 35q-59 102 -118 178v6h243q61 -102 90 -155l232 30l14 -108l-196 -27q123 -281 122 -596q0 -360 -149.5 -561t-415.5 -201q-215 0 -343 135.5t-128 364.5zM281 459 q0 -125 70 -199t179 -74q145 0 231.5 122t86.5 327q0 123 -67.5 196.5t-178.5 73.5q-137 0 -229 -119.5t-92 -326.5z" />
<glyph unicode="&#xf1;" horiz-adv-x="1163" d="M31 0l190 1085h225l-16 -102h4q117 133 307 133q170 0 263.5 -115.5t56.5 -322.5l-119 -678h-233l116 655q41 246 -178 246q-102 0 -173 -59.5t-87 -153.5l-123 -688h-233zM371 1229q37 102 89 158.5t140 56.5q68 0 141.5 -40t102.5 -40q59 0 84 70h121 q-72 -215 -230 -215q-70 0 -143.5 39.5t-97.5 39.5q-55 1 -84 -69h-123z" />
<glyph unicode="&#xf2;" d="M51 469q0 279 162 463t405 184q203 0 330 -136t127 -364q0 -279 -159.5 -463t-401.5 -184q-205 0 -334 136.5t-129 363.5zM283 459q0 -127 65.5 -202t171.5 -75q141 0 233.5 118t92.5 325q0 129 -66.5 204.5t-173.5 75.5q-139 0 -231 -118.5t-92 -327.5zM330 1464h258 l162 -250h-197z" />
<glyph unicode="&#xf3;" d="M51 469q0 279 162 463t405 184q203 0 330 -136t127 -364q0 -279 -159.5 -463t-401.5 -184q-205 0 -334 136.5t-129 363.5zM283 459q0 -127 65.5 -202t171.5 -75q141 0 233.5 118t92.5 325q0 129 -66.5 204.5t-173.5 75.5q-139 0 -231 -118.5t-92 -327.5zM528 1214 l162 250h258l-221 -250h-199z" />
<glyph unicode="&#xf4;" d="M51 469q0 279 162 463t405 184q203 0 330 -136t127 -364q0 -279 -159.5 -463t-401.5 -184q-205 0 -334 136.5t-129 363.5zM283 459q0 -127 65.5 -202t171.5 -75q141 0 233.5 118t92.5 325q0 129 -66.5 204.5t-173.5 75.5q-139 0 -231 -118.5t-92 -327.5zM360 1307 l162 157h252l127 -180l-131 -94l-127 178l-176 -178z" />
<glyph unicode="&#xf5;" d="M51 469q0 279 162 463t405 184q203 0 330 -136t127 -364q0 -279 -159.5 -463t-401.5 -184q-205 0 -334 136.5t-129 363.5zM283 459q0 -127 65.5 -202t171.5 -75q141 0 233.5 118t92.5 325q0 129 -66.5 204.5t-173.5 75.5q-139 0 -231 -118.5t-92 -327.5zM309 1229 q37 102 89.5 158.5t140.5 56.5q68 0 141.5 -40t101.5 -40q59 0 84 70h121q-72 -215 -229 -215q-70 0 -143.5 39.5t-98.5 39.5q-55 1 -84 -69h-123z" />
<glyph unicode="&#xf6;" d="M51 469q0 279 162 463t405 184q203 0 330 -136t127 -364q0 -279 -159.5 -463t-401.5 -184q-205 0 -334 136.5t-129 363.5zM283 459q0 -127 65.5 -202t171.5 -75q141 0 233.5 118t92.5 325q0 129 -66.5 204.5t-173.5 75.5q-139 0 -231 -118.5t-92 -327.5zM324 1214l38 220 h230l-39 -220h-229zM727 1214l39 220h227l-37 -220h-229z" />
<glyph unicode="&#xf7;" horiz-adv-x="827" d="M20 633v184h787v-184h-787zM238 279q0 76 51 127t123 51q76 0 127 -51.5t51 -126.5q0 -74 -51.5 -124.5t-126.5 -50.5q-72 0 -123 50.5t-51 124.5zM238 1161q0 74 51 125t123 51q76 0 127 -51t51 -125t-51.5 -125t-126.5 -51q-72 0 -123 51t-51 125z" />
<glyph unicode="&#xf8;" d="M51 469q0 279 162 463t405 184q174 0 295 -108l68 75l74 -65l-72 -84q92 -131 92 -318q0 -279 -159.5 -463t-403.5 -184q-158 0 -274 90l-68 -77l-74 65l68 80q-113 129 -113 342zM281 459q-1 -86 32 -152l457 529q-63 70 -164 69q-141 0 -233 -118.5t-92 -327.5z M379 233q57 -51 141 -51q139 0 231.5 118t92.5 325q-1 65 -19 120z" />
<glyph unicode="&#xf9;" horiz-adv-x="1161" d="M82 369l127 716h237l-118 -677q-20 -113 19.5 -164t137.5 -51q229 0 267 208l118 684h240l-190 -1085h-230l19 104h-4q-35 -47 -114 -91t-185 -44q-186 0 -273.5 99.5t-50.5 300.5zM350 1464h258l162 -250h-197z" />
<glyph unicode="&#xfa;" horiz-adv-x="1161" d="M82 369l127 716h237l-118 -677q-20 -113 19.5 -164t137.5 -51q229 0 267 208l118 684h240l-190 -1085h-230l19 104h-4q-35 -47 -114 -91t-185 -44q-186 0 -273.5 99.5t-50.5 300.5zM563 1214l162 250h258l-221 -250h-199z" />
<glyph unicode="&#xfb;" horiz-adv-x="1161" d="M82 369l127 716h237l-118 -677q-20 -113 19.5 -164t137.5 -51q229 0 267 208l118 684h240l-190 -1085h-230l19 104h-4q-35 -47 -114 -91t-185 -44q-186 0 -273.5 99.5t-50.5 300.5zM399 1307l162 157h252l127 -180l-131 -94l-127 178l-176 -178z" />
<glyph unicode="&#xfc;" horiz-adv-x="1161" d="M82 369l127 716h237l-118 -677q-20 -113 19.5 -164t137.5 -51q229 0 267 208l118 684h240l-190 -1085h-230l19 104h-4q-35 -47 -114 -91t-185 -44q-186 0 -273.5 99.5t-50.5 300.5zM371 1214l39 220h229l-39 -220h-229zM774 1214l39 220h227l-36 -220h-230z" />
<glyph unicode="&#xfd;" horiz-adv-x="1120" d="M72 -461l309 553l-252 993h244l159 -712h5l378 712h267l-869 -1546h-241zM541 1214l161 250h259l-222 -250h-198z" />
<glyph unicode="&#xfe;" horiz-adv-x="1193" d="M-72 -461l344 1956h234l-86 -485h4q111 106 278 106q180 0 300 -134t120 -349q0 -301 -155.5 -482.5t-391.5 -181.5q-104 0 -187 41t-122 101h-4l-100 -572h-234zM319 416q-16 -92 52.5 -162t181.5 -70q152 0 245 116t93 318q0 131 -68.5 207t-181.5 76t-188 -64.5 t-91 -166.5z" />
<glyph unicode="&#xff;" horiz-adv-x="1120" d="M72 -461l309 553l-252 993h244l159 -712h5l378 712h267l-869 -1546h-241zM342 1214l39 220h229l-39 -220h-229zM745 1214l39 220h228l-37 -220h-230z" />
<glyph unicode="&#x152;" horiz-adv-x="1990" d="M72 575q0 207 59 379t158.5 282t223.5 169t255 59q207 0 350 -133l19 103h874l-39 -224h-635l-63 -368h577l-34 -199h-578l-76 -420h637l-41 -223h-856l19 113h-4q-41 -57 -132.5 -100.5t-210.5 -43.5q-223 0 -363 167t-140 439zM328 616q0 -201 74.5 -304t242.5 -103 q94 0 184 54t119 120l121 692q-29 78 -112 120t-179 42q-195 0 -322.5 -183.5t-127.5 -437.5z" />
<glyph unicode="&#x153;" horiz-adv-x="1933" d="M51 469q0 279 162 463t405 184q123 0 221.5 -56t151.5 -159q152 215 406 215q203 0 334 -122t131 -351q0 -35 -4.5 -77t-8.5 -66l-4 -27h-772q-2 -16 -2 -39q0 -106 64.5 -180t183.5 -74q59 0 108.5 19.5t86 56.5t54 60.5t42.5 62.5l180 -135q-172 -274 -473 -275 q-268 0 -393 215q-160 -215 -410 -215q-205 0 -334 136.5t-129 363.5zM283 459q0 -127 65.5 -202t171.5 -75q141 0 233.5 118t92.5 325q0 127 -66.5 203.5t-173.5 76.5q-139 0 -231 -118.5t-92 -327.5zM1098 651h538q2 10 2 31q0 96 -65.5 161.5t-173.5 65.5 q-123 0 -200.5 -79t-100.5 -179z" />
<glyph unicode="&#x178;" horiz-adv-x="1189" d="M113 1434h260l213 -598h4l422 598h291l-619 -830l-106 -604h-248l106 604zM406 1567l38 219h230l-39 -219h-229zM809 1567l39 219h229l-39 -219h-229z" />
<glyph unicode="&#x2c6;" horiz-adv-x="768" d="M119 1307l162 157h251l127 -180l-131 -94l-127 178l-176 -178z" />
<glyph unicode="&#x2dc;" horiz-adv-x="903" d="M113 1229q37 102 89 158.5t140 56.5q68 0 141.5 -40t102.5 -40q59 0 84 70h121q-72 -215 -230 -215q-70 0 -143.5 39.5t-98.5 39.5q-54 1 -83 -69h-123z" />
<glyph unicode="&#x2000;" horiz-adv-x="926" />
<glyph unicode="&#x2001;" horiz-adv-x="1853" />
<glyph unicode="&#x2002;" horiz-adv-x="926" />
<glyph unicode="&#x2003;" horiz-adv-x="1853" />
<glyph unicode="&#x2004;" horiz-adv-x="617" />
<glyph unicode="&#x2005;" horiz-adv-x="463" />
<glyph unicode="&#x2006;" horiz-adv-x="308" />
<glyph unicode="&#x2007;" horiz-adv-x="308" />
<glyph unicode="&#x2008;" horiz-adv-x="231" />
<glyph unicode="&#x2009;" horiz-adv-x="370" />
<glyph unicode="&#x200a;" horiz-adv-x="102" />
<glyph unicode="&#x2010;" horiz-adv-x="872" d="M113 590l34 184h613l-35 -184h-612z" />
<glyph unicode="&#x2011;" horiz-adv-x="872" d="M113 590l34 184h613l-35 -184h-612z" />
<glyph unicode="&#x2012;" horiz-adv-x="872" d="M113 590l34 184h613l-35 -184h-612z" />
<glyph unicode="&#x2013;" horiz-adv-x="1284" d="M113 573l37 201h1021l-36 -201h-1022z" />
<glyph unicode="&#x2014;" horiz-adv-x="2000" d="M174 573l37 201h1616l-37 -201h-1616z" />
<glyph unicode="&#x2018;" horiz-adv-x="526" d="M182 1196l41 238h293l-47 -273h-111q-12 -63 7.5 -96t80.5 -43l-24 -137q-289 24 -240 311z" />
<glyph unicode="&#x2019;" horiz-adv-x="555" d="M154 885l24 145q68 10 94.5 40t36.5 91h-106l47 273h295l-47 -260q-20 -123 -106 -200t-238 -89z" />
<glyph unicode="&#x201a;" horiz-adv-x="616" d="M0 -276l25 145q68 10 94 40t37 91h-107l47 272h295l-47 -260q-20 -123 -106 -199.5t-238 -88.5z" />
<glyph unicode="&#x201c;" horiz-adv-x="940" d="M182 1196l41 238h293l-47 -273h-111q-12 -63 7.5 -96t80.5 -43l-24 -137q-289 24 -240 311zM596 1196l41 238h293l-47 -273h-111q-12 -63 7.5 -96t80.5 -43l-24 -137q-289 24 -240 311z" />
<glyph unicode="&#x201d;" horiz-adv-x="978" d="M143 887l25 145q68 10 94.5 40t36.5 91h-106l47 273h295l-48 -260q-20 -123 -106 -200t-238 -89zM567 887l25 145q68 10 94.5 40t36.5 91h-107l48 273h294l-47 -260q-20 -123 -106 -200t-238 -89z" />
<glyph unicode="&#x201e;" horiz-adv-x="1040" d="M10 -276l25 145q68 10 94.5 40t36.5 91h-107l47 272h295l-47 -260q-20 -123 -106 -199.5t-238 -88.5zM434 -276l25 145q68 10 94.5 40t36.5 91h-107l47 272h295l-47 -260q-20 -123 -106 -199.5t-238 -88.5z" />
<glyph unicode="&#x2022;" horiz-adv-x="722" d="M133 690q0 102 62.5 168t165 66t166 -65.5t63.5 -168.5q0 -100 -63.5 -164.5t-166 -64.5t-165 64.5t-62.5 164.5z" />
<glyph unicode="&#x2026;" horiz-adv-x="1785" d="M72 0l51 283h291l-52 -283h-290zM651 0l51 283h291l-51 -283h-291zM1229 0l51 283h291l-51 -283h-291z" />
<glyph unicode="&#x202f;" horiz-adv-x="370" />
<glyph unicode="&#x2039;" horiz-adv-x="722" d="M113 614l282 330h236l-305 -352l153 -414h-205z" />
<glyph unicode="&#x203a;" horiz-adv-x="714" d="M51 178l316 363l-158 403h211l162 -428l-291 -338h-240z" />
<glyph unicode="&#x205f;" horiz-adv-x="463" />
<glyph unicode="&#x20ac;" horiz-adv-x="1499" d="M51 483l31 170h156q2 72 16 150h-145l30 170h158q84 233 256 362t371 129q240 0 382 -142t142 -376l-250 -20q-4 141 -70.5 226t-203.5 85q-109 0 -203 -71.5t-154 -192.5h361l-31 -170h-389q-16 -76 -16 -150h378l-30 -170h-336q27 -135 102.5 -206.5t188.5 -71.5 q248 0 331 340l252 -66q-49 -242 -200.5 -376t-391.5 -134q-223 0 -369.5 140.5t-174.5 373.5h-191z" />
<glyph unicode="&#x2122;" horiz-adv-x="1482" d="M92 1294l25 140h522l-25 -140h-182l-96 -555h-143l96 555h-197zM621 739l120 695h166l117 -494h4l301 494h184l-120 -695h-146l76 435h-4l-266 -435h-99l-114 424h-4l-74 -424h-141z" />
<glyph unicode="&#x25fc;" horiz-adv-x="1085" d="M0 0v1085h1085v-1085h-1085z" />
</font>
</defs>
</svg>
