<?xml version="1.0" standalone="no"?>
<!DOCTYPE svg PUBLIC "-//W3C//DTD SVG 1.1//EN" "http://www.w3.org/Graphics/SVG/1.1/DTD/svg11.dtd" >
<svg xmlns="http://www.w3.org/2000/svg">
<metadata></metadata>
<defs>
<font id="maison_neuedemi" horiz-adv-x="1417" >
<font-face units-per-em="2048" ascent="1587" descent="-461" />
<missing-glyph horiz-adv-x="512" />
<glyph unicode="&#xfb01;" horiz-adv-x="1226" d="M41 885v200h170v158q0 139 68.5 195.5t199.5 56.5h164v-207h-117q-53 0 -73.5 -20.5t-20.5 -77.5v-105h637v-1085h-233v885h-398v-885h-233v885h-164zM831 1264v231h242v-231h-242z" />
<glyph unicode="&#xfb02;" horiz-adv-x="1226" d="M41 885v200h170v158q0 139 68.5 195.5t199.5 56.5h164v-207h-117q-53 0 -73.5 -20.5t-20.5 -77.5v-105h399v410h242v-1495h-242v885h-393v-885h-233v885h-164z" />
<glyph horiz-adv-x="0" />
<glyph horiz-adv-x="0" />
<glyph horiz-adv-x="682" />
<glyph unicode="&#xd;" horiz-adv-x="681" />
<glyph unicode=" "  horiz-adv-x="512" />
<glyph unicode="&#x09;" horiz-adv-x="512" />
<glyph unicode="&#xa0;" horiz-adv-x="512" />
<glyph unicode="!" horiz-adv-x="673" d="M195 0v272h284v-272h-284zM215 457v977h242v-977h-242z" />
<glyph unicode="&#x22;" horiz-adv-x="790" d="M164 944v490h160v-490h-160zM446 944v490h160v-490h-160z" />
<glyph unicode="#" horiz-adv-x="1394" d="M133 553v162h273l16 282h-219v160h229l19 277h172l-19 -277h221l17 277h174l-19 -277h265v-160h-275l-18 -282h221v-162h-232l-16 -274h-172l16 274h-221l-16 -274h-172l16 274h-260zM575 715h222l16 282h-219z" />
<glyph unicode="$" horiz-adv-x="1351" d="M102 483l254 56q27 -156 86.5 -238t184.5 -100q0 74 1 225.5t1 224.5q-250 70 -357.5 170.5t-107.5 243.5q0 158 125 272.5t340 124.5v125h104v-127q182 -14 308 -110.5t163 -274.5l-227 -61q-63 199 -244 221v-385q295 -88 405.5 -188.5t110.5 -260.5 q0 -193 -137 -308.5t-379 -123.5v-170h-106v174q-223 20 -358.5 149.5t-166.5 360.5zM403 1069q0 -66 49.5 -106.5t176.5 -79.5v356q-115 -4 -170.5 -52t-55.5 -118zM733 193q135 0 208 53t73 149q0 82 -58.5 129.5t-222.5 96.5v-428z" />
<glyph unicode="%" horiz-adv-x="1918" d="M133 1057q0 193 100.5 297t237.5 104t238.5 -105.5t101.5 -295.5q0 -195 -97.5 -311.5t-242.5 -116.5q-150 0 -244 108.5t-94 319.5zM309 1053q0 -119 41 -188.5t121 -69.5t122 69.5t42 188.5q0 236 -164 235q-162 0 -162 -235zM393 -74l1002 1669l133 -82l-1000 -1667z M1108 403q0 193 100.5 297.5t237.5 104.5t238.5 -105.5t101.5 -296.5q0 -195 -97.5 -311.5t-242.5 -116.5q-150 0 -244 109t-94 319zM1284 399q0 -119 41 -188.5t121 -69.5t122 70t42 188q0 236 -164 236q-162 0 -162 -236z" />
<glyph unicode="&#x26;" horiz-adv-x="1447" d="M113 385q0 168 87 276.5t197 165.5q-143 131 -143 297q0 152 109.5 246t265.5 94q178 0 292.5 -89t143.5 -259l-223 -53q-25 98 -69 145t-130 47q-78 0 -119 -38.5t-41 -98.5q0 -49 23.5 -83t81.5 -83l352 -301h4v195h205v-377l268 -231l-143 -170l-193 165 q-49 -102 -162.5 -183t-316.5 -81q-223 0 -356 113t-133 303zM338 416q0 -111 75.5 -169.5t204.5 -58.5q123 0 203.5 56.5t98.5 144.5l-371 318q-84 -31 -147.5 -109t-63.5 -182z" />
<glyph unicode="'" horiz-adv-x="507" d="M174 944v490h160v-490h-160z" />
<glyph unicode="(" horiz-adv-x="774" d="M154 633q0 160 37.5 315.5t87 258t116 199.5t101 135t65.5 69l121 -101q-166 -197 -251 -390t-85 -486q0 -272 95.5 -515t240.5 -423l-121 -98q-35 33 -90 110.5t-133 211.5t-131 325.5t-53 388.5z" />
<glyph unicode=")" horiz-adv-x="774" d="M72 -305q145 180 240.5 422.5t95.5 515.5q0 293 -85 486.5t-251 389.5l121 101q31 -31 65.5 -69t101 -135t115.5 -199.5t87 -258t38 -315.5q0 -197 -53 -388.5t-131 -325.5t-133 -211.5t-90 -110.5z" />
<glyph unicode="*" horiz-adv-x="1024" d="M113 1137l92 155l217 -127v269h178v-271l221 129l90 -157l-239 -138l184 -217l-135 -114l-211 247l-205 -249l-135 116l180 219z" />
<glyph unicode="+" horiz-adv-x="1191" d="M92 664v182h408v414h192v-414h408v-182h-408v-459h-192v459h-408z" />
<glyph unicode="," horiz-adv-x="632" d="M174 0v272h285v-239q0 -266 -285 -289v125q63 10 81.5 39t18.5 92h-100z" />
<glyph unicode="-" horiz-adv-x="858" d="M92 588v186h674v-186h-674z" />
<glyph unicode="." horiz-adv-x="632" d="M174 0v272h285v-272h-285z" />
<glyph unicode="/" horiz-adv-x="927" d="M20 -27l738 1557l149 -68l-737 -1552z" />
<glyph unicode="0" horiz-adv-x="1253" d="M82 737q0 356 149.5 541.5t395 185.5t395 -185t149.5 -542q0 -385 -146 -576.5t-398 -191.5t-398.5 191.5t-146.5 576.5zM324 739q0 -287 75.5 -416.5t227 -129.5t227.5 130t76 416q0 502 -303 502t-303 -502z" />
<glyph unicode="1" horiz-adv-x="958" d="M123 969v260l330 205h209v-1434h-230v1163z" />
<glyph unicode="2" horiz-adv-x="1198" d="M102 981q14 231 149.5 357t364.5 126q209 0 340 -119.5t131 -318.5q0 -92 -30.5 -166t-93 -130t-117.5 -91t-141 -80q-215 -111 -256 -145q-25 -20 -39 -43q-35 -53 -35 -140h721v-231h-983v180q0 193 88 307q82 102 321 224q197 104 246 143q90 74 90 188 q0 84 -67.5 145.5t-186.5 61.5q-248 0 -272 -297z" />
<glyph unicode="3" horiz-adv-x="1216" d="M72 469l233 49q23 -168 97.5 -251t211.5 -83q133 0 205 63.5t72 170.5q0 238 -291 237h-88v195h70q100 0 174.5 45t74.5 149q0 94 -60 149.5t-167 55.5q-203 0 -239 -235l-222 41q18 188 145.5 298.5t323.5 110.5q195 0 320 -106.5t125 -296.5q0 -113 -59.5 -182.5 t-129.5 -96.5v-6q102 -29 179 -124t77 -246q0 -197 -136 -317t-372 -120q-227 0 -371 125t-173 375z" />
<glyph unicode="4" horiz-adv-x="1187" d="M51 293v223l555 918h361v-918h170v-223h-170v-293h-230v293h-686zM287 516h450v739h-4z" />
<glyph unicode="5" horiz-adv-x="1224" d="M92 360l227 93q37 -121 115 -193t195 -72q129 0 211 77t82 218q0 139 -80 214t-205 75q-193 0 -299 -160l-193 95l125 727h750v-224h-567l-64 -366l2 -2q100 117 318 116q178 0 311 -135t133 -346q0 -236 -149.5 -372t-374.5 -136q-207 0 -343.5 107.5t-193.5 283.5z" />
<glyph unicode="6" horiz-adv-x="1286" d="M102 700q0 326 160 545t422 219q195 0 308.5 -105t146.5 -263l-219 -58q-57 211 -248 211q-139 0 -229.5 -130t-94.5 -355l2 -2q133 188 385 188q182 0 320.5 -129t138.5 -350q0 -231 -143.5 -366.5t-358.5 -135.5q-256 0 -423 184.5t-167 546.5zM395 481q0 -131 82 -212 t215 -81q131 0 204 80t73 209q0 127 -76 205t-209 78q-129 0 -209 -83t-80 -196z" />
<glyph unicode="7" horiz-adv-x="1021" d="M20 1212v222h951v-250l-643 -1184h-273l674 1208v4h-709z" />
<glyph unicode="8" horiz-adv-x="1181" d="M63 410q0 131 75 235.5t188 138.5v4q-188 84 -189 297q0 158 125 268.5t328 110.5t331 -110.5t128 -268.5q0 -213 -191 -297v-4q113 -37 186.5 -141t73.5 -233q0 -207 -146.5 -324t-382 -117t-381 117t-145.5 324zM301 430q0 -106 72.5 -173t216 -67t216.5 67t73 173 q0 109 -80 176.5t-209 67.5q-131 0 -210 -67.5t-79 -176.5zM362 1065q0 -82 62.5 -138.5t165 -56.5t166 56.5t63.5 138.5q0 84 -58.5 140.5t-171 56.5t-170 -56.5t-57.5 -140.5z" />
<glyph unicode="9" horiz-adv-x="1253" d="M82 969q0 223 145.5 359t354.5 136q242 0 400.5 -186t158.5 -567q0 -377 -139.5 -559.5t-383.5 -182.5q-209 0 -326.5 102.5t-156.5 254.5l215 75q57 -217 275 -217q139 0 216 117t72 358h-4q-14 -53 -104 -115.5t-246 -62.5q-190 0 -333.5 134.5t-143.5 353.5zM311 969 q0 -125 76 -202t205 -77q125 0 201.5 70.5t76.5 195.5q0 127 -78.5 210t-209.5 83q-117 0 -194 -78.5t-77 -201.5z" />
<glyph unicode=":" horiz-adv-x="632" d="M174 0v272h285v-272h-285zM174 805v280h285v-280h-285z" />
<glyph unicode=";" horiz-adv-x="632" d="M174 0v272h285v-239q0 -266 -285 -289v125q63 10 81.5 39t18.5 92h-100z" />
<glyph unicode="&#x3c;" horiz-adv-x="1085" d="M92 649l2 144l799 477l100 -162l-647 -387l647 -389l-102 -164z" />
<glyph unicode="=" horiz-adv-x="1173" d="M113 479v185h948v-185h-948zM113 844v184h948v-184h-948z" />
<glyph unicode="&#x3e;" horiz-adv-x="1085" d="M82 332l647 389l-647 387l100 162l799 -477l2 -144l-799 -481z" />
<glyph unicode="?" horiz-adv-x="1083" d="M51 979q4 217 132 351t374 134q195 0 325 -112.5t130 -282.5q0 -135 -53.5 -209t-157.5 -143q-14 -10 -44 -29.5t-42.5 -28t-34 -25t-30.5 -28.5t-20.5 -28.5t-15.5 -35t-4 -38.5v-64h-219v80q0 98 48 158.5t147 124.5q57 39 75.5 52t54.5 48t49 70t13 82q0 78 -55 132 t-172 54q-254 0 -270 -285zM371 0v272h282v-272h-282z" />
<glyph unicode="@" horiz-adv-x="1501" d="M92 711q0 328 181.5 538.5t492.5 210.5q303 0 473 -202.5t170 -526.5q0 -238 -73.5 -337t-221.5 -99q-133 0 -182 94h-4q-76 -94 -209 -94q-119 0 -197 67.5t-78 172.5q0 182 218 239l104 29q68 18 91.5 34.5t23.5 55.5q0 96 -123 96q-119 0 -146 -125l-145 37 q16 115 97 173.5t188 58.5q131 0 207.5 -68t76.5 -201v-352q0 -82 80 -82q154 0 154 297q0 262 -128 431t-376 169q-254 0 -393.5 -172t-139.5 -444.5t129.5 -438.5t382.5 -166q150 1 279 87l72 -119q-150 -104 -351 -105q-317 0 -485 206t-168 536zM600 545 q0 -104 143 -105q49 0 95.5 30t46.5 83v176h-4q-10 -27 -76 -43l-96 -27q-57 -14 -83 -40.5t-26 -73.5z" />
<glyph unicode="A" horiz-adv-x="1269" d="M20 0l517 1434h196l516 -1434h-239l-86 246h-580l-84 -246h-240zM416 453h436l-215 630h-4z" />
<glyph unicode="B" horiz-adv-x="1329" d="M174 0v1434h590q190 0 305 -110t115 -271q0 -182 -166 -277v-4q90 -41 154.5 -124t64.5 -210q0 -438 -526 -438h-537zM416 223h256q63 0 103 2t87 14.5t73 35t44 63.5t18 100q0 125 -78.5 166t-244.5 41h-258v-422zM416 846h315q102 0 157.5 46t55.5 134q0 90 -56.5 137 t-158.5 47h-313v-364z" />
<glyph unicode="C" horiz-adv-x="1359" d="M92 729q0 352 181.5 543.5t435.5 191.5q223 0 376.5 -140t180.5 -370l-250 -39q-53 326 -305 326q-158 0 -263.5 -127t-105.5 -389q0 -268 103.5 -400t265.5 -132h1q267 0 312 368l254 -51q-25 -242 -176.5 -391.5t-390.5 -149.5q-272 0 -445.5 190.5t-173.5 569.5z" />
<glyph unicode="D" horiz-adv-x="1345" d="M174 0v1434h469q123 0 231.5 -43t196.5 -127t140.5 -224.5t52.5 -320.5q0 -197 -53.5 -342.5t-145.5 -224t-199.5 -115.5t-234.5 -37h-457zM416 223h211q180 0 279.5 108.5t99.5 387.5q0 250 -99.5 370.5t-267.5 120.5h-223v-987z" />
<glyph unicode="E" horiz-adv-x="1189" d="M174 0v1434h893v-224h-651v-368h594v-215h-594v-404h651v-223h-893z" />
<glyph unicode="F" horiz-adv-x="1150" d="M174 0v1434h895v-224h-653v-424h594v-213h-594v-573h-242z" />
<glyph unicode="G" horiz-adv-x="1351" d="M92 737q0 342 181.5 534.5t435.5 192.5q215 0 364.5 -131t181.5 -352l-243 -39q-57 297 -303 297q-156 0 -261.5 -130t-105.5 -372q0 -272 103.5 -408t263.5 -136q150 0 235 87q82 85 82 237v7h-297v209h531v-172q0 -276 -152.5 -434t-398.5 -158q-270 0 -443.5 190.5 t-173.5 577.5z" />
<glyph unicode="H" horiz-adv-x="1372" d="M174 0v1434h242v-590h540v590h242v-1434h-242v635h-540v-635h-242z" />
<glyph unicode="I" horiz-adv-x="610" d="M184 0v1434h242v-1434h-242z" />
<glyph unicode="J" horiz-adv-x="962" d="M31 299l223 74q35 -180 158 -180q80 0 113.5 38.5t33.5 128.5v1074h240v-1053q0 -213 -103.5 -312.5t-283.5 -99.5q-156 0 -257 93.5t-124 236.5z" />
<glyph unicode="K" horiz-adv-x="1273" d="M154 0v1434h241v-639h4l535 639h293l-531 -631l588 -803h-291l-465 629h-4l-129 -164v-465h-241z" />
<glyph unicode="L" horiz-adv-x="1058" d="M174 0v1434h242v-1211h602v-223h-844z" />
<glyph unicode="M" horiz-adv-x="1767" d="M174 0v1434h281l430 -1000h4l426 1000h278v-1434h-241v985h-4l-433 -985h-61l-432 985h-6v-985h-242z" />
<glyph unicode="N" horiz-adv-x="1415" d="M174 0v1434h252l569 -1014h4v1014h242v-1434h-246l-575 1014h-4v-1014h-242z" />
<glyph unicode="O" d="M92 729q0 350 182.5 542.5t436.5 192.5q252 0 433 -193.5t181 -543.5q0 -199 -51 -349.5t-139 -237.5t-194.5 -129t-229.5 -42t-230.5 43t-196.5 130t-140.5 237.5t-51.5 349.5zM344 729q0 -274 102.5 -405t264 -131t263 130t101.5 404q0 250 -104.5 381t-259.5 131 q-158 0 -262.5 -130t-104.5 -380z" />
<glyph unicode="P" horiz-adv-x="1255" d="M174 0v1434h571q219 0 354.5 -121t135.5 -332q0 -209 -131 -329t-356 -120h-332v-532h-242zM416 756h325q106 0 176 60.5t70 164.5q0 119 -71.5 174t-176.5 55h-323v-454z" />
<glyph unicode="Q" d="M92 729q0 350 182.5 542.5t436.5 192.5q252 0 433 -193.5t181 -543.5q0 -307 -135 -502l135 -133l-125 -125l-129 127q-156 -125 -360 -125q-123 0 -230.5 43t-196.5 130t-140.5 237.5t-51.5 349.5zM344 729q0 -274 102.5 -405t264.5 -131q125 0 204 57l-315 315l125 125 l295 -295q55 127 55 332q0 250 -104.5 381t-259.5 131q-158 0 -262.5 -130t-104.5 -380z" />
<glyph unicode="R" horiz-adv-x="1306" d="M174 0v1434h571q221 0 355.5 -118t134.5 -329q0 -164 -86 -270.5t-234 -145.5l310 -571h-269l-290 551h-250v-551h-242zM416 760h311q264 0 264 227t-264 227h-311v-454z" />
<glyph unicode="S" horiz-adv-x="1236" d="M82 483l254 56q29 -182 97.5 -264t225.5 -82q131 0 205 52t74 142t-68.5 141.5t-310.5 124.5q-225 70 -322.5 170.5t-97.5 243.5q0 164 127 280.5t344 116.5q203 0 346.5 -99t176.5 -294l-236 -57q-29 106 -94.5 165.5t-192.5 59.5q-117 0 -175 -47t-58 -123 q0 -70 63.5 -110.5t298.5 -120.5q254 -86 345.5 -180.5t91.5 -256.5q0 -186 -140.5 -309t-378.5 -123q-248 0 -395 130t-180 384z" />
<glyph unicode="T" horiz-adv-x="1157" d="M31 1210v224h1095v-224h-426v-1210h-241v1210h-428z" />
<glyph unicode="U" horiz-adv-x="1345" d="M143 467v967h242v-955q0 -137 72.5 -211.5t214.5 -74.5q143 0 217 74.5t74 207.5v959h239v-967q0 -231 -144.5 -364.5t-385.5 -133.5q-240 0 -384.5 133.5t-144.5 364.5z" />
<glyph unicode="V" horiz-adv-x="1296" d="M20 1434h254l377 -1082h8l365 1082h252l-508 -1434h-233z" />
<glyph unicode="W" horiz-adv-x="1843" d="M72 1434h245l195 -1010h4l340 1010h137l338 -1010h4l195 1010h242l-275 -1434h-252l-323 983h-4l-318 -983h-254z" />
<glyph unicode="X" horiz-adv-x="1230" d="M31 0l446 764l-393 670h274l279 -519h6l275 519h266l-410 -711l426 -723h-274l-312 571h-4l-313 -571h-266z" />
<glyph unicode="Y" horiz-adv-x="1196" d="M10 1434h258l328 -611h4l330 611h256l-469 -830v-604h-238v604z" />
<glyph unicode="Z" horiz-adv-x="1214" d="M92 0v219l731 979v4h-698v232h997v-220l-735 -981v-4h729v-229h-1024z" />
<glyph unicode="[" horiz-adv-x="741" d="M154 -373v1868h516v-156h-348v-1556h348v-156h-516z" />
<glyph unicode="\" horiz-adv-x="927" d="M20 1462l150 68l737 -1557l-149 -63z" />
<glyph unicode="]" horiz-adv-x="741" d="M133 -217h348v1556h-348v156h516v-1868h-516v156z" />
<glyph unicode="^" horiz-adv-x="1136" d="M133 666l354 768h162l355 -768h-189l-246 561l-245 -561h-191z" />
<glyph unicode="_" horiz-adv-x="1253" d="M113 -143h1028v-170h-1028v170z" />
<glyph unicode="`" horiz-adv-x="604" d="M92 1473h256l164 -254h-197z" />
<glyph unicode="a" horiz-adv-x="1107" d="M82 287q0 139 84 213.5t285 124.5q180 45 235 74.5t55 86.5q0 55 -50 92t-148 37q-113 0 -165 -51t-77 -139l-199 76q35 139 145.5 227t289.5 88q197 0 317.5 -100.5t120.5 -313.5v-702h-199v109h-4q-8 -12 -24.5 -30t-52.5 -45.5t-96 -46t-134 -18.5q-190 0 -286.5 91.5 t-96.5 226.5zM307 303q0 -131 178 -131q131 0 198 53.5t67 128.5v217h-5q-8 -16 -21 -28.5t-69.5 -34.5t-156.5 -49q-115 -29 -153 -66t-38 -90z" />
<glyph unicode="b" horiz-adv-x="1224" d="M154 0v1495h233v-514h4q111 135 285 135q203 0 335 -157.5t132 -415.5q0 -262 -128 -418t-343 -156q-176 0 -297 135h-4v-104h-217zM387 416q0 -98 68.5 -167t181.5 -69q131 0 201.5 93.5t70.5 269.5t-70.5 269t-201.5 93q-115 0 -182.5 -71.5t-67.5 -171.5v-246z" />
<glyph unicode="c" horiz-adv-x="1116" d="M82 543q0 260 142.5 416.5t359.5 156.5q186 0 307 -111.5t141 -289.5l-219 -37q-35 227 -227 227q-125 0 -199 -95t-74 -267t72 -267.5t201 -95.5q190 0 227 252l231 -49q-33 -197 -149.5 -305.5t-308.5 -108.5q-221 0 -362.5 151.5t-141.5 422.5z" />
<glyph unicode="d" horiz-adv-x="1224" d="M82 543q0 262 138 417.5t331 155.5q172 0 283 -135h4v514h233v-1495h-217v104h-4q-16 -23 -42 -46t-98.5 -56t-156.5 -33q-215 0 -343 156t-128 418zM315 543q0 -176 72 -269.5t203 -93.5q111 0 179.5 69t68.5 167v246q0 100 -66.5 171.5t-181.5 71.5q-131 0 -203 -93 t-72 -269z" />
<glyph unicode="e" horiz-adv-x="1157" d="M82 543q0 260 141.5 416.5t358.5 156.5t355 -155.5t138 -417.5v-70h-758q4 -135 75 -216t196 -81q59 0 106 16.5t83 49t54 57t43 61.5l168 -137q-158 -254 -450 -254q-225 0 -367.5 157t-142.5 417zM319 649h529q-6 115 -73.5 187.5t-192.5 72.5q-117 0 -187 -78 t-76 -182z" />
<glyph unicode="f" horiz-adv-x="712" d="M41 885v200h168v158q0 139 68.5 195.5t199.5 56.5h201v-207h-154q-53 0 -73.5 -20.5t-20.5 -77.5v-105h272v-200h-266v-885h-231v885h-164z" />
<glyph unicode="g" horiz-adv-x="1230" d="M82 543q0 262 142.5 417.5t340.5 155.5q190 0 293 -135h4v104h225v-1091q0 -236 -132 -361t-345 -125q-168 0 -282.5 77t-165.5 202l180 115q43 -94 104.5 -141.5t163.5 -47.5q113 0 178.5 61.5t65.5 186.5v139h-4q-37 -53 -110.5 -92t-170.5 -39q-211 0 -349 153.5 t-138 420.5zM315 543q0 -174 78 -268.5t211 -94.5q111 0 180.5 67t69.5 161v262q0 96 -68.5 165.5t-181.5 69.5q-131 0 -210 -94t-79 -268z" />
<glyph unicode="h" horiz-adv-x="1216" d="M154 0v1495h233v-516h4q37 55 121 96t170 41q174 0 282.5 -106.5t108.5 -290.5v-719h-231v664q0 106 -57.5 171.5t-166.5 65.5q-104 0 -167.5 -61.5t-63.5 -157.5v-682h-233z" />
<glyph unicode="i" horiz-adv-x="548" d="M154 1264v231h241v-231h-241zM158 0v1085h233v-1085h-233z" />
<glyph unicode="j" horiz-adv-x="548" d="M31 -156h45q82 0 82 99v1142h233v-1200q0 -284 -260 -284h-2h-98v243zM154 1264v231h241v-231h-241z" />
<glyph unicode="k" horiz-adv-x="1155" d="M154 0v1495h233v-874h4l416 464h297l-393 -436l434 -649h-264l-344 514h-5l-145 -160v-354h-233z" />
<glyph unicode="l" horiz-adv-x="548" d="M154 0v1495h241v-1495h-241z" />
<glyph unicode="m" horiz-adv-x="1761" d="M154 0v1085h213v-104h4q39 59 111.5 97t156.5 38q92 0 166 -42t113 -107h4q41 63 118.5 106t171.5 43q186 0 296 -102.5t110 -272.5v-741h-215v688q0 213 -201 213q-98 0 -150.5 -54t-52.5 -145v-702h-217v688q0 98 -50 155.5t-148 57.5q-100 0 -151.5 -55t-51.5 -144 v-702h-227z" />
<glyph unicode="n" horiz-adv-x="1206" d="M154 0v1085h225v-104h4q45 57 125 96t168 39q180 0 283.5 -107.5t103.5 -297.5v-711h-232v649q0 252 -210 252q-106 0 -170 -61.5t-64 -165.5v-674h-233z" />
<glyph unicode="o" horiz-adv-x="1167" d="M82 543q0 266 146.5 419.5t357.5 153.5t355 -153.5t144 -419.5q0 -270 -140 -422t-359 -152t-361.5 151.5t-142.5 422.5zM313 543q0 -176 75 -269.5t198 -93.5q121 0 195.5 95.5t74.5 267.5t-74.5 267t-195.5 95q-123 0 -198 -94t-75 -268z" />
<glyph unicode="p" horiz-adv-x="1241" d="M154 -461v1546h223v-104h4q104 135 299 135q197 0 338 -155.5t141 -417.5q0 -264 -136 -419t-341 -155q-186 0 -291 135h-4v-565h-233zM387 408q0 -94 69.5 -161t180.5 -67q133 0 211 94.5t78 268.5t-79 268t-210 94q-113 0 -181.5 -69.5t-68.5 -165.5v-262z" />
<glyph unicode="q" horiz-adv-x="1241" d="M82 543q0 262 141.5 417.5t337.5 155.5q195 0 299 -135h4v104h223v-1546h-233v565h-4l-6 -6q-6 -8 -10.5 -13t-14.5 -15.5t-20.5 -18.5t-25.5 -19.5t-30.5 -19.5t-36 -16t-43 -14.5t-49 -9.5t-55.5 -3q-205 0 -341 155t-136 419zM315 543q0 -174 78 -268.5t211 -94.5 q111 0 180.5 67t69.5 161v262q0 96 -68.5 165.5t-181.5 69.5q-131 0 -210 -94t-79 -268z" />
<glyph unicode="r" horiz-adv-x="741" d="M154 0v1085h221v-114h4q33 61 94.5 98t130.5 37q47 0 96 -21l-36 -227q-59 16 -86 16q-190 0 -191 -270v-604h-233z" />
<glyph unicode="s" horiz-adv-x="1058" d="M72 362l213 52q29 -248 262 -248q109 0 169 38t60 101q0 61 -55 90t-244 82q-190 53 -277 126t-87 192q0 131 106.5 226t292.5 95q358 0 444 -317l-196 -58q-61 180 -248 181q-88 0 -137 -35t-49 -82q0 -53 54 -81t265 -87q197 -55 269.5 -133t72.5 -203 q0 -129 -109.5 -230.5t-322.5 -101.5q-223 0 -341.5 113.5t-141.5 279.5z" />
<glyph unicode="t" horiz-adv-x="776" d="M41 885v200h170v267h221v-267h273v-200h-271v-498q0 -90 27.5 -126t113.5 -36h87v-225h-105q-197 0 -274.5 87t-77.5 275v523h-164z" />
<glyph unicode="u" horiz-adv-x="1177" d="M143 383v702h234v-675q0 -121 44 -169t146.5 -48t163 57t60.5 176v659h233v-1085h-225v104h-4q-96 -135 -281 -135q-186 0 -278.5 108.5t-92.5 305.5z" />
<glyph unicode="v" horiz-adv-x="1128" d="M31 1085h241l291 -749h4l291 749h240l-436 -1085h-195z" />
<glyph unicode="w" horiz-adv-x="1644" d="M72 1085h229l154 -755h4l258 755h211l241 -753h5l174 753h225l-260 -1085h-226l-264 815h-4l-284 -815h-224z" />
<glyph unicode="x" horiz-adv-x="1103" d="M31 0l375 559l-353 526h246l252 -383h4l250 383h246l-351 -526l373 -559h-252l-268 408h-4l-266 -408h-252z" />
<glyph unicode="y" horiz-adv-x="1101" d="M20 1085h246l285 -747h4l285 747h241l-618 -1546h-225l204 510z" />
<glyph unicode="z" horiz-adv-x="1110" d="M92 0v193l613 673v4h-584v215h883v-188l-603 -670v-4h617v-223h-926z" />
<glyph unicode="{" horiz-adv-x="792" d="M92 492v182h58q59 0 83.5 29.5t24.5 95.5v377q0 182 79 250.5t236 68.5h107v-164h-125q-70 0 -99.5 -42t-29.5 -142v-354q0 -49 -14.5 -89t-35 -61.5t-42 -36t-34.5 -18.5t-17 -4l4 -2q6 -2 14 -6.5t19.5 -9.5t22.5 -14t23.5 -20.5t22.5 -28t18.5 -34.5t13.5 -42t5 -50 v-402q0 -100 30.5 -142t106.5 -42h117v-164h-107q-158 0 -236.5 69t-78.5 251v426q0 66 -24.5 92.5t-83.5 26.5h-58z" />
<glyph unicode="|" horiz-adv-x="548" d="M195 -614v2201h159v-2201h-159z" />
<glyph unicode="}" horiz-adv-x="792" d="M72 -209h116q76 0 107 42t31 142v402q0 27 5 50.5t13 41.5t18.5 34.5t22.5 28t23.5 20.5t22.5 14t19.5 9.5t12.5 6.5l6 2q-4 0 -17.5 4t-35 18.5t-42 36t-34.5 61t-14 89.5v354q0 100 -30 142t-99 42h-125v164h106q158 0 237 -68.5t79 -250.5v-377q0 -66 24.5 -95.5 t83.5 -29.5h57v-182h-57q-59 0 -83.5 -26.5t-24.5 -92.5v-426q0 -182 -79 -251t-237 -69h-106v164z" />
<glyph unicode="~" horiz-adv-x="1230" d="M92 625q23 133 99.5 227t197.5 94q86 0 171 -45t158 -89t128 -44q47 0 81 34t46 65.5t24 82.5l142 -45q-23 -133 -99.5 -227t-197.5 -94q-68 0 -137.5 27.5t-116.5 61.5t-103.5 61.5t-101.5 27.5q-47 0 -80 -34t-45 -65.5t-25 -82.5z" />
<glyph unicode="&#xa1;" horiz-adv-x="673" d="M184 813v272h285v-272h-285zM205 -348v977h241v-977h-241z" />
<glyph unicode="&#xa2;" horiz-adv-x="1146" d="M102 543q0 248 129 401.5t332 169.5v178h72v-178q172 -8 284.5 -118.5t133.5 -280.5l-219 -37q-33 209 -199 225v-721q162 19 199 250l231 -49q-31 -188 -141.5 -297t-288.5 -117v-194h-72v196q-205 14 -333 165t-128 407zM334 543q0 -158 59.5 -252t169.5 -109v719 q-106 -16 -167.5 -109t-61.5 -249z" />
<glyph unicode="&#xa3;" horiz-adv-x="1325" d="M174 0v223h68q106 0 106 105v301h-174v166h174v223q0 227 112.5 336.5t305.5 109.5q182 0 291.5 -104.5t134.5 -300.5l-225 -45q-23 125 -64 180t-133 55q-182 0 -182 -225v-229h373v-166h-373v-406h602v-223h-1016z" />
<glyph unicode="&#xa4;" horiz-adv-x="1349" d="M154 233l133 134q-96 131 -97 307q0 170 97 305l-133 133l82 82l129 -131q137 117 309 117q180 0 313 -113l127 127l82 -82l-131 -131q94 -137 94 -307q0 -178 -96 -309l133 -132l-82 -81l-131 129q-131 -104 -309 -105q-182 0 -307 107l-131 -131zM428 672 q0 -152 71 -217.5t177 -65.5q104 0 175 65.5t71 217.5q0 156 -71 223.5t-175 67.5q-106 0 -177 -68t-71 -223z" />
<glyph unicode="&#xa5;" horiz-adv-x="1366" d="M92 1434h264l322 -598h4l326 598h266l-363 -635h306v-189h-414v-166h414v-190h-416v-254h-240v254h-414v190h414v166h-414v189h304z" />
<glyph unicode="&#xa6;" horiz-adv-x="583" d="M195 -268v669h194v-669h-194zM195 657v670h194v-670h-194z" />
<glyph unicode="&#xa7;" horiz-adv-x="1316" d="M115 627q-2 84 48 159.5t132 118.5q-57 72 -57 193q0 164 113.5 265t289.5 101q182 0 302 -99t144 -288l-221 -45q-33 217 -217 217q-88 0 -132 -47t-44 -108q0 -63 38 -104.5t120 -74.5l340 -137q229 -92 233 -299q0 -84 -51 -159.5t-131 -118.5q59 -72 59 -189 q0 -164 -113.5 -265t-289.5 -101q-182 0 -302 99t-145 288l222 45q33 -217 217 -217q88 0 132 47t44 108.5t-38 101.5t-122 75l-340 135q-231 92 -231 299zM354 633q1 -93 148 -148l280 -108q59 -23 95 -49q86 63 86 147q0 92 -146 148l-282 108q-57 23 -93 47 q-88 -61 -88 -145z" />
<glyph unicode="&#xa8;" horiz-adv-x="856" d="M113 1229v219h229v-219h-229zM516 1229v219h227v-219h-227z" />
<glyph unicode="&#xa9;" horiz-adv-x="1447" d="M92 725q0 268 181.5 449.5t449.5 181.5t450.5 -181.5t182.5 -449.5t-182.5 -450.5t-450.5 -182.5t-449.5 182.5t-181.5 450.5zM221 725q0 -215 144.5 -363.5t357.5 -148.5t358.5 148.5t145.5 363.5q0 213 -145.5 360.5t-358.5 147.5t-357.5 -147.5t-144.5 -360.5z M408 721q0 182 93 286.5t232 104.5q113 0 188.5 -72.5t94.5 -195.5l-160 -29q-10 61 -41 102t-82 41q-68 0 -111.5 -61t-43.5 -176q0 -127 44 -182.5t111 -55.5q104 0 127 162l162 -41q-20 -131 -97 -202.5t-192 -71.5q-141 0 -233 103.5t-92 287.5z" />
<glyph unicode="&#xaa;" horiz-adv-x="722" d="M82 958q0 84 48 125t169 72q109 27 137.5 43t28.5 45q0 31 -26.5 52.5t-80.5 21.5q-106 0 -141 -107l-127 52q25 80 91.5 131t172.5 51q119 0 193 -61.5t74 -190.5v-406h-132v62h-2q-6 -8 -17 -21.5t-55 -36t-102 -22.5q-117 0 -174 55.5t-57 134.5zM233 969 q0 -66 93 -66q74 0 108.5 27.5t34.5 66.5v113h-2q-14 -28 -137 -59q-96 -25 -97 -82z" />
<glyph unicode="&#xab;" horiz-adv-x="1175" d="M174 575l221 381h215l-223 -381l227 -380h-215zM582 575l221 381h215l-223 -381l227 -380h-215z" />
<glyph unicode="&#xac;" horiz-adv-x="1243" d="M113 709v215h977v-549h-226v334h-751z" />
<glyph unicode="&#xad;" horiz-adv-x="858" d="M92 588v186h674v-186h-674z" />
<glyph unicode="&#xae;" horiz-adv-x="903" d="M92 1085.5q0 153.5 103.5 257t257.5 103.5q152 0 255 -103.5t103 -257t-103 -257t-255 -103.5q-154 0 -257.5 103.5t-103.5 257zM160 1085.5q0 -124.5 84 -209.5t209 -85t207.5 85t82.5 209.5t-82.5 208.5t-207.5 84t-209 -84t-84 -208.5zM324 868v430h143 q72 0 110.5 -34.5t38.5 -98.5q0 -96 -96 -127l94 -170h-84l-86 166h-43v-166h-77zM401 1102h60q80 0 80 63.5t-80 63.5h-60v-127z" />
<glyph unicode="&#xaf;" horiz-adv-x="815" d="M113 1270v151h589v-151h-589z" />
<glyph unicode="&#xb0;" horiz-adv-x="794" d="M102 1286q0 127 86 217t209 90q127 0 211 -88t84 -219q0 -133 -83 -218t-212 -85t-212 87t-83 216zM266 1286q0 -151 131 -151q129 0 129 151q0 156 -129 156q-131 0 -131 -156z" />
<glyph unicode="&#xb1;" horiz-adv-x="1214" d="M92 856v184h418v322h195v-322h417v-184h-417v-364h-195v364h-418zM139 176v184h944v-184h-944z" />
<glyph unicode="&#xb2;" horiz-adv-x="718" d="M51 1559q10 139 93 216.5t227 77.5q125 0 208 -71.5t83 -198.5q0 -100 -61.5 -164.5t-168.5 -113.5q-150 -78 -172 -111q-14 -20 -14 -55h422v-170h-607v127q0 111 58 180q47 57 192 129q127 66 156 98q35 37 35 90q0 47 -37 79t-96 32q-139 0 -158 -166z" />
<glyph unicode="&#xb3;" horiz-adv-x="776" d="M31 1255l162 37q25 -184 172 -184q72 0 112.5 33t40.5 92q0 125 -147 125h-68v131h49q123 0 123 102q0 113 -119 113q-109 0 -129 -129l-155 29q12 117 90 183t200 66q117 0 194 -63.5t77 -171.5q0 -70 -35 -115t-72 -59v-4q53 -14 100.5 -68.5t47.5 -150.5 q0 -113 -81 -188t-228 -75q-139 0 -227.5 76t-106.5 221z" />
<glyph unicode="&#xb4;" horiz-adv-x="604" d="M92 1219l164 254h256l-223 -254h-197z" />
<glyph unicode="&#xb5;" horiz-adv-x="1210" d="M164 -461v1546h233v-647q0 -121 57.5 -183t166.5 -62q104 0 158.5 58t54.5 163v671h233v-1085h-227v104h-4q-27 -51 -90.5 -93t-149.5 -42q-135 0 -203 74h-2v-504h-227z" />
<glyph unicode="&#xb6;" horiz-adv-x="1126" d="M10 971q0 158 96.5 249t241.5 91h625v-1590h-178v1389h-275v-1389h-180v910q-139 4 -234.5 98t-95.5 242z" />
<glyph unicode="&#xb7;" horiz-adv-x="632" d="M174 621v272h285v-272h-285z" />
<glyph unicode="&#xb8;" horiz-adv-x="550" d="M31 -346l80 96q68 -66 149 -65q100 0 100 73q0 29 -27.5 45.5t-62.5 16.5q-29 0 -54.5 -8.5t-37.5 -16.5l-12 -6l-90 49l96 162h113l-76 -119l2 -2q45 31 113 31q66 0 120 -42t54 -114q0 -92 -62.5 -144t-163.5 -52q-145 0 -241 96z" />
<glyph unicode="&#xb9;" horiz-adv-x="536" d="M31 1534v184l200 125h152v-874h-164v682z" />
<glyph unicode="&#xba;" horiz-adv-x="716" d="M61 1108q0 158 86 248t211 90t211 -90t86 -248q0 -160 -84 -250t-213 -90t-213 90t-84 250zM211 1108q0 -96 40 -147.5t107.5 -51.5t106.5 52.5t39 146.5q0 92 -40 144.5t-105.5 52.5t-106.5 -51.5t-41 -145.5z" />
<glyph unicode="&#xbb;" horiz-adv-x="1175" d="M143 195l228 380l-224 381h215l222 -381l-226 -380h-215zM551 195l227 380l-223 381h215l221 -381l-225 -380h-215z" />
<glyph unicode="&#xbc;" horiz-adv-x="1679" d="M41 1124v185l201 125h151v-875h-164v682zM248 -74l1001 1669l133 -82l-999 -1667zM952 174v154l332 546h236v-546h98v-154h-98v-174h-168v174h-400zM1108 328h246v397h-4z" />
<glyph unicode="&#xbd;" horiz-adv-x="1789" d="M41 1122v185l201 125h151v-875h-164v682zM248 -76l1001 1669l133 -82l-999 -1667zM1051 590q10 139 93 217t226 78q125 0 208 -72t83 -199q0 -100 -61.5 -164.5t-167.5 -113.5q-150 -78 -172 -111q-14 -20 -15 -55h422v-170h-606v127q0 111 57 180q47 57 193 129 q127 66 155 99q35 37 35 90q0 47 -37 78.5t-96 31.5q-139 0 -158 -166z" />
<glyph unicode="&#xbe;" horiz-adv-x="1820" d="M61 846l162 37q25 -184 172 -185q72 0 113 33t41 92q0 125 -148 125h-67v131h49q123 0 123 103q0 113 -119 112q-109 0 -129 -129l-156 29q12 117 90 183.5t201 66.5q117 0 194 -63.5t77 -172.5q0 -70 -35 -114.5t-72 -59.5v-4q53 -14 100.5 -68.5t47.5 -150.5 q0 -113 -81 -187.5t-229 -74.5q-139 0 -227.5 76t-106.5 221zM416 -74l1001 1669l133 -82l-999 -1667zM1094 174v154l331 546h236v-546h98v-154h-98v-174h-168v174h-399zM1249 328h246v397h-4z" />
<glyph unicode="&#xbf;" horiz-adv-x="1083" d="M61 16q0 135 53.5 209t157.5 144q14 10 44 29.5t42.5 27.5t34 24.5t30.5 29t20.5 28.5t15.5 34.5t4 39.5v63h219v-80q0 -98 -48 -158.5t-147 -123.5q-57 -39 -75.5 -52.5t-54 -48.5t-49 -69.5t-13.5 -81.5q0 -78 55.5 -132.5t171.5 -54.5q254 0 271 285l229 -23 q-4 -217 -132 -351t-374 -134q-195 0 -325 112.5t-130 282.5zM420 813v272h282v-272h-282z" />
<glyph unicode="&#xc0;" horiz-adv-x="1269" d="M20 0l517 1434h196l516 -1434h-239l-86 246h-580l-84 -246h-240zM309 1821h256l164 -254h-197zM416 453h436l-215 630h-4z" />
<glyph unicode="&#xc1;" horiz-adv-x="1269" d="M20 0l517 1434h196l516 -1434h-239l-86 246h-580l-84 -246h-240zM416 453h436l-215 630h-4zM555 1567l164 254h258l-225 -254h-197z" />
<glyph unicode="&#xc2;" horiz-adv-x="1269" d="M20 0l517 1434h196l516 -1434h-239l-86 246h-580l-84 -246h-240zM381 1628l137 176h258l139 -176l-127 -98l-141 180l-143 -180zM416 453h436l-215 630h-4z" />
<glyph unicode="&#xc3;" horiz-adv-x="1269" d="M20 0l517 1434h196l516 -1434h-239l-86 246h-580l-84 -246h-240zM332 1567q35 213 198 213q68 0 145 -39t103 -39q57 0 74 67h121q-35 -213 -199 -213q-68 0 -145.5 39t-102.5 39q-57 1 -73 -67h-121zM416 453h436l-215 630h-4z" />
<glyph unicode="&#xc4;" horiz-adv-x="1269" d="M20 0l517 1434h196l516 -1434h-239l-86 246h-580l-84 -246h-240zM332 1567v219h229v-219h-229zM416 453h436l-215 630h-4zM735 1567v219h228v-219h-228z" />
<glyph unicode="&#xc5;" horiz-adv-x="1269" d="M20 0l512 1423q-94 59 -94 185q0 90 60.5 153.5t148.5 63.5q92 0 151.5 -62.5t59.5 -154.5q0 -143 -117 -197l508 -1411h-239l-86 246h-580l-84 -246h-240zM416 453h436l-215 630h-4zM561 1610q0 -51 25.5 -80t60.5 -29t62.5 29t27.5 80t-26.5 78.5t-63.5 27.5 q-35 0 -60.5 -27.5t-25.5 -78.5z" />
<glyph unicode="&#xc6;" horiz-adv-x="1777" d="M20 0l539 1434h1096v-224h-574v-368h516v-209h-516v-410h574v-223h-815v268h-471l-101 -268h-248zM444 481h396v729h-129z" />
<glyph unicode="&#xc7;" horiz-adv-x="1359" d="M92 729q0 352 181.5 543.5t435.5 191.5q223 0 376.5 -140t180.5 -370l-250 -39q-53 326 -305 326q-158 0 -263.5 -127t-105.5 -389q0 -268 103.5 -400t265.5 -132q268 0 313 368l254 -51q-23 -227 -160 -373.5t-354 -165.5l-57 -90l2 -2q45 31 112 31q66 0 120 -42 t54 -114q0 -92 -62.5 -144t-162.5 -52q-146 0 -242 96l80 96q68 -66 150 -65q100 0 100 73q0 29 -27.5 45.5t-62.5 16.5q-29 0 -54.5 -8.5t-37.5 -16.5l-12 -6l-91 49l80 135q-250 20 -405.5 209t-155.5 547z" />
<glyph unicode="&#xc8;" horiz-adv-x="1189" d="M174 0v1434h893v-224h-651v-368h594v-215h-594v-404h651v-223h-893zM322 1821h256l163 -254h-196z" />
<glyph unicode="&#xc9;" horiz-adv-x="1189" d="M174 0v1434h893v-224h-651v-368h594v-215h-594v-404h651v-223h-893zM485 1567l164 254h258l-225 -254h-197z" />
<glyph unicode="&#xca;" horiz-adv-x="1189" d="M174 0v1434h893v-224h-651v-368h594v-215h-594v-404h651v-223h-893zM354 1628l138 176h258l139 -176l-127 -98l-141 180l-144 -180z" />
<glyph unicode="&#xcb;" horiz-adv-x="1189" d="M174 0v1434h893v-224h-651v-368h594v-215h-594v-404h651v-223h-893zM295 1567v219h229v-219h-229zM698 1567v219h228v-219h-228z" />
<glyph unicode="&#xcc;" horiz-adv-x="610" d="M-37 1821h256l164 -254h-197zM184 0v1434h242v-1434h-242z" />
<glyph unicode="&#xcd;" horiz-adv-x="610" d="M168 1567l164 254h258l-225 -254h-197zM184 0v1434h242v-1434h-242z" />
<glyph unicode="&#xce;" horiz-adv-x="610" d="M12 1628l138 176h258l139 -176l-127 -98l-141 180l-144 -180zM184 0v1434h242v-1434h-242z" />
<glyph unicode="&#xcf;" horiz-adv-x="610" d="M-37 1567v219h230v-219h-230zM184 0v1434h242v-1434h-242zM367 1567v219h227v-219h-227z" />
<glyph unicode="&#xd0;" horiz-adv-x="1384" d="M61 645v199h142v590h479q260 0 440.5 -182.5t180.5 -532.5q0 -199 -52.5 -343.5t-145.5 -223t-200.5 -115.5t-234.5 -37h-467v645h-142zM444 223h222q178 0 278 108.5t100 387.5q0 252 -99 371.5t-267 119.5h-234v-366h310v-199h-310v-422z" />
<glyph unicode="&#xd1;" horiz-adv-x="1415" d="M174 0v1434h252l569 -1014h4v1014h242v-1434h-246l-575 1014h-4v-1014h-242zM395 1567q35 213 199 213q68 0 144.5 -39t103.5 -39q57 0 73 67h121q-35 -213 -198 -213q-68 0 -146 39t-102 39q-58 1 -74 -67h-121z" />
<glyph unicode="&#xd2;" d="M92 729q0 350 182.5 542.5t436.5 192.5q252 0 433 -193.5t181 -543.5q0 -199 -51 -349.5t-139 -237.5t-194.5 -129t-229.5 -42t-230.5 43t-196.5 130t-140.5 237.5t-51.5 349.5zM344 729q0 -274 102.5 -405t264 -131t263 130t101.5 404q0 250 -104.5 381t-259.5 131 q-158 0 -262.5 -130t-104.5 -380zM397 1821h256l164 -254h-196z" />
<glyph unicode="&#xd3;" d="M92 729q0 350 182.5 542.5t436.5 192.5q252 0 433 -193.5t181 -543.5q0 -199 -51 -349.5t-139 -237.5t-194.5 -129t-229.5 -42t-230.5 43t-196.5 130t-140.5 237.5t-51.5 349.5zM344 729q0 -274 102.5 -405t264 -131t263 130t101.5 404q0 250 -104.5 381t-259.5 131 q-158 0 -262.5 -130t-104.5 -380zM604 1567l164 254h258l-225 -254h-197z" />
<glyph unicode="&#xd4;" d="M92 729q0 350 182.5 542.5t436.5 192.5q252 0 433 -193.5t181 -543.5q0 -199 -51 -349.5t-139 -237.5t-194.5 -129t-229.5 -42t-230.5 43t-196.5 130t-140.5 237.5t-51.5 349.5zM344 729q0 -274 102.5 -405t264 -131t263 130t101.5 404q0 250 -104.5 381t-259.5 131 q-158 0 -262.5 -130t-104.5 -380zM457 1628l137 176h258l139 -176l-127 -98l-141 180l-143 -180z" />
<glyph unicode="&#xd5;" d="M92 729q0 350 182.5 542.5t436.5 192.5q252 0 433 -193.5t181 -543.5q0 -199 -51 -349.5t-139 -237.5t-194.5 -129t-229.5 -42t-230.5 43t-196.5 130t-140.5 237.5t-51.5 349.5zM344 729q0 -274 102.5 -405t264 -131t263 130t101.5 404q0 250 -104.5 381t-259.5 131 q-158 0 -262.5 -130t-104.5 -380zM408 1567q35 213 198 213q68 0 144.5 -39t103.5 -39q57 0 74 67h121q-35 -213 -199 -213q-68 0 -145.5 39t-102.5 39q-58 1 -74 -67h-120z" />
<glyph unicode="&#xd6;" d="M92 729q0 350 182.5 542.5t436.5 192.5q252 0 433 -193.5t181 -543.5q0 -199 -51 -349.5t-139 -237.5t-194.5 -129t-229.5 -42t-230.5 43t-196.5 130t-140.5 237.5t-51.5 349.5zM344 729q0 -274 102.5 -405t264 -131t263 130t101.5 404q0 250 -104.5 381t-259.5 131 q-158 0 -262.5 -130t-104.5 -380zM397 1567v219h230v-219h-230zM801 1567v219h227v-219h-227z" />
<glyph unicode="&#xd7;" horiz-adv-x="1110" d="M92 360l332 330l-311 311l133 134l311 -312l309 310l131 -134l-309 -309l330 -328l-131 -133l-330 330l-332 -332z" />
<glyph unicode="&#xd8;" d="M92 729q0 350 182.5 542.5t436.5 192.5q166 0 303 -88l51 88l102 -63l-55 -98q213 -207 213 -576q0 -199 -51 -349.5t-139 -237.5t-194.5 -129t-229.5 -42q-170 0 -312 80l-47 -80l-104 62l53 94q-209 199 -209 604zM344 729q0 -240 86 -379l471 828q-86 61 -190 61 q-158 0 -262.5 -130t-104.5 -380zM514 254q82 -61 197 -61q162 0 263 130t101 404q0 221 -90 354z" />
<glyph unicode="&#xd9;" horiz-adv-x="1345" d="M143 467v967h242v-955q0 -137 72.5 -211.5t214.5 -74.5q143 0 217 74.5t74 207.5v959h239v-967q0 -231 -144.5 -364.5t-385.5 -133.5q-240 0 -384.5 133.5t-144.5 364.5zM379 1821h256l164 -254h-197z" />
<glyph unicode="&#xda;" horiz-adv-x="1345" d="M143 467v967h242v-955q0 -137 72.5 -211.5t214.5 -74.5q143 0 217 74.5t74 207.5v959h239v-967q0 -231 -144.5 -364.5t-385.5 -133.5q-240 0 -384.5 133.5t-144.5 364.5zM596 1567l164 254h258l-225 -254h-197z" />
<glyph unicode="&#xdb;" horiz-adv-x="1345" d="M143 467v967h242v-955q0 -137 72.5 -211.5t214.5 -74.5q143 0 217 74.5t74 207.5v959h239v-967q0 -231 -144.5 -364.5t-385.5 -133.5q-240 0 -384.5 133.5t-144.5 364.5zM418 1628l137 176h258l139 -176l-127 -98l-141 180l-143 -180z" />
<glyph unicode="&#xdc;" horiz-adv-x="1345" d="M143 467v967h242v-955q0 -137 72.5 -211.5t214.5 -74.5q143 0 217 74.5t74 207.5v959h239v-967q0 -231 -144.5 -364.5t-385.5 -133.5q-240 0 -384.5 133.5t-144.5 364.5zM362 1567v219h230v-219h-230zM766 1567v219h227v-219h-227z" />
<glyph unicode="&#xdd;" horiz-adv-x="1196" d="M10 1434h258l328 -611h4l330 611h256l-469 -830v-604h-238v604zM520 1567l164 254h258l-225 -254h-197z" />
<glyph unicode="&#xde;" horiz-adv-x="1300" d="M174 0v1434h242v-238h315q240 0 379 -116.5t139 -340.5q0 -227 -133 -340.5t-385 -113.5h-315v-285h-242zM416 508h332q119 0 190.5 58.5t71.5 173t-72 174t-190 59.5h-332v-465z" />
<glyph unicode="&#xdf;" horiz-adv-x="1161" d="M133 0v983q0 238 126 359.5t323 121.5q186 0 305 -108.5t119 -284.5q0 -178 -164 -266v-4q90 -33 158.5 -124t68.5 -239q0 -215 -122 -326.5t-355 -111.5h-66v199h43q285 0 285 250q0 236 -238 235h-90v176h47q98 0 161 49t63 142q0 94 -59.5 150t-157.5 56 q-219 0 -220 -284v-973h-227z" />
<glyph unicode="&#xe0;" horiz-adv-x="1107" d="M82 287q0 139 84 213.5t285 124.5q180 45 235 74.5t55 86.5q0 55 -50 92t-148 37q-113 0 -165 -51t-77 -139l-199 76q35 139 145.5 227t289.5 88q197 0 317.5 -100.5t120.5 -313.5v-702h-199v109h-4q-8 -12 -24.5 -30t-52.5 -45.5t-96 -46t-134 -18.5q-190 0 -286.5 91.5 t-96.5 226.5zM254 1473h256l164 -254h-197zM307 303q0 -131 178 -131q131 0 198 53.5t67 128.5v217h-5q-8 -16 -21 -28.5t-69.5 -34.5t-156.5 -49q-115 -29 -153 -66t-38 -90z" />
<glyph unicode="&#xe1;" horiz-adv-x="1107" d="M82 287q0 139 84 213.5t285 124.5q180 45 235 74.5t55 86.5q0 55 -50 92t-148 37q-113 0 -165 -51t-77 -139l-199 76q35 139 145.5 227t289.5 88q197 0 317.5 -100.5t120.5 -313.5v-702h-199v109h-4q-8 -12 -24.5 -30t-52.5 -45.5t-96 -46t-134 -18.5q-190 0 -286.5 91.5 t-96.5 226.5zM307 303q0 -131 178 -131q131 0 198 53.5t67 128.5v217h-5q-8 -16 -21 -28.5t-69.5 -34.5t-156.5 -49q-115 -29 -153 -66t-38 -90zM418 1219l164 254h256l-224 -254h-196z" />
<glyph unicode="&#xe2;" horiz-adv-x="1107" d="M82 287q0 139 84 213.5t285 124.5q180 45 235 74.5t55 86.5q0 55 -50 92t-148 37q-113 0 -165 -51t-77 -139l-199 76q35 139 145.5 227t289.5 88q197 0 317.5 -100.5t120.5 -313.5v-702h-199v109h-4q-8 -12 -24.5 -30t-52.5 -45.5t-96 -46t-134 -18.5q-190 0 -286.5 91.5 t-96.5 226.5zM287 1288l137 176h258l139 -176l-127 -98l-141 180l-143 -180zM307 303q0 -131 178 -131q131 0 198 53.5t67 128.5v217h-5q-8 -16 -21 -28.5t-69.5 -34.5t-156.5 -49q-115 -29 -153 -66t-38 -90z" />
<glyph unicode="&#xe3;" horiz-adv-x="1107" d="M82 287q0 139 84 213.5t285 124.5q180 45 235 74.5t55 86.5q0 55 -50 92t-148 37q-113 0 -165 -51t-77 -139l-199 76q35 139 145.5 227t289.5 88q197 0 317.5 -100.5t120.5 -313.5v-702h-199v109h-4q-8 -12 -24.5 -30t-52.5 -45.5t-96 -46t-134 -18.5q-190 0 -286.5 91.5 t-96.5 226.5zM233 1227q37 215 199 215q68 0 144.5 -40t103.5 -40q57 0 74 70h120q-35 -215 -198 -215q-68 0 -145.5 39.5t-102.5 39.5q-58 1 -74 -69h-121zM307 303q0 -131 178 -131q131 0 198 53.5t67 128.5v217h-5q-8 -16 -21 -28.5t-69.5 -34.5t-156.5 -49 q-115 -29 -153 -66t-38 -90z" />
<glyph unicode="&#xe4;" horiz-adv-x="1107" d="M82 287q0 139 84 213.5t285 124.5q180 45 235 74.5t55 86.5q0 55 -50 92t-148 37q-113 0 -165 -51t-77 -139l-199 76q35 139 145.5 227t289.5 88q197 0 317.5 -100.5t120.5 -313.5v-702h-199v109h-4q-8 -12 -24.5 -30t-52.5 -45.5t-96 -46t-134 -18.5q-190 0 -286.5 91.5 t-96.5 226.5zM240 1229v219h229v-219h-229zM307 303q0 -131 178 -131q131 0 198 53.5t67 128.5v217h-5q-8 -16 -21 -28.5t-69.5 -34.5t-156.5 -49q-115 -29 -153 -66t-38 -90zM643 1229v219h227v-219h-227z" />
<glyph unicode="&#xe5;" horiz-adv-x="1107" d="M82 287q0 139 84 213.5t285 124.5q180 45 235 74.5t55 86.5q0 55 -50 92t-148 37q-113 0 -165 -51t-77 -139l-199 76q27 115 110 197.5t216 107.5q-86 61 -86 180q0 90 60.5 153.5t148.5 63.5q92 0 151.5 -62.5t59.5 -154.5q0 -125 -92 -184q139 -29 222 -128.5 t83 -271.5v-702h-199v109h-4q-8 -12 -24.5 -30t-52.5 -45.5t-96 -46t-134 -18.5q-190 0 -286.5 91.5t-96.5 226.5zM307 303q0 -131 178 -131q131 0 198 53.5t67 128.5v217h-5q-8 -16 -21 -28.5t-69.5 -34.5t-156.5 -49q-115 -29 -153 -66t-38 -90zM465 1288 q0 -51 25.5 -79.5t60.5 -28.5t62.5 28.5t27.5 79.5t-26.5 79t-63.5 28q-35 0 -60.5 -28t-25.5 -79z" />
<glyph unicode="&#xe6;" horiz-adv-x="1828" d="M82 289q0 131 81 208.5t288 127.5q172 41 231 72.5t59 88.5q0 55 -48 92t-150 37q-188 0 -242 -192l-199 78q31 137 145.5 226t289.5 89q250 0 362 -149h4q143 150 348 149q217 0 356.5 -155.5t139.5 -417.5v-70h-758q4 -135 75 -216t198 -81q66 0 115.5 20.5t84.5 60.5 t50.5 62.5t35.5 63.5l183 -121q-139 -293 -465 -293q-248 0 -392 185h-4q-111 -184 -383 -185q-205 0 -305 92.5t-100 227.5zM307 303q0 -131 178 -131q131 0 198 53.5t67 128.5v217h-5q-8 -16 -21 -28.5t-69.5 -34.5t-156.5 -49q-115 -29 -153 -67t-38 -89zM989 649h531 q-8 117 -76 188.5t-193 71.5q-117 0 -186.5 -78t-75.5 -182z" />
<glyph unicode="&#xe7;" horiz-adv-x="1116" d="M82 543q0 260 142.5 416.5t359.5 156.5q186 0 307 -111.5t141 -289.5l-219 -37q-35 227 -227 227q-125 0 -199 -95t-74 -267t72 -267.5t201 -95.5q190 0 227 252l231 -49q-31 -182 -135 -289.5t-274 -122.5l-57 -90l2 -2q45 31 112 31q66 0 120 -42t54 -114 q0 -92 -62.5 -144t-162.5 -52q-146 0 -242 96l80 96q68 -66 150 -65q100 0 100 73q0 29 -27.5 45.5t-62.5 16.5q-29 0 -54.5 -8.5t-37.5 -16.5l-12 -6l-91 49l80 135q-197 20 -319.5 170t-122.5 400z" />
<glyph unicode="&#xe8;" horiz-adv-x="1157" d="M82 543q0 260 141.5 416.5t358.5 156.5t355 -155.5t138 -417.5v-70h-758q4 -135 75 -216t196 -81q59 0 106 16.5t83 49t54 57t43 61.5l168 -137q-158 -254 -450 -254q-225 0 -367.5 157t-142.5 417zM291 1473h256l164 -254h-197zM319 649h529q-6 115 -73.5 187.5 t-192.5 72.5q-117 0 -187 -78t-76 -182z" />
<glyph unicode="&#xe9;" horiz-adv-x="1157" d="M82 543q0 260 141.5 416.5t358.5 156.5t355 -155.5t138 -417.5v-70h-758q4 -135 75 -216t196 -81q59 0 106 16.5t83 49t54 57t43 61.5l168 -137q-158 -254 -450 -254q-225 0 -367.5 157t-142.5 417zM319 649h529q-6 115 -73.5 187.5t-192.5 72.5q-117 0 -187 -78 t-76 -182zM502 1219l164 254h256l-224 -254h-196z" />
<glyph unicode="&#xea;" horiz-adv-x="1157" d="M82 543q0 260 141.5 416.5t358.5 156.5t355 -155.5t138 -417.5v-70h-758q4 -135 75 -216t196 -81q59 0 106 16.5t83 49t54 57t43 61.5l168 -137q-158 -254 -450 -254q-225 0 -367.5 157t-142.5 417zM319 649h529q-6 115 -73.5 187.5t-192.5 72.5q-117 0 -187 -78 t-76 -182zM334 1288l137 176h258l139 -176l-127 -98l-141 180l-143 -180z" />
<glyph unicode="&#xeb;" horiz-adv-x="1157" d="M82 543q0 260 141.5 416.5t358.5 156.5t355 -155.5t138 -417.5v-70h-758q4 -135 75 -216t196 -81q59 0 106 16.5t83 49t54 57t43 61.5l168 -137q-158 -254 -450 -254q-225 0 -367.5 157t-142.5 417zM285 1229v219h229v-219h-229zM319 649h529q-6 115 -73.5 187.5 t-192.5 72.5q-117 0 -187 -78t-76 -182zM688 1229v219h227v-219h-227z" />
<glyph unicode="&#xec;" horiz-adv-x="534" d="M-47 1473h256l164 -254h-197zM150 0v1085h231v-1085h-231z" />
<glyph unicode="&#xed;" horiz-adv-x="565" d="M154 0v1085h231v-1085h-231zM170 1219l164 254h256l-223 -254h-197z" />
<glyph unicode="&#xee;" horiz-adv-x="538" d="M2 1288l137 176h258l140 -176l-127 -98l-142 180l-143 -180zM154 0v1085h231v-1085h-231z" />
<glyph unicode="&#xef;" horiz-adv-x="546" d="M-43 1229v219h229v-219h-229zM133 0v1085h232v-1085h-232zM360 1229v219h228v-219h-228z" />
<glyph unicode="&#xf0;" horiz-adv-x="1167" d="M82 543q0 274 126 423.5t331 149.5q154 0 252 -86l4 2q-41 121 -144 271l-282 -78l-33 102l246 68q-90 113 -174 188v4h249q57 -61 117 -139l256 70l33 -103l-225 -61q115 -184 181 -393t66 -404q0 -281 -137 -434.5t-356 -153.5q-227 0 -368.5 150.5t-141.5 423.5z M313 543q0 -178 76 -267.5t203 -89.5q258 0 258 357q0 360 -270 360q-266 0 -267 -360z" />
<glyph unicode="&#xf1;" horiz-adv-x="1206" d="M154 0v1085h225v-104h4q45 57 125 96t168 39q180 0 283.5 -107.5t103.5 -297.5v-711h-232v649q0 252 -210 252q-106 0 -170 -61.5t-64 -165.5v-674h-233zM311 1227q37 215 199 215q68 0 144.5 -40t103.5 -40q57 0 73 70h121q-35 -215 -198 -215q-68 0 -146 39.5 t-102 39.5q-58 1 -74 -69h-121z" />
<glyph unicode="&#xf2;" horiz-adv-x="1167" d="M82 543q0 266 146.5 419.5t357.5 153.5t355 -153.5t144 -419.5q0 -270 -140 -422t-359 -152t-361.5 151.5t-142.5 422.5zM266 1473h256l164 -254h-197zM313 543q0 -176 75 -269.5t198 -93.5q121 0 195.5 95.5t74.5 267.5t-74.5 267t-195.5 95q-123 0 -198 -94t-75 -268z " />
<glyph unicode="&#xf3;" horiz-adv-x="1167" d="M82 543q0 266 146.5 419.5t357.5 153.5t355 -153.5t144 -419.5q0 -270 -140 -422t-359 -152t-361.5 151.5t-142.5 422.5zM313 543q0 -176 75 -269.5t198 -93.5q121 0 195.5 95.5t74.5 267.5t-74.5 267t-195.5 95q-123 0 -198 -94t-75 -268zM506 1219l164 254h256 l-224 -254h-196z" />
<glyph unicode="&#xf4;" horiz-adv-x="1167" d="M82 543q0 266 146.5 419.5t357.5 153.5t355 -153.5t144 -419.5q0 -270 -140 -422t-359 -152t-361.5 151.5t-142.5 422.5zM313 543q0 -176 75 -269.5t198 -93.5q121 0 195.5 95.5t74.5 267.5t-74.5 267t-195.5 95q-123 0 -198 -94t-75 -268zM324 1288l137 176h258 l139 -176l-127 -98l-141 180l-144 -180z" />
<glyph unicode="&#xf5;" horiz-adv-x="1167" d="M82 543q0 266 146.5 419.5t357.5 153.5t355 -153.5t144 -419.5q0 -270 -140 -422t-359 -152t-361.5 151.5t-142.5 422.5zM260 1227q35 215 199 215q68 0 144.5 -40t103.5 -40q57 0 73 70h121q-37 -215 -199 -215q-68 0 -145.5 39.5t-101.5 39.5q-58 1 -74 -69h-121z M313 543q0 -176 75 -269.5t198 -93.5q121 0 195.5 95.5t74.5 267.5t-74.5 267t-195.5 95q-123 0 -198 -94t-75 -268z" />
<glyph unicode="&#xf6;" horiz-adv-x="1167" d="M82 543q0 266 146.5 419.5t357.5 153.5t355 -153.5t144 -419.5q0 -270 -140 -422t-359 -152t-361.5 151.5t-142.5 422.5zM289 1229v219h229v-219h-229zM313 543q0 -176 75 -269.5t198 -93.5q121 0 195.5 95.5t74.5 267.5t-74.5 267t-195.5 95q-123 0 -198 -94t-75 -268z M692 1229v219h228v-219h-228z" />
<glyph unicode="&#xf7;" horiz-adv-x="970" d="M92 633v184h787v-184h-787zM309 279q0 76 51.5 127t122.5 51q76 0 127.5 -51.5t51.5 -126.5q0 -74 -51.5 -124.5t-127.5 -50.5q-72 0 -123 50.5t-51 124.5zM309 1161q0 74 51.5 125t122.5 51q76 0 127.5 -51t51.5 -125t-51.5 -125t-127.5 -51q-72 0 -123 51t-51 125z" />
<glyph unicode="&#xf8;" horiz-adv-x="1167" d="M82 543q0 266 146.5 419.5t357.5 153.5q168 0 301 -104l78 102l77 -65l-84 -107q127 -158 127 -399q0 -270 -140 -422t-359 -152q-178 0 -307 101l-76 -99l-78 64l84 104q-127 154 -127 404zM313 543q0 -129 41 -215l398 512q-70 66 -166 65q-121 0 -197 -94t-76 -268z M414 244q66 -63 172 -64q121 0 195.5 95.5t74.5 267.5q0 125 -45 211z" />
<glyph unicode="&#xf9;" horiz-adv-x="1177" d="M143 383v702h234v-675q0 -121 44 -169t146.5 -48t163 57t60.5 176v659h233v-1085h-225v104h-4q-96 -135 -281 -135q-186 0 -278.5 108.5t-92.5 305.5zM266 1473h256l164 -254h-197z" />
<glyph unicode="&#xfa;" horiz-adv-x="1177" d="M143 383v702h234v-675q0 -121 44 -169t146.5 -48t163 57t60.5 176v659h233v-1085h-225v104h-4q-96 -135 -281 -135q-186 0 -278.5 108.5t-92.5 305.5zM485 1219l164 254h256l-223 -254h-197z" />
<glyph unicode="&#xfb;" horiz-adv-x="1177" d="M143 383v702h234v-675q0 -121 44 -169t146.5 -48t163 57t60.5 176v659h233v-1085h-225v104h-4q-96 -135 -281 -135q-186 0 -278.5 108.5t-92.5 305.5zM319 1288l138 176h258l139 -176l-127 -98l-141 180l-144 -180z" />
<glyph unicode="&#xfc;" horiz-adv-x="1177" d="M143 383v702h234v-675q0 -121 44 -169t146.5 -48t163 57t60.5 176v659h233v-1085h-225v104h-4q-96 -135 -281 -135q-186 0 -278.5 108.5t-92.5 305.5zM283 1229v219h229v-219h-229zM686 1229v219h227v-219h-227z" />
<glyph unicode="&#xfd;" horiz-adv-x="1101" d="M20 1085h246l285 -747h4l285 747h241l-618 -1546h-225l204 510zM461 1219l164 254h256l-224 -254h-196z" />
<glyph unicode="&#xfe;" horiz-adv-x="1241" d="M154 -461v1956h227v-506h4q111 127 297 127q197 0 337 -155.5t140 -417.5q0 -260 -142.5 -417t-332.5 -157q-199 0 -293 119h-4v-549h-233zM387 408q0 -94 69.5 -159t180.5 -65q133 0 211 92.5t78 266.5t-79 266t-210 92q-113 0 -181.5 -67.5t-68.5 -163.5v-262z" />
<glyph unicode="&#xff;" horiz-adv-x="1101" d="M20 1085h246l285 -747h4l285 747h241l-618 -1546h-225l204 510zM231 1229v219h230v-219h-230zM635 1229v219h227v-219h-227z" />
<glyph unicode="&#x152;" horiz-adv-x="2037" d="M92 729q0 350 179.5 542.5t433.5 192.5q207 0 323 -112v82h887v-224h-643v-350h586v-213h-586v-424h643v-223h-887v82q-117 -113 -323 -113q-123 0 -229.5 43t-193.5 130t-138.5 237.5t-51.5 349.5zM352 729q0 -537 369 -536q211 0 307 141v758q-102 147 -307 147 q-166 0 -267.5 -126t-101.5 -384z" />
<glyph unicode="&#x153;" horiz-adv-x="1921" d="M82 543q0 266 146.5 419.5t357.5 153.5q246 0 383 -209q133 209 379 209q219 0 355 -151.5t136 -421.5v-70h-749q4 -135 74.5 -216t197.5 -81q203 0 291 201l176 -103q-51 -131 -172 -218t-291 -87q-258 0 -393 209q-131 -209 -387 -209q-219 0 -361.5 151.5 t-142.5 422.5zM313 543q0 -176 75 -269.5t198 -93.5q121 0 195.5 95.5t74.5 267.5t-75.5 267t-194.5 95q-121 0 -197 -94t-76 -268zM1090 651h528q0 106 -71.5 184t-198.5 78q-125 0 -191.5 -79t-66.5 -183z" />
<glyph unicode="&#x178;" horiz-adv-x="1196" d="M10 1434h258l328 -611h4l330 611h256l-469 -830v-604h-238v604zM289 1567v219h229v-219h-229zM692 1567v219h228v-219h-228z" />
<glyph unicode="&#x2c6;" horiz-adv-x="636" d="M51 1288l137 176h258l140 -176l-127 -98l-142 180l-143 -180z" />
<glyph unicode="&#x2dc;" horiz-adv-x="825" d="M92 1227q35 215 199 215q68 0 144.5 -40t103.5 -40q57 0 73 70h121q-37 -215 -198 -215q-68 0 -146 39.5t-102 39.5q-58 1 -74 -69h-121z" />
<glyph unicode="&#x2000;" horiz-adv-x="926" />
<glyph unicode="&#x2001;" horiz-adv-x="1853" />
<glyph unicode="&#x2002;" horiz-adv-x="926" />
<glyph unicode="&#x2003;" horiz-adv-x="1853" />
<glyph unicode="&#x2004;" horiz-adv-x="617" />
<glyph unicode="&#x2005;" horiz-adv-x="463" />
<glyph unicode="&#x2006;" horiz-adv-x="308" />
<glyph unicode="&#x2007;" horiz-adv-x="308" />
<glyph unicode="&#x2008;" horiz-adv-x="231" />
<glyph unicode="&#x2009;" horiz-adv-x="370" />
<glyph unicode="&#x200a;" horiz-adv-x="102" />
<glyph unicode="&#x2010;" horiz-adv-x="858" d="M92 588v186h674v-186h-674z" />
<glyph unicode="&#x2011;" horiz-adv-x="858" d="M92 588v186h674v-186h-674z" />
<glyph unicode="&#x2012;" horiz-adv-x="858" d="M92 588v186h674v-186h-674z" />
<glyph unicode="&#x2013;" horiz-adv-x="1206" d="M92 573v201h1022v-201h-1022z" />
<glyph unicode="&#x2014;" horiz-adv-x="2004" d="M195 573v201h1615v-201h-1615z" />
<glyph unicode="&#x2018;" horiz-adv-x="632" d="M154 1194v240h284v-273h-100q0 -63 18.5 -92t81.5 -39v-125q-285 23 -284 289z" />
<glyph unicode="&#x2019;" horiz-adv-x="632" d="M174 905v125q63 10 81.5 39t18.5 92h-100v273h285v-240q0 -266 -285 -289z" />
<glyph unicode="&#x201a;" horiz-adv-x="632" d="M164 0v272h285v-239q0 -266 -285 -289v125q63 10 81.5 39t18.5 92h-100z" />
<glyph unicode="&#x201c;" horiz-adv-x="1042" d="M154 1194v240h284v-273h-100q0 -63 18.5 -92t81.5 -39v-125q-285 23 -284 289zM563 1194v240h285v-273h-100q0 -63 18.5 -92t81.5 -39v-125q-285 23 -285 289z" />
<glyph unicode="&#x201d;" horiz-adv-x="1042" d="M164 905v125q63 10 81.5 39t18.5 92h-100v273h285v-240q0 -266 -285 -289zM573 905v125q63 10 82 39t19 92h-101v273h285v-240q0 -266 -285 -289z" />
<glyph unicode="&#x201e;" horiz-adv-x="1042" d="M174 0v272h285v-239q0 -266 -285 -289v125q63 10 81.5 39t18.5 92h-100zM584 0v272h284v-239q1 -266 -284 -289v125q63 10 81.5 39t18.5 92h-100z" />
<glyph unicode="&#x2022;" horiz-adv-x="661" d="M102 690q0 102 62.5 168t165 66t166 -65.5t63.5 -168.5q0 -100 -63.5 -164.5t-166 -64.5t-165 64.5t-62.5 164.5z" />
<glyph unicode="&#x2026;" horiz-adv-x="1789" d="M174 0v272h285v-272h-285zM756 0v272h282v-272h-282zM1333 0v272h283v-272h-283z" />
<glyph unicode="&#x202f;" horiz-adv-x="370" />
<glyph unicode="&#x2039;" horiz-adv-x="770" d="M174 575l223 381h205l-223 -381l237 -401h-204z" />
<glyph unicode="&#x203a;" horiz-adv-x="770" d="M143 174l238 401l-223 381h204l224 -381l-238 -401h-205z" />
<glyph unicode="&#x205f;" horiz-adv-x="463" />
<glyph unicode="&#x20ac;" horiz-adv-x="1570" d="M133 463v170h141q-2 31 -2 96v53h-139v170h162q55 248 220 380t374 132q223 0 376.5 -140t180.5 -370l-242 -36q-16 139 -93 235t-220 96q-121 0 -218.5 -75.5t-131.5 -221.5h381v-170h-408v-57q0 -35 4 -92h404v-170h-373q39 -137 131 -208t211 -71q147 0 228 104.5 t93 270.5l246 -49q-25 -242 -176.5 -391.5t-390.5 -149.5q-219 0 -377 123t-215 371h-166z" />
<glyph unicode="&#x2122;" horiz-adv-x="1552" d="M92 1294v140h529v-140h-189v-555h-147v555h-193zM723 739v695h160l221 -494h4l219 494h164v-695h-143v435h-5l-190 -435h-94l-191 424h-4v-424h-141z" />
<glyph unicode="&#x25fc;" horiz-adv-x="1085" d="M0 0v1085h1085v-1085h-1085z" />
</font>
</defs>
</svg>
